# Blender 4.1.1
# www.blender.org
mtllib playerHead.mtl
o feice
v 0.000000 2.788526 -0.749960
v 0.000000 1.297673 -0.674981
v 0.000000 1.166569 -0.530329
v 0.109461 3.077037 -0.150660
v 0.214715 3.017046 -0.295530
v 0.311719 2.919630 -0.429046
v 0.396744 2.788526 -0.546071
v 0.466521 2.628776 -0.642110
v 0.518371 2.446522 -0.713476
v 0.550300 2.248762 -0.757422
v 0.561079 1.723962 -0.974308
v 0.550300 1.837435 -0.757422
v 0.518371 1.639677 -0.713476
v 0.466521 1.453250 -0.642110
v 0.396744 1.297673 -0.546070
v 0.311719 1.166569 -0.429045
v 0.214715 1.069150 -0.295530
v 0.177113 3.077037 -0.057547
v 0.347417 3.017046 -0.112883
v 0.504372 2.919630 -0.163880
v 0.655385 2.816389 -0.208581
v 0.768287 2.656640 -0.245264
v 0.852180 2.474385 -0.272523
v 0.890402 2.248762 -0.289309
v 0.907847 2.043099 -0.053317
v 0.890402 1.832218 -0.114168
v 0.772479 1.640279 -0.107544
v 0.686766 1.467229 -0.096788
v 0.608361 1.256139 -0.208581
v 0.504372 1.166569 -0.163880
v 0.347417 1.069150 -0.112883
v 0.000000 1.003681 -0.099152
v 0.177113 3.077037 0.057546
v 0.347417 3.017046 0.112882
v 0.504372 2.919630 0.163880
v 0.655385 2.816389 0.208581
v 0.768287 2.656640 0.245264
v 0.852180 2.474385 0.272523
v 0.890402 2.248762 0.289309
v 0.907847 2.043099 0.294978
v 0.890402 1.832218 0.114168
v 0.772479 1.640279 0.107544
v 0.686766 1.467229 0.096788
v 0.608361 1.256139 0.208581
v 0.504372 1.166569 0.163880
v 0.347417 1.069150 0.112882
v -0.058280 1.003681 -0.080216
v 0.109461 3.077037 0.150659
v 0.214715 3.017046 0.295530
v 0.311719 2.919630 0.429045
v 0.396744 2.788526 0.546070
v 0.466521 2.628776 0.642109
v 0.518371 2.446522 0.713476
v 0.550300 2.248762 0.757421
v 0.561081 2.043099 0.722444
v 0.550300 1.837435 0.707605
v 0.518371 1.639677 0.625323
v 0.466521 1.457420 0.642110
v 0.396744 1.297673 0.546070
v 0.311719 1.166569 0.429045
v 0.214715 1.069150 0.295530
v 0.058280 1.003681 0.080215
v 0.000000 3.077037 0.186225
v 0.000000 3.017046 0.365297
v 0.000000 2.919630 0.530328
v 0.000000 2.788526 0.674980
v 0.000000 2.628776 0.793691
v 0.000000 2.446522 0.863963
v 0.000000 2.248762 0.901477
v 0.000000 2.043099 0.842396
v 0.000000 1.837435 0.764650
v 0.000000 1.639677 0.664876
v 0.000000 1.500291 0.829897
v 0.000000 1.297673 0.772387
v 0.000000 1.166569 0.688614
v 0.000000 1.069150 0.365297
v 0.094301 1.003681 0.030641
v 0.000000 3.097292 -0.000000
v -0.109461 3.077037 0.150659
v -0.214715 3.017046 0.295530
v -0.311719 2.919630 0.429045
v -0.396744 2.788526 0.546070
v -0.466521 2.628776 0.642109
v -0.518371 2.446522 0.713476
v -0.550300 2.248762 0.757421
v -0.561079 2.043099 0.722444
v -0.550300 1.837435 0.707605
v -0.518371 1.639677 0.625323
v -0.466521 1.457420 0.642110
v -0.396744 1.297673 0.546070
v -0.311719 1.166569 0.429045
v -0.214715 1.069150 0.295530
v 0.094301 1.003681 -0.030641
v -0.094301 1.003681 -0.030641
v -0.177113 3.077037 0.057546
v -0.347417 3.017046 0.112882
v -0.504372 2.919630 0.163880
v -0.669689 2.818055 0.208581
v -0.782592 2.658306 0.245264
v -0.866485 2.476051 0.272523
v -0.918146 2.278291 0.289309
v -0.907847 2.043099 0.294978
v -0.890402 1.836908 0.114168
v -0.777025 1.639677 0.107544
v -0.709592 1.479765 0.096788
v -0.616300 1.261907 0.208581
v -0.562280 1.180585 0.163880
v -0.347417 1.069150 0.112882
v 0.058280 1.003681 -0.080216
v -0.177113 3.077037 -0.057547
v -0.347417 3.017046 -0.112883
v -0.504372 2.919630 -0.163880
v -0.669689 2.818055 -0.208581
v -0.782592 2.658306 -0.245264
v -0.866485 2.476051 -0.272523
v -0.918146 2.278291 -0.289309
v -0.907847 2.043099 -0.053317
v -0.890402 1.836908 -0.114168
v -0.777025 1.639677 -0.107544
v -0.709592 1.479765 -0.096788
v -0.616300 1.261907 -0.208581
v -0.562280 1.180585 -0.163880
v -0.347417 1.069150 -0.112883
v -0.094301 1.003681 0.030641
v -0.109461 3.077037 -0.150660
v -0.214715 3.017046 -0.295530
v -0.311719 2.919630 -0.429046
v -0.396744 2.788526 -0.546071
v -0.466521 2.628776 -0.642110
v -0.518371 2.446522 -0.713476
v -0.550300 2.248762 -0.757422
v -0.561081 1.723962 -0.974308
v -0.550300 1.837435 -0.757422
v -0.518371 1.639677 -0.713476
v -0.466521 1.453253 -0.642110
v -0.396744 1.297673 -0.546070
v -0.311719 1.166569 -0.429045
v -0.214715 1.069150 -0.295530
v -0.058280 1.003681 0.080215
v 0.000000 3.077037 -0.186226
v 0.000000 3.017046 -0.365298
v 0.000000 2.919630 -0.605310
v 0.000000 2.628776 -0.868673
v 0.000000 2.446522 -0.956885
v 0.000000 2.248762 -1.011204
v 0.000000 1.723962 -1.191162
v 0.000000 1.837435 -0.936225
v 0.000000 1.639677 -0.881904
v 0.000000 1.457420 -0.793692
v 0.000000 1.069150 -0.365298
v 0.000000 1.003681 0.099152
v 0.000000 0.890881 -0.099152
v -0.058280 0.890881 -0.080216
v 0.058280 0.890881 0.080215
v 0.094301 0.890881 0.030641
v 0.094301 0.890881 -0.030641
v -0.094301 0.890881 -0.030641
v 0.058280 0.890881 -0.080216
v -0.094301 0.890881 0.030641
v -0.058280 0.890881 0.080215
v 0.000000 0.890881 0.099152
v 0.930725 1.714952 -0.114168
v 0.895450 1.586969 -0.107544
v 0.785290 1.433192 -0.096788
v 0.930725 1.714952 0.114168
v 0.895450 1.586969 0.107544
v 0.785290 1.433192 0.096788
v -0.961458 1.698022 0.114168
v -0.925359 1.570596 0.107544
v -0.796339 1.465093 0.096788
v -0.961458 1.698022 -0.114168
v -0.925359 1.570596 -0.107544
v -0.796339 1.465093 -0.096788
v 0.561079 0.972951 -0.772261
v 0.907847 1.432724 -0.294978
v -0.907847 1.432724 -0.294978
v -0.561081 0.972951 -0.772261
v 0.000000 0.972951 -1.426150
vn 0.0007 -0.6626 -0.7490
vn 0.3477 -0.7977 -0.4928
vn -0.0000 -0.7948 -0.6068
vn -0.0007 0.5090 -0.8608
vn 0.5931 0.3384 -0.7305
vn -0.0000 0.3446 -0.9387
vn 0.0017 -0.9154 -0.4025
vn 0.2372 -0.9150 -0.3265
vn 0.6685 0.2320 -0.7066
vn -0.0000 0.2966 -0.9550
vn -0.0000 0.1906 -0.9817
vn 0.6559 0.0938 -0.7490
vn -0.0000 0.9721 -0.2347
vn -0.0000 1.0000 -0.0000
vn 0.1381 0.9720 -0.1901
vn -0.0000 -0.9592 -0.2826
vn -0.1516 -0.8903 0.4293
vn 0.1984 -0.9766 -0.0831
vn 0.2549 0.9013 -0.3501
vn -0.0000 0.9256 -0.3785
vn 0.0010 -0.3457 -0.9383
vn 0.6363 -0.3383 -0.6933
vn 0.3900 0.8040 -0.4488
vn -0.0000 0.8254 -0.5646
vn 0.0016 -0.5086 -0.8610
vn 0.5799 -0.4839 -0.6555
vn 0.4738 0.6645 -0.5779
vn -0.0000 0.6611 -0.7503
vn 0.4362 -0.6671 -0.6039
vn 0.5378 0.5079 -0.6729
vn 0.5089 0.8401 -0.1875
vn 0.6610 0.7086 -0.2471
vn 0.8096 -0.5277 -0.2571
vn 0.8099 0.5107 -0.2885
vn 0.5507 -0.8168 -0.1719
vn 0.9015 0.3040 -0.3080
vn 0.3838 -0.9150 -0.1247
vn 0.9190 -0.1050 -0.3800
vn 0.9979 -0.0253 -0.0592
vn 0.2235 0.9720 -0.0726
vn 0.9167 -0.0238 -0.3990
vn 0.4120 0.9013 -0.1339
vn 0.4874 -0.2940 -0.8222
vn 0.6948 -0.5861 -0.4167
vn 0.9285 -0.1108 0.3545
vn 0.2232 0.9721 0.0725
vn 0.9378 -0.1235 0.3244
vn 0.4121 0.9013 0.1339
vn 0.2446 -0.7500 0.6146
vn 0.6997 -0.5544 0.4506
vn 0.5089 0.8402 0.1873
vn 0.2817 -0.7881 -0.5473
vn 0.6610 0.7086 0.2470
vn 0.8096 -0.5272 0.2580
vn 0.8099 0.5107 0.2885
vn 0.5507 -0.8168 0.1719
vn 0.9015 0.3040 0.3081
vn 0.3838 -0.9150 0.1247
vn 0.9374 0.1299 0.3230
vn 0.5901 -0.2319 0.7733
vn 0.5217 -0.6437 0.5600
vn 0.4209 0.6653 0.6166
vn 0.4840 0.5032 0.7159
vn 0.4065 -0.8137 0.4157
vn 0.5287 0.3346 0.7800
vn 0.2374 -0.9151 0.3258
vn 0.5425 0.0645 0.8376
vn 0.5280 -0.1061 0.8426
vn 0.1381 0.9720 0.1901
vn 0.4867 -0.2612 0.8336
vn 0.2547 0.9013 0.3505
vn 0.5856 -0.3082 0.7497
vn 0.4711 -0.3095 0.8260
vn 0.3561 0.7949 0.4912
vn -0.0000 -0.3649 0.9311
vn -0.0000 0.9721 0.2347
vn -0.0000 0.9012 0.4333
vn -0.0000 0.1116 0.9938
vn -0.0000 0.7948 0.6068
vn 0.0005 0.2803 0.9599
vn -0.0000 0.6612 0.7502
vn -0.0002 -0.4364 0.8997
vn -0.0000 0.4699 0.8827
vn -0.0001 -0.7576 0.6527
vn -0.0000 0.2776 0.9607
vn -0.0000 -0.9503 0.3112
vn -0.0000 -0.0367 0.9993
vn 0.7162 -0.6580 0.2327
vn -0.0000 -0.3003 0.9538
vn -0.5197 -0.6449 0.5604
vn -0.4026 -0.8128 0.4210
vn -0.4758 0.5031 0.7215
vn -0.5138 0.3392 0.7880
vn -0.2372 -0.9152 0.3257
vn -0.5260 0.0613 0.8482
vn -0.0000 -0.6582 -0.7529
vn -0.5208 -0.1135 0.8461
vn -0.1381 0.9720 0.1901
vn -0.4874 -0.2615 0.8331
vn -0.2546 0.9013 0.3504
vn -0.5833 -0.2998 0.7549
vn -0.3560 0.7950 0.4912
vn -0.5812 -0.2338 0.7794
vn -0.4135 0.6670 0.6198
vn -0.2235 0.9720 0.0726
vn -0.4120 0.9013 0.1339
vn -0.9326 -0.0902 0.3495
vn -0.4811 -0.2905 0.8271
vn -0.4885 0.8520 0.1884
vn -0.7104 -0.5568 0.4305
vn -0.6463 0.7201 0.2526
vn -0.8268 -0.4776 0.2972
vn -0.8063 0.5106 0.2986
vn -0.6343 -0.7468 0.1998
vn -0.8831 0.3464 0.3164
vn -0.3510 -0.9275 0.1285
vn -0.9387 0.1123 0.3260
vn 0.7161 -0.6581 -0.2327
vn -0.9186 -0.1732 0.3552
vn -0.7160 -0.6581 0.2327
vn -0.4427 -0.6578 0.6093
vn -0.8831 0.3464 -0.3164
vn -0.3510 -0.9275 -0.1285
vn -0.9217 -0.0768 -0.3801
vn -0.0000 -0.6582 0.7529
vn 0.3989 -0.6883 0.6059
vn -0.9924 -0.1031 -0.0669
vn -0.2232 0.9721 -0.0725
vn -0.9061 0.0131 -0.4230
vn -0.4121 0.9013 -0.1339
vn -0.1879 -0.7454 0.6395
vn -0.4886 0.8520 -0.1884
vn -0.1877 -0.7443 -0.6409
vn -0.7101 -0.5689 -0.4147
vn -0.6463 0.7201 -0.2525
vn -0.8267 -0.4781 -0.2966
vn -0.8059 0.5124 -0.2967
vn -0.6305 -0.7481 -0.2070
vn -0.4963 -0.2826 -0.8209
vn -0.1987 -0.9764 -0.0849
vn -0.6341 -0.3385 -0.6952
vn -0.2549 0.9014 -0.3501
vn -0.3898 0.8041 -0.4488
vn -0.5757 -0.4831 -0.6597
vn -0.4666 0.6665 -0.5815
vn -0.4360 -0.6629 -0.6086
vn -0.5311 0.5071 -0.6788
vn -0.3437 -0.7963 -0.4978
vn -0.5790 0.3433 -0.7395
vn -0.2370 -0.9150 -0.3265
vn -0.6612 0.2243 -0.7159
vn -0.4427 -0.6578 -0.6093
vn -0.6553 0.0940 -0.7495
vn -0.1381 0.9720 -0.1901
vn -0.6790 -0.6883 -0.2556
vn 0.4530 -0.6883 -0.5666
vn 0.1766 -0.8821 0.4366
vn 0.5878 -0.0000 -0.8090
vn -0.5878 -0.0000 -0.8090
vn -0.9510 -0.0000 0.3090
vn 0.5878 -0.0000 0.8090
vn 0.9511 -0.0000 0.3090
vn -0.0000 -0.0000 -1.0000
vn -0.5878 -0.0000 0.8090
vn -0.9511 -0.0000 -0.3090
vn -0.0000 -0.0000 1.0000
vn 0.9510 -0.0000 -0.3090
vn 0.7529 0.0076 -0.6581
vn 0.6533 -0.3444 0.6742
vn 0.6605 -0.3511 -0.6637
vn 0.7455 0.0095 0.6664
vn -0.7618 0.0578 0.6452
vn -0.6205 -0.4339 -0.6533
vn -0.6299 -0.4506 0.6326
vn -0.7546 0.0614 -0.6533
vn 0.1423 -0.0299 -0.9894
vn -0.7416 0.0543 0.6686
vn 0.6827 -0.3917 -0.6168
vn -0.8969 -0.0405 0.4404
vn 0.9983 -0.0105 -0.0573
vn -0.7802 -0.2614 -0.5683
vn -0.0874 -0.1517 0.9846
vn 0.8969 -0.0405 0.4404
vn 0.8055 0.1554 0.5719
vn -0.0000 -0.9122 0.4098
vn -0.9928 -0.0793 -0.0899
vt 0.314679 0.297889
vt 0.359347 0.357200
vt 0.312138 0.334585
vt 0.307282 0.786478
vt 0.444590 0.760342
vt 0.307092 0.836451
vt 0.310722 0.363685
vt 0.338827 0.375315
vt 0.499484 0.800509
vt 0.306860 0.899918
vt 0.306400 0.999872
vt 0.580212 0.849435
vt 0.307718 0.654497
vt 0.307728 0.634644
vt 0.319781 0.649802
vt 0.326499 0.109977
vt 0.631884 0.200275
vt 0.536499 0.249871
vt 0.333837 0.665988
vt 0.307671 0.677239
vt 0.319099 0.193280
vt 0.467546 0.281661
vt 0.351648 0.684044
vt 0.307549 0.713556
vt 0.316550 0.252176
vt 0.420378 0.313148
vt 0.375324 0.704859
vt 0.307429 0.746358
vt 0.384912 0.337376
vt 0.404956 0.729624
vt 0.367526 0.643366
vt 0.390876 0.640870
vt 0.392534 0.400344
vt 0.420233 0.636349
vt 0.373476 0.400940
vt 0.457814 0.625853
vt 0.350511 0.401017
vt 0.520988 0.598132
vt 0.595185 0.539905
vt 0.325851 0.639190
vt 0.480257 0.482750
vt 0.345662 0.642555
vt 0.452251 0.437470
vt 0.419274 0.427855
vt 0.404325 0.526019
vt 0.324384 0.627990
vt 0.427115 0.497856
vt 0.340034 0.620035
vt 0.412404 0.455986
vt 0.400657 0.452612
vt 0.354985 0.610313
vt 0.425483 0.443664
vt 0.368822 0.599363
vt 0.370269 0.447013
vt 0.381325 0.585396
vt 0.359507 0.436496
vt 0.392142 0.568863
vt 0.344319 0.425018
vt 0.400173 0.547220
vt 0.343186 0.482398
vt 0.339490 0.467821
vt 0.337879 0.579555
vt 0.342271 0.565914
vt 0.334778 0.453186
vt 0.345475 0.552172
vt 0.328317 0.438835
vt 0.347318 0.538366
vt 0.348364 0.524453
vt 0.317409 0.620251
vt 0.348191 0.510317
vt 0.325477 0.606447
vt 0.347692 0.494847
vt 0.406980 0.474896
vt 0.332183 0.592889
vt 0.308572 0.510794
vt 0.307826 0.617409
vt 0.307815 0.601948
vt 0.308823 0.496985
vt 0.307824 0.587725
vt 0.309087 0.483515
vt 0.307888 0.574385
vt 0.309257 0.473709
vt 0.308039 0.561594
vt 0.309435 0.464871
vt 0.308104 0.549548
vt 0.309889 0.442614
vt 0.308208 0.537299
vt 0.320005 0.411789
vt 0.308363 0.524714
vt 0.279126 0.466745
vt 0.284396 0.452285
vt 0.273426 0.565460
vt 0.270347 0.551565
vt 0.291638 0.438228
vt 0.268539 0.537442
vt 0.310321 0.397020
vt 0.268257 0.523309
vt 0.298109 0.619979
vt 0.268761 0.509268
vt 0.290060 0.606085
vt 0.269819 0.493811
vt 0.283420 0.592529
vt 0.274851 0.481222
vt 0.277774 0.579147
vt 0.290962 0.627787
vt 0.275322 0.619619
vt 0.188292 0.491663
vt 0.209510 0.470774
vt 0.260592 0.609663
vt 0.216640 0.451721
vt 0.245653 0.598379
vt 0.247974 0.444642
vt 0.233160 0.584304
vt 0.254936 0.435939
vt 0.222202 0.567623
vt 0.276263 0.423746
vt 0.213952 0.548123
vt 0.320695 0.405359
vt 0.211295 0.522994
vt 0.300729 0.412121
vt 0.304913 0.416613
vt 0.157841 0.623796
vt 0.270447 0.399743
vt 0.106885 0.600882
vt 0.310488 0.418394
vt 0.316135 0.416525
vt 0.000128 0.528948
vt 0.289629 0.639080
vt 0.131655 0.476415
vt 0.269983 0.642273
vt 0.205981 0.454509
vt 0.248045 0.642956
vt 0.194497 0.437945
vt 0.201040 0.426453
vt 0.223621 0.639434
vt 0.227037 0.397576
vt 0.194682 0.634585
vt 0.240977 0.400936
vt 0.171074 0.428832
vt 0.094293 0.223008
vt 0.164496 0.270153
vt 0.281579 0.665778
vt 0.263598 0.683689
vt 0.208305 0.305743
vt 0.239697 0.704377
vt 0.240987 0.332801
vt 0.209890 0.728936
vt 0.264343 0.355628
vt 0.170137 0.759297
vt 0.283072 0.375197
vt 0.114582 0.799010
vt 0.303506 0.399499
vt 0.037769 0.848200
vt 0.295655 0.649733
vt 0.299931 0.405547
vt 0.317078 0.399488
vt 0.000128 0.158607
vt 0.312430 0.405750
vt 0.308592 0.405568
vt 0.307426 0.409273
vt 0.312124 0.411124
vt 0.313275 0.409586
vt 0.310564 0.404983
vt 0.308624 0.410918
vt 0.307388 0.407242
vt 0.310376 0.411604
vt 0.313353 0.407495
vt 0.452673 0.468184
vt 0.420810 0.469181
vt 0.439856 0.456537
vt 0.426084 0.480388
vt 0.189462 0.471735
vt 0.182054 0.450037
vt 0.195609 0.462535
vt 0.171498 0.457721
vt 0.632140 0.248207
vt 0.833898 0.373451
vt 0.632140 0.373451
vt 0.747216 0.496285
vt 0.632140 0.496285
vt 0.632140 0.122963
vt 0.833898 0.248207
vt 0.747216 0.000128
vt 0.833898 0.122963
vt 0.334011 0.000128
vt 0.632140 0.000128
s 1
usemtl マテリアル.007
f 2/1/1 16/2/2 3/3/3
f 143/4/4 9/5/5 144/6/6
f 150/7/7 16/2/2 17/8/8
f 144/6/6 10/9/9 145/10/10
f 146/11/11 10/9/9 11/12/12
f 140/13/13 78/14/14 4/15/15
f 147/16/16 11/17/17 12/18/18
f 140/13/13 5/19/19 141/20/20
f 148/21/21 12/18/18 13/22/22
f 141/20/20 6/23/23 142/24/24
f 149/25/25 13/22/22 14/26/26
f 142/24/24 7/27/27 1/28/28
f 2/1/1 14/26/26 15/29/29
f 1/28/28 8/30/30 143/4/4
f 7/27/27 20/31/31 21/32/32
f 14/26/26 29/33/33 15/29/29
f 7/27/27 22/34/34 8/30/30
f 16/2/2 29/33/33 30/35/35
f 8/30/30 23/36/36 9/5/5
f 17/8/8 30/35/35 31/37/37
f 9/5/5 24/38/38 10/9/9
f 10/9/9 25/39/39 11/12/12
f 4/15/15 78/14/14 18/40/40
f 12/18/18 25/39/39 26/41/41
f 5/19/19 18/40/40 19/42/42
f 12/18/18 27/43/43 13/22/22
f 5/19/19 20/31/31 6/23/23
f 14/26/26 27/43/43 28/44/44
f 24/38/38 40/45/45 25/39/39
f 18/40/40 78/14/14 33/46/46
f 25/39/39 41/47/47 26/41/41
f 18/40/40 34/48/48 19/42/42
f 28/44/44 167/49/49 43/50/50
f 19/42/42 35/51/51 20/31/31
f 27/43/43 164/52/52 28/44/44
f 20/31/31 36/53/53 21/32/32
f 28/44/44 44/54/54 29/33/33
f 21/32/32 37/55/55 22/34/34
f 29/33/33 45/56/56 30/35/35
f 22/34/34 38/57/57 23/36/36
f 30/35/35 46/58/58 31/37/37
f 23/36/36 39/59/59 24/38/38
f 44/54/54 58/60/60 59/61/61
f 37/55/55 51/62/62 52/63/63
f 44/54/54 60/64/64 45/56/56
f 38/57/57 52/63/63 53/65/65
f 45/56/56 61/66/66 46/58/58
f 39/59/59 53/65/65 54/67/67
f 39/59/59 55/68/68 40/45/45
f 33/46/46 78/14/14 48/69/69
f 40/45/45 56/70/70 41/47/47
f 33/46/46 49/71/71 34/48/48
f 41/47/47 57/72/72 42/73/73
f 35/51/51 49/71/71 50/74/74
f 43/50/50 57/72/72 58/60/60
f 35/51/51 51/62/62 36/53/53
f 55/68/68 71/75/75 56/70/70
f 49/71/71 63/76/76 64/77/77
f 57/72/72 71/75/75 72/78/78
f 50/74/74 64/77/77 65/79/79
f 58/60/60 72/78/78 73/80/80
f 50/74/74 66/81/81 51/62/62
f 58/60/60 74/82/82 59/61/61
f 51/62/62 67/83/83 52/63/63
f 59/61/61 75/84/84 60/64/64
f 52/63/63 68/85/85 53/65/65
f 60/64/64 76/86/86 61/66/66
f 53/65/65 69/87/87 54/67/67
f 61/66/66 77/88/88 46/58/58
f 54/67/67 70/89/89 55/68/68
f 48/69/69 78/14/14 63/76/76
f 75/84/84 90/90/90 91/91/91
f 68/85/85 83/92/92 84/93/93
f 76/86/86 91/91/91 92/94/94
f 69/87/87 84/93/93 85/95/95
f 17/8/8 32/96/96 150/7/7
f 70/89/89 85/95/95 86/97/97
f 63/76/76 78/14/14 79/98/98
f 71/75/75 86/97/97 87/99/99
f 63/76/76 80/100/100 64/77/77
f 71/75/75 88/101/101 72/78/78
f 64/77/77 81/102/102 65/79/79
f 72/78/78 89/103/103 73/80/80
f 66/81/81 81/102/102 82/104/104
f 74/82/82 89/103/103 90/90/90
f 67/83/83 82/104/104 83/92/92
f 80/100/100 95/105/105 96/106/106
f 88/101/101 103/107/107 104/108/108
f 80/100/100 97/109/109 81/102/102
f 88/101/101 105/110/110 89/103/103
f 82/104/104 97/109/109 98/111/111
f 89/103/103 106/112/112 90/90/90
f 82/104/104 99/113/113 83/92/92
f 91/91/91 106/112/112 107/114/114
f 83/92/92 100/115/115 84/93/93
f 91/91/91 108/116/116 92/94/94
f 84/93/93 101/117/117 85/95/95
f 46/58/58 93/118/118 31/37/37
f 86/97/97 101/117/117 102/119/119
f 79/98/98 78/14/14 95/105/105
f 92/94/94 124/120/120 139/121/121
f 87/99/99 102/119/119 103/107/107
f 99/113/113 115/122/122 100/115/115
f 107/114/114 123/123/123 108/116/116
f 100/115/115 116/124/124 101/117/117
f 61/66/66 151/125/125 62/126/126
f 101/117/117 117/127/127 102/119/119
f 95/105/105 78/14/14 110/128/128
f 123/123/123 124/120/120 108/116/116
f 102/119/119 118/129/129 103/107/107
f 95/105/105 111/130/130 96/106/106
f 104/108/108 170/131/131 105/110/110
f 96/106/106 112/132/132 97/109/109
f 105/110/110 173/133/133 120/134/134
f 97/109/109 113/135/135 98/111/111
f 105/110/110 121/136/136 106/112/112
f 98/111/111 114/137/137 99/113/113
f 106/112/112 122/138/138 107/114/114
f 119/139/139 133/140/140 134/141/141
f 112/132/132 126/142/142 127/143/143
f 119/139/139 135/144/144 120/134/134
f 112/132/132 128/145/145 113/135/135
f 121/136/136 135/144/144 136/146/146
f 114/137/137 128/145/145 129/147/147
f 121/136/136 137/148/148 122/138/138
f 115/122/122 129/147/147 130/149/149
f 123/123/123 137/148/148 138/150/150
f 116/124/124 130/149/149 131/151/151
f 138/150/150 32/96/96 47/152/152
f 117/127/127 131/151/151 132/153/153
f 110/128/128 78/14/14 125/154/154
f 138/150/150 94/155/155 123/123/123
f 117/127/127 133/140/140 118/129/129
f 110/128/128 126/142/142 111/130/130
f 137/148/148 150/7/7 138/150/150
f 131/151/151 144/6/6 145/10/10
f 17/8/8 93/118/118 109/156/156
f 131/151/151 146/11/11 132/153/153
f 125/154/154 78/14/14 140/13/13
f 92/94/94 151/125/125 76/86/86
f 132/157/157 147/16/16 133/140/140
f 126/142/142 140/13/13 141/20/20
f 133/140/140 148/21/21 134/141/141
f 127/143/143 141/20/20 142/24/24
f 134/141/141 149/25/25 135/144/144
f 128/145/145 142/24/24 1/28/28
f 135/144/144 2/1/1 136/146/146
f 129/147/147 1/28/28 143/4/4
f 137/148/148 2/1/1 3/3/3
f 130/149/149 143/4/4 144/6/6
f 93/118/118 158/158/158 109/156/156
f 32/96/96 153/159/159 47/152/152
f 94/155/155 159/160/160 124/120/120
f 151/125/125 154/161/161 62/126/126
f 62/126/126 155/162/162 77/88/88
f 109/156/156 152/163/163 32/96/96
f 124/120/120 160/164/164 139/121/121
f 47/152/152 157/165/165 94/155/155
f 139/121/121 161/166/166 151/125/125
f 77/88/88 156/167/167 93/118/118
f 162/168/168 166/169/169 163/170/170
f 163/170/170 167/49/49 164/52/52
f 42/73/73 167/49/49 166/169/169
f 41/47/47 162/168/168 26/41/41
f 27/43/43 162/168/168 163/170/170
f 42/73/73 165/171/171 41/47/47
f 168/172/172 172/173/173 169/174/174
f 169/174/174 173/133/133 170/131/131
f 118/129/129 168/172/172 103/107/107
f 119/139/139 173/133/133 172/173/173
f 104/108/108 168/172/172 169/174/174
f 119/139/139 171/175/175 118/129/129
f 146/176/176 174/177/177 11/178/178
f 11/178/178 175/179/179 25/180/180
f 132/181/181 178/182/182 146/176/176
f 132/181/181 176/183/183 177/184/184
f 2/1/1 15/29/29 16/2/2
f 143/4/4 8/30/30 9/5/5
f 150/7/7 3/3/3 16/2/2
f 144/6/6 9/5/5 10/9/9
f 146/11/11 145/10/10 10/9/9
f 147/16/16 146/185/185 11/17/17
f 140/13/13 4/15/15 5/19/19
f 148/21/21 147/16/16 12/18/18
f 141/20/20 5/19/19 6/23/23
f 149/25/25 148/21/21 13/22/22
f 142/24/24 6/23/23 7/27/27
f 2/1/1 149/25/25 14/26/26
f 1/28/28 7/27/27 8/30/30
f 7/27/27 6/23/23 20/31/31
f 14/26/26 28/44/44 29/33/33
f 7/27/27 21/32/32 22/34/34
f 16/2/2 15/29/29 29/33/33
f 8/30/30 22/34/34 23/36/36
f 17/8/8 16/2/2 30/35/35
f 9/5/5 23/36/36 24/38/38
f 10/9/9 24/38/38 25/39/39
f 12/18/18 11/17/17 25/39/39
f 5/19/19 4/15/15 18/40/40
f 12/18/18 26/41/41 27/43/43
f 5/19/19 19/42/42 20/31/31
f 14/26/26 13/22/22 27/43/43
f 24/38/38 39/59/59 40/45/45
f 25/39/39 40/45/45 41/47/47
f 18/40/40 33/46/46 34/48/48
f 28/44/44 164/52/52 167/49/49
f 19/42/42 34/48/48 35/51/51
f 27/43/43 163/170/170 164/52/52
f 20/31/31 35/51/51 36/53/53
f 28/44/44 43/50/50 44/54/54
f 21/32/32 36/53/53 37/55/55
f 29/33/33 44/54/54 45/56/56
f 22/34/34 37/55/55 38/57/57
f 30/35/35 45/56/56 46/58/58
f 23/36/36 38/57/57 39/59/59
f 44/54/54 43/50/50 58/60/60
f 37/55/55 36/53/53 51/62/62
f 44/54/54 59/61/61 60/64/64
f 38/57/57 37/55/55 52/63/63
f 45/56/56 60/64/64 61/66/66
f 39/59/59 38/57/57 53/65/65
f 39/59/59 54/67/67 55/68/68
f 40/45/45 55/68/68 56/70/70
f 33/46/46 48/69/69 49/71/71
f 41/47/47 56/70/70 57/72/72
f 35/51/51 34/48/48 49/71/71
f 43/50/50 42/73/73 57/72/72
f 35/51/51 50/74/74 51/62/62
f 55/68/68 70/89/89 71/75/75
f 49/71/71 48/69/69 63/76/76
f 57/72/72 56/70/70 71/75/75
f 50/74/74 49/71/71 64/77/77
f 58/60/60 57/72/72 72/78/78
f 50/74/74 65/79/79 66/81/81
f 58/60/60 73/80/80 74/82/82
f 51/62/62 66/81/81 67/83/83
f 59/61/61 74/82/82 75/84/84
f 52/63/63 67/83/83 68/85/85
f 60/64/64 75/84/84 76/86/86
f 53/65/65 68/85/85 69/87/87
f 61/66/66 62/126/126 77/88/88
f 54/67/67 69/87/87 70/89/89
f 75/84/84 74/82/82 90/90/90
f 68/85/85 67/83/83 83/92/92
f 76/86/86 75/84/84 91/91/91
f 69/87/87 68/85/85 84/93/93
f 17/8/8 109/156/156 32/96/96
f 70/89/89 69/87/87 85/95/95
f 71/75/75 70/89/89 86/97/97
f 63/76/76 79/98/98 80/100/100
f 71/75/75 87/99/99 88/101/101
f 64/77/77 80/100/100 81/102/102
f 72/78/78 88/101/101 89/103/103
f 66/81/81 65/79/79 81/102/102
f 74/82/82 73/80/80 89/103/103
f 67/83/83 66/81/81 82/104/104
f 80/100/100 79/98/98 95/105/105
f 88/101/101 87/99/99 103/107/107
f 80/100/100 96/106/106 97/109/109
f 88/101/101 104/108/108 105/110/110
f 82/104/104 81/102/102 97/109/109
f 89/103/103 105/110/110 106/112/112
f 82/104/104 98/111/111 99/113/113
f 91/91/91 90/90/90 106/112/112
f 83/92/92 99/113/113 100/115/115
f 91/91/91 107/114/114 108/116/116
f 84/93/93 100/115/115 101/117/117
f 46/58/58 77/88/88 93/118/118
f 86/97/97 85/95/95 101/117/117
f 92/94/94 108/116/116 124/120/120
f 87/99/99 86/97/97 102/119/119
f 99/113/113 114/137/137 115/122/122
f 107/114/114 122/138/138 123/123/123
f 100/115/115 115/122/122 116/124/124
f 61/66/66 76/86/86 151/125/125
f 101/117/117 116/124/124 117/127/127
f 123/123/123 94/155/155 124/120/120
f 102/119/119 117/127/127 118/129/129
f 95/105/105 110/128/128 111/130/130
f 104/108/108 169/174/174 170/131/131
f 96/106/106 111/130/130 112/132/132
f 105/110/110 170/131/131 173/133/133
f 97/109/109 112/132/132 113/135/135
f 105/110/110 120/134/134 121/136/136
f 98/111/111 113/135/135 114/137/137
f 106/112/112 121/136/136 122/138/138
f 119/139/139 118/129/129 133/140/140
f 112/132/132 111/130/130 126/142/142
f 119/139/139 134/141/141 135/144/144
f 112/132/132 127/143/143 128/145/145
f 121/136/136 120/134/134 135/144/144
f 114/137/137 113/135/135 128/145/145
f 121/136/136 136/146/146 137/148/148
f 115/122/122 114/137/137 129/147/147
f 123/123/123 122/138/138 137/148/148
f 116/124/124 115/122/122 130/149/149
f 138/150/150 150/7/7 32/96/96
f 117/127/127 116/124/124 131/151/151
f 138/150/150 47/152/152 94/155/155
f 117/127/127 132/157/157 133/140/140
f 110/128/128 125/154/154 126/142/142
f 137/148/148 3/3/3 150/7/7
f 131/151/151 130/149/149 144/6/6
f 17/8/8 31/37/37 93/118/118
f 131/151/151 145/10/10 146/11/11
f 92/94/94 139/121/121 151/125/125
f 132/157/157 146/185/185 147/16/16
f 126/142/142 125/154/154 140/13/13
f 133/140/140 147/16/16 148/21/21
f 127/143/143 126/142/142 141/20/20
f 134/141/141 148/21/21 149/25/25
f 128/145/145 127/143/143 142/24/24
f 135/144/144 149/25/25 2/1/1
f 129/147/147 128/145/145 1/28/28
f 137/148/148 136/146/146 2/1/1
f 130/149/149 129/147/147 143/4/4
f 93/118/118 156/167/167 158/158/158
f 32/96/96 152/163/163 153/159/159
f 94/155/155 157/165/165 159/160/160
f 151/125/125 161/166/166 154/161/161
f 62/126/126 154/161/161 155/162/162
f 109/156/156 158/158/158 152/163/163
f 124/120/120 159/160/160 160/164/164
f 47/152/152 153/159/159 157/165/165
f 139/121/121 160/164/164 161/166/166
f 77/88/88 155/162/162 156/167/167
f 162/168/168 165/171/171 166/169/169
f 163/170/170 166/169/169 167/49/49
f 42/73/73 43/50/50 167/49/49
f 41/47/47 165/171/171 162/168/168
f 27/43/43 26/41/41 162/168/168
f 42/73/73 166/169/169 165/171/171
f 168/172/172 171/175/175 172/173/173
f 169/174/174 172/173/173 173/133/133
f 118/129/129 171/175/175 168/172/172
f 119/139/139 120/134/134 173/133/133
f 104/108/108 103/107/107 168/172/172
f 119/139/139 172/173/173 171/175/175
f 146/176/176 178/182/182 174/177/177
f 11/178/178 174/177/177 175/179/179
f 132/181/181 177/184/184 178/182/182
f 132/181/181 117/186/186 176/183/183
