# Blender 4.1.1
# www.blender.org
mtllib playerLeftLeg.mtl
o 左足
v 0.086219 -1.033171 0.085000
v 0.086219 -0.403171 0.085000
v 0.086219 -1.033171 -0.085000
v 0.086219 -0.403171 -0.116905
v 0.256219 -1.033171 0.085000
v 0.256219 -0.403171 0.085000
v 0.256219 -1.033171 -0.085000
v 0.256219 -0.403171 -0.169603
v 0.070336 -1.207499 0.000000
v 0.067592 -0.718171 0.021477
v 0.040154 -0.312192 0.000000
v 0.067592 -0.718171 -0.023851
v 0.171219 -1.138057 -0.091154
v 0.171219 -0.334143 -0.150912
v 0.219845 -0.718171 -0.023851
v 0.227431 -1.217792 -0.000000
v 0.329723 -0.419204 -0.000000
v 0.219845 -0.718171 0.021477
v 0.171219 -1.177034 0.103627
v 0.171219 -0.361275 0.138553
v 0.039712 -0.574341 0.000000
v 0.171219 -0.709464 -0.073264
v 0.236983 -0.718171 0.001391
v 0.171219 -0.718171 0.092097
v 0.171219 -1.238829 0.000000
v 0.171219 -0.189282 0.000000
vn -0.6377 -0.0689 0.7672
vn -0.6524 0.0808 0.7536
vn -0.5622 -0.0653 -0.8244
vn -0.6135 0.0492 -0.7881
vn 0.8528 -0.0387 0.5208
vn 0.7153 0.0625 0.6960
vn 0.7985 -0.0375 -0.6009
vn 0.6070 0.0123 -0.7946
vn -0.9626 -0.2690 -0.0319
vn -0.7896 -0.0239 0.6132
vn -0.9841 0.1670 0.0613
vn -0.7819 -0.0356 -0.6224
vn 0.0423 -0.1528 -0.9874
vn -0.0177 0.1031 -0.9945
vn 0.8332 -0.1085 -0.5422
vn 0.9605 -0.2734 -0.0519
vn 0.9936 0.0368 0.1067
vn 0.8456 -0.0660 0.5298
vn 0.0605 -0.1773 0.9823
vn 0.0687 0.0897 0.9936
vn -0.9981 -0.0350 0.0501
vn -0.0535 -0.0755 -0.9957
vn 0.9882 -0.1263 0.0869
vn 0.0642 -0.0330 0.9974
vn 0.1002 -0.9836 -0.1498
vn 0.0825 0.9810 0.1754
vt 0.621739 0.000093
vt 0.715258 0.139023
vt 0.759719 0.206333
vt 0.510107 0.104750
vt 0.864742 0.082471
vt 0.862909 0.229495
vt 0.794079 0.400070
vt 0.679637 0.231989
vt 0.508394 0.232626
vt 0.571825 0.446147
vt 0.415238 0.299100
vt 0.789417 0.516877
vt 0.765360 0.625037
vt 0.474632 0.549331
vt 0.354686 0.396238
vt 0.451942 0.608323
vt 0.243787 0.484467
vt 0.595901 0.720420
vt 0.531309 0.807047
vt 0.420440 0.648578
vt 0.221369 0.624546
vt 0.329581 0.797902
vt 0.135380 0.718374
vt 0.461015 0.923650
vt 0.347587 0.999907
vt 0.206565 0.969030
vt 0.131551 0.845434
vt 0.147000 0.263830
vt 0.248329 0.333706
vt 0.176959 0.443625
vt 0.060307 0.367163
vt 0.103197 0.568041
vt 0.000093 0.487900
vt 0.819771 0.725924
vt 0.681626 0.847199
vt 0.864742 0.837809
vt 0.774610 0.975417
vt 0.648867 0.999659
vt 0.535442 0.936646
s 1
usemtl マテリアル.011
f 1/1/1 10/2/10 21/3/21 9/4/9
f 10/2/10 2/5/2 11/6/11 21/3/21
f 21/3/21 11/6/11 4/7/4 12/8/12
f 9/4/9 21/3/21 12/8/12 3/9/3
f 3/9/3 12/8/12 22/10/22 13/11/13
f 12/8/12 4/7/4 14/12/14 22/10/22
f 22/10/22 14/12/14 8/13/8 15/14/15
f 13/11/13 22/10/22 15/14/15 7/15/7
f 7/15/7 15/14/15 23/16/23 16/17/16
f 15/14/15 8/13/8 17/18/17 23/16/23
f 23/16/23 17/18/17 6/19/6 18/20/18
f 16/17/16 23/16/23 18/20/18 5/21/5
f 5/21/5 18/20/18 24/22/24 19/23/19
f 18/20/18 6/19/6 20/24/20 24/22/24
f 24/22/24 20/24/20 2/25/2 10/26/10
f 19/23/19 24/22/24 10/26/10 1/27/1
f 3/28/3 13/29/13 25/30/25 9/31/9
f 13/29/13 7/15/7 16/17/16 25/30/25
f 25/30/25 16/17/16 5/21/5 19/32/19
f 9/31/9 25/30/25 19/32/19 1/33/1
f 8/13/8 14/34/14 26/35/26 17/18/17
f 14/34/14 4/36/4 11/37/11 26/35/26
f 26/35/26 11/37/11 2/38/2 20/39/20
f 17/18/17 26/35/26 20/39/20 6/19/6
