# Blender 4.1.1
# www.blender.org
mtllib playerLeftArm.mtl
o 左腕
v 0.720162 -0.475975 -0.307804
v 0.429975 0.385347 -0.091819
v 0.720162 -0.407632 -0.603832
v 0.485943 0.370179 -0.399176
v 1.010702 -0.389426 -0.287822
v 0.754913 0.482145 -0.069471
v 0.959834 -0.264808 -0.530741
v 0.752014 0.449441 -0.380877
v 0.717526 -0.544342 -0.479490
v 0.657608 -0.048191 -0.274691
v 0.339702 0.585093 -0.220065
v 0.664714 -0.011208 -0.433050
v 0.864789 -0.370310 -0.583071
v 0.592316 0.501600 -0.400000
v 0.817803 0.034397 -0.422521
v 1.071734 -0.438824 -0.455130
v 0.757862 0.635040 -0.208534
v 0.825269 0.001753 -0.263160
v 0.894629 -0.533243 -0.286861
v 0.559788 0.529442 -0.020343
v 0.625987 -0.037892 -0.362279
v 0.741076 0.013047 -0.442246
v 0.856890 0.030891 -0.346399
v 0.741439 -0.030660 -0.236706
v 0.927018 -0.618711 -0.496660
v 0.385194 0.683375 -0.197375
vn -0.6545 -0.4352 0.6183
vn -0.9560 -0.2652 -0.1253
vn -0.8898 -0.4268 -0.1615
vn -0.7069 -0.3325 0.6242
vn -0.6741 -0.3655 0.6418
vn -0.6035 0.0056 -0.7973
vn -0.5302 0.0377 -0.8470
vn -0.4641 -0.1699 -0.8693
vn 0.1523 0.1261 -0.9802
vn -0.0013 0.2140 -0.9768
vn 0.5892 0.3628 -0.7219
vn 0.5345 0.3362 -0.7754
vn 0.5935 0.3229 -0.7372
vn 0.9555 0.2943 -0.0184
vn 0.9807 0.1523 -0.1227
vn 0.6648 0.0791 0.7429
vn 0.6767 0.0369 0.7353
vn 0.6967 -0.0282 0.7168
vn 0.0019 -0.2310 0.9729
vn 0.0518 -0.3803 0.9234
vn 0.4170 -0.8420 -0.3422
vn 0.0396 0.5604 -0.8273
vn 0.7897 0.5355 -0.2993
vn -0.8726 0.4861 -0.0479
vn -0.7818 0.6129 0.1149
vn -0.2722 0.5045 0.8194
vt 0.606618 0.000094
vt 0.626891 0.226753
vt 0.485609 0.078880
vt 0.886016 0.186102
vt 0.691867 0.139371
vt 0.720468 0.412315
vt 0.562875 0.310242
vt 0.400560 0.195903
vt 0.366174 0.305553
vt 0.501650 0.397446
vt 0.585855 0.600926
vt 0.440016 0.484497
vt 0.317580 0.398919
vt 0.371591 0.574055
vt 0.238392 0.460039
vt 0.466704 0.818728
vt 0.294803 0.659305
vt 0.153355 0.534014
vt 0.219019 0.742211
vt 0.056254 0.632343
vt 0.218944 0.999906
vt 0.145161 0.818223
vt 0.000094 0.759484
vt 0.274744 0.300483
vt 0.092715 0.241728
vt 0.214092 0.193386
vt 0.168037 0.358608
vt 0.056790 0.448964
vt 0.000094 0.332404
vt 0.722931 0.603994
vt 0.541710 0.709155
vt 0.849068 0.827413
vt 0.780833 0.804449
vt 0.586508 0.940982
vt 0.862278 0.348816
vt 0.666464 0.514921
vt 0.360408 0.934026
vt 0.857339 0.662689
vt 0.762497 0.984834
s 1
usemtl マテリアル.003
f 1/1/1 21/2/2 9/3/3
f 2/4/4 21/2/2 10/5/5
f 21/2/2 4/6/6 12/7/7
f 21/2/2 3/8/8 9/3/3
f 12/7/7 13/9/9 3/8/8
f 4/6/6 22/10/10 12/7/7
f 22/10/10 8/11/11 15/12/12
f 22/10/10 7/13/13 13/9/9
f 7/13/13 23/14/14 16/15/15
f 8/11/11 23/14/14 15/12/12
f 23/14/14 6/16/16 18/17/17
f 23/14/14 5/18/18 16/15/15
f 5/18/18 24/19/19 19/20/20
f 6/16/16 24/19/19 18/17/17
f 24/19/19 2/21/4 10/22/5
f 24/19/19 1/23/1 19/20/20
f 13/24/9 9/25/3 3/26/8
f 13/24/9 16/15/15 25/27/21
f 16/15/15 19/28/20 25/27/21
f 9/25/3 19/28/20 1/29/1
f 14/30/22 17/31/23 8/11/11
f 14/30/22 11/32/24 26/33/25
f 11/32/24 20/34/26 26/33/25
f 17/31/23 20/34/26 6/16/16
f 1/1/1 10/5/5 21/2/2
f 2/4/4 11/35/24 21/2/2
f 21/2/2 11/35/24 4/6/6
f 21/2/2 12/7/7 3/8/8
f 12/7/7 22/10/10 13/9/9
f 4/6/6 14/36/22 22/10/10
f 22/10/10 14/36/22 8/11/11
f 22/10/10 15/12/12 7/13/13
f 7/13/13 15/12/12 23/14/14
f 8/11/11 17/31/23 23/14/14
f 23/14/14 17/31/23 6/16/16
f 23/14/14 18/17/17 5/18/18
f 5/18/18 18/17/17 24/19/19
f 6/16/16 20/37/26 24/19/19
f 24/19/19 20/37/26 2/21/4
f 24/19/19 10/22/5 1/23/1
f 13/24/9 25/27/21 9/25/3
f 13/24/9 7/13/13 16/15/15
f 16/15/15 5/18/18 19/28/20
f 9/25/3 25/27/21 19/28/20
f 14/30/22 26/33/25 17/31/23
f 14/30/22 4/38/6 11/32/24
f 11/32/24 2/39/4 20/34/26
f 17/31/23 26/33/25 20/34/26
