# Blender 4.1.1
# www.blender.org
mtllib TtianglePlayerRightLeg.mtl
o 右足
v -0.086219 -1.033171 -0.085000
v -0.086219 -0.403171 -0.085000
v -0.086219 -1.033171 0.085000
v -0.086219 -0.403171 0.116905
v -0.256219 -1.033171 -0.085000
v -0.256219 -0.403171 -0.085000
v -0.256219 -1.033171 0.085000
v -0.256219 -0.403171 0.169603
v -0.070336 -1.207499 0.000000
v -0.067592 -0.718171 -0.021466
v -0.040153 -0.312192 0.000000
v -0.067592 -0.718171 0.038400
v -0.171219 -1.138057 0.091154
v -0.171219 -0.334143 0.150912
v -0.227024 -0.718171 0.038400
v -0.227431 -1.217792 0.000000
v -0.329723 -0.419204 0.000000
v -0.227024 -0.718171 -0.021466
v -0.171219 -1.177034 -0.103627
v -0.171219 -0.361275 -0.138553
v -0.039711 -0.574341 0.000000
v -0.171219 -0.709464 0.087813
v -0.244163 -0.718171 0.005191
v -0.171219 -0.718171 -0.060556
v -0.171219 -1.238829 0.000000
v -0.171219 -0.189282 0.000000
vn 0.7543 -0.0246 -0.6561
vn 0.9624 -0.2711 0.0166
vn 0.5748 -0.0500 -0.8168
vn 0.6108 0.0647 -0.7892
vn 0.9978 -0.0303 -0.0594
vn 0.6218 0.0625 0.7807
vn 0.7922 -0.0384 0.6091
vn 0.5851 -0.0841 0.8066
vn 0.0590 -0.0800 0.9950
vn -0.0400 -0.1715 0.9844
vn -0.6033 0.0208 0.7972
vn -0.8190 -0.1099 0.5631
vn -0.7985 -0.0567 0.5993
vn -0.9901 -0.1212 -0.0708
vn -0.9576 -0.2830 0.0536
vn -0.9928 0.0431 -0.1115
vn -0.7945 -0.0731 -0.6028
vn -0.7894 -0.0300 -0.6131
vn -0.0460 -0.0290 -0.9985
vn -0.0458 -0.1550 -0.9869
vn -0.6732 0.0539 -0.7375
vn -0.1002 -0.9836 0.1498
vn 0.0236 0.1153 0.9931
vn 0.9829 0.1716 -0.0662
vn -0.0825 0.9810 -0.1754
vn -0.0612 0.0738 -0.9954
vt 0.648492 0.126882
vt 0.452458 0.104920
vt 0.552815 0.000089
vt 0.791449 0.067368
vt 0.693675 0.188750
vt 0.724601 0.378510
vt 0.614628 0.235848
vt 0.461892 0.235402
vt 0.523138 0.434860
vt 0.369309 0.308991
vt 0.685462 0.614577
vt 0.423070 0.539040
vt 0.317012 0.414320
vt 0.387074 0.605848
vt 0.206917 0.468772
vt 0.515748 0.716037
vt 0.349503 0.651877
vt 0.167423 0.583410
vt 0.264504 0.756746
vt 0.077774 0.661127
vt 0.452462 0.807397
vt 0.267090 0.952679
vt 0.145952 0.891611
vt 0.068273 0.779293
vt 0.236774 0.341966
vt 0.070910 0.339203
vt 0.162074 0.265426
vt 0.157396 0.423345
vt 0.075061 0.517095
vt 0.000089 0.432277
vt 0.744091 0.715356
vt 0.706500 0.970871
vt 0.607448 0.843261
vt 0.461226 0.939558
vt 0.793598 0.210411
vt 0.717926 0.501563
vt 0.385376 0.912381
vt 0.793598 0.827701
vt 0.579157 0.999911
s 1
usemtl マテリアル.010
f 10/1/1 9/2/2 1/3/3
f 2/4/4 21/5/5 10/1/1
f 21/5/5 4/6/6 12/7/7
f 9/2/2 12/7/7 3/8/8
f 3/8/8 22/9/9 13/10/10
f 4/6/6 22/9/9 12/7/7
f 22/9/9 8/11/11 15/12/12
f 22/9/9 7/13/13 13/10/10
f 7/13/13 23/14/14 16/15/15
f 15/12/12 17/16/16 23/14/14
f 17/16/16 18/17/17 23/14/14
f 23/14/14 5/18/18 16/15/15
f 5/18/18 24/19/19 19/20/20
f 6/21/21 24/19/19 18/17/17
f 24/19/19 2/22/4 10/23/1
f 24/19/19 1/24/3 19/20/20
f 13/25/10 9/26/2 3/27/8
f 13/25/10 16/15/15 25/28/22
f 16/15/15 19/29/20 25/28/22
f 9/26/2 19/29/20 1/30/3
f 14/31/23 17/16/16 8/11/11
f 14/31/23 11/32/24 26/33/25
f 11/32/24 20/34/26 26/33/25
f 26/33/25 6/21/21 17/16/16
f 10/1/1 21/5/5 9/2/2
f 2/4/4 11/35/24 21/5/5
f 21/5/5 11/35/24 4/6/6
f 9/2/2 21/5/5 12/7/7
f 3/8/8 12/7/7 22/9/9
f 4/6/6 14/36/23 22/9/9
f 22/9/9 14/36/23 8/11/11
f 22/9/9 15/12/12 7/13/13
f 7/13/13 15/12/12 23/14/14
f 15/12/12 8/11/11 17/16/16
f 17/16/16 6/21/21 18/17/17
f 23/14/14 18/17/17 5/18/18
f 5/18/18 18/17/17 24/19/19
f 6/21/21 20/37/26 24/19/19
f 24/19/19 20/37/26 2/22/4
f 24/19/19 10/23/1 1/24/3
f 13/25/10 25/28/22 9/26/2
f 13/25/10 7/13/13 16/15/15
f 16/15/15 5/18/18 19/29/20
f 9/26/2 25/28/22 19/29/20
f 14/31/23 26/33/25 17/16/16
f 14/31/23 4/38/6 11/32/24
f 11/32/24 2/39/4 20/34/26
f 26/33/25 20/34/26 6/21/21
