# Blender 4.1.1
# www.blender.org
mtllib enemy.mtl
o Body
v 1.000000 -1.445729 1.783296
v 1.000000 1.000000 3.230000
v 1.000000 -1.000000 5.230000
v 1.000000 1.000000 5.230000
v -1.000000 -1.445729 1.783296
v -1.000000 1.000000 3.230000
v -1.000000 -1.000000 5.230000
v -1.000000 1.000000 5.230000
v 1.219136 -1.219136 4.230000
v 1.219136 -0.000000 3.010864
v 1.219136 1.219136 4.230000
v 1.219136 -0.000000 5.449136
v 0.000000 -2.058780 4.946792
v 0.000000 1.219136 5.449136
v -1.219136 -0.000000 5.449136
v -1.219136 -1.219136 4.230000
v -1.219136 1.219136 4.230000
v -1.219136 -0.000000 3.010864
v 0.000000 -2.058780 0.729851
v 0.000000 1.219136 3.010864
v -3.019850 1.439774 6.428432
v 0.000000 -0.000000 5.909013
v 0.000000 -0.950421 0.062015
v 0.000000 -2.518657 4.230000
v 0.000000 1.679013 4.230000
v 1.488461 -1.000000 5.230000
v 1.707597 -1.219136 4.230000
v 1.488461 -1.000000 3.230000
v 3.335418 0.439774 4.209296
v 3.116282 1.439774 4.428432
v 3.335418 1.658910 5.428432
v 3.116282 1.439774 6.428432
v 3.335418 0.439773 6.647567
v 3.795294 0.439774 5.428432
v -3.238985 0.439773 6.647567
v -1.458509 -1.000000 5.230000
v -1.458509 -1.000000 3.230000
v -1.677645 -1.219136 4.230000
v -3.238985 1.658910 5.428432
v -3.019850 1.439774 4.428432
v -3.238986 0.439774 4.209296
v -3.698862 0.439774 5.428432
vn -0.0105 0.7345 0.6786
vn 0.4984 0.8665 0.0264
vn 0.0647 0.9970 -0.0415
vn -0.0920 -0.0769 0.9928
vn 0.1043 -0.7839 0.6121
vn 0.4014 -0.2699 0.8752
vn 0.4018 -0.9097 0.1045
vn 0.2643 -0.6052 0.7509
vn 0.6349 0.2876 -0.7171
vn 0.7823 -0.5004 -0.3710
vn 0.8849 -0.3399 -0.3186
vn -0.0000 -0.0185 0.9998
vn -0.0000 -0.7592 0.6509
vn 0.0197 0.7358 0.6769
vn 0.1045 -0.0770 0.9915
vn -0.2643 -0.6052 0.7509
vn -0.4021 -0.9098 0.1031
vn -0.7992 -0.4853 -0.3547
vn -0.8860 -0.3390 -0.3163
vn -0.4943 0.8689 0.0271
vn -0.1651 0.6526 0.7395
vn -0.3152 0.6285 -0.7111
vn -0.7917 -0.1322 -0.5964
vn -0.4751 0.7223 -0.5025
vn -0.1095 -0.7828 0.6126
vn -0.0000 0.1585 -0.9874
vn -0.0000 -0.7931 -0.6091
vn -0.6448 0.2818 -0.7105
vn -0.0000 0.8095 -0.5872
vn -0.0000 -0.9738 0.2275
vn -0.0000 1.0000 -0.0000
vn -0.0609 0.9972 -0.0428
vn -0.0000 0.7071 0.7071
vn 0.3098 0.6303 -0.7118
vn 0.7859 -0.1408 -0.6021
vn 0.3642 -0.9303 -0.0432
vn 0.4747 0.7190 -0.5076
vn 0.9626 -0.2690 0.0314
vn 0.1744 0.6528 0.7371
vn -0.9643 -0.2630 0.0323
vn -0.3728 -0.9269 -0.0443
vn -0.3937 -0.2665 0.8798
vt 0.230003 0.271358
vt 0.124127 0.130518
vt 0.284315 0.216815
vt 0.206825 0.518590
vt 0.222662 0.593207
vt 0.091388 0.554822
vt 0.483225 0.685142
vt 0.419639 0.720388
vt 0.411601 0.688971
vt 0.614316 0.205235
vt 0.690604 0.204655
vt 0.691118 0.314143
vt 0.252685 0.577747
vt 0.278787 0.482316
vt 0.351771 0.607695
vt 0.187170 0.451318
vt 0.315748 0.390946
vt 0.339809 0.452150
vt 0.372928 0.505985
vt 0.433129 0.492872
vt 0.480435 0.447614
vt 0.580848 0.442637
vt 0.388842 0.415525
vt 0.387507 0.417626
vt 0.434196 0.319362
vt 0.396546 0.416304
vt 0.392149 0.412578
vt 0.383812 0.481393
vt 0.625783 0.370113
vt 0.666332 0.404845
vt 0.474654 0.382585
vt 0.484863 0.252770
vt 0.424761 0.590372
vt 0.472357 0.578106
vt 0.680546 0.504368
vt 0.640968 0.615036
vt 0.331542 0.290580
vt 0.370753 0.355263
vt 0.262619 0.339218
vt 0.356695 0.188827
vt 0.406704 0.246715
vt 0.072969 0.673717
vt 0.224422 0.665759
vt 0.227235 0.734014
vt 0.000194 0.656432
vt 0.071973 0.602538
vt 0.040874 0.513202
vt 0.534029 0.185433
vt 0.642081 0.020564
vt 0.557829 0.687457
vt 0.491213 0.718183
vt 0.194356 0.106213
vt 0.391011 0.418485
vt 0.425964 0.471264
vt 0.388175 0.419420
vt 0.072726 0.186180
vt 0.245265 0.409380
vt 0.000194 0.580722
vt 0.565165 0.000194
s 1
usemtl マテリアル.001
f 4/1/1 31/2/2 11/3/3
f 12/4/4 26/5/5 33/6/6
f 9/7/7 26/8/5 3/9/8
f 10/10/9 28/11/10 1/12/11
f 3/13/8 22/14/12 13/15/13
f 4/16/1 22/14/12 12/4/4
f 22/14/12 8/17/14 15/18/15
f 22/14/12 7/19/16 13/15/13
f 16/20/17 37/21/18 5/22/19
f 8/17/14 39/23/20 21/24/21
f 6/25/22 41/26/23 40/27/24
f 15/18/15 36/28/25 7/19/16
f 5/22/19 23/29/26 19/30/27
f 18/31/28 20/32/29 23/29/26
f 20/32/29 10/10/9 23/29/26
f 23/29/26 1/12/11 19/30/27
f 13/33/13 9/7/7 3/9/8
f 13/33/13 16/20/17 24/34/30
f 24/34/30 5/22/19 19/35/27
f 24/34/30 1/36/11 9/7/7
f 8/17/14 25/37/31 17/38/32
f 4/1/1 25/37/31 14/39/33
f 25/37/31 2/40/34 20/41/29
f 25/37/31 6/25/22 17/38/32
f 29/42/35 27/43/36 28/44/10
f 30/45/37 34/46/38 29/42/35
f 34/46/38 32/47/39 33/6/6
f 34/46/38 26/5/5 27/43/36
f 2/48/34 29/49/35 10/10/9
f 9/7/7 28/50/10 27/51/36
f 12/4/4 32/47/39 4/16/1
f 11/3/3 30/52/37 2/40/34
f 36/28/25 42/53/40 38/54/41
f 21/24/21 42/53/40 35/55/42
f 42/53/40 40/27/24 41/26/23
f 38/54/41 41/26/23 37/21/18
f 15/18/15 21/24/21 35/55/42
f 18/31/28 37/21/18 41/26/23
f 17/38/32 40/27/24 39/23/20
f 16/20/17 36/28/25 38/54/41
f 4/1/1 32/56/39 31/2/2
f 12/4/4 3/13/8 26/5/5
f 9/7/7 27/51/36 26/8/5
f 10/10/9 29/49/35 28/11/10
f 3/13/8 12/4/4 22/14/12
f 4/16/1 14/57/33 22/14/12
f 22/14/12 14/57/33 8/17/14
f 22/14/12 15/18/15 7/19/16
f 16/20/17 38/54/41 37/21/18
f 8/17/14 17/38/32 39/23/20
f 6/25/22 18/31/28 41/26/23
f 15/18/15 35/55/42 36/28/25
f 5/22/19 18/31/28 23/29/26
f 18/31/28 6/25/22 20/32/29
f 20/32/29 2/48/34 10/10/9
f 23/29/26 10/10/9 1/12/11
f 13/33/13 24/34/30 9/7/7
f 13/33/13 7/19/16 16/20/17
f 24/34/30 16/20/17 5/22/19
f 24/34/30 19/35/27 1/36/11
f 8/17/14 14/39/33 25/37/31
f 4/1/1 11/3/3 25/37/31
f 25/37/31 11/3/3 2/40/34
f 25/37/31 20/41/29 6/25/22
f 29/42/35 34/46/38 27/43/36
f 30/45/37 31/58/2 34/46/38
f 34/46/38 31/58/2 32/47/39
f 34/46/38 33/6/6 26/5/5
f 2/48/34 30/59/37 29/49/35
f 9/7/7 1/36/11 28/50/10
f 12/4/4 33/6/6 32/47/39
f 11/3/3 31/2/2 30/52/37
f 36/28/25 35/55/42 42/53/40
f 21/24/21 39/23/20 42/53/40
f 42/53/40 39/23/20 40/27/24
f 38/54/41 42/53/40 41/26/23
f 15/18/15 8/17/14 21/24/21
f 18/31/28 5/22/19 37/21/18
f 17/38/32 6/25/22 40/27/24
f 16/20/17 7/19/16 36/28/25
o Head
v 0.500000 -1.106964 -1.132752
v 0.500000 0.500000 -0.500000
v 0.500000 -0.500000 0.500000
v 0.500000 0.500000 0.500000
v -0.500000 -1.106964 -1.132752
v -0.500000 0.500000 -0.500000
v -0.500000 -0.500000 0.500000
v -0.500000 0.500000 0.500000
v 0.609568 -0.609568 -0.000000
v 0.609568 0.000000 -0.609568
v 0.609568 0.609568 0.000000
v 0.609568 -0.000000 0.609568
v 0.000000 -0.609568 0.609568
v 0.000000 0.609568 0.609568
v -0.609568 -0.000000 0.609568
v -0.609568 -0.609568 -0.000000
v -0.609568 0.609568 0.000000
v -0.609568 0.000000 -0.609568
v 0.000000 -0.609568 -0.609568
v 0.000000 0.609568 -0.609568
v 0.839506 0.000000 0.000000
v 0.000000 -0.000000 0.839506
v -0.839506 0.000000 0.000000
v 0.000000 0.000000 -0.839506
v 0.000000 -0.839506 -0.000000
v 0.000000 0.839506 0.000000
vn 0.7200 0.0923 -0.6878
vn 0.7190 -0.6893 0.0887
vn 0.1458 -0.6874 -0.7115
vn 0.5774 0.5774 -0.5774
vn 0.9999 -0.0074 -0.0074
vn 0.5774 0.5774 0.5774
vn 0.7071 -0.0000 0.7071
vn 0.5774 -0.5774 0.5774
vn -0.0000 -0.0000 1.0000
vn -0.0000 -0.7071 0.7071
vn -0.5774 0.5774 0.5774
vn -0.7071 -0.0000 0.7071
vn -0.5774 -0.5774 0.5774
vn -0.9999 -0.0074 -0.0074
vn -0.7190 -0.6893 0.0887
vn -0.5774 0.5774 -0.5774
vn -0.7200 0.0923 -0.6878
vn -0.1458 -0.6874 -0.7115
vn -0.0000 -0.7125 -0.7016
vn -0.0000 -0.0149 -0.9999
vn -0.0000 -0.9999 -0.0149
vn -0.0000 1.0000 -0.0000
vn -0.7071 0.7071 -0.0000
vn -0.0000 0.7071 0.7071
vn -0.0000 0.7071 -0.7071
vn 0.7071 0.7071 -0.0000
vt 0.341289 0.742327
vt 0.324899 0.771749
vt 0.293922 0.734402
vt 0.362613 0.740147
vt 0.347983 0.765332
vt 0.372436 0.781156
vt 0.353337 0.786030
vt 0.334270 0.791028
vt 0.358622 0.806465
vt 0.335685 0.812416
vt 0.382953 0.821941
vt 0.363891 0.826850
vt 0.344846 0.831792
vt 0.369135 0.847164
vt 0.346209 0.853275
vt 0.395141 0.859482
vt 0.376225 0.869955
vt 0.339531 0.901572
vt 0.373250 0.903941
vt 0.391993 0.888860
vt 0.421166 0.892697
vt 0.406481 0.908222
vt 0.368960 0.937802
vt 0.302861 0.827977
vt 0.321923 0.850338
vt 0.297821 0.848733
vt 0.324154 0.826201
vt 0.319517 0.874269
vt 0.293922 0.896852
vt 0.409757 0.833983
vt 0.389173 0.840666
vt 0.422671 0.807586
vt 0.401535 0.811232
vt 0.435719 0.847755
vt 0.416473 0.857227
vt 0.371284 0.759751
vt 0.381570 0.800549
vt 0.411081 0.873848
vt 0.432767 0.826510
s 1
usemtl マテリアル
f 52/60/43 51/61/44 43/62/45
f 44/63/46 63/64/47 52/60/43
f 63/64/47 46/65/48 54/66/49
f 63/64/47 45/67/50 51/61/44
f 45/67/50 64/68/51 55/69/52
f 46/65/48 64/68/51 54/66/49
f 64/68/51 50/70/53 57/71/54
f 64/68/51 49/72/55 55/69/52
f 49/72/55 65/73/56 58/74/57
f 50/70/53 65/73/56 57/71/54
f 65/73/56 48/75/58 60/76/59
f 58/74/57 60/76/59 47/77/60
f 60/76/59 61/78/61 47/77/60
f 48/75/58 66/79/62 60/76/59
f 66/79/62 44/80/46 52/81/43
f 61/78/61 52/81/43 43/82/45
f 45/83/50 67/84/63 51/85/44
f 49/72/55 67/84/63 55/86/52
f 58/74/57 61/87/61 67/84/63
f 51/85/44 61/87/61 43/88/45
f 50/70/53 68/89/64 59/90/65
f 46/91/48 68/89/64 56/92/66
f 68/89/64 44/93/46 62/94/67
f 68/89/64 48/75/58 59/90/65
f 52/60/43 63/64/47 51/61/44
f 44/63/46 53/95/68 63/64/47
f 63/64/47 53/95/68 46/65/48
f 63/64/47 54/66/49 45/67/50
f 45/67/50 54/66/49 64/68/51
f 46/65/48 56/96/66 64/68/51
f 64/68/51 56/96/66 50/70/53
f 64/68/51 57/71/54 49/72/55
f 49/72/55 57/71/54 65/73/56
f 50/70/53 59/90/65 65/73/56
f 65/73/56 59/90/65 48/75/58
f 58/74/57 65/73/56 60/76/59
f 60/76/59 66/79/62 61/78/61
f 48/75/58 62/97/67 66/79/62
f 66/79/62 62/97/67 44/80/46
f 61/78/61 66/79/62 52/81/43
f 45/83/50 55/86/52 67/84/63
f 49/72/55 58/74/57 67/84/63
f 58/74/57 47/77/60 61/87/61
f 51/85/44 67/84/63 61/87/61
f 50/70/53 56/92/66 68/89/64
f 46/91/48 53/98/68 68/89/64
f 68/89/64 53/98/68 44/93/46
f 68/89/64 62/94/67 48/75/58
o LeftHand
v -2.290644 -2.582598 -1.368957
v -2.179882 -2.163262 -1.120180
v -2.120085 -2.854918 -0.985875
v -2.009323 -2.435582 -0.737098
v -2.747417 -2.582598 -1.165588
v -2.636655 -2.163263 -0.916812
v -2.576858 -2.854918 -0.782506
v -2.466096 -2.435582 -0.533730
v -2.167453 -2.764703 -1.226956
v -2.203903 -2.343093 -1.308824
v -2.032419 -2.253477 -0.923664
v -1.995969 -2.675087 -0.841796
v -2.341920 -2.930701 -0.869475
v -2.206886 -2.419474 -0.566183
v -2.552837 -2.675087 -0.593862
v -2.724321 -2.764703 -0.979022
v -2.589287 -2.253477 -0.675730
v -2.760771 -2.343093 -1.060891
v -2.549855 -2.598706 -1.336504
v -2.414820 -2.087479 -1.033212
v -1.994906 -2.509090 -1.122072
v -2.235185 -2.737704 -0.629744
v -2.761834 -2.509090 -0.780614
v -2.521555 -2.280476 -1.272943
v -2.653337 -3.550086 -1.568928
v -2.285384 -2.157055 -0.742494
v -2.091379 -1.571726 -1.056090
v -1.999614 -1.500057 -0.715291
v -2.456386 -1.500057 -0.511923
v -2.648247 -1.571726 -0.808157
v -2.234552 -1.424274 -0.628322
v -2.409031 -1.509109 -1.020209
v -1.679478 -1.569473 -0.130947
v -1.656382 -1.751579 0.055619
v -1.853945 -1.735470 0.226535
v -2.113155 -1.751579 0.258987
v -2.236346 -1.569473 0.116987
v -1.932444 -1.473052 0.050224
v -0.948785 -1.428910 1.510218
v -1.006172 -1.611016 1.516016
v -1.203735 -1.594908 1.686931
v -1.462945 -1.611016 1.719384
v -1.505653 -1.428910 1.758152
v -1.201750 -1.332489 1.691388
vn 0.1930 -0.1906 -0.9625
vn 0.9135 -0.0000 -0.4067
vn 0.6856 -0.4135 -0.5992
vn 0.9620 0.2645 0.0681
vn 0.4451 0.2454 -0.8612
vn 0.9194 -0.2739 0.2825
vn 0.8872 -0.3851 0.2542
vn 0.5804 -0.8091 -0.0924
vn 0.3411 -0.5446 0.7662
vn 0.1876 -0.8873 0.4212
vn -0.4052 -0.2739 0.8722
vn -0.4048 -0.3851 0.8294
vn -0.4571 -0.8091 0.3695
vn -0.9135 -0.0000 0.4067
vn -0.9040 -0.4135 0.1085
vn -0.5931 0.2645 0.7605
vn -0.9378 0.2454 -0.2455
vn -0.8444 -0.1906 -0.5006
vn -0.3886 0.2949 -0.8729
vn -0.4060 0.0603 -0.9119
vn 0.5929 0.4847 -0.6431
vn -0.8746 0.4847 0.0103
vn -0.2215 -0.8387 -0.4976
vn 0.6075 0.5681 -0.5552
vn 0.7531 -0.6570 -0.0356
vn 0.3341 -0.5703 0.7504
vn -0.5303 -0.6570 0.5359
vn -0.1154 0.9589 -0.2592
vn 0.3966 0.2223 0.8907
vn -0.7525 0.5193 0.4050
vn 0.3038 0.6649 0.6823
vn -0.2736 0.7400 -0.6145
vn 0.7996 0.3294 0.5022
vn -0.1619 0.3294 0.9302
vn 0.1291 -0.9483 0.2901
vn -0.2955 -0.6909 0.6599
vn -0.1287 0.9486 -0.2891
vn -0.5001 0.3944 0.7710
vn 0.2717 0.7441 0.6103
vn -0.8191 0.5680 0.0799
vn 0.8045 0.5193 -0.2882
vn 0.3156 -0.6307 0.7089
vn 0.9076 0.3944 0.1442
vn 0.6881 -0.6909 0.2220
vt 0.000194 0.891585
vt 0.015467 0.885424
vt 0.010182 0.897918
vt 0.009345 0.870102
vt 0.002968 0.880087
vt 0.033316 0.879334
vt 0.027113 0.890866
vt 0.021668 0.900648
vt 0.038434 0.897755
vt 0.029832 0.908947
vt 0.060484 0.895728
vt 0.048976 0.906891
vt 0.039964 0.914751
vt 0.058464 0.919238
vt 0.044450 0.925402
vt 0.085125 0.933196
vt 0.064257 0.935804
vt 0.048621 0.936840
vt 0.060763 0.959537
vt 0.040392 0.952261
vt 0.106108 0.999336
vt 0.051346 0.979676
vt 0.114549 0.962296
vt 0.036363 0.969763
vt 0.027793 0.915383
vt 0.018490 0.935336
vt 0.016267 0.922154
vt 0.033164 0.929736
vt 0.039001 0.944736
vt 0.025507 0.947103
vt 0.043677 0.819161
vt 0.057128 0.818194
vt 0.047790 0.883743
vt 0.084550 0.827653
vt 0.101075 0.901654
vt 0.119947 0.915265
vt 0.107208 0.924456
vt 0.076686 0.908454
vt 0.135945 0.980639
vt 0.109171 0.978103
vt 0.005817 0.843102
vt 0.020349 0.835712
vt 0.149395 0.941819
vt 0.143584 0.953180
vt 0.134085 0.961725
vt 0.072330 0.819138
vt 0.112044 0.748533
vt 0.115112 0.836338
vt 0.118402 0.755549
vt 0.131428 0.754597
vt 0.095822 0.837537
vt 0.129851 0.844007
vt 0.121026 0.903778
vt 0.127629 0.738550
vt 0.149395 0.752522
vt 0.081708 0.734402
vt 0.089259 0.739379
vt 0.101955 0.740465
vt 0.020855 0.872919
vt 0.132824 0.999806
vt 0.146869 0.738708
s 1
usemtl マテリアル.003
f 69/99/69 89/100/70 77/101/71
f 70/102/72 89/100/70 78/103/73
f 89/100/70 72/104/74 80/105/75
f 89/100/70 71/106/76 77/101/71
f 71/106/76 90/107/77 81/108/78
f 72/104/74 90/107/77 80/105/75
f 90/107/77 76/109/79 83/110/80
f 90/107/77 75/111/81 81/108/78
f 75/111/81 91/112/82 84/113/83
f 76/109/79 91/112/82 83/110/80
f 91/112/82 74/114/84 86/115/85
f 91/112/82 73/116/86 84/113/83
f 73/116/86 92/117/87 87/118/88
f 92/117/87 95/119/89 78/120/73
f 74/114/84 98/121/90 86/115/85
f 92/117/87 69/122/69 87/118/88
f 81/123/78 77/124/71 71/125/76
f 81/123/78 84/113/83 93/126/91
f 84/113/83 87/127/88 93/126/91
f 77/124/71 87/127/88 69/128/69
f 72/104/74 101/129/92 102/130/93
f 82/131/94 104/132/95 76/109/79
f 94/133/96 70/134/72 88/135/97
f 94/133/96 74/114/84 85/136/98
f 98/121/90 99/137/99 100/138/100
f 99/137/99 95/119/89 100/138/100
f 92/117/87 98/121/90 100/138/100
f 70/102/72 95/139/89 96/140/101
f 88/135/97 96/141/101 99/142/99
f 88/135/97 97/143/102 74/114/84
f 103/144/103 110/145/104 104/132/95
f 106/146/105 111/147/106 112/148/107
f 76/109/79 105/149/108 85/136/98
f 94/133/96 105/149/108 106/146/105
f 94/133/96 101/150/92 79/151/109
f 82/131/94 102/130/93 103/144/103
f 109/152/110 111/147/106 110/145/104
f 109/152/110 107/153/111 112/148/107
f 102/130/93 107/154/111 108/155/112
f 106/146/105 107/153/111 101/150/92
f 104/132/95 111/147/106 105/149/108
f 103/144/103 108/155/112 109/156/110
f 69/99/69 78/103/73 89/100/70
f 70/102/72 79/157/109 89/100/70
f 89/100/70 79/157/109 72/104/74
f 89/100/70 80/105/75 71/106/76
f 71/106/76 80/105/75 90/107/77
f 72/104/74 82/131/94 90/107/77
f 90/107/77 82/131/94 76/109/79
f 90/107/77 83/110/80 75/111/81
f 75/111/81 83/110/80 91/112/82
f 76/109/79 85/136/98 91/112/82
f 91/112/82 85/136/98 74/114/84
f 91/112/82 86/115/85 73/116/86
f 73/116/86 86/115/85 92/117/87
f 92/117/87 100/138/100 95/119/89
f 74/114/84 97/143/102 98/121/90
f 92/117/87 78/120/73 69/122/69
f 81/123/78 93/126/91 77/124/71
f 81/123/78 75/111/81 84/113/83
f 84/113/83 73/116/86 87/127/88
f 77/124/71 93/126/91 87/127/88
f 72/104/74 79/157/109 101/129/92
f 82/131/94 103/144/103 104/132/95
f 94/133/96 79/151/109 70/134/72
f 94/133/96 88/135/97 74/114/84
f 98/121/90 97/143/102 99/137/99
f 99/137/99 96/158/101 95/119/89
f 92/117/87 86/115/85 98/121/90
f 70/102/72 78/103/73 95/139/89
f 88/135/97 70/134/72 96/141/101
f 88/135/97 99/142/99 97/143/102
f 103/144/103 109/156/110 110/145/104
f 106/146/105 105/149/108 111/147/106
f 76/109/79 104/132/95 105/149/108
f 94/133/96 85/136/98 105/149/108
f 94/133/96 106/146/105 101/150/92
f 82/131/94 72/104/74 102/130/93
f 109/152/110 112/148/107 111/147/106
f 109/152/110 108/159/112 107/153/111
f 102/130/93 101/129/92 107/154/111
f 106/146/105 112/148/107 107/153/111
f 104/132/95 110/145/104 111/147/106
f 103/144/103 102/130/93 108/155/112
o LeftLeg
v -4.873476 -0.850046 5.749024
v -3.912197 1.690706 5.749024
v -4.873476 -0.850046 4.749024
v -3.912197 1.690706 4.749024
v -3.933784 -1.192066 5.749024
v -3.591763 -0.252373 5.749024
v -3.933784 -1.192066 4.749024
v -3.591763 -0.252373 4.749024
v -5.013911 -0.915531 5.249024
v -4.186167 1.258334 5.858593
v -3.403492 2.507121 5.249024
v -4.186167 1.258334 4.639457
v -4.441104 -1.124016 4.639457
v -4.024135 0.021597 4.639457
v -3.659813 -0.759694 4.639456
v -3.868298 -1.332500 5.249024
v -3.451329 -0.186887 5.249024
v -3.659813 -0.759694 5.858592
v -4.441104 -1.124017 5.858592
v -4.024135 0.021597 5.858592
v -4.402238 1.336978 5.249024
v -4.232620 -0.551209 4.409518
v -3.443742 -0.838337 5.249024
v -4.232620 -0.551209 6.088531
v -5.285927 -3.445148 5.249023
v -3.945492 0.237669 5.249024
vn -0.7858 -0.2531 0.5643
vn -0.8879 0.4601 -0.0000
vn -1.0000 -0.0054 -0.0000
vn 0.0828 0.4586 0.8848
vn -0.3993 0.3176 0.8600
vn 0.0828 0.4586 -0.8848
vn -0.3993 0.3176 -0.8600
vn -0.7858 -0.2531 -0.5643
vn -0.0324 -0.0386 -0.9987
vn -0.1603 -0.4405 -0.8833
vn 0.6895 0.2592 -0.6763
vn 0.7400 0.3451 -0.5774
vn 0.6645 -0.2418 -0.7071
vn 0.3297 -0.7542 -0.5678
vn 0.9397 -0.3420 -0.0000
vn 0.6697 -0.7426 -0.0000
vn 0.7400 0.3451 0.5773
vn 0.6645 -0.2418 0.7071
vn 0.3297 -0.7542 0.5678
vn -0.0324 -0.0386 0.9987
vn -0.1603 -0.4405 0.8833
vn 0.6895 0.2592 0.6763
vn -0.3420 -0.9397 -0.0000
vn 0.9504 0.3110 -0.0000
vn 0.9063 0.4226 -0.0000
vn 0.4770 0.8789 -0.0000
vt 0.995951 0.458847
vt 0.954894 0.598232
vt 0.961501 0.450371
vt 0.984011 0.639853
vt 0.995951 0.605036
vt 0.911926 0.626567
vt 0.916949 0.593089
vt 0.926458 0.455928
vt 0.886269 0.488761
vt 0.889589 0.446873
vt 0.880810 0.528173
vt 0.846459 0.517571
vt 0.850149 0.484738
vt 0.852939 0.451137
vt 0.815975 0.481432
vt 0.819344 0.446494
vt 0.779144 0.511188
vt 0.781756 0.478095
vt 0.785521 0.444691
vt 0.745185 0.474860
vt 0.750619 0.433392
vt 0.743236 0.515420
vt 0.691506 0.580250
vt 0.713403 0.434697
vt 0.869116 0.419233
vt 0.826848 0.367807
vt 0.865701 0.378957
vt 0.822393 0.414526
vt 0.775680 0.410323
vt 0.786615 0.371435
vt 0.808268 0.562415
vt 0.812619 0.516533
vt 0.838670 0.675727
vt 0.856599 0.552484
vt 0.757173 0.668033
vt 0.762639 0.543598
vt 0.935303 0.699817
vt 0.693167 0.615017
vt 0.791952 0.735032
s 1
usemtl マテリアル.005
f 113/160/113 133/161/114 121/162/115
f 114/163/116 133/161/114 122/164/117
f 133/161/114 116/165/118 124/166/119
f 133/161/114 115/167/120 121/162/115
f 115/167/120 134/168/121 125/169/122
f 124/166/119 126/170/123 134/168/121
f 134/168/121 120/171/124 127/172/125
f 134/168/121 119/173/126 125/169/122
f 119/173/126 135/174/127 128/175/128
f 120/171/124 135/174/127 127/172/125
f 135/174/127 118/176/129 130/177/130
f 135/174/127 117/178/131 128/175/128
f 117/178/131 136/179/132 131/180/133
f 118/176/129 136/179/132 130/177/130
f 132/181/134 122/182/117 136/179/132
f 136/179/132 113/183/113 131/180/133
f 125/184/122 121/185/115 115/186/120
f 125/184/122 128/175/128 137/187/135
f 128/175/128 131/188/133 137/187/135
f 121/185/115 131/188/133 113/189/113
f 120/171/124 138/190/136 129/191/137
f 116/192/118 138/190/136 126/193/123
f 138/190/136 114/194/116 132/195/134
f 138/190/136 118/176/129 129/191/137
f 113/160/113 122/164/117 133/161/114
f 114/163/116 123/196/138 133/161/114
f 133/161/114 123/196/138 116/165/118
f 133/161/114 124/166/119 115/167/120
f 115/167/120 124/166/119 134/168/121
f 124/166/119 116/165/118 126/170/123
f 134/168/121 126/170/123 120/171/124
f 134/168/121 127/172/125 119/173/126
f 119/173/126 127/172/125 135/174/127
f 120/171/124 129/191/137 135/174/127
f 135/174/127 129/191/137 118/176/129
f 135/174/127 130/177/130 117/178/131
f 117/178/131 130/177/130 136/179/132
f 118/176/129 132/181/134 136/179/132
f 132/181/134 114/197/116 122/182/117
f 136/179/132 122/182/117 113/183/113
f 125/184/122 137/187/135 121/185/115
f 125/184/122 119/173/126 128/175/128
f 128/175/128 117/178/131 131/188/133
f 121/185/115 137/187/135 131/188/133
f 120/171/124 126/193/123 138/190/136
f 116/192/118 123/198/138 138/190/136
f 138/190/136 123/198/138 114/194/116
f 138/190/136 132/195/134 118/176/129
o RightHand
v 2.747415 -2.582598 -1.165588
v 2.636652 -2.163262 -0.916812
v 2.576855 -2.854918 -0.782506
v 2.466093 -2.435582 -0.533730
v 2.290642 -2.582598 -1.368957
v 2.179879 -2.163263 -1.120180
v 2.120083 -2.854918 -0.985875
v 2.009320 -2.435582 -0.737098
v 2.724319 -2.764703 -0.979022
v 2.760769 -2.343093 -1.060891
v 2.589284 -2.253477 -0.675730
v 2.552834 -2.675087 -0.593862
v 2.341917 -2.930701 -0.869475
v 2.206883 -2.419474 -0.566183
v 1.995966 -2.675087 -0.841796
v 2.167451 -2.764703 -1.226956
v 2.032416 -2.253477 -0.923664
v 2.203901 -2.343093 -1.308824
v 2.549852 -2.598706 -1.336504
v 2.414818 -2.087479 -1.033212
v 2.761831 -2.509090 -0.780614
v 2.235182 -2.737704 -0.629744
v 1.994904 -2.509090 -1.122072
v 2.521553 -2.280476 -1.272943
v 2.653334 -3.550086 -1.568928
v 2.285382 -2.157055 -0.742494
v 2.648244 -1.571726 -0.808157
v 2.456384 -1.500057 -0.511922
v 1.999611 -1.500057 -0.715291
v 2.091376 -1.571726 -1.056090
v 2.234549 -1.424274 -0.628322
v 2.409028 -1.509109 -1.020209
v 2.236344 -1.569473 0.116987
v 2.113153 -1.751579 0.258987
v 1.853942 -1.735470 0.226535
v 1.656380 -1.751579 0.055619
v 1.679476 -1.569473 -0.130947
v 1.932441 -1.473052 0.050224
v 1.505650 -1.428910 1.758152
v 1.462942 -1.611016 1.719384
v 1.203732 -1.594908 1.686931
v 1.006169 -1.611016 1.516015
v 0.948782 -1.428910 1.510218
v 1.201748 -1.332489 1.691388
vn 0.8444 -0.1906 -0.5006
vn 0.9135 -0.0000 0.4067
vn 0.9040 -0.4135 0.1085
vn 0.5931 0.2645 0.7605
vn 0.9378 0.2454 -0.2455
vn 0.4052 -0.2739 0.8722
vn 0.4048 -0.3851 0.8294
vn 0.4571 -0.8091 0.3695
vn -0.3411 -0.5446 0.7662
vn -0.1876 -0.8873 0.4212
vn -0.9194 -0.2739 0.2825
vn -0.8872 -0.3851 0.2542
vn -0.5804 -0.8091 -0.0924
vn -0.9135 -0.0000 -0.4067
vn -0.6856 -0.4135 -0.5992
vn -0.9620 0.2645 0.0681
vn -0.4451 0.2454 -0.8612
vn -0.1930 -0.1906 -0.9625
vn 0.3886 0.2949 -0.8729
vn 0.4060 0.0603 -0.9119
vn 0.8746 0.4847 0.0103
vn -0.5929 0.4847 -0.6431
vn 0.2215 -0.8387 -0.4976
vn 0.8191 0.5680 0.0799
vn 0.5303 -0.6570 0.5359
vn -0.3341 -0.5703 0.7504
vn -0.7531 -0.6570 -0.0356
vn 0.1154 0.9589 -0.2592
vn -0.3966 0.2223 0.8907
vn -0.8045 0.5193 -0.2882
vn -0.3038 0.6649 0.6823
vn 0.2736 0.7400 -0.6145
vn 0.1619 0.3294 0.9302
vn -0.7996 0.3294 0.5022
vn -0.1291 -0.9483 0.2901
vn -0.6881 -0.6909 0.2220
vn 0.1287 0.9486 -0.2891
vn -0.9076 0.3944 0.1442
vn -0.2717 0.7441 0.6103
vn -0.6075 0.5681 -0.5552
vn 0.7525 0.5193 0.4050
vn -0.3156 -0.6307 0.7089
vn 0.5001 0.3944 0.7710
vn 0.2955 -0.6909 0.6599
vt 0.149783 0.885844
vt 0.164498 0.879908
vt 0.159406 0.891946
vt 0.158599 0.865146
vt 0.152455 0.874766
vt 0.181695 0.874040
vt 0.175718 0.885152
vt 0.170472 0.894576
vt 0.186626 0.891789
vt 0.178338 0.902572
vt 0.207870 0.889835
vt 0.196783 0.900591
vt 0.188100 0.908164
vt 0.205925 0.912487
vt 0.192422 0.918425
vt 0.231611 0.925935
vt 0.211506 0.928448
vt 0.196441 0.929446
vt 0.208139 0.951314
vt 0.188513 0.944304
vt 0.251828 0.989659
vt 0.199067 0.970718
vt 0.259961 0.953972
vt 0.184631 0.961167
vt 0.176374 0.908772
vt 0.167411 0.927997
vt 0.165269 0.915296
vt 0.181548 0.922602
vt 0.187172 0.937053
vt 0.174171 0.939334
vt 0.191677 0.816065
vt 0.204637 0.815134
vt 0.195640 0.878288
vt 0.231058 0.824247
vt 0.246979 0.895545
vt 0.265162 0.908659
vt 0.252888 0.917515
vt 0.223481 0.902097
vt 0.280576 0.971646
vt 0.254779 0.969202
vt 0.155201 0.839131
vt 0.169201 0.832012
vt 0.293534 0.934243
vt 0.287935 0.945190
vt 0.278784 0.953422
vt 0.219284 0.816043
vt 0.257547 0.748017
vt 0.260503 0.832615
vt 0.263673 0.754777
vt 0.276223 0.753859
vt 0.241918 0.833770
vt 0.274704 0.840004
vt 0.266201 0.897591
vt 0.272563 0.738399
vt 0.293534 0.751860
vt 0.228320 0.734402
vt 0.235594 0.739198
vt 0.247827 0.740243
vt 0.169689 0.867859
vt 0.277569 0.990112
vt 0.291101 0.738551
s 1
usemtl マテリアル.002
f 139/199/139 159/200/140 147/201/141
f 140/202/142 159/200/140 148/203/143
f 159/200/140 142/204/144 150/205/145
f 159/200/140 141/206/146 147/201/141
f 141/206/146 160/207/147 151/208/148
f 142/204/144 160/207/147 150/205/145
f 160/207/147 146/209/149 153/210/150
f 160/207/147 145/211/151 151/208/148
f 145/211/151 161/212/152 154/213/153
f 146/209/149 161/212/152 153/210/150
f 161/212/152 144/214/154 156/215/155
f 161/212/152 143/216/156 154/213/153
f 143/216/156 162/217/157 157/218/158
f 162/217/157 165/219/159 148/220/143
f 144/214/154 168/221/160 156/215/155
f 162/217/157 139/222/139 157/218/158
f 151/223/148 147/224/141 141/225/146
f 151/223/148 154/213/153 163/226/161
f 154/213/153 157/227/158 163/226/161
f 147/224/141 157/227/158 139/228/139
f 142/204/144 171/229/162 172/230/163
f 152/231/164 174/232/165 146/209/149
f 164/233/166 140/234/142 158/235/167
f 164/233/166 144/214/154 155/236/168
f 168/221/160 169/237/169 170/238/170
f 169/237/169 165/219/159 170/238/170
f 162/217/157 168/221/160 170/238/170
f 140/202/142 165/239/159 166/240/171
f 158/235/167 166/241/171 169/242/169
f 158/235/167 167/243/172 144/214/154
f 173/244/173 180/245/174 174/232/165
f 176/246/175 181/247/176 182/248/177
f 146/209/149 175/249/178 155/236/168
f 164/233/166 175/249/178 176/246/175
f 164/233/166 171/250/162 149/251/179
f 152/231/164 172/230/163 173/244/173
f 179/252/180 181/247/176 180/245/174
f 179/252/180 177/253/181 182/248/177
f 172/230/163 177/254/181 178/255/182
f 176/246/175 177/253/181 171/250/162
f 174/232/165 181/247/176 175/249/178
f 173/244/173 178/255/182 179/256/180
f 139/199/139 148/203/143 159/200/140
f 140/202/142 149/257/179 159/200/140
f 159/200/140 149/257/179 142/204/144
f 159/200/140 150/205/145 141/206/146
f 141/206/146 150/205/145 160/207/147
f 142/204/144 152/231/164 160/207/147
f 160/207/147 152/231/164 146/209/149
f 160/207/147 153/210/150 145/211/151
f 145/211/151 153/210/150 161/212/152
f 146/209/149 155/236/168 161/212/152
f 161/212/152 155/236/168 144/214/154
f 161/212/152 156/215/155 143/216/156
f 143/216/156 156/215/155 162/217/157
f 162/217/157 170/238/170 165/219/159
f 144/214/154 167/243/172 168/221/160
f 162/217/157 148/220/143 139/222/139
f 151/223/148 163/226/161 147/224/141
f 151/223/148 145/211/151 154/213/153
f 154/213/153 143/216/156 157/227/158
f 147/224/141 163/226/161 157/227/158
f 142/204/144 149/257/179 171/229/162
f 152/231/164 173/244/173 174/232/165
f 164/233/166 149/251/179 140/234/142
f 164/233/166 158/235/167 144/214/154
f 168/221/160 167/243/172 169/237/169
f 169/237/169 166/258/171 165/219/159
f 162/217/157 156/215/155 168/221/160
f 140/202/142 148/203/143 165/239/159
f 158/235/167 140/234/142 166/241/171
f 158/235/167 169/242/169 167/243/172
f 173/244/173 179/256/180 180/245/174
f 176/246/175 175/249/178 181/247/176
f 146/209/149 174/232/165 175/249/178
f 164/233/166 155/236/168 175/249/178
f 164/233/166 176/246/175 171/250/162
f 152/231/164 142/204/144 172/230/163
f 179/252/180 182/248/177 181/247/176
f 179/252/180 178/259/182 177/253/181
f 172/230/163 171/229/162 177/254/181
f 176/246/175 182/248/177 177/253/181
f 174/232/165 180/245/174 181/247/176
f 173/244/173 172/230/163 178/255/182
o RightLeg
v 4.873477 -0.850046 4.749024
v 3.912198 1.690706 4.749024
v 4.873477 -0.850046 5.749024
v 3.912198 1.690706 5.749024
v 3.933784 -1.192066 4.749024
v 3.591764 -0.252373 4.749024
v 3.933784 -1.192066 5.749024
v 3.591764 -0.252373 5.749024
v 5.013912 -0.915531 5.249024
v 4.186168 1.258334 4.639456
v 3.403493 2.507121 5.249024
v 4.186168 1.258334 5.858592
v 4.441105 -1.124017 5.858592
v 4.024136 0.021597 5.858592
v 3.659814 -0.759694 5.858593
v 3.868299 -1.332500 5.249024
v 3.451330 -0.186887 5.249024
v 3.659814 -0.759694 4.639456
v 4.441105 -1.124016 4.639457
v 4.024136 0.021597 4.639457
v 4.402239 1.336978 5.249024
v 4.232621 -0.551209 6.088531
v 3.443743 -0.838337 5.249024
v 4.232621 -0.551209 4.409518
v 5.285928 -3.445148 5.249023
v 3.945493 0.237669 5.249024
vn 0.7858 -0.2531 -0.5643
vn 0.8879 0.4601 -0.0000
vn 1.0000 -0.0054 -0.0000
vn -0.0828 0.4586 -0.8848
vn 0.3993 0.3176 -0.8600
vn -0.0828 0.4586 0.8848
vn 0.3993 0.3176 0.8600
vn 0.7858 -0.2531 0.5643
vn 0.0324 -0.0386 0.9987
vn 0.1603 -0.4405 0.8833
vn -0.6895 0.2592 0.6763
vn -0.7400 0.3451 0.5773
vn -0.6645 -0.2418 0.7071
vn -0.3297 -0.7542 0.5678
vn -0.9397 -0.3420 -0.0000
vn -0.6697 -0.7426 -0.0000
vn -0.7400 0.3451 -0.5774
vn -0.6645 -0.2418 -0.7071
vn -0.3297 -0.7542 -0.5678
vn 0.0324 -0.0386 -0.9987
vn 0.1603 -0.4405 -0.8833
vn -0.6895 0.2592 -0.6763
vn 0.3420 -0.9397 -0.0000
vn -0.9504 0.3110 -0.0000
vn -0.9063 0.4226 -0.0000
vn -0.4770 0.8789 -0.0000
vt 0.691506 0.276379
vt 0.732563 0.136994
vt 0.725957 0.284855
vt 0.703447 0.095373
vt 0.691506 0.130190
vt 0.775532 0.108659
vt 0.770508 0.142137
vt 0.760999 0.279298
vt 0.801189 0.246465
vt 0.797869 0.288354
vt 0.806648 0.207053
vt 0.840998 0.217655
vt 0.837309 0.250488
vt 0.834519 0.284089
vt 0.871482 0.253795
vt 0.868114 0.288732
vt 0.908313 0.224038
vt 0.905702 0.257131
vt 0.901937 0.290535
vt 0.942273 0.260366
vt 0.936838 0.301834
vt 0.944222 0.219805
vt 0.995951 0.154976
vt 0.974055 0.300529
vt 0.818342 0.315993
vt 0.860610 0.367419
vt 0.821757 0.356270
vt 0.865065 0.320700
vt 0.911777 0.324903
vt 0.900843 0.363791
vt 0.879189 0.172811
vt 0.874839 0.218693
vt 0.848787 0.059499
vt 0.830858 0.182742
vt 0.930285 0.067193
vt 0.924819 0.191628
vt 0.752154 0.035409
vt 0.994290 0.120208
vt 0.895505 0.000194
s 1
usemtl マテリアル.004
f 183/260/183 203/261/184 191/262/185
f 184/263/186 203/261/184 192/264/187
f 203/261/184 186/265/188 194/266/189
f 203/261/184 185/267/190 191/262/185
f 185/267/190 204/268/191 195/269/192
f 194/266/189 196/270/193 204/268/191
f 204/268/191 190/271/194 197/272/195
f 204/268/191 189/273/196 195/269/192
f 189/273/196 205/274/197 198/275/198
f 190/271/194 205/274/197 197/272/195
f 205/274/197 188/276/199 200/277/200
f 205/274/197 187/278/201 198/275/198
f 187/278/201 206/279/202 201/280/203
f 188/276/199 206/279/202 200/277/200
f 202/281/204 192/282/187 206/279/202
f 206/279/202 183/283/183 201/280/203
f 195/284/192 191/285/185 185/286/190
f 195/284/192 198/275/198 207/287/205
f 198/275/198 201/288/203 207/287/205
f 191/285/185 201/288/203 183/289/183
f 190/271/194 208/290/206 199/291/207
f 186/292/188 208/290/206 196/293/193
f 208/290/206 184/294/186 202/295/204
f 208/290/206 188/276/199 199/291/207
f 183/260/183 192/264/187 203/261/184
f 184/263/186 193/296/208 203/261/184
f 203/261/184 193/296/208 186/265/188
f 203/261/184 194/266/189 185/267/190
f 185/267/190 194/266/189 204/268/191
f 194/266/189 186/265/188 196/270/193
f 204/268/191 196/270/193 190/271/194
f 204/268/191 197/272/195 189/273/196
f 189/273/196 197/272/195 205/274/197
f 190/271/194 199/291/207 205/274/197
f 205/274/197 199/291/207 188/276/199
f 205/274/197 200/277/200 187/278/201
f 187/278/201 200/277/200 206/279/202
f 188/276/199 202/281/204 206/279/202
f 202/281/204 184/297/186 192/282/187
f 206/279/202 192/282/187 183/283/183
f 195/284/192 207/287/205 191/285/185
f 195/284/192 189/273/196 198/275/198
f 198/275/198 187/278/201 201/288/203
f 191/285/185 207/287/205 201/288/203
f 190/271/194 196/293/193 208/290/206
f 186/292/188 193/298/208 208/290/206
f 208/290/206 193/298/208 184/294/186
f 208/290/206 202/295/204 188/276/199
