# Blender 4.1.1
# www.blender.org
mtllib ruleFont.mtl
o テキスト
v -3.999212 0.650000 0.000001
v -3.934305 0.608976 0.000001
v -3.869536 0.570972 0.000001
v -3.804837 0.536094 0.000001
v -3.740138 0.504444 0.000001
v -3.675369 0.476128 0.000001
v -3.610462 0.451250 0.000001
v -3.545346 0.429913 0.000001
v -3.479952 0.412222 0.000001
v -3.414211 0.398281 0.000001
v -3.348053 0.388194 0.000001
v -3.281410 0.382066 0.000001
v -3.214212 0.380000 0.000001
v -3.110363 0.384783 0.000001
v -3.013841 0.399097 0.000001
v -2.924681 0.422891 0.000001
v -2.842916 0.456111 0.000001
v -2.768581 0.498707 0.000001
v -2.701712 0.550625 0.000001
v -2.642342 0.611814 0.000001
v -2.590508 0.682222 0.000001
v -2.546243 0.761797 0.000001
v -2.509582 0.850486 0.000001
v -2.480560 0.948238 0.000001
v -2.459212 1.055000 0.000001
v -4.039212 1.055000 0.000001
v -4.031391 1.253657 0.000001
v -4.008309 1.434676 0.000001
v -3.970541 1.598125 0.000001
v -3.918657 1.744074 0.000001
v -3.853232 1.872593 0.000001
v -3.774838 1.983750 0.000001
v -3.684048 2.077616 0.000001
v -3.581435 2.154259 0.000001
v -3.467573 2.213750 0.000001
v -3.343032 2.256158 0.000001
v -3.208389 2.281551 0.000001
v -3.064212 2.290000 0.000001
v -2.913309 2.280556 0.000001
v -2.771156 2.252778 0.000001
v -2.638587 2.207500 0.000001
v -2.516434 2.145555 0.000001
v -2.405531 2.067778 0.000001
v -2.306712 1.975000 0.000001
v -2.220809 1.868056 0.000001
v -2.148656 1.747778 0.000001
v -2.091087 1.615000 0.000001
v -2.048934 1.470556 0.000001
v -2.023031 1.315278 0.000001
v -2.014212 1.150000 0.000001
v -2.022291 0.996244 0.000001
v -2.046342 0.846204 0.000001
v -2.086087 0.701719 0.000001
v -2.141250 0.564630 0.000001
v -2.211550 0.436777 0.000001
v -2.296712 0.320000 0.000001
v -2.396458 0.216140 0.000001
v -2.510509 0.127037 0.000001
v -2.638587 0.054531 0.000001
v -2.780416 0.000463 0.000001
v -2.935717 -0.033327 0.000001
v -3.104211 -0.045000 0.000001
v -3.196492 -0.043223 0.000001
v -3.283702 -0.037870 0.000001
v -3.366398 -0.028906 0.000001
v -3.445137 -0.016296 0.000001
v -3.520473 -0.000006 0.000001
v -3.592961 0.020000 0.000001
v -3.663158 0.043756 0.000001
v -3.731618 0.071296 0.000001
v -3.798898 0.102656 0.000001
v -3.865553 0.137870 0.000001
v -3.932139 0.176973 0.000001
v -3.999212 0.220000 0.000001
v -2.469212 1.350000 0.000001
v -2.487226 1.435495 0.000001
v -2.511249 1.514375 0.000001
v -2.541243 1.586484 0.000001
v -2.577174 1.651667 0.000001
v -2.619009 1.709766 0.000001
v -2.666712 1.760625 0.000001
v -2.720247 1.804089 0.000001
v -2.779582 1.840000 0.000001
v -2.844680 1.868203 0.000001
v -2.915508 1.888542 0.000001
v -2.992030 1.900860 0.000001
v -3.074212 1.905000 0.000001
v -3.150427 1.900573 0.000001
v -3.221434 1.887500 0.000001
v -3.287024 1.866094 0.000001
v -3.346990 1.836667 0.000001
v -3.401122 1.799531 0.000001
v -3.449212 1.755000 0.000001
v -3.491052 1.703385 0.000001
v -3.526433 1.645000 0.000001
v -3.555149 1.580156 0.000001
v -3.576989 1.509166 0.000001
v -3.591746 1.432344 0.000001
v -3.599212 1.350000 0.000001
v -1.484212 3.410000 0.000000
v -1.039212 3.410000 0.000000
v -1.039212 0.000000 0.000001
v -1.484212 0.000000 0.000001
v -0.399211 0.000000 0.000000
v -0.399211 2.245000 0.000000
v 0.045788 2.245000 0.000000
v 0.045788 0.640000 0.000000
v 0.082956 0.590738 0.000000
v 0.121876 0.545486 0.000000
v 0.162429 0.504297 0.000000
v 0.204492 0.467222 0.000000
v 0.247944 0.434314 0.000000
v 0.292664 0.405625 0.000000
v 0.338529 0.381207 0.000000
v 0.385418 0.361111 0.000000
v 0.433210 0.345391 0.000000
v 0.481784 0.334097 0.000000
v 0.531017 0.327283 0.000000
v 0.580788 0.325000 0.000000
v 0.653911 0.328724 0.000000
v 0.720765 0.339792 0.000000
v 0.781335 0.358047 0.000000
v 0.835603 0.383333 0.000000
v 0.883551 0.415495 0.000000
v 0.925163 0.454375 0.000000
v 0.960421 0.499818 0.000000
v 0.989307 0.551667 0.000000
v 1.011804 0.609766 0.000000
v 1.027895 0.673958 0.000000
v 1.037562 0.744089 0.000000
v 1.040788 0.820000 0.000000
v 1.040788 2.245000 0.000000
v 1.485788 2.245000 0.000000
v 1.485788 0.850000 0.000000
v 1.479229 0.712650 0.000000
v 1.459978 0.585787 0.000000
v 1.428679 0.469688 0.000000
v 1.385973 0.364630 0.000000
v 1.332504 0.270891 0.000000
v 1.268914 0.188750 0.000000
v 1.195844 0.118484 0.000000
v 1.113937 0.060371 0.000000
v 1.023835 0.014688 0.000000
v 0.926182 -0.018287 0.000000
v 0.821619 -0.038275 0.000000
v 0.710788 -0.045000 0.000000
v 0.655022 -0.042326 0.000000
v 0.597988 -0.034444 0.000000
v 0.540085 -0.021562 0.000000
v 0.481714 -0.003889 0.000000
v 0.423274 0.018368 0.000000
v 0.365163 0.045000 0.000000
v 0.307782 0.075799 0.000000
v 0.251529 0.110556 0.000000
v 0.196804 0.149062 0.000000
v 0.144005 0.191111 0.000000
v 0.093534 0.236493 0.000000
v 0.045788 0.285000 0.000000
v 0.045788 0.000000 0.000000
v 4.420788 3.410000 -0.000000
v 4.420788 0.000000 0.000000
v 3.930789 0.000000 0.000000
v 3.930789 1.480000 0.000000
v 3.725789 1.480000 0.000000
v 3.664058 1.478021 0.000000
v 3.603196 1.470833 0.000000
v 3.542195 1.456563 0.000000
v 3.480048 1.433333 0.000000
v 3.415748 1.399271 0.000000
v 3.348288 1.352500 0.000000
v 3.276662 1.291146 0.000000
v 3.199862 1.213333 0.000000
v 3.116882 1.117188 0.000000
v 3.026714 1.000833 0.000000
v 2.928352 0.862396 0.000000
v 2.820788 0.700000 0.000000
v 2.370788 0.000000 0.000000
v 1.785788 0.000000 0.000000
v 1.841535 0.077066 0.000000
v 1.891760 0.146528 0.000000
v 1.937194 0.209531 0.000000
v 1.978566 0.267222 0.000000
v 2.016604 0.320747 0.000000
v 2.052038 0.371250 0.000000
v 2.085597 0.419878 0.000000
v 2.118010 0.467778 0.000000
v 2.150007 0.516094 0.000000
v 2.182316 0.565972 0.000000
v 2.215667 0.618559 0.000000
v 2.250788 0.675000 0.000000
v 2.314440 0.778958 0.000000
v 2.375835 0.878333 0.000000
v 2.435632 0.973125 0.000000
v 2.494492 1.063334 0.000000
v 2.553074 1.148958 0.000000
v 2.612038 1.230000 0.000000
v 2.672044 1.306459 0.000000
v 2.733751 1.378334 0.000000
v 2.797820 1.445625 0.000000
v 2.864909 1.508334 0.000000
v 2.935678 1.566459 0.000000
v 3.010788 1.620000 0.000000
v 2.922898 1.659346 0.000000
v 2.841830 1.704769 0.000000
v 2.767741 1.756094 0.000000
v 2.700788 1.813148 0.000000
v 2.641127 1.875758 0.000000
v 2.588913 1.943750 0.000000
v 2.544304 2.016950 0.000000
v 2.507455 2.095185 0.000000
v 2.478523 2.178281 0.000000
v 2.457664 2.266065 0.000000
v 2.445033 2.358362 0.000000
v 2.440789 2.455000 0.000000
v 2.449648 2.597732 0.000000
v 2.475835 2.730602 0.000000
v 2.518757 2.853125 0.000000
v 2.577826 2.964815 0.000000
v 2.652449 3.065186 0.000000
v 2.742038 3.153750 0.000000
v 2.846003 3.230023 0.000000
v 2.963752 3.293519 0.000000
v 3.094695 3.343750 0.000000
v 3.238242 3.380232 -0.000000
v 3.393804 3.402477 -0.000000
v 3.560788 3.410000 -0.000000
v 3.930789 2.990000 -0.000000
v 3.615788 2.990000 -0.000000
v 3.502918 2.985978 -0.000000
v 3.401576 2.974074 -0.000000
v 3.311414 2.954531 0.000000
v 3.232085 2.927593 0.000000
v 3.163242 2.893501 0.000000
v 3.104538 2.852500 0.000000
v 3.055626 2.804832 0.000000
v 3.016159 2.750741 0.000000
v 2.985788 2.690469 0.000000
v 2.964168 2.624259 0.000000
v 2.950950 2.552355 0.000000
v 2.945788 2.475000 0.000000
v 2.947895 2.404210 0.000000
v 2.957224 2.334931 0.000000
v 2.974538 2.268047 0.000000
v 3.000603 2.204445 0.000000
v 3.036182 2.145009 0.000000
v 3.082039 2.090625 0.000000
v 3.138937 2.042179 0.000000
v 3.207640 2.000556 0.000000
v 3.288914 1.966641 0.000000
v 3.383520 1.941319 0.000000
v 3.492224 1.925477 0.000000
v 3.615788 1.920000 0.000000
v 3.930789 1.920000 -0.000000
vn -0.0000 -0.0000 -1.0000
vt 0.387755 0.000000
vt 0.367347 0.000000
vt 0.377551 0.000000
vt 0.357143 0.000000
vt 0.397959 0.000000
vt 0.346939 0.000000
vt 0.408163 0.000000
vt 0.336735 0.000000
vt 0.418367 0.000000
vt 0.326531 0.000000
vt 0.428571 0.000000
vt 0.316327 0.000000
vt 0.438776 0.000000
vt 0.306122 0.000000
vt 0.448980 0.000000
vt 0.877551 0.000000
vt 0.867347 0.000000
vt 0.887755 0.000000
vt 0.857143 0.000000
vt 0.897959 0.000000
vt 0.846939 0.000000
vt 0.908163 0.000000
vt 0.295918 0.000000
vt 0.836735 0.000000
vt 0.459184 0.000000
vt 0.918367 0.000000
vt 0.826531 0.000000
vt 0.928571 0.000000
vt 0.816327 0.000000
vt 0.938776 0.000000
vt 0.806122 0.000000
vt 0.948980 0.000000
vt 0.469388 0.000000
vt 0.285714 0.000000
vt 0.795918 0.000000
vt 0.959184 0.000000
vt 0.785714 0.000000
vt 0.969388 0.000000
vt 0.479592 0.000000
vt 0.275510 0.000000
vt 0.775510 0.000000
vt 0.979592 0.000000
vt 0.765306 0.000000
vt 0.989796 0.000000
vt 0.489796 0.000000
vt 0.755102 0.000000
vt 0.265306 0.000000
vt 1.000000 0.000000
vt 0.500000 0.000000
vt 0.255102 0.000000
vt 0.510204 0.000000
vt 0.244898 0.000000
vt 0.234694 0.000000
vt 0.520408 0.000000
vt 0.224490 0.000000
vt 0.214286 0.000000
vt 0.530612 0.000000
vt 0.204082 0.000000
vt 0.540816 0.000000
vt 0.193878 0.000000
vt 0.010204 0.000000
vt 0.744898 0.000000
vt 0.000000 0.000000
vt 0.183673 0.000000
vt 0.020408 0.000000
vt 0.030612 0.000000
vt 0.551020 0.000000
vt 0.173469 0.000000
vt 0.040816 0.000000
vt 0.051020 0.000000
vt 0.163265 0.000000
vt 0.061224 0.000000
vt 0.153061 0.000000
vt 0.071429 0.000000
vt 0.561224 0.000000
vt 0.081633 0.000000
vt 0.142857 0.000000
vt 0.091837 0.000000
vt 0.132653 0.000000
vt 0.102041 0.000000
vt 0.112245 0.000000
vt 0.122449 0.000000
vt 0.571429 0.000000
vt 0.734694 0.000000
vt 0.581633 0.000000
vt 0.724490 0.000000
vt 0.714286 0.000000
vt 0.591837 0.000000
vt 0.704082 0.000000
vt 0.693878 0.000000
vt 0.602041 0.000000
vt 0.683673 0.000000
vt 0.673469 0.000000
vt 0.612245 0.000000
vt 0.663265 0.000000
vt 0.653061 0.000000
vt 0.642857 0.000000
vt 0.622449 0.000000
vt 0.632653 0.000000
vt 0.666667 0.000000
vt 0.333333 0.000000
vt 0.545455 0.000000
vt 0.509091 0.000000
vt 0.527273 0.000000
vt 0.490909 0.000000
vt 0.054545 0.000000
vt 0.018182 0.000000
vt 0.036364 0.000000
vt 0.563636 0.000000
vt 0.472727 0.000000
vt 0.454545 0.000000
vt 0.581818 0.000000
vt 0.436364 0.000000
vt 0.072727 0.000000
vt 0.418182 0.000000
vt 0.090909 0.000000
vt 0.600000 0.000000
vt 0.400000 0.000000
vt 0.109091 0.000000
vt 0.127273 0.000000
vt 0.381818 0.000000
vt 0.618182 0.000000
vt 0.145455 0.000000
vt 0.363636 0.000000
vt 0.163636 0.000000
vt 0.981818 0.000000
vt 0.345455 0.000000
vt 0.181818 0.000000
vt 0.327273 0.000000
vt 0.200000 0.000000
vt 0.636364 0.000000
vt 0.218182 0.000000
vt 0.309091 0.000000
vt 0.236364 0.000000
vt 0.290909 0.000000
vt 0.254545 0.000000
vt 0.272727 0.000000
vt 0.963636 0.000000
vt 0.654545 0.000000
vt 0.945455 0.000000
vt 0.927273 0.000000
vt 0.672727 0.000000
vt 0.909091 0.000000
vt 0.690909 0.000000
vt 0.890909 0.000000
vt 0.872727 0.000000
vt 0.709091 0.000000
vt 0.854545 0.000000
vt 0.836364 0.000000
vt 0.727273 0.000000
vt 0.818182 0.000000
vt 0.745455 0.000000
vt 0.800000 0.000000
vt 0.781818 0.000000
vt 0.763636 0.000000
vt 0.010753 0.000000
vt 0.720430 0.000000
vt 0.709677 0.000000
vt 0.698925 0.000000
vt 0.688172 0.000000
vt 0.677419 0.000000
vt 0.655914 0.000000
vt 0.645161 0.000000
vt 0.634409 0.000000
vt 0.731183 0.000000
vt 0.623656 0.000000
vt 0.741935 0.000000
vt 0.752688 0.000000
vt 0.763441 0.000000
vt 0.612903 0.000000
vt 0.774194 0.000000
vt 0.784946 0.000000
vt 0.795699 0.000000
vt 0.602151 0.000000
vt 0.806452 0.000000
vt 0.817204 0.000000
vt 0.827957 0.000000
vt 0.591398 0.000000
vt 0.838710 0.000000
vt 0.849462 0.000000
vt 0.580645 0.000000
vt 0.860215 0.000000
vt 0.870968 0.000000
vt 0.569892 0.000000
vt 0.881720 0.000000
vt 0.559140 0.000000
vt 0.892473 0.000000
vt 0.903226 0.000000
vt 0.548387 0.000000
vt 0.913979 0.000000
vt 0.537634 0.000000
vt 0.924731 0.000000
vt 0.526882 0.000000
vt 0.935484 0.000000
vt 0.946237 0.000000
vt 0.516129 0.000000
vt 0.956989 0.000000
vt 0.967742 0.000000
vt 0.505376 0.000000
vt 0.978495 0.000000
vt 0.989247 0.000000
vt 0.032258 0.000000
vt 0.494624 0.000000
vt 0.483871 0.000000
vt 0.473118 0.000000
vt 0.462366 0.000000
vt 0.451613 0.000000
vt 0.440860 0.000000
vt 0.430108 0.000000
vt 0.043011 0.000000
vt 0.053763 0.000000
vt 0.419355 0.000000
vt 0.021505 0.000000
vt 0.064516 0.000000
vt 0.075269 0.000000
vt 0.086022 0.000000
vt 0.408602 0.000000
vt 0.096774 0.000000
vt 0.107527 0.000000
vt 0.397849 0.000000
vt 0.118280 0.000000
vt 0.387097 0.000000
vt 0.129032 0.000000
vt 0.376344 0.000000
vt 0.139785 0.000000
vt 0.365591 0.000000
vt 0.150538 0.000000
vt 0.354839 0.000000
vt 0.161290 0.000000
vt 0.344086 0.000000
vt 0.172043 0.000000
vt 0.322581 0.000000
vt 0.182796 0.000000
vt 0.311828 0.000000
vt 0.301075 0.000000
vt 0.290323 0.000000
vt 0.279570 0.000000
vt 0.268817 0.000000
vt 0.258065 0.000000
vt 0.247312 0.000000
vt 0.236559 0.000000
vt 0.225806 0.000000
vt 0.215054 0.000000
vt 0.204301 0.000000
vt 0.193548 0.000000
s 0
f 39/1/1 37/2/1 38/3/1
f 39/1/1 36/4/1 37/2/1
f 40/5/1 36/4/1 39/1/1
f 40/5/1 35/6/1 36/4/1
f 41/7/1 35/6/1 40/5/1
f 41/7/1 34/8/1 35/6/1
f 42/9/1 34/8/1 41/7/1
f 42/9/1 33/10/1 34/8/1
f 43/11/1 33/10/1 42/9/1
f 43/11/1 32/12/1 33/10/1
f 44/13/1 32/12/1 43/11/1
f 44/13/1 31/14/1 32/12/1
f 45/15/1 87/16/1 44/13/1
f 87/16/1 31/14/1 44/13/1
f 45/15/1 86/17/1 87/16/1
f 88/18/1 31/14/1 87/16/1
f 45/15/1 85/19/1 86/17/1
f 89/20/1 31/14/1 88/18/1
f 45/15/1 84/21/1 85/19/1
f 90/22/1 31/14/1 89/20/1
f 90/22/1 30/23/1 31/14/1
f 45/15/1 83/24/1 84/21/1
f 46/25/1 83/24/1 45/15/1
f 91/26/1 30/23/1 90/22/1
f 46/25/1 82/27/1 83/24/1
f 92/28/1 30/23/1 91/26/1
f 46/25/1 81/29/1 82/27/1
f 93/30/1 30/23/1 92/28/1
f 46/25/1 80/31/1 81/29/1
f 94/32/1 30/23/1 93/30/1
f 47/33/1 80/31/1 46/25/1
f 94/32/1 29/34/1 30/23/1
f 47/33/1 79/35/1 80/31/1
f 95/36/1 29/34/1 94/32/1
f 47/33/1 78/37/1 79/35/1
f 96/38/1 29/34/1 95/36/1
f 48/39/1 78/37/1 47/33/1
f 96/38/1 28/40/1 29/34/1
f 48/39/1 77/41/1 78/37/1
f 97/42/1 28/40/1 96/38/1
f 48/39/1 76/43/1 77/41/1
f 98/44/1 28/40/1 97/42/1
f 49/45/1 76/43/1 48/39/1
f 49/45/1 75/46/1 76/43/1
f 98/44/1 27/47/1 28/40/1
f 99/48/1 27/47/1 98/44/1
f 49/45/1 99/48/1 75/46/1
f 49/45/1 27/47/1 99/48/1
f 50/49/1 27/47/1 49/45/1
f 50/49/1 26/50/1 27/47/1
f 51/51/1 25/52/1 50/49/1
f 25/52/1 26/50/1 50/49/1
f 51/51/1 24/53/1 25/52/1
f 52/54/1 24/53/1 51/51/1
f 52/54/1 23/55/1 24/53/1
f 52/54/1 22/56/1 23/55/1
f 53/57/1 22/56/1 52/54/1
f 53/57/1 21/58/1 22/56/1
f 54/59/1 21/58/1 53/57/1
f 54/59/1 20/60/1 21/58/1
f 2/61/1 74/62/1 1/63/1
f 54/59/1 19/64/1 20/60/1
f 3/65/1 74/62/1 2/61/1
f 4/66/1 74/62/1 3/65/1
f 55/67/1 19/64/1 54/59/1
f 55/67/1 18/68/1 19/64/1
f 5/69/1 74/62/1 4/66/1
f 6/70/1 74/62/1 5/69/1
f 55/67/1 17/71/1 18/68/1
f 7/72/1 74/62/1 6/70/1
f 55/67/1 16/73/1 17/71/1
f 8/74/1 74/62/1 7/72/1
f 56/75/1 16/73/1 55/67/1
f 9/76/1 74/62/1 8/74/1
f 56/75/1 15/77/1 16/73/1
f 10/78/1 74/62/1 9/76/1
f 56/75/1 14/79/1 15/77/1
f 11/80/1 74/62/1 10/78/1
f 12/81/1 74/62/1 11/80/1
f 56/75/1 13/82/1 14/79/1
f 13/82/1 74/62/1 12/81/1
f 56/75/1 74/62/1 13/82/1
f 57/83/1 74/62/1 56/75/1
f 57/83/1 73/84/1 74/62/1
f 58/85/1 73/84/1 57/83/1
f 58/85/1 72/86/1 73/84/1
f 58/85/1 71/87/1 72/86/1
f 59/88/1 71/87/1 58/85/1
f 59/88/1 70/89/1 71/87/1
f 59/88/1 69/90/1 70/89/1
f 60/91/1 69/90/1 59/88/1
f 60/91/1 68/92/1 69/90/1
f 60/91/1 67/93/1 68/92/1
f 61/94/1 67/93/1 60/91/1
f 61/94/1 66/95/1 67/93/1
f 61/94/1 65/96/1 66/95/1
f 61/94/1 64/97/1 65/96/1
f 62/98/1 64/97/1 61/94/1
f 62/98/1 63/99/1 64/97/1
f 102/100/1 100/63/1 101/101/1
f 102/100/1 103/48/1 100/63/1
f 134/102/1 132/103/1 133/104/1
f 134/102/1 131/105/1 132/103/1
f 107/106/1 105/107/1 106/108/1
f 107/106/1 104/63/1 105/107/1
f 135/109/1 131/105/1 134/102/1
f 135/109/1 130/110/1 131/105/1
f 135/109/1 129/111/1 130/110/1
f 136/112/1 129/111/1 135/109/1
f 136/112/1 128/113/1 129/111/1
f 108/114/1 104/63/1 107/106/1
f 136/112/1 127/115/1 128/113/1
f 109/116/1 104/63/1 108/114/1
f 137/117/1 127/115/1 136/112/1
f 137/117/1 126/118/1 127/115/1
f 110/119/1 104/63/1 109/116/1
f 111/120/1 104/63/1 110/119/1
f 137/117/1 125/121/1 126/118/1
f 138/122/1 125/121/1 137/117/1
f 112/123/1 104/63/1 111/120/1
f 138/122/1 124/124/1 125/121/1
f 113/125/1 158/126/1 112/123/1
f 158/126/1 104/63/1 112/123/1
f 138/122/1 123/127/1 124/124/1
f 114/128/1 158/126/1 113/125/1
f 138/122/1 122/129/1 123/127/1
f 115/130/1 158/126/1 114/128/1
f 139/131/1 122/129/1 138/122/1
f 116/132/1 158/126/1 115/130/1
f 139/131/1 121/133/1 122/129/1
f 117/134/1 158/126/1 116/132/1
f 139/131/1 120/135/1 121/133/1
f 118/136/1 158/126/1 117/134/1
f 139/131/1 119/137/1 120/135/1
f 119/137/1 158/126/1 118/136/1
f 139/131/1 158/126/1 119/137/1
f 139/131/1 157/138/1 158/126/1
f 159/48/1 104/63/1 158/126/1
f 140/139/1 157/138/1 139/131/1
f 140/139/1 156/140/1 157/138/1
f 140/139/1 155/141/1 156/140/1
f 141/142/1 155/141/1 140/139/1
f 141/142/1 154/143/1 155/141/1
f 142/144/1 154/143/1 141/142/1
f 142/144/1 153/145/1 154/143/1
f 142/144/1 152/146/1 153/145/1
f 143/147/1 152/146/1 142/144/1
f 143/147/1 151/148/1 152/146/1
f 143/147/1 150/149/1 151/148/1
f 144/150/1 150/149/1 143/147/1
f 144/150/1 149/151/1 150/149/1
f 145/152/1 149/151/1 144/150/1
f 145/152/1 148/153/1 149/151/1
f 145/152/1 147/154/1 148/153/1
f 146/155/1 147/154/1 145/152/1
f 161/156/1 227/157/1 160/63/1
f 227/157/1 226/158/1 160/63/1
f 227/157/1 225/159/1 226/158/1
f 227/157/1 224/160/1 225/159/1
f 227/157/1 223/161/1 224/160/1
f 227/157/1 222/100/1 223/161/1
f 227/157/1 221/162/1 222/100/1
f 227/157/1 220/163/1 221/162/1
f 227/157/1 219/164/1 220/163/1
f 227/157/1 228/165/1 219/164/1
f 228/165/1 218/166/1 219/164/1
f 161/156/1 253/48/1 227/157/1
f 229/167/1 218/166/1 228/165/1
f 230/168/1 218/166/1 229/167/1
f 231/169/1 218/166/1 230/168/1
f 231/169/1 217/170/1 218/166/1
f 232/171/1 217/170/1 231/169/1
f 233/172/1 217/170/1 232/171/1
f 234/173/1 217/170/1 233/172/1
f 234/173/1 216/174/1 217/170/1
f 235/175/1 216/174/1 234/173/1
f 236/176/1 216/174/1 235/175/1
f 237/177/1 216/174/1 236/176/1
f 237/177/1 215/178/1 216/174/1
f 238/179/1 215/178/1 237/177/1
f 239/180/1 215/178/1 238/179/1
f 239/180/1 214/181/1 215/178/1
f 240/182/1 214/181/1 239/180/1
f 241/183/1 214/181/1 240/182/1
f 241/183/1 213/184/1 214/181/1
f 242/185/1 213/184/1 241/183/1
f 242/185/1 212/186/1 213/184/1
f 243/187/1 212/186/1 242/185/1
f 244/188/1 212/186/1 243/187/1
f 244/188/1 211/189/1 212/186/1
f 245/190/1 211/189/1 244/188/1
f 245/190/1 210/191/1 211/189/1
f 246/192/1 210/191/1 245/190/1
f 246/192/1 209/193/1 210/191/1
f 247/194/1 209/193/1 246/192/1
f 248/195/1 209/193/1 247/194/1
f 248/195/1 208/196/1 209/193/1
f 249/197/1 208/196/1 248/195/1
f 250/198/1 208/196/1 249/197/1
f 250/198/1 207/199/1 208/196/1
f 251/200/1 207/199/1 250/198/1
f 252/201/1 207/199/1 251/200/1
f 161/156/1 163/202/1 253/48/1
f 163/202/1 252/201/1 253/48/1
f 163/202/1 207/199/1 252/201/1
f 163/202/1 206/203/1 207/199/1
f 163/202/1 205/204/1 206/203/1
f 163/202/1 204/205/1 205/204/1
f 163/202/1 203/206/1 204/205/1
f 163/202/1 202/207/1 203/206/1
f 163/202/1 201/208/1 202/207/1
f 163/202/1 200/209/1 201/208/1
f 163/202/1 164/210/1 200/209/1
f 164/210/1 165/211/1 200/209/1
f 165/211/1 199/212/1 200/209/1
f 161/156/1 162/213/1 163/202/1
f 166/214/1 199/212/1 165/211/1
f 167/215/1 199/212/1 166/214/1
f 168/216/1 199/212/1 167/215/1
f 168/216/1 198/217/1 199/212/1
f 169/218/1 198/217/1 168/216/1
f 170/219/1 198/217/1 169/218/1
f 170/219/1 197/220/1 198/217/1
f 171/221/1 197/220/1 170/219/1
f 171/221/1 196/222/1 197/220/1
f 172/223/1 196/222/1 171/221/1
f 172/223/1 195/224/1 196/222/1
f 173/225/1 195/224/1 172/223/1
f 173/225/1 194/226/1 195/224/1
f 174/227/1 194/226/1 173/225/1
f 174/227/1 193/228/1 194/226/1
f 175/229/1 193/228/1 174/227/1
f 175/229/1 192/230/1 193/228/1
f 175/229/1 191/101/1 192/230/1
f 176/231/1 191/101/1 175/229/1
f 176/231/1 190/232/1 191/101/1
f 177/233/1 190/232/1 176/231/1
f 177/233/1 189/234/1 190/232/1
f 177/233/1 188/235/1 189/234/1
f 177/233/1 187/236/1 188/235/1
f 177/233/1 186/237/1 187/236/1
f 177/233/1 185/238/1 186/237/1
f 177/233/1 184/239/1 185/238/1
f 177/233/1 183/240/1 184/239/1
f 177/233/1 182/241/1 183/240/1
f 177/233/1 181/242/1 182/241/1
f 177/233/1 180/243/1 181/242/1
f 177/233/1 179/244/1 180/243/1
f 177/233/1 178/245/1 179/244/1
