# Blender 4.1.1
# www.blender.org
mtllib mahou.mtl
o 魔法陣
v -1.002917 -0.842716 0.238948
v -0.989578 -0.835224 0.226067
v -1.505815 -0.147328 0.122632
v -1.492476 -0.139836 0.109751
v -0.904223 -0.147328 0.745599
v -0.890884 -0.139836 0.732718
v -1.371080 -0.610920 -0.007479
v -1.357741 -0.603428 -0.020361
v -1.272387 0.084468 0.499172
v -1.259047 0.091960 0.486290
v -0.769488 -0.610920 0.615488
v -0.756149 -0.603428 0.602606
v -1.264431 -0.841925 -0.031398
v -1.251092 -0.834433 -0.044280
v -1.602991 -0.190461 -0.003083
v -1.589652 -0.182968 -0.015964
v -1.298467 0.200278 0.539522
v -1.285128 0.207770 0.526640
v -0.771702 -0.209698 0.846553
v -0.758363 -0.202206 0.833672
v -0.750667 -0.853814 0.493706
v -0.737328 -0.846322 0.480824
v -0.969233 -0.958614 0.206420
v -0.955894 -0.951122 0.193539
v -1.498519 -0.558197 -0.108781
v -1.485180 -0.550704 -0.121663
v -1.529099 0.089694 0.236377
v -1.515760 0.097186 0.223496
v -1.018711 0.089693 0.764899
v -1.005372 0.097185 0.752017
v -0.672696 -0.558197 0.746384
v -0.659356 -0.550704 0.733503
v -1.002917 -0.842716 0.238948
v -0.989578 -0.835224 0.226067
v -1.061923 -0.836393 0.181523
v -1.048584 -0.828901 0.168642
v -1.122995 -0.817598 0.129213
v -1.109656 -0.810105 0.116331
v -1.184467 -0.786841 0.083446
v -1.171128 -0.779349 0.070564
v -1.244661 -0.744963 0.045470
v -1.231322 -0.737471 0.032588
v -1.301937 -0.693106 0.016320
v -1.288598 -0.685614 0.003438
v -1.354731 -0.632685 -0.003208
v -1.341392 -0.625193 -0.016089
v -1.401604 -0.565347 -0.012582
v -1.388265 -0.557855 -0.025463
v -1.441277 -0.492929 -0.011545
v -1.427938 -0.485437 -0.024426
v -1.472668 -0.417407 -0.000126
v -1.459329 -0.409915 -0.013008
v -1.494921 -0.340841 0.021363
v -1.481581 -0.333348 0.008482
v -1.507428 -0.265319 0.052337
v -1.494089 -0.257827 0.039455
v -1.509849 -0.192901 0.091949
v -1.496510 -0.185409 0.079067
v -1.502117 -0.125563 0.139121
v -1.488778 -0.118071 0.126239
v -1.484443 -0.065142 0.192564
v -1.471104 -0.057649 0.179683
v -1.457310 -0.013285 0.250823
v -1.443971 -0.005793 0.237941
v -1.421458 0.028593 0.312306
v -1.408119 0.036085 0.299424
v -1.377864 0.059350 0.375337
v -1.364525 0.066842 0.362456
v -1.327717 0.078146 0.438198
v -1.314378 0.085638 0.425316
v -1.272387 0.084468 0.499172
v -1.259047 0.091960 0.486290
v -1.213381 0.078146 0.556597
v -1.200042 0.085638 0.543715
v -1.152308 0.059350 0.608907
v -1.138969 0.066842 0.596025
v -1.090837 0.028593 0.654674
v -1.077498 0.036085 0.641793
v -1.030643 -0.013285 0.692650
v -1.017303 -0.005793 0.679768
v -0.973367 -0.065142 0.721800
v -0.960028 -0.057649 0.708919
v -0.920572 -0.125563 0.741328
v -0.907233 -0.118071 0.728446
v -0.873699 -0.192901 0.750702
v -0.860360 -0.185409 0.737820
v -0.834026 -0.265319 0.749665
v -0.820687 -0.257827 0.736783
v -0.802635 -0.340841 0.738246
v -0.789296 -0.333348 0.725364
v -0.780383 -0.417407 0.716756
v -0.767044 -0.409915 0.703875
v -0.767875 -0.492929 0.685783
v -0.754536 -0.485437 0.672902
v -0.765454 -0.565347 0.646171
v -0.752115 -0.557855 0.633289
v -0.773187 -0.632685 0.598999
v -0.759847 -0.625193 0.586118
v -0.790860 -0.693106 0.545555
v -0.777521 -0.685614 0.532674
v -0.817993 -0.744963 0.487297
v -0.804654 -0.737471 0.474416
v -0.853845 -0.786841 0.425814
v -0.840506 -0.779349 0.412933
v -0.897439 -0.817598 0.362783
v -0.884100 -0.810105 0.349901
v -0.947586 -0.836393 0.299922
v -0.934247 -0.828901 0.287040
v -0.969233 -0.958614 0.206420
v -0.955894 -0.951122 0.193539
v -1.042991 -0.950711 0.134638
v -1.029652 -0.943218 0.121757
v -1.119331 -0.927216 0.069252
v -1.105991 -0.919724 0.056370
v -1.196170 -0.888770 0.012043
v -1.182831 -0.881278 -0.000839
v -1.271414 -0.836423 -0.035428
v -1.258074 -0.828931 -0.048310
v -1.343008 -0.771602 -0.071865
v -1.329669 -0.764110 -0.084746
v -1.409001 -0.696075 -0.096275
v -1.395662 -0.688583 -0.109157
v -1.467592 -0.611903 -0.107992
v -1.454253 -0.604411 -0.120873
v -1.517184 -0.521380 -0.106696
v -1.503844 -0.513888 -0.119577
v -1.556422 -0.426978 -0.092422
v -1.543083 -0.419486 -0.105304
v -1.584238 -0.331270 -0.065561
v -1.570899 -0.323778 -0.078442
v -1.599872 -0.236868 -0.026845
v -1.586533 -0.229376 -0.039726
v -1.602898 -0.146345 0.022672
v -1.589559 -0.138853 0.009790
v -1.593233 -0.062173 0.081636
v -1.579894 -0.054681 0.068755
v -1.571141 0.013354 0.148441
v -1.557802 0.020846 0.135560
v -1.537225 0.078175 0.221263
v -1.523886 0.085667 0.208382
v -1.492409 0.130522 0.298117
v -1.479070 0.138014 0.285236
v -1.437917 0.168968 0.376907
v -1.424577 0.176460 0.364025
v -1.375234 0.192463 0.455482
v -1.361895 0.199955 0.442600
v -1.306070 0.200366 0.531700
v -1.292731 0.207858 0.518818
v -1.232312 0.192463 0.603481
v -1.218973 0.199955 0.590600
v -1.155973 0.168968 0.668868
v -1.142634 0.176460 0.655987
v -1.079133 0.130522 0.726077
v -1.065794 0.138014 0.713196
v -1.003890 0.078175 0.773548
v -0.990551 0.085667 0.760666
v -0.932296 0.013354 0.809985
v -0.918957 0.020846 0.797103
v -0.866303 -0.062173 0.834395
v -0.852963 -0.054681 0.821513
v -0.807711 -0.146345 0.846112
v -0.794372 -0.138853 0.833230
v -0.758120 -0.236868 0.844815
v -0.744781 -0.229376 0.831934
v -0.718881 -0.331270 0.830542
v -0.705542 -0.323778 0.817661
v -0.691065 -0.426978 0.803681
v -0.677726 -0.419486 0.790799
v -0.675431 -0.521380 0.764964
v -0.662092 -0.513888 0.752083
v -0.672406 -0.611903 0.715448
v -0.659066 -0.604411 0.702567
v -0.682070 -0.696075 0.656484
v -0.668731 -0.688583 0.643602
v -0.704162 -0.771602 0.589679
v -0.690823 -0.764110 0.576797
v -0.738078 -0.836423 0.516857
v -0.724739 -0.828931 0.503975
v -0.782894 -0.888770 0.440002
v -0.769555 -0.881278 0.427121
v -0.837387 -0.927216 0.361213
v -0.824048 -0.919724 0.348332
v -0.900070 -0.950711 0.282638
v -0.886730 -0.943218 0.269757
v -1.491782 -0.148218 0.121121
v -0.902222 -0.148218 0.731627
v -0.998942 -0.829698 0.235110
v -1.263022 0.078942 0.490129
v -0.770182 -0.602538 0.604118
v -1.359742 -0.602538 -0.006389
v -1.591720 -0.188580 -0.005844
v -1.290207 0.198294 0.531395
v -0.768651 -0.207627 0.835391
v -0.747824 -0.845374 0.486032
v -1.256509 -0.833602 -0.033879
v -1.488281 -0.552680 -0.110497
v -1.518558 0.088804 0.231249
v -1.013218 0.088804 0.754544
v -0.670624 -0.552680 0.736212
v -0.964229 -0.949138 0.201588
v -1.056014 -0.828059 0.176964
v -1.116473 -0.809451 0.125179
v -1.177327 -0.779003 0.079871
v -1.236918 -0.737546 0.042276
v -1.293619 -0.686210 0.013418
v -1.345883 -0.626394 -0.005913
v -1.392286 -0.559732 -0.015193
v -1.431561 -0.488041 -0.014166
v -1.462637 -0.413277 -0.002862
v -1.484666 -0.337479 0.018411
v -1.497048 -0.262715 0.049074
v -1.499444 -0.191024 0.088289
v -1.491790 -0.124362 0.134987
v -1.474294 -0.064546 0.187895
v -1.447433 -0.013210 0.245568
v -1.411940 0.028247 0.306434
v -1.368784 0.058695 0.368833
v -1.319140 0.077303 0.431063
v -1.264365 0.083562 0.491425
v -1.205950 0.077303 0.548275
v -1.145492 0.058695 0.600059
v -1.084637 0.028247 0.645367
v -1.025046 -0.013210 0.682963
v -0.968345 -0.064546 0.711820
v -0.916081 -0.124362 0.731152
v -0.869678 -0.191024 0.740431
v -0.830403 -0.262715 0.739404
v -0.799327 -0.337479 0.728100
v -0.777298 -0.413277 0.706827
v -0.764916 -0.488041 0.676164
v -0.762520 -0.559732 0.636949
v -0.770174 -0.626394 0.590251
v -0.787670 -0.686210 0.537344
v -0.814531 -0.737546 0.479670
v -0.850024 -0.779003 0.418804
v -0.893180 -0.809451 0.356405
v -0.942824 -0.828059 0.294175
v -0.997599 -0.834318 0.233813
v -1.037081 -0.942376 0.130080
v -1.112808 -0.919069 0.065218
v -1.189031 -0.880933 0.008468
v -1.263670 -0.829005 -0.038621
v -1.334690 -0.764705 -0.074766
v -1.400153 -0.689784 -0.098980
v -1.458274 -0.606287 -0.110603
v -1.507467 -0.516493 -0.109317
v -1.546391 -0.422848 -0.095159
v -1.573983 -0.327908 -0.068513
v -1.589492 -0.234263 -0.030107
v -1.592494 -0.144468 0.019011
v -1.582906 -0.060972 0.077502
v -1.560992 0.013949 0.143771
v -1.527347 0.078250 0.216009
v -1.482892 0.130177 0.292246
v -1.428837 0.168313 0.370403
v -1.366657 0.191620 0.448347
v -1.298048 0.199460 0.523953
v -1.224883 0.191620 0.595159
v -1.149156 0.168313 0.660021
v -1.072934 0.130177 0.716770
v -0.998294 0.078250 0.763860
v -0.927275 0.013949 0.800005
v -0.861811 -0.060972 0.824219
v -0.803690 -0.144468 0.835842
v -0.754497 -0.234263 0.834555
v -0.715573 -0.327908 0.820397
v -0.687981 -0.422848 0.793751
v -0.672472 -0.516493 0.755345
v -0.669470 -0.606287 0.706227
v -0.679058 -0.689784 0.647736
v -0.700972 -0.764705 0.581467
v -0.734617 -0.829005 0.509229
v -0.779072 -0.880933 0.432992
v -0.833128 -0.919069 0.354836
v -0.895307 -0.942376 0.276891
v -0.963916 -0.950216 0.201285
vn -0.0573 -0.9968 0.0553
vn 0.5393 -0.6618 -0.5208
vn -0.9569 0.2471 -0.1527
vn -0.3603 0.5822 -0.7289
vn 0.1193 0.2471 0.9616
vn 0.7159 0.5822 0.3855
vn -0.7159 -0.5822 -0.3855
vn -0.1193 -0.2471 -0.9616
vn -0.5393 0.6618 0.5208
vn 0.0573 0.9968 -0.0553
vn 0.3603 -0.5822 0.7289
vn 0.9569 -0.2471 0.1528
vn 0.2555 -0.8468 0.4664
vn 0.8521 -0.5118 -0.1097
vn -0.4797 -0.8298 -0.2850
vn 0.1168 -0.4948 -0.8611
vn -0.9642 0.1025 -0.2446
vn -0.3676 0.4375 -0.8206
vn -0.5284 0.6616 0.5320
vn 0.0681 0.9967 -0.0441
vn 0.2254 0.0750 0.9714
vn 0.8220 0.4100 0.3953
vn 0.3671 -0.4238 0.8280
vn 0.9637 -0.0887 0.2519
vn -0.0572 -0.9968 0.0553
vn -0.8147 -0.4238 -0.3958
vn -0.2182 -0.0887 -0.9719
vn -0.8585 0.5034 0.0982
vn -0.2619 0.8384 -0.4779
vn -0.1280 0.5034 0.8545
vn 0.4685 0.8385 0.2784
vn -0.3794 0.6364 0.6716
vn 0.2172 0.9714 0.0955
vn -0.2694 0.5919 0.7596
vn 0.3272 0.9270 0.1835
vn -0.1602 0.5267 0.8348
vn 0.4363 0.8618 0.2587
vn -0.0548 0.4427 0.8950
vn 0.5418 0.7777 0.3190
vn 0.0440 0.3419 0.9387
vn 0.6405 0.6769 0.3627
vn 0.1334 0.2272 0.9647
vn 0.7300 0.5622 0.3885
vn 0.2111 0.1017 0.9722
vn 0.8077 0.4368 0.3960
vn 0.2749 -0.0310 0.9610
vn 0.8715 0.3040 0.3849
vn 0.3230 -0.1675 0.9314
vn 0.9196 0.1675 0.3554
vn 0.3542 -0.3040 0.8844
vn 0.9508 0.0310 0.3082
vn 0.3676 -0.4368 0.8210
vn 0.9642 -0.1017 0.2449
vn 0.3628 -0.5622 0.7431
vn 0.9594 -0.2272 0.1670
vn 0.3401 -0.6769 0.6528
vn 0.9366 -0.3419 0.0767
vn 0.2999 -0.7777 0.5526
vn 0.8964 -0.4426 -0.0235
vn 0.2434 -0.8618 0.4451
vn 0.8399 -0.5267 -0.1310
vn 0.1720 -0.9270 0.3334
vn 0.7686 -0.5919 -0.2428
vn 0.0879 -0.9714 0.2204
vn 0.6845 -0.6364 -0.3557
vn -0.0068 -0.9940 0.1092
vn 0.5898 -0.6589 -0.4669
vn -0.1094 -0.9940 0.0029
vn 0.4872 -0.6589 -0.5731
vn -0.2171 -0.9715 -0.0955
vn 0.3794 -0.6363 -0.6716
vn -0.3272 -0.9270 -0.1835
vn 0.2694 -0.5919 -0.7597
vn -0.4364 -0.8618 -0.2587
vn 0.1602 -0.5267 -0.8348
vn -0.5417 -0.7777 -0.3190
vn 0.0548 -0.4426 -0.8950
vn -0.6405 -0.6769 -0.3627
vn -0.0440 -0.3418 -0.9387
vn -0.7300 -0.5623 -0.3886
vn -0.1334 -0.2271 -0.9647
vn -0.8077 -0.4368 -0.3960
vn -0.2111 -0.1017 -0.9722
vn -0.8715 -0.3040 -0.3849
vn -0.2749 0.0310 -0.9610
vn -0.9196 -0.1675 -0.3554
vn -0.3230 0.1675 -0.9314
vn -0.9508 -0.0310 -0.3083
vn -0.3542 0.3040 -0.8844
vn -0.9642 0.1017 -0.2449
vn -0.3676 0.4368 -0.8210
vn -0.9594 0.2271 -0.1670
vn -0.3629 0.5622 -0.7431
vn -0.9366 0.3418 -0.0768
vn -0.3401 0.6769 -0.6528
vn -0.8964 0.4426 0.0235
vn -0.2999 0.7777 -0.5525
vn -0.8399 0.5268 0.1310
vn -0.2433 0.8618 -0.4451
vn -0.7686 0.5919 0.2428
vn -0.1720 0.9270 -0.3334
vn -0.6845 0.6363 0.3558
vn -0.0879 0.9714 -0.2204
vn -0.5898 0.6589 0.4669
vn 0.0068 0.9940 -0.1092
vn -0.4872 0.6590 0.5731
vn 0.1094 0.9940 -0.0030
vn -0.2694 0.5919 0.7597
vn 0.3271 0.9270 0.1836
vn 0.4364 0.8618 0.2587
vn -0.0548 0.4426 0.8951
vn 0.0440 0.3418 0.9387
vn 0.6406 0.6769 0.3626
vn 0.7300 0.5622 0.3886
vn 0.2111 0.1018 0.9721
vn 0.8077 0.4368 0.3961
vn 0.8714 0.3040 0.3849
vn 0.3543 -0.3040 0.8843
vn 0.9508 0.0310 0.3083
vn 0.9642 -0.1018 0.2449
vn 0.3629 -0.5622 0.7431
vn 0.3400 -0.6769 0.6528
vn 0.8964 -0.4426 -0.0236
vn 0.2433 -0.8618 0.4451
vn 0.1720 -0.9270 0.3333
vn 0.0878 -0.9714 0.2204
vn 0.6844 -0.6364 -0.3557
vn 0.2694 -0.5919 -0.7596
vn -0.4363 -0.8618 -0.2587
vn 0.1603 -0.5267 -0.8348
vn -0.5418 -0.7777 -0.3189
vn -0.7300 -0.5622 -0.3886
vn -0.1335 -0.2272 -0.9647
vn -0.8077 -0.4368 -0.3961
vn -0.3677 0.4368 -0.8210
vn -0.9594 0.2272 -0.1670
vn -0.9366 0.3418 -0.0767
vn -0.2998 0.7777 -0.5526
vn -0.8399 0.5267 0.1310
vn -0.2434 0.8618 -0.4451
vn -0.7686 0.5919 0.2427
vn -0.0879 0.9715 -0.2204
vn -0.4872 0.6589 0.5731
vn -0.9569 0.2471 -0.1528
vn 0.0572 0.9968 -0.0553
vn 0.9569 -0.2471 0.1527
vn 0.2555 -0.8469 0.4664
vn -0.4797 -0.8298 -0.2851
vn 0.1169 -0.4948 -0.8611
vn -0.9642 0.1025 -0.2445
vn -0.3677 0.4375 -0.8206
vn 0.2254 0.0749 0.9714
vn -0.0572 -0.9968 0.0552
vn -0.8585 0.5034 0.0981
vn -0.2619 0.8385 -0.4779
vn -0.1281 0.5034 0.8545
vn 0.4685 0.8384 0.2785
vn -0.3794 0.6363 0.6716
vn 0.2171 0.9715 0.0955
vn -0.1602 0.5268 0.8348
vn -0.0548 0.4426 0.8950
vn 0.5417 0.7777 0.3190
vn 0.1334 0.2271 0.9647
vn 0.3231 -0.1675 0.9314
vn 0.3629 -0.5623 0.7431
vn 0.9594 -0.2271 0.1670
vn 0.9366 -0.3418 0.0767
vn 0.2999 -0.7777 0.5525
vn 0.0879 -0.9715 0.2204
vn 0.6845 -0.6364 -0.3558
vn -0.1094 -0.9940 0.0030
vn 0.4872 -0.6590 -0.5731
vn -0.2172 -0.9714 -0.0955
vn 0.3794 -0.6364 -0.6716
vn -0.5418 -0.7777 -0.3190
vn -0.6406 -0.6769 -0.3627
vn -0.0440 -0.3419 -0.9387
vn -0.7300 -0.5622 -0.3885
vn -0.3231 0.1675 -0.9314
vn -0.9508 -0.0310 -0.3082
vn -0.3628 0.5622 -0.7431
vn -0.9366 0.3419 -0.0767
vn -0.8964 0.4427 0.0235
vn -0.2999 0.7777 -0.5526
vn -0.6844 0.6364 0.3557
vn 0.1094 0.9940 -0.0029
vn -0.3794 0.6363 0.6717
vn -0.1603 0.5267 0.8348
vn 0.5418 0.7777 0.3189
vn 0.1335 0.2272 0.9647
vn 0.3677 -0.4368 0.8210
vn 0.2998 -0.7777 0.5526
vn 0.7686 -0.5919 -0.2427
vn 0.6845 -0.6363 -0.3557
vn -0.3271 -0.9270 -0.1836
vn 0.0548 -0.4426 -0.8951
vn -0.6406 -0.6769 -0.3626
vn -0.1334 -0.2272 -0.9647
vn -0.2111 -0.1018 -0.9721
vn -0.8714 -0.3040 -0.3849
vn -0.3543 0.3040 -0.8843
vn -0.9642 0.1018 -0.2449
vn -0.3400 0.6769 -0.6528
vn -0.8964 0.4426 0.0236
vn -0.1720 0.9270 -0.3333
vt 0.997890 0.669014
vt 0.754189 0.530067
vt 0.757906 0.530135
vt 0.998444 0.670098
vt 0.999801 0.388926
vt 0.999801 0.672203
vt 0.998656 0.390904
vt 0.997995 0.392047
vt 0.756690 0.530194
vt 0.992368 0.280723
vt 0.748989 0.142086
vt 0.752595 0.142086
vt 0.751274 0.142086
vt 0.993028 0.281745
vt 0.992368 0.003450
vt 0.994170 0.283973
vt 0.993028 0.002428
vt 0.994170 0.000199
vt 0.746097 0.238977
vt 0.558654 0.388528
vt 0.558645 0.386381
vt 0.558635 0.384268
vt 0.742302 0.237461
vt 0.713885 0.000199
vt 0.748591 0.239975
vt 0.710832 0.003696
vt 0.712346 0.001963
vt 0.479349 0.002549
vt 0.482160 0.006074
vt 0.396055 0.252212
vt 0.477544 0.000199
vt 0.401322 0.250308
vt 0.398375 0.251529
vt 0.485990 0.774062
vt 0.400304 0.543426
vt 0.488521 0.770590
vt 0.396055 0.542530
vt 0.398338 0.543058
vt 0.547209 0.391187
vt 0.547075 0.388926
vt 0.751236 0.537583
vt 0.547969 0.394543
vt 0.753791 0.536461
vt 0.716154 0.772881
vt 0.747366 0.539315
vt 0.719204 0.776364
vt 0.717666 0.774607
vt 0.484351 0.776364
vt 0.246563 0.436865
vt 0.265578 0.455640
vt 0.245232 0.438768
vt 0.268818 0.452370
vt 0.267205 0.453999
vt 0.282768 0.475661
vt 0.286504 0.472980
vt 0.284645 0.474316
vt 0.296397 0.498266
vt 0.300526 0.496240
vt 0.298471 0.497250
vt 0.306119 0.522825
vt 0.310525 0.521504
vt 0.308332 0.522163
vt 0.311683 0.548643
vt 0.316241 0.548062
vt 0.313972 0.548352
vt 0.312970 0.574970
vt 0.317540 0.575133
vt 0.315265 0.575052
vt 0.310036 0.600980
vt 0.314461 0.601856
vt 0.312259 0.601420
vt 0.303226 0.625732
vt 0.307309 0.627233
vt 0.305233 0.626466
vt 0.294534 0.649954
vt 0.296441 0.651018
vt 0.279999 0.671734
vt 0.292574 0.648868
vt 0.281766 0.673119
vt 0.262043 0.691083
vt 0.278216 0.670336
vt 0.263568 0.692727
vt 0.241530 0.707244
vt 0.260496 0.689424
vt 0.242759 0.709102
vt 0.218650 0.719627
vt 0.240287 0.705373
vt 0.219543 0.721664
vt 0.194013 0.727908
vt 0.217747 0.717575
vt 0.194545 0.730071
vt 0.168248 0.731867
vt 0.193474 0.725729
vt 0.168407 0.734108
vt 0.141812 0.731425
vt 0.168089 0.729614
vt 0.141588 0.733707
vt 0.115087 0.726431
vt 0.142044 0.729122
vt 0.114443 0.728709
vt 0.090670 0.714574
vt 0.115755 0.724075
vt 0.088628 0.718726
vt 0.089646 0.716659
vt 0.068212 0.701065
vt 0.065520 0.704735
vt 0.066860 0.702907
vt 0.048608 0.684009
vt 0.045344 0.687144
vt 0.046969 0.685582
vt 0.032232 0.663893
vt 0.028485 0.666428
vt 0.030350 0.665164
vt 0.019463 0.641271
vt 0.015338 0.643148
vt 0.017391 0.642212
vt 0.010603 0.616765
vt 0.006216 0.617946
vt 0.008399 0.617356
vt 0.005777 0.591050
vt 0.001257 0.591547
vt 0.003505 0.591299
vt 0.004708 0.564814
vt 0.000199 0.564767
vt 0.002438 0.564792
vt 0.006114 0.539148
vt 0.001777 0.538531
vt 0.003935 0.538840
vt 0.011449 0.514973
vt 0.007452 0.513715
vt 0.009485 0.514359
vt 0.018765 0.491369
vt 0.016893 0.490413
vt 0.032115 0.469997
vt 0.020688 0.492343
vt 0.030376 0.468699
vt 0.049171 0.450977
vt 0.033869 0.471306
vt 0.047660 0.449383
vt 0.069359 0.434901
vt 0.050692 0.452579
vt 0.068125 0.433058
vt 0.092199 0.422368
vt 0.070602 0.436760
vt 0.091287 0.420326
vt 0.117010 0.413800
vt 0.093119 0.424427
vt 0.116449 0.411617
vt 0.143127 0.409466
vt 0.117576 0.416002
vt 0.142935 0.407195
vt 0.169962 0.409512
vt 0.143321 0.411756
vt 0.170151 0.407195
vt 0.197125 0.414073
vt 0.169768 0.411850
vt 0.197732 0.411753
vt 0.222124 0.425552
vt 0.196497 0.416474
vt 0.224103 0.421295
vt 0.223117 0.423415
vt 0.247882 0.434977
vt 0.046237 0.078189
vt 0.025415 0.105433
vt 0.044399 0.076729
vt 0.029450 0.107642
vt 0.027421 0.106530
vt 0.011889 0.135966
vt 0.016073 0.137430
vt 0.013997 0.136704
vt 0.005475 0.169191
vt 0.007879 0.169602
vt 0.000199 0.203252
vt 0.003160 0.168789
vt 0.004852 0.203260
vt 0.002512 0.203256
vt 0.002903 0.237134
vt 0.007425 0.236390
vt 0.005151 0.236765
vt 0.010968 0.269705
vt 0.015240 0.268270
vt 0.013091 0.268992
vt 0.023882 0.299931
vt 0.027738 0.297904
vt 0.025824 0.298910
vt 0.043420 0.326791
vt 0.045323 0.325343
vt 0.065878 0.351635
vt 0.041611 0.328156
vt 0.067437 0.349981
vt 0.089915 0.373696
vt 0.064311 0.353294
vt 0.092324 0.370151
vt 0.091128 0.371910
vt 0.118962 0.387738
vt 0.119901 0.385714
vt 0.149678 0.398828
vt 0.118035 0.389739
vt 0.150268 0.396639
vt 0.182242 0.404530
vt 0.149096 0.400994
vt 0.182445 0.402238
vt 0.215854 0.404500
vt 0.182041 0.406796
vt 0.215651 0.402117
vt 0.248770 0.400911
vt 0.216055 0.406796
vt 0.247684 0.396715
vt 0.248222 0.398797
vt 0.278695 0.388225
vt 0.277772 0.386162
vt 0.307742 0.371984
vt 0.279608 0.390267
vt 0.306402 0.370015
vt 0.334670 0.352651
vt 0.309037 0.373880
vt 0.331624 0.349508
vt 0.333135 0.351068
vt 0.354801 0.326380
vt 0.352883 0.324987
vt 0.373702 0.298986
vt 0.356649 0.327724
vt 0.369701 0.297046
vt 0.371712 0.298023
vt 0.385187 0.268952
vt 0.381109 0.267743
vt 0.383133 0.268342
vt 0.389772 0.236863
vt 0.387394 0.236503
vt 0.395657 0.202442
vt 0.392059 0.237222
vt 0.390989 0.202310
vt 0.393337 0.202378
vt 0.394021 0.168606
vt 0.389522 0.169188
vt 0.391785 0.168895
vt 0.387202 0.136314
vt 0.382971 0.137575
vt 0.385099 0.136941
vt 0.375576 0.106423
vt 0.371756 0.108280
vt 0.373651 0.107358
vt 0.357325 0.079707
vt 0.355438 0.081072
vt 0.335921 0.055102
vt 0.359120 0.078420
vt 0.334380 0.056687
vt 0.312806 0.033388
vt 0.337471 0.053510
vt 0.310429 0.036811
vt 0.311609 0.035113
vt 0.284671 0.019479
vt 0.283743 0.021446
vt 0.254725 0.008505
vt 0.285588 0.017534
vt 0.254137 0.010646
vt 0.222807 0.002747
vt 0.255305 0.006388
vt 0.222592 0.005001
vt 0.189656 0.002486
vt 0.223021 0.000519
vt 0.189831 0.004857
vt 0.156588 0.005486
vt 0.189485 0.000199
vt 0.157610 0.009728
vt 0.157103 0.007623
vt 0.126116 0.017819
vt 0.127003 0.019933
vt 0.096109 0.033376
vt 0.125242 0.015730
vt 0.097405 0.035427
vt 0.067843 0.052040
vt 0.094860 0.031401
vt 0.070835 0.055371
vt 0.069350 0.053718
vt 0.048146 0.079701
s 0
usemtl Material.002
f 186/1/1 3/2/1 185/3/1
f 185/3/2 6/4/2 186/1/2
f 186/1/3 1/5/3 5/6/3
f 186/1/4 2/7/4 187/8/4
f 185/3/5 1/5/5 187/8/5
f 185/3/6 2/7/6 4/9/6
f 186/1/1 5/6/1 3/2/1
f 185/3/2 4/9/2 6/4/2
f 186/1/144 187/8/144 1/5/144
f 186/1/4 6/4/4 2/7/4
f 185/3/5 3/2/5 1/5/5
f 185/3/6 187/8/6 2/7/6
usemtl Material.001
f 189/10/7 9/11/7 188/12/7
f 189/10/8 10/13/8 12/14/8
f 190/15/9 11/16/9 189/10/9
f 189/10/10 8/17/10 190/15/10
f 190/15/11 9/11/11 7/18/11
f 190/15/12 10/13/12 188/12/12
f 192/19/13 15/20/13 191/21/13
f 192/19/14 16/22/14 18/23/14
f 192/19/15 19/24/15 17/25/15
f 192/19/16 20/26/16 193/27/16
f 194/28/17 19/24/17 193/27/17
f 194/28/18 20/26/18 22/29/18
f 194/28/19 13/30/19 21/31/19
f 194/28/20 14/32/20 195/33/20
f 195/33/21 15/20/21 13/30/21
f 195/33/22 16/22/22 191/21/22
f 196/34/23 27/35/23 25/36/23
f 196/34/24 28/37/24 197/38/24
f 198/39/25 27/35/25 197/38/25
f 197/38/2 30/40/2 198/39/2
f 199/41/26 29/42/26 198/39/26
f 199/41/27 30/40/27 32/43/27
f 199/41/28 23/44/28 31/45/28
f 199/41/29 24/46/29 200/47/29
f 196/34/30 23/44/30 200/47/30
f 196/34/31 24/46/31 26/48/31
f 189/10/7 11/16/7 9/11/7
f 189/10/8 188/12/8 10/13/8
f 190/15/9 7/18/9 11/16/9
f 189/10/145 12/14/145 8/17/145
f 190/15/11 188/12/11 9/11/11
f 190/15/146 8/17/146 10/13/146
f 192/19/147 17/25/147 15/20/147
f 192/19/14 191/21/14 16/22/14
f 192/19/148 193/27/148 19/24/148
f 192/19/149 18/23/149 20/26/149
f 194/28/150 21/31/150 19/24/150
f 194/28/151 193/27/151 20/26/151
f 194/28/19 195/33/19 13/30/19
f 194/28/20 22/29/20 14/32/20
f 195/33/152 191/21/152 15/20/152
f 195/33/22 14/32/22 16/22/22
f 196/34/23 197/38/23 27/35/23
f 196/34/24 26/48/24 28/37/24
f 198/39/153 29/42/153 27/35/153
f 197/38/2 28/37/2 30/40/2
f 199/41/26 31/45/26 29/42/26
f 199/41/27 198/39/27 30/40/27
f 199/41/154 200/47/154 23/44/154
f 199/41/155 32/43/155 24/46/155
f 196/34/156 25/36/156 23/44/156
f 196/34/157 200/47/157 24/46/157
usemtl Material
f 201/49/32 37/50/32 35/51/32
f 201/49/33 38/52/33 202/53/33
f 202/53/34 39/54/34 37/50/34
f 202/53/35 40/55/35 203/56/35
f 203/56/36 41/57/36 39/54/36
f 203/56/37 42/58/37 204/59/37
f 204/59/38 43/60/38 41/57/38
f 204/59/39 44/61/39 205/62/39
f 205/62/40 45/63/40 43/60/40
f 205/62/41 46/64/41 206/65/41
f 206/65/42 47/66/42 45/63/42
f 206/65/43 48/67/43 207/68/43
f 207/68/44 49/69/44 47/66/44
f 207/68/45 50/70/45 208/71/45
f 208/71/46 51/72/46 49/69/46
f 208/71/47 52/73/47 209/74/47
f 210/75/48 51/72/48 209/74/48
f 209/74/49 54/76/49 210/75/49
f 211/77/50 53/78/50 210/75/50
f 211/77/51 54/76/51 56/79/51
f 212/80/52 55/81/52 211/77/52
f 212/80/53 56/79/53 58/82/53
f 213/83/54 57/84/54 212/80/54
f 213/83/55 58/82/55 60/85/55
f 214/86/56 59/87/56 213/83/56
f 214/86/57 60/85/57 62/88/57
f 215/89/58 61/90/58 214/86/58
f 215/89/59 62/88/59 64/91/59
f 216/92/60 63/93/60 215/89/60
f 216/92/61 64/91/61 66/94/61
f 217/95/62 65/96/62 216/92/62
f 217/95/63 66/94/63 68/97/63
f 218/98/64 67/99/64 217/95/64
f 218/98/65 68/97/65 70/100/65
f 218/98/66 71/101/66 69/102/66
f 218/98/67 72/103/67 219/104/67
f 219/104/68 73/105/68 71/101/68
f 219/104/69 74/106/69 220/107/69
f 220/107/70 75/108/70 73/105/70
f 220/107/71 76/109/71 221/110/71
f 221/110/72 77/111/72 75/108/72
f 221/110/73 78/112/73 222/113/73
f 222/113/74 79/114/74 77/111/74
f 222/113/75 80/115/75 223/116/75
f 223/116/76 81/117/76 79/114/76
f 223/116/77 82/118/77 224/119/77
f 224/119/78 83/120/78 81/117/78
f 224/119/79 84/121/79 225/122/79
f 225/122/80 85/123/80 83/120/80
f 225/122/81 86/124/81 226/125/81
f 226/125/82 87/126/82 85/123/82
f 226/125/83 88/127/83 227/128/83
f 227/128/84 89/129/84 87/126/84
f 227/128/85 90/130/85 228/131/85
f 229/132/86 89/129/86 228/131/86
f 228/131/87 92/133/87 229/132/87
f 230/134/88 91/135/88 229/132/88
f 230/134/89 92/133/89 94/136/89
f 231/137/90 93/138/90 230/134/90
f 231/137/91 94/136/91 96/139/91
f 232/140/92 95/141/92 231/137/92
f 232/140/93 96/139/93 98/142/93
f 233/143/94 97/144/94 232/140/94
f 233/143/95 98/142/95 100/145/95
f 234/146/96 99/147/96 233/143/96
f 234/146/97 100/145/97 102/148/97
f 235/149/98 101/150/98 234/146/98
f 235/149/99 102/148/99 104/151/99
f 236/152/100 103/153/100 235/149/100
f 236/152/101 104/151/101 106/154/101
f 237/155/102 105/156/102 236/152/102
f 237/155/103 106/154/103 108/157/103
f 237/155/104 33/158/104 107/159/104
f 237/155/105 34/160/105 238/161/105
f 238/161/106 35/51/106 33/158/106
f 238/161/107 36/162/107 201/49/107
f 239/163/32 113/164/32 111/165/32
f 239/163/33 114/166/33 240/167/33
f 240/167/108 115/168/108 113/164/108
f 240/167/109 116/169/109 241/170/109
f 242/171/36 115/168/36 241/170/36
f 242/171/110 116/169/110 118/172/110
f 242/171/111 119/173/111 117/174/111
f 242/171/39 120/175/39 243/176/39
f 243/176/112 121/177/112 119/173/112
f 243/176/113 122/178/113 244/179/113
f 244/179/42 123/180/42 121/177/42
f 244/179/114 124/181/114 245/182/114
f 245/182/115 125/183/115 123/180/115
f 245/182/116 126/184/116 246/185/116
f 247/186/46 125/183/46 246/185/46
f 247/186/117 126/184/117 128/187/117
f 248/188/48 127/189/48 247/186/48
f 247/186/49 130/190/49 248/188/49
f 248/188/118 131/191/118 129/192/118
f 248/188/119 132/193/119 249/194/119
f 250/195/52 131/191/52 249/194/52
f 250/195/120 132/193/120 134/196/120
f 251/197/121 133/198/121 250/195/121
f 251/197/55 134/196/55 136/199/55
f 252/200/122 135/201/122 251/197/122
f 252/200/57 136/199/57 138/202/57
f 253/203/58 137/204/58 252/200/58
f 253/203/123 138/202/123 140/205/123
f 253/203/124 141/206/124 139/207/124
f 253/203/61 142/208/61 254/209/61
f 255/210/125 141/206/125 254/209/125
f 255/210/63 142/208/63 144/211/63
f 256/212/126 143/213/126 255/210/126
f 256/212/127 144/211/127 146/214/127
f 256/212/66 147/215/66 145/216/66
f 256/212/67 148/217/67 257/218/67
f 258/219/68 147/215/68 257/218/68
f 258/219/69 148/217/69 150/220/69
f 258/219/70 151/221/70 149/222/70
f 258/219/71 152/223/71 259/224/71
f 259/224/72 153/225/72 151/221/72
f 259/224/128 154/226/128 260/227/128
f 261/228/129 153/225/129 260/227/129
f 261/228/130 154/226/130 156/229/130
f 261/228/131 157/230/131 155/231/131
f 261/228/77 158/232/77 262/233/77
f 262/233/78 159/234/78 157/230/78
f 262/233/79 160/235/79 263/236/79
f 263/236/132 161/237/132 159/234/132
f 263/236/133 162/238/133 264/239/133
f 264/239/134 163/240/134 161/237/134
f 264/239/83 164/241/83 265/242/83
f 266/243/84 163/240/84 265/242/84
f 266/243/85 164/241/85 166/244/85
f 267/245/86 165/246/86 266/243/86
f 266/243/87 168/247/87 267/245/87
f 267/245/88 169/248/88 167/249/88
f 267/245/89 170/250/89 268/251/89
f 269/252/90 169/248/90 268/251/90
f 269/252/135 170/250/135 172/253/135
f 270/254/136 171/255/136 269/252/136
f 270/254/93 172/253/93 174/256/93
f 271/257/137 173/258/137 270/254/137
f 271/257/95 174/256/95 176/259/95
f 272/260/96 175/261/96 271/257/96
f 272/260/138 176/259/138 178/262/138
f 272/260/139 179/263/139 177/264/139
f 272/260/140 180/265/140 273/266/140
f 274/267/141 179/263/141 273/266/141
f 274/267/101 180/265/101 182/268/101
f 275/269/102 181/270/102 274/267/102
f 275/269/142 182/268/142 184/271/142
f 275/269/104 109/272/104 183/273/104
f 275/269/105 110/274/105 276/275/105
f 239/163/143 109/272/143 276/275/143
f 239/163/107 110/274/107 112/276/107
f 201/49/158 202/53/158 37/50/158
f 201/49/159 36/162/159 38/52/159
f 202/53/108 203/56/108 39/54/108
f 202/53/35 38/52/35 40/55/35
f 203/56/160 204/59/160 41/57/160
f 203/56/110 40/55/110 42/58/110
f 204/59/161 205/62/161 43/60/161
f 204/59/162 42/58/162 44/61/162
f 205/62/112 206/65/112 45/63/112
f 205/62/41 44/61/41 46/64/41
f 206/65/163 207/68/163 47/66/163
f 206/65/114 46/64/114 48/67/114
f 207/68/44 208/71/44 49/69/44
f 207/68/45 48/67/45 50/70/45
f 208/71/46 209/74/46 51/72/46
f 208/71/47 50/70/47 52/73/47
f 210/75/164 53/78/164 51/72/164
f 209/74/49 52/73/49 54/76/49
f 211/77/50 55/81/50 53/78/50
f 211/77/119 210/75/119 54/76/119
f 212/80/52 57/84/52 55/81/52
f 212/80/53 211/77/53 56/79/53
f 213/83/165 59/87/165 57/84/165
f 213/83/166 212/80/166 58/82/166
f 214/86/56 61/90/56 59/87/56
f 214/86/167 213/83/167 60/85/167
f 215/89/168 63/93/168 61/90/168
f 215/89/59 214/86/59 62/88/59
f 216/92/124 65/96/124 63/93/124
f 216/92/61 215/89/61 64/91/61
f 217/95/62 67/99/62 65/96/62
f 217/95/63 216/92/63 66/94/63
f 218/98/169 69/102/169 67/99/169
f 218/98/170 217/95/170 68/97/170
f 218/98/66 219/104/66 71/101/66
f 218/98/67 70/100/67 72/103/67
f 219/104/171 220/107/171 73/105/171
f 219/104/172 72/103/172 74/106/172
f 220/107/173 221/110/173 75/108/173
f 220/107/174 74/106/174 76/109/174
f 221/110/72 222/113/72 77/111/72
f 221/110/128 76/109/128 78/112/128
f 222/113/129 223/116/129 79/114/129
f 222/113/75 78/112/75 80/115/75
f 223/116/175 224/119/175 81/117/175
f 223/116/77 80/115/77 82/118/77
f 224/119/176 225/122/176 83/120/176
f 224/119/177 82/118/177 84/121/177
f 225/122/178 226/125/178 85/123/178
f 225/122/133 84/121/133 86/124/133
f 226/125/82 227/128/82 87/126/82
f 226/125/83 86/124/83 88/127/83
f 227/128/84 228/131/84 89/129/84
f 227/128/85 88/127/85 90/130/85
f 229/132/86 91/135/86 89/129/86
f 228/131/179 90/130/179 92/133/179
f 230/134/180 93/138/180 91/135/180
f 230/134/89 229/132/89 92/133/89
f 231/137/90 95/141/90 93/138/90
f 231/137/91 230/134/91 94/136/91
f 232/140/136 97/144/136 95/141/136
f 232/140/181 231/137/181 96/139/181
f 233/143/182 99/147/182 97/144/182
f 233/143/95 232/140/95 98/142/95
f 234/146/183 101/150/183 99/147/183
f 234/146/184 233/143/184 100/145/184
f 235/149/139 103/153/139 101/150/139
f 235/149/140 234/146/140 102/148/140
f 236/152/100 105/156/100 103/153/100
f 236/152/101 235/149/101 104/151/101
f 237/155/185 107/159/185 105/156/185
f 237/155/103 236/152/103 106/154/103
f 237/155/104 238/161/104 33/158/104
f 237/155/105 108/157/105 34/160/105
f 238/161/143 201/49/143 35/51/143
f 238/161/186 34/160/186 36/162/186
f 239/163/187 240/167/187 113/164/187
f 239/163/159 112/276/159 114/166/159
f 240/167/34 241/170/34 115/168/34
f 240/167/35 114/166/35 116/169/35
f 242/171/188 117/174/188 115/168/188
f 242/171/37 241/170/37 116/169/37
f 242/171/161 243/176/161 119/173/161
f 242/171/189 118/172/189 120/175/189
f 243/176/112 244/179/112 121/177/112
f 243/176/41 120/175/41 122/178/41
f 244/179/190 245/182/190 123/180/190
f 244/179/114 122/178/114 124/181/114
f 245/182/44 246/185/44 125/183/44
f 245/182/116 124/181/116 126/184/116
f 247/186/46 127/189/46 125/183/46
f 247/186/47 246/185/47 126/184/47
f 248/188/48 129/192/48 127/189/48
f 247/186/49 128/187/49 130/190/49
f 248/188/50 249/194/50 131/191/50
f 248/188/119 130/190/119 132/193/119
f 250/195/191 133/198/191 131/191/191
f 250/195/53 249/194/53 132/193/53
f 251/197/121 135/201/121 133/198/121
f 251/197/55 250/195/55 134/196/55
f 252/200/56 137/204/56 135/201/56
f 252/200/167 251/197/167 136/199/167
f 253/203/192 139/207/192 137/204/192
f 253/203/59 252/200/59 138/202/59
f 253/203/60 254/209/60 141/206/60
f 253/203/61 140/205/61 142/208/61
f 255/210/62 143/213/62 141/206/62
f 255/210/193 254/209/193 142/208/193
f 256/212/169 145/216/169 143/213/169
f 256/212/194 255/210/194 144/211/194
f 256/212/66 257/218/66 147/215/66
f 256/212/67 146/214/67 148/217/67
f 258/219/171 149/222/171 147/215/171
f 258/219/69 257/218/69 148/217/69
f 258/219/173 259/224/173 151/221/173
f 258/219/174 150/220/174 152/223/174
f 259/224/195 260/227/195 153/225/195
f 259/224/128 152/223/128 154/226/128
f 261/228/74 155/231/74 153/225/74
f 261/228/75 260/227/75 154/226/75
f 261/228/175 262/233/175 157/230/175
f 261/228/196 156/229/196 158/232/196
f 262/233/197 263/236/197 159/234/197
f 262/233/177 158/232/177 160/235/177
f 263/236/132 264/239/132 161/237/132
f 263/236/198 160/235/198 162/238/198
f 264/239/134 265/242/134 163/240/134
f 264/239/199 162/238/199 164/241/199
f 266/243/200 165/246/200 163/240/200
f 266/243/85 265/242/85 164/241/85
f 267/245/86 167/249/86 165/246/86
f 266/243/87 166/244/87 168/247/87
f 267/245/180 268/251/180 169/248/180
f 267/245/201 168/247/201 170/250/201
f 269/252/202 171/255/202 169/248/202
f 269/252/91 268/251/91 170/250/91
f 270/254/136 173/258/136 171/255/136
f 270/254/93 269/252/93 172/253/93
f 271/257/137 175/261/137 173/258/137
f 271/257/203 270/254/203 174/256/203
f 272/260/204 177/264/204 175/261/204
f 272/260/184 271/257/184 176/259/184
f 272/260/139 273/266/139 179/263/139
f 272/260/99 178/262/99 180/265/99
f 274/267/100 181/270/100 179/263/100
f 274/267/205 273/266/205 180/265/205
f 275/269/185 183/273/185 181/270/185
f 275/269/103 274/267/103 182/268/103
f 275/269/104 276/275/104 109/272/104
f 275/269/105 184/271/105 110/274/105
f 239/163/143 111/165/143 109/272/143
f 239/163/186 276/275/186 110/274/186
