# Blender 4.1.1
# www.blender.org
mtllib playerLeftArm.mtl
o 左腕
v 0.720162 -0.336072 0.143887
v 0.429975 0.551761 0.160581
v 0.720162 -0.336072 -0.159928
v 0.485943 0.467841 -0.135486
v 1.010702 -0.247246 0.143887
v 0.754913 0.651105 0.160581
v 0.959834 -0.180467 -0.120838
v 0.752014 0.549188 -0.135486
v 0.717526 -0.441307 -0.008020
v 0.657608 0.088197 0.079921
v 0.339702 0.717538 -0.009311
v 0.664714 0.088609 -0.082699
v 0.864789 -0.295036 -0.148095
v 0.592316 0.595709 -0.165853
v 0.817803 0.135414 -0.082699
v 1.071734 -0.333014 -0.008020
v 0.757862 0.768799 -0.009311
v 0.825269 0.139455 0.079921
v 0.894629 -0.387161 0.177176
v 0.559788 0.708241 0.197811
v 0.625987 0.078529 -0.007739
v 0.741076 0.110174 -0.097115
v 0.856890 0.149122 -0.007739
v 0.741439 0.113824 0.112988
v 0.927018 -0.517633 -0.008020
v 0.385194 0.818406 -0.009311
vn -0.6545 -0.2849 0.7003
vn -0.9560 -0.2866 -0.0625
vn -0.8898 -0.4522 -0.0613
vn -0.7069 -0.1836 0.6830
vn -0.6741 -0.2118 0.7076
vn -0.6035 -0.1739 -0.7781
vn -0.5302 -0.1538 -0.8338
vn -0.4641 -0.3611 -0.8088
vn 0.1523 -0.0976 -0.9835
vn -0.0014 -0.0113 -0.9999
vn 0.5892 0.1911 -0.7850
vn 0.5345 0.1531 -0.8312
vn 0.5935 0.1488 -0.7910
vn 0.9555 0.2826 -0.0842
vn 0.9807 0.1209 -0.1538
vn 0.6648 0.2442 0.7060
vn 0.6767 0.2014 0.7082
vn 0.6967 0.1338 0.7048
vn 0.0017 -0.0058 1.0000
vn 0.0518 -0.1628 0.9853
vn 0.4170 -0.8975 -0.1440
vn 0.0396 0.3599 -0.9321
vn 0.7898 0.4544 -0.4121
vn -0.8726 0.4629 -0.1561
vn -0.7818 0.6230 -0.0259
vn -0.2722 0.6759 0.6849
vt 0.606618 0.000094
vt 0.626891 0.226753
vt 0.485609 0.078880
vt 0.886016 0.186102
vt 0.691867 0.139371
vt 0.720468 0.412315
vt 0.562875 0.310242
vt 0.400560 0.195903
vt 0.366174 0.305553
vt 0.501650 0.397446
vt 0.585855 0.600926
vt 0.440016 0.484497
vt 0.317580 0.398919
vt 0.371591 0.574055
vt 0.238392 0.460039
vt 0.466704 0.818728
vt 0.294803 0.659305
vt 0.153355 0.534014
vt 0.219019 0.742211
vt 0.056254 0.632343
vt 0.218944 0.999906
vt 0.145161 0.818223
vt 0.000094 0.759484
vt 0.274744 0.300483
vt 0.092715 0.241728
vt 0.214092 0.193386
vt 0.168037 0.358608
vt 0.056790 0.448964
vt 0.000094 0.332404
vt 0.722931 0.603994
vt 0.541710 0.709155
vt 0.849068 0.827413
vt 0.780833 0.804449
vt 0.586508 0.940982
vt 0.862278 0.348816
vt 0.666464 0.514921
vt 0.360408 0.934026
vt 0.857339 0.662689
vt 0.762497 0.984834
s 1
usemtl マテリアル.001
f 1/1/1 21/2/2 9/3/3
f 2/4/4 21/2/2 10/5/5
f 21/2/2 4/6/6 12/7/7
f 21/2/2 3/8/8 9/3/3
f 12/7/7 13/9/9 3/8/8
f 4/6/6 22/10/10 12/7/7
f 22/10/10 8/11/11 15/12/12
f 22/10/10 7/13/13 13/9/9
f 7/13/13 23/14/14 16/15/15
f 8/11/11 23/14/14 15/12/12
f 23/14/14 6/16/16 18/17/17
f 23/14/14 5/18/18 16/15/15
f 5/18/18 24/19/19 19/20/20
f 6/16/16 24/19/19 18/17/17
f 24/19/19 2/21/4 10/22/5
f 24/19/19 1/23/1 19/20/20
f 13/24/9 9/25/3 3/26/8
f 13/24/9 16/15/15 25/27/21
f 16/15/15 19/28/20 25/27/21
f 9/25/3 19/28/20 1/29/1
f 14/30/22 17/31/23 8/11/11
f 14/30/22 11/32/24 26/33/25
f 11/32/24 20/34/26 26/33/25
f 17/31/23 20/34/26 6/16/16
f 1/1/1 10/5/5 21/2/2
f 2/4/4 11/35/24 21/2/2
f 21/2/2 11/35/24 4/6/6
f 21/2/2 12/7/7 3/8/8
f 12/7/7 22/10/10 13/9/9
f 4/6/6 14/36/22 22/10/10
f 22/10/10 14/36/22 8/11/11
f 22/10/10 15/12/12 7/13/13
f 7/13/13 15/12/12 23/14/14
f 8/11/11 17/31/23 23/14/14
f 23/14/14 17/31/23 6/16/16
f 23/14/14 18/17/17 5/18/18
f 5/18/18 18/17/17 24/19/19
f 6/16/16 20/37/26 24/19/19
f 24/19/19 20/37/26 2/21/4
f 24/19/19 10/22/5 1/23/1
f 13/24/9 25/27/21 9/25/3
f 13/24/9 7/13/13 16/15/15
f 16/15/15 5/18/18 19/28/20
f 9/25/3 25/27/21 19/28/20
f 14/30/22 26/33/25 17/31/23
f 14/30/22 4/38/6 11/32/24
f 11/32/24 2/39/4 20/34/26
f 17/31/23 26/33/25 20/34/26
