# Blender 4.1.1
# www.blender.org
mtllib TtianglePlayerLeftLeg.mtl
o 左足
v 0.086219 -1.033171 0.085000
v 0.086219 -0.403171 0.085000
v 0.086219 -1.033171 -0.085000
v 0.086219 -0.403171 -0.116905
v 0.256219 -1.033171 0.085000
v 0.256219 -0.403171 0.085000
v 0.256219 -1.033171 -0.085000
v 0.256219 -0.403171 -0.169603
v 0.070336 -1.207499 0.000000
v 0.067592 -0.718171 0.021477
v 0.040154 -0.312192 0.000000
v 0.067592 -0.718171 -0.023851
v 0.171219 -1.138057 -0.091154
v 0.171219 -0.334143 -0.150912
v 0.219845 -0.718171 -0.023851
v 0.227431 -1.217792 0.000000
v 0.329723 -0.419204 0.000000
v 0.219845 -0.718171 0.021477
v 0.171219 -1.177034 0.103627
v 0.171219 -0.361275 0.138553
v 0.039712 -0.574341 0.000000
v 0.171219 -0.709464 -0.073264
v 0.236983 -0.718171 0.001391
v 0.171219 -0.718171 0.092097
v 0.171219 -1.238829 0.000000
v 0.171219 -0.189282 0.000000
vn -0.7895 -0.0239 0.6133
vn -0.9626 -0.2690 -0.0318
vn -0.6377 -0.0689 0.7672
vn -0.6524 0.0808 0.7535
vn -0.9981 -0.0350 0.0501
vn -0.6136 0.0492 -0.7881
vn -0.7818 -0.0356 -0.6225
vn -0.5622 -0.0653 -0.8244
vn -0.0535 -0.0755 -0.9957
vn 0.0423 -0.1528 -0.9873
vn 0.6070 0.0123 -0.7946
vn 0.8332 -0.1085 -0.5422
vn 0.7985 -0.0375 -0.6009
vn 0.9882 -0.1263 0.0869
vn 0.9605 -0.2734 -0.0519
vn 0.9936 0.0368 0.1067
vn 0.8456 -0.0660 0.5298
vn 0.8528 -0.0387 0.5208
vn 0.0642 -0.0330 0.9974
vn 0.0605 -0.1774 0.9823
vn 0.7153 0.0625 0.6960
vn 0.1002 -0.9836 -0.1498
vn -0.0177 0.1032 -0.9945
vn -0.9840 0.1671 0.0622
vn 0.0825 0.9810 0.1754
vn 0.0687 0.0898 0.9936
vt 0.715258 0.139023
vt 0.510107 0.104750
vt 0.621739 0.000093
vt 0.864742 0.082471
vt 0.759719 0.206333
vt 0.794079 0.400070
vt 0.679637 0.231989
vt 0.508394 0.232626
vt 0.571825 0.446147
vt 0.415238 0.299100
vt 0.765360 0.625037
vt 0.474632 0.549331
vt 0.354686 0.396238
vt 0.451942 0.608323
vt 0.243787 0.484467
vt 0.595901 0.720420
vt 0.420440 0.648578
vt 0.221369 0.624546
vt 0.329581 0.797902
vt 0.135380 0.718374
vt 0.531309 0.807047
vt 0.347587 0.999907
vt 0.206565 0.969030
vt 0.131551 0.845434
vt 0.248329 0.333706
vt 0.060307 0.367163
vt 0.147000 0.263830
vt 0.176959 0.443625
vt 0.103197 0.568041
vt 0.000093 0.487900
vt 0.819771 0.725924
vt 0.774610 0.975417
vt 0.681626 0.847199
vt 0.535442 0.936646
vt 0.862909 0.229495
vt 0.789417 0.516877
vt 0.461015 0.923650
vt 0.864742 0.837809
vt 0.648867 0.999659
s 1
usemtl マテリアル.011
f 10/1/1 9/2/2 1/3/3
f 2/4/4 21/5/5 10/1/1
f 21/5/5 4/6/6 12/7/7
f 9/2/2 12/7/7 3/8/8
f 3/8/8 22/9/9 13/10/10
f 4/6/6 22/9/9 12/7/7
f 22/9/9 8/11/11 15/12/12
f 22/9/9 7/13/13 13/10/10
f 7/13/13 23/14/14 16/15/15
f 15/12/12 17/16/16 23/14/14
f 17/16/16 18/17/17 23/14/14
f 23/14/14 5/18/18 16/15/15
f 5/18/18 24/19/19 19/20/20
f 6/21/21 24/19/19 18/17/17
f 24/19/19 2/22/4 10/23/1
f 24/19/19 1/24/3 19/20/20
f 13/25/10 9/26/2 3/27/8
f 13/25/10 16/15/15 25/28/22
f 16/15/15 19/29/20 25/28/22
f 9/26/2 19/29/20 1/30/3
f 14/31/23 17/16/16 8/11/11
f 14/31/23 11/32/24 26/33/25
f 11/32/24 20/34/26 26/33/25
f 26/33/25 6/21/21 17/16/16
f 10/1/1 21/5/5 9/2/2
f 2/4/4 11/35/24 21/5/5
f 21/5/5 11/35/24 4/6/6
f 9/2/2 21/5/5 12/7/7
f 3/8/8 12/7/7 22/9/9
f 4/6/6 14/36/23 22/9/9
f 22/9/9 14/36/23 8/11/11
f 22/9/9 15/12/12 7/13/13
f 7/13/13 15/12/12 23/14/14
f 15/12/12 8/11/11 17/16/16
f 17/16/16 6/21/21 18/17/17
f 23/14/14 18/17/17 5/18/18
f 5/18/18 18/17/17 24/19/19
f 6/21/21 20/37/26 24/19/19
f 24/19/19 20/37/26 2/22/4
f 24/19/19 10/23/1 1/24/3
f 13/25/10 25/28/22 9/26/2
f 13/25/10 7/13/13 16/15/15
f 16/15/15 5/18/18 19/29/20
f 9/26/2 25/28/22 19/29/20
f 14/31/23 26/33/25 17/16/16
f 14/31/23 4/38/6 11/32/24
f 11/32/24 2/39/4 20/34/26
f 26/33/25 20/34/26 6/21/21
