# Blender 4.1.1
# www.blender.org
mtllib playerHead.mtl
o feice
v 0.000000 1.117246 -0.301618
v 0.000000 0.517656 -0.271463
v 0.000000 0.464929 -0.213287
v 0.044023 1.233279 -0.060592
v 0.086354 1.209152 -0.118856
v 0.125367 1.169973 -0.172553
v 0.159562 1.117246 -0.219618
v 0.187625 1.052998 -0.258243
v 0.208478 0.979699 -0.286945
v 0.221319 0.900164 -0.304619
v 0.225654 0.817451 -0.310587
v 0.221319 0.734737 -0.304619
v 0.208478 0.655203 -0.286945
v 0.187625 0.580226 -0.258243
v 0.159562 0.517656 -0.219618
v 0.125367 0.464929 -0.172553
v 0.086354 0.425749 -0.118856
v 0.071231 1.233279 -0.023144
v 0.139724 1.209152 -0.045399
v 0.202848 1.169973 -0.065909
v 0.263582 1.128452 -0.083887
v 0.308989 1.064204 -0.098640
v 0.342729 0.990905 -0.109603
v 0.358101 0.900164 -0.116354
v 0.365117 0.817451 -0.118634
v 0.358101 0.732639 -0.045916
v 0.310675 0.655445 -0.043252
v 0.276203 0.585848 -0.038926
v 0.244670 0.500952 -0.083887
v 0.202848 0.464929 -0.065909
v 0.139724 0.425749 -0.045399
v 0.000000 0.399419 -0.039877
v 0.071231 1.233279 0.023144
v 0.139724 1.209152 0.045399
v 0.202848 1.169973 0.065909
v 0.263582 1.128452 0.083887
v 0.308989 1.064204 0.098640
v 0.342729 0.990905 0.109603
v 0.358101 0.900164 0.116354
v 0.365117 0.817451 0.118634
v 0.358101 0.732639 0.045916
v 0.310675 0.655445 0.043252
v 0.276203 0.585848 0.038926
v 0.244670 0.500952 0.083887
v 0.202848 0.464929 0.065909
v 0.139724 0.425749 0.045399
v -0.023439 0.399419 -0.032261
v 0.044023 1.233279 0.060592
v 0.086354 1.209152 0.118856
v 0.125367 1.169973 0.172553
v 0.159562 1.117246 0.219618
v 0.187625 1.052998 0.258243
v 0.208478 0.979699 0.286945
v 0.221319 0.900164 0.304619
v 0.225655 0.817451 0.290552
v 0.221319 0.734737 0.284584
v 0.208478 0.655203 0.251492
v 0.187625 0.581903 0.258243
v 0.159562 0.517656 0.219618
v 0.125367 0.464929 0.172553
v 0.086354 0.425749 0.118856
v 0.023439 0.399419 0.032261
v 0.000000 1.233279 0.074896
v 0.000000 1.209152 0.146915
v 0.000000 1.169973 0.213287
v 0.000000 1.117246 0.271463
v 0.000000 1.052998 0.319206
v 0.000000 0.979699 0.347468
v 0.000000 0.900164 0.362555
v 0.000000 0.817451 0.338794
v 0.000000 0.734737 0.307526
v 0.000000 0.655203 0.267399
v 0.000000 0.599145 0.333767
v 0.000000 0.517656 0.310638
v 0.000000 0.464929 0.276946
v 0.000000 0.425749 0.146915
v 0.037926 0.399419 0.012323
v 0.000000 1.241425 -0.000000
v -0.044023 1.233279 0.060592
v -0.086354 1.209152 0.118856
v -0.125367 1.169973 0.172553
v -0.159562 1.117246 0.219618
v -0.187625 1.052998 0.258243
v -0.208478 0.979699 0.286945
v -0.221319 0.900164 0.304619
v -0.225654 0.817451 0.290552
v -0.221319 0.734737 0.284584
v -0.208478 0.655203 0.251492
v -0.187625 0.581903 0.258243
v -0.159562 0.517656 0.219618
v -0.125367 0.464929 0.172553
v -0.086354 0.425749 0.118856
v 0.037926 0.399419 -0.012323
v -0.037926 0.399419 -0.012323
v -0.071231 1.233279 0.023144
v -0.139724 1.209152 0.045399
v -0.202848 1.169973 0.065909
v -0.269335 1.129122 0.083887
v -0.314742 1.064874 0.098640
v -0.348482 0.991575 0.109603
v -0.369259 0.912040 0.116354
v -0.365117 0.817451 0.118634
v -0.358101 0.734525 0.045916
v -0.312503 0.655203 0.043252
v -0.285383 0.590890 0.038926
v -0.247863 0.503272 0.083887
v -0.226137 0.470566 0.065909
v -0.139724 0.425749 0.045399
v 0.023439 0.399419 -0.032261
v -0.071231 1.233279 -0.023144
v -0.139724 1.209152 -0.045399
v -0.202848 1.169973 -0.065909
v -0.269335 1.129122 -0.083887
v -0.314742 1.064874 -0.098640
v -0.348482 0.991575 -0.109603
v -0.369259 0.912040 -0.116354
v -0.365117 0.817451 -0.118634
v -0.358101 0.734525 -0.045916
v -0.312503 0.655203 -0.043252
v -0.285383 0.590890 -0.038926
v -0.247863 0.503272 -0.083887
v -0.226137 0.470566 -0.065909
v -0.139724 0.425749 -0.045399
v -0.037926 0.399419 0.012323
v -0.044023 1.233279 -0.060592
v -0.086354 1.209152 -0.118856
v -0.125367 1.169973 -0.172553
v -0.159562 1.117246 -0.219618
v -0.187625 1.052998 -0.258243
v -0.208478 0.979699 -0.286945
v -0.221319 0.900164 -0.304619
v -0.225655 0.817451 -0.310587
v -0.221319 0.734737 -0.304619
v -0.208478 0.655203 -0.286945
v -0.187625 0.580227 -0.258243
v -0.159562 0.517656 -0.219618
v -0.125367 0.464929 -0.172553
v -0.086354 0.425749 -0.118856
v -0.023439 0.399419 0.032261
v 0.000000 1.233279 -0.074896
v 0.000000 1.209152 -0.146915
v 0.000000 1.169973 -0.243443
v 0.000000 1.052998 -0.349362
v 0.000000 0.979699 -0.384839
v 0.000000 0.900164 -0.406685
v 0.000000 0.817451 -0.397801
v 0.000000 0.734737 -0.376530
v 0.000000 0.655203 -0.354683
v 0.000000 0.581903 -0.319206
v 0.000000 0.425749 -0.146915
v 0.000000 0.399419 0.039877
v 0.000000 0.354053 -0.039877
v -0.023439 0.354053 -0.032261
v 0.023439 0.354053 0.032261
v 0.037926 0.354053 0.012323
v 0.037926 0.354053 -0.012323
v -0.037926 0.354053 -0.012323
v 0.023439 0.354053 -0.032261
v -0.037926 0.354053 0.012323
v -0.023439 0.354053 0.032261
v 0.000000 0.354053 0.039877
v 0.374318 0.685477 -0.045916
v 0.360131 0.634005 -0.043252
v 0.315827 0.572159 -0.038926
v 0.374318 0.685477 0.045916
v 0.360131 0.634005 0.043252
v 0.315827 0.572159 0.038926
v -0.386678 0.678668 0.045916
v -0.372160 0.627420 0.043252
v -0.320271 0.584989 0.038926
v -0.386678 0.678668 -0.045916
v -0.372160 0.627420 -0.043252
v -0.320271 0.584989 -0.038926
v 0.225654 0.387060 -0.310587
v 0.365117 0.571971 -0.118634
v -0.365117 0.571971 -0.118634
v -0.225655 0.387060 -0.310587
v 0.000000 0.387060 -0.397801
vn -0.0000 -0.7948 -0.6068
vn -0.0000 -0.6637 -0.7480
vn 0.5149 -0.6030 -0.6094
vn 0.3463 -0.8001 -0.4898
vn -0.0000 0.3552 -0.9348
vn -0.0000 0.5226 -0.8526
vn 0.5388 0.4983 -0.6793
vn 0.5924 0.3268 -0.7364
vn -0.0000 -0.9149 -0.4036
vn 0.2372 -0.9150 -0.3265
vn -0.0000 0.1312 -0.9913
vn 0.6196 0.1379 -0.7727
vn -0.0000 -0.1757 -0.9844
vn 0.6233 -0.2025 -0.7553
vn -0.0000 0.9721 -0.2347
vn -0.0000 1.0000 -0.0000
vn 0.1381 0.9720 -0.1901
vn -0.0000 -0.2163 -0.9763
vn 0.6088 -0.2859 -0.7400
vn -0.0000 0.9249 -0.3802
vn 0.2629 0.9094 -0.3224
vn -0.0000 -0.3430 -0.9394
vn 0.6110 -0.3864 -0.6909
vn -0.0000 0.8202 -0.5721
vn 0.3702 0.8130 -0.4495
vn -0.0000 -0.5086 -0.8610
vn 0.6011 -0.4645 -0.6503
vn -0.0000 0.6758 -0.7371
vn 0.4681 0.6609 -0.5866
vn 0.5163 0.8355 -0.1879
vn 0.6703 0.7006 -0.2449
vn 0.6811 -0.5852 -0.4400
vn 0.7885 -0.5532 -0.2688
vn 0.8091 0.5130 -0.2867
vn 0.5568 -0.8105 -0.1822
vn 0.8998 0.3140 -0.3028
vn 0.3838 -0.9150 -0.1247
vn 0.9398 0.1434 -0.3102
vn 0.9641 -0.0996 -0.2463
vn 0.2235 0.9720 -0.0726
vn 0.9415 -0.0803 -0.3274
vn 0.4120 0.9013 -0.1339
vn 0.5028 -0.2626 -0.8236
vn 0.9401 0.1240 0.3177
vn 0.9267 -0.0976 0.3630
vn 0.2232 0.9721 0.0725
vn 0.9355 -0.0899 0.3416
vn 0.4121 0.9013 0.1339
vn 0.6901 -0.5632 0.4545
vn 0.2437 -0.7525 -0.6118
vn 0.2437 -0.7525 0.6118
vn 0.5163 0.8356 0.1878
vn 0.6534 -0.3393 -0.6767
vn 0.6703 0.7006 0.2449
vn 0.7890 -0.5520 0.2696
vn 0.8091 0.5130 0.2867
vn 0.5568 -0.8105 0.1822
vn 0.8998 0.3140 0.3028
vn 0.3838 -0.9150 0.1247
vn 0.6338 -0.1297 0.7626
vn 0.5930 -0.5277 0.6082
vn 0.4155 0.6681 0.6173
vn 0.4872 0.4955 0.7191
vn 0.4133 -0.7988 0.4372
vn 0.5342 0.3135 0.7851
vn 0.2514 -0.9277 0.2762
vn 0.5412 0.0524 0.8392
vn 0.5448 -0.1882 0.8172
vn 0.1381 0.9720 0.1901
vn 0.4925 -0.3651 0.7900
vn 0.2547 0.9013 0.3505
vn 0.4905 -0.2509 0.8346
vn 0.6218 -0.2687 0.7357
vn 0.3346 0.8059 0.4884
vn -0.0000 -0.2202 0.9755
vn -0.0000 -0.3223 0.9467
vn -0.0000 0.9721 0.2347
vn -0.0000 0.9012 0.4333
vn -0.0000 0.0205 0.9998
vn -0.0000 0.7948 0.6068
vn -0.0000 0.0051 1.0000
vn -0.0000 0.6612 0.7502
vn -0.0000 -0.5641 0.8257
vn -0.0000 0.4888 0.8724
vn -0.0000 -0.7950 0.6066
vn -0.0000 0.3055 0.9522
vn -0.0000 -0.9519 0.3065
vn -0.0000 0.0035 1.0000
vn 0.4433 -0.6566 0.6102
vn 0.7173 -0.6566 0.2331
vn -0.5868 -0.5232 0.6180
vn -0.4109 -0.7931 0.4495
vn -0.4792 0.4942 0.7253
vn -0.5196 0.3232 0.7909
vn -0.2411 -0.9305 0.2759
vn -0.5301 0.0477 0.8466
vn 0.4433 -0.6566 -0.6102
vn -0.0000 -0.6566 -0.7542
vn -0.5387 -0.2036 0.8175
vn -0.1381 0.9720 0.1901
vn -0.4935 -0.3631 0.7903
vn -0.2546 0.9013 0.3504
vn -0.6222 -0.2531 0.7408
vn -0.3282 0.8090 0.4876
vn -0.6280 -0.1258 0.7679
vn -0.4064 0.6704 0.6208
vn -0.2235 0.9720 0.0726
vn -0.4120 0.9013 0.1339
vn -0.9289 -0.0573 0.3658
vn -0.4956 -0.2415 0.8343
vn -0.4975 0.8466 0.1890
vn -0.6994 -0.5672 0.4349
vn -0.6571 0.7113 0.2496
vn -0.8060 -0.5128 0.2955
vn -0.8051 0.5141 0.2960
vn -0.6284 -0.7556 0.1848
vn -0.8827 0.3485 0.3152
vn -0.3516 -0.9273 0.1285
vn -0.9394 0.1101 0.3248
vn 0.7173 -0.6566 -0.2331
vn -0.9178 -0.1462 0.3691
vn -0.7173 -0.6566 0.2331
vn -0.4433 -0.6566 0.6102
vn -0.8050 0.5141 -0.2960
vn -0.8827 0.3485 -0.3152
vn -0.6284 -0.7556 -0.1848
vn -0.3516 -0.9273 -0.1285
vn -0.9393 0.1277 -0.3184
vn -0.0000 -0.6566 0.7542
vn -0.9521 -0.1645 -0.2579
vn -0.2232 0.9721 -0.0725
vn -0.7173 -0.6566 -0.2331
vn -0.9351 -0.0477 -0.3512
vn -0.4121 0.9013 -0.1339
vn -0.6222 -0.4288 0.6550
vn -0.1859 -0.7476 0.6376
vn -0.4975 0.8466 -0.1890
vn -0.6896 -0.5905 -0.4193
vn -0.1859 -0.7476 -0.6376
vn -0.6571 0.7113 -0.2496
vn -0.8056 -0.5140 -0.2947
vn -0.5078 -0.2558 -0.8226
vn -0.6097 -0.2835 -0.7402
vn -0.6125 -0.3765 -0.6951
vn -0.2629 0.9094 -0.3224
vn -0.3638 0.8162 -0.4488
vn -0.5970 -0.4596 -0.6575
vn -0.4593 0.6636 -0.5905
vn -0.5090 -0.5977 -0.6194
vn -0.5311 0.4973 -0.6860
vn -0.3436 -0.7938 -0.5018
vn -0.5785 0.3365 -0.7431
vn -0.2270 -0.9176 -0.3262
vn -0.6095 0.1308 -0.7819
vn -0.4433 -0.6566 -0.6102
vn -0.6119 -0.2316 -0.7563
vn -0.1381 0.9720 -0.1901
vn -0.6119 -0.2317 -0.7563
vn 0.9511 -0.0000 -0.3090
vn 0.5878 -0.0000 -0.8090
vn -0.0000 -0.0000 -1.0000
vn -0.5878 -0.0000 -0.8090
vn -0.9511 -0.0000 -0.3090
vn -0.9511 -0.0000 0.3090
vn -0.0000 -0.0000 1.0000
vn 0.5878 -0.0000 0.8090
vn 0.9511 -0.0000 0.3090
vn -0.5878 -0.0000 0.8090
vn 0.7542 0.0097 -0.6566
vn 0.7542 0.0097 0.6566
vn 0.6534 -0.3393 0.6767
vn -0.7630 0.0621 0.6434
vn -0.7630 0.0621 -0.6434
vn -0.6222 -0.4288 -0.6550
vn -0.0000 -0.1756 -0.9845
vn -0.5514 -0.0000 0.8342
vn -0.8090 -0.0000 0.5878
vn 0.5514 -0.0000 0.8342
vn -0.9520 -0.1645 -0.2580
vn 0.8090 -0.0000 0.5878
vt 0.312138 0.334585
vt 0.314679 0.297889
vt 0.384912 0.337376
vt 0.359347 0.357200
vt 0.307092 0.836451
vt 0.307282 0.786478
vt 0.404956 0.729624
vt 0.444590 0.760342
vt 0.310722 0.363685
vt 0.338827 0.375315
vt 0.306860 0.899918
vt 0.499484 0.800509
vt 0.306400 0.999872
vt 0.580212 0.849435
vt 0.307718 0.654497
vt 0.307728 0.634644
vt 0.319781 0.649802
vt 0.326499 0.109977
vt 0.334011 0.000128
vt 0.631884 0.200275
vt 0.536499 0.249871
vt 0.307671 0.677239
vt 0.333837 0.665988
vt 0.319099 0.193280
vt 0.467546 0.281661
vt 0.307549 0.713556
vt 0.351648 0.684044
vt 0.316550 0.252176
vt 0.420378 0.313148
vt 0.307429 0.746358
vt 0.375324 0.704859
vt 0.367526 0.643366
vt 0.390876 0.640870
vt 0.419274 0.427855
vt 0.392534 0.400344
vt 0.420233 0.636349
vt 0.373476 0.400940
vt 0.457814 0.625853
vt 0.350511 0.401017
vt 0.520988 0.598132
vt 0.595185 0.539905
vt 0.325851 0.639190
vt 0.480257 0.482750
vt 0.345662 0.642555
vt 0.452251 0.437470
vt 0.400173 0.547220
vt 0.404325 0.526019
vt 0.324384 0.627990
vt 0.427115 0.497856
vt 0.340034 0.620035
vt 0.400657 0.452612
vt 0.425483 0.443664
vt 0.412404 0.455986
vt 0.354985 0.610313
vt 0.439856 0.456537
vt 0.368822 0.599363
vt 0.370269 0.447013
vt 0.381325 0.585396
vt 0.359507 0.436496
vt 0.392142 0.568863
vt 0.344319 0.425018
vt 0.343186 0.482398
vt 0.339490 0.467821
vt 0.337879 0.579555
vt 0.342271 0.565914
vt 0.334778 0.453186
vt 0.345475 0.552172
vt 0.328317 0.438835
vt 0.347318 0.538366
vt 0.348364 0.524453
vt 0.317409 0.620251
vt 0.348191 0.510317
vt 0.325477 0.606447
vt 0.406980 0.474896
vt 0.347692 0.494847
vt 0.332183 0.592889
vt 0.308363 0.524714
vt 0.308572 0.510794
vt 0.307826 0.617409
vt 0.307815 0.601948
vt 0.308823 0.496985
vt 0.307824 0.587725
vt 0.309087 0.483515
vt 0.307888 0.574385
vt 0.309257 0.473709
vt 0.308039 0.561594
vt 0.309435 0.464871
vt 0.308104 0.549548
vt 0.309889 0.442614
vt 0.308208 0.537299
vt 0.316135 0.416525
vt 0.320005 0.411789
vt 0.279126 0.466745
vt 0.284396 0.452285
vt 0.273426 0.565460
vt 0.270347 0.551565
vt 0.291638 0.438228
vt 0.268539 0.537442
vt 0.317078 0.399488
vt 0.310321 0.397020
vt 0.268257 0.523309
vt 0.298109 0.619979
vt 0.268761 0.509268
vt 0.290060 0.606085
vt 0.269819 0.493811
vt 0.283420 0.592529
vt 0.274851 0.481222
vt 0.277774 0.579147
vt 0.290962 0.627787
vt 0.275322 0.619619
vt 0.188292 0.491663
vt 0.209510 0.470774
vt 0.260592 0.609663
vt 0.216640 0.451721
vt 0.245653 0.598379
vt 0.247974 0.444642
vt 0.233160 0.584304
vt 0.254936 0.435939
vt 0.222202 0.567623
vt 0.276263 0.423746
vt 0.213952 0.548123
vt 0.320695 0.405359
vt 0.211295 0.522994
vt 0.300729 0.412121
vt 0.304913 0.416613
vt 0.194682 0.634585
vt 0.157841 0.623796
vt 0.240977 0.400936
vt 0.270447 0.399743
vt 0.106885 0.600882
vt 0.310488 0.418394
vt 0.000128 0.528948
vt 0.289629 0.639080
vt 0.299931 0.405547
vt 0.131655 0.476415
vt 0.269983 0.642273
vt 0.195609 0.462535
vt 0.205981 0.454509
vt 0.248045 0.642956
vt 0.201040 0.426453
vt 0.194497 0.437945
vt 0.223621 0.639434
vt 0.227037 0.397576
vt 0.171074 0.428832
vt 0.094293 0.223008
vt 0.164496 0.270153
vt 0.281579 0.665778
vt 0.263598 0.683689
vt 0.208305 0.305743
vt 0.239697 0.704377
vt 0.240987 0.332801
vt 0.209890 0.728936
vt 0.264343 0.355628
vt 0.170137 0.759297
vt 0.283072 0.375197
vt 0.114582 0.799010
vt 0.303506 0.399499
vt 0.037769 0.848200
vt 0.295655 0.649733
vt 0.000128 0.158607
vt 0.313353 0.407495
vt 0.312430 0.405750
vt 0.310564 0.404983
vt 0.308592 0.405568
vt 0.307388 0.407242
vt 0.307426 0.409273
vt 0.310376 0.411604
vt 0.312124 0.411124
vt 0.313275 0.409586
vt 0.308624 0.410918
vt 0.452673 0.468184
vt 0.426084 0.480388
vt 0.420810 0.469181
vt 0.189462 0.471735
vt 0.171498 0.457721
vt 0.182054 0.450037
vt 0.632140 0.373451
vt 0.632140 0.248207
vt 0.833898 0.248207
vt 0.833898 0.373451
vt 0.632140 0.496285
vt 0.747216 0.496285
vt 0.632140 0.122963
vt 0.833898 0.122963
vt 0.632140 0.000128
vt 0.747216 0.000128
s 1
usemtl マテリアル.017
f 3/1/1 2/2/2 15/3/3 16/4/4
f 144/5/5 143/6/6 8/7/7 9/8/8
f 150/9/9 3/1/1 16/4/4 17/10/10
f 145/11/11 144/5/5 9/8/8 10/12/12
f 146/13/13 145/11/11 10/12/12 11/14/14
f 140/15/15 78/16/16 4/17/17
f 147/18/18 146/19/13 11/20/14 12/21/19
f 141/22/20 140/15/15 4/17/17 5/23/21
f 148/24/22 147/18/18 12/21/19 13/25/23
f 142/26/24 141/22/20 5/23/21 6/27/25
f 149/28/26 148/24/22 13/25/23 14/29/27
f 1/30/28 142/26/24 6/27/25 7/31/29
f 2/2/2 149/28/26 14/29/27 15/3/3
f 143/6/6 1/30/28 7/31/29 8/7/7
f 7/31/29 6/27/25 20/32/30 21/33/31
f 15/3/3 14/29/27 28/34/32 29/35/33
f 8/7/7 7/31/29 21/33/31 22/36/34
f 16/4/4 15/3/3 29/35/33 30/37/35
f 9/8/8 8/7/7 22/36/34 23/38/36
f 17/10/10 16/4/4 30/37/35 31/39/37
f 10/12/12 9/8/8 23/38/36 24/40/38
f 11/14/14 10/12/12 24/40/38 25/41/39
f 4/17/17 78/16/16 18/42/40
f 12/21/19 11/20/14 25/41/39 26/43/41
f 5/23/21 4/17/17 18/42/40 19/44/42
f 13/25/23 12/21/19 26/43/41 27/45/43
f 6/27/25 5/23/21 19/44/42 20/32/30
f 14/29/27 13/25/23 27/45/43 28/34/32
f 25/41/39 24/40/38 39/46/44 40/47/45
f 18/42/40 78/16/16 33/48/46
f 26/43/41 25/41/39 40/47/45 41/49/47
f 19/44/42 18/42/40 33/48/46 34/50/48
f 43/51/49 28/34/32 164/52/50 167/53/51
f 20/32/30 19/44/42 34/50/48 35/54/52
f 28/34/32 27/45/43 163/55/53 164/52/50
f 21/33/31 20/32/30 35/54/52 36/56/54
f 29/35/33 28/34/32 43/51/49 44/57/55
f 22/36/34 21/33/31 36/56/54 37/58/56
f 30/37/35 29/35/33 44/57/55 45/59/57
f 23/38/36 22/36/34 37/58/56 38/60/58
f 31/39/37 30/37/35 45/59/57 46/61/59
f 24/40/38 23/38/36 38/60/58 39/46/44
f 44/57/55 43/51/49 58/62/60 59/63/61
f 37/58/56 36/56/54 51/64/62 52/65/63
f 45/59/57 44/57/55 59/63/61 60/66/64
f 38/60/58 37/58/56 52/65/63 53/67/65
f 46/61/59 45/59/57 60/66/64 61/68/66
f 39/46/44 38/60/58 53/67/65 54/69/67
f 40/47/45 39/46/44 54/69/67 55/70/68
f 33/48/46 78/16/16 48/71/69
f 41/49/47 40/47/45 55/70/68 56/72/70
f 34/50/48 33/48/46 48/71/69 49/73/71
f 42/74/72 41/49/47 56/72/70 57/75/73
f 35/54/52 34/50/48 49/73/71 50/76/74
f 43/51/49 42/74/72 57/75/73 58/62/60
f 36/56/54 35/54/52 50/76/74 51/64/62
f 56/72/70 55/70/68 70/77/75 71/78/76
f 49/73/71 48/71/69 63/79/77 64/80/78
f 57/75/73 56/72/70 71/78/76 72/81/79
f 50/76/74 49/73/71 64/80/78 65/82/80
f 58/62/60 57/75/73 72/81/79 73/83/81
f 51/64/62 50/76/74 65/82/80 66/84/82
f 59/63/61 58/62/60 73/83/81 74/85/83
f 52/65/63 51/64/62 66/84/82 67/86/84
f 60/66/64 59/63/61 74/85/83 75/87/85
f 53/67/65 52/65/63 67/86/84 68/88/86
f 61/68/66 60/66/64 75/87/85 76/89/87
f 54/69/67 53/67/65 68/88/86 69/90/88
f 46/61/59 61/68/66 62/91/89 77/92/90
f 55/70/68 54/69/67 69/90/88 70/77/75
f 48/71/69 78/16/16 63/79/77
f 75/87/85 74/85/83 90/93/91 91/94/92
f 68/88/86 67/86/84 83/95/93 84/96/94
f 76/89/87 75/87/85 91/94/92 92/97/95
f 69/90/88 68/88/86 84/96/94 85/98/96
f 150/9/9 17/10/10 109/99/97 32/100/98
f 70/77/75 69/90/88 85/98/96 86/101/99
f 63/79/77 78/16/16 79/102/100
f 71/78/76 70/77/75 86/101/99 87/103/101
f 64/80/78 63/79/77 79/102/100 80/104/102
f 72/81/79 71/78/76 87/103/101 88/105/103
f 65/82/80 64/80/78 80/104/102 81/106/104
f 73/83/81 72/81/79 88/105/103 89/107/105
f 66/84/82 65/82/80 81/106/104 82/108/106
f 74/85/83 73/83/81 89/107/105 90/93/91
f 67/86/84 66/84/82 82/108/106 83/95/93
f 80/104/102 79/102/100 95/109/107 96/110/108
f 88/105/103 87/103/101 103/111/109 104/112/110
f 81/106/104 80/104/102 96/110/108 97/113/111
f 89/107/105 88/105/103 104/112/110 105/114/112
f 82/108/106 81/106/104 97/113/111 98/115/113
f 90/93/91 89/107/105 105/114/112 106/116/114
f 83/95/93 82/108/106 98/115/113 99/117/115
f 91/94/92 90/93/91 106/116/114 107/118/116
f 84/96/94 83/95/93 99/117/115 100/119/117
f 92/97/95 91/94/92 107/118/116 108/120/118
f 85/98/96 84/96/94 100/119/117 101/121/119
f 31/39/37 46/61/59 77/92/90 93/122/120
f 86/101/99 85/98/96 101/121/119 102/123/121
f 79/102/100 78/16/16 95/109/107
f 92/97/95 108/120/118 124/124/122 139/125/123
f 87/103/101 86/101/99 102/123/121 103/111/109
f 100/119/117 99/117/115 114/126/124 115/127/125
f 108/120/118 107/118/116 122/128/126 123/129/127
f 101/121/119 100/119/117 115/127/125 116/130/128
f 61/68/66 76/89/87 151/131/129 62/91/89
f 102/123/121 101/121/119 116/130/128 117/132/130
f 95/109/107 78/16/16 110/133/131
f 108/120/118 123/129/127 94/134/132 124/124/122
f 103/111/109 102/123/121 117/132/130 118/135/133
f 96/110/108 95/109/107 110/133/131 111/136/134
f 105/114/112 104/112/110 169/137/135 170/138/136
f 97/113/111 96/110/108 111/136/134 112/139/137
f 120/140/138 105/114/112 170/138/136 173/141/139
f 98/115/113 97/113/111 112/139/137 113/142/140
f 106/116/114 105/114/112 120/140/138 121/143/141
f 99/117/115 98/115/113 113/142/140 114/126/124
f 107/118/116 106/116/114 121/143/141 122/128/126
f 119/144/142 118/135/133 133/145/143 134/146/144
f 112/139/137 111/136/134 126/147/145 127/148/146
f 120/140/138 119/144/142 134/146/144 135/149/147
f 113/142/140 112/139/137 127/148/146 128/150/148
f 121/143/141 120/140/138 135/149/147 136/151/149
f 114/126/124 113/142/140 128/150/148 129/152/150
f 122/128/126 121/143/141 136/151/149 137/153/151
f 115/127/125 114/126/124 129/152/150 130/154/152
f 123/129/127 122/128/126 137/153/151 138/155/153
f 116/130/128 115/127/125 130/154/152 131/156/154
f 138/155/153 150/9/9 32/100/98 47/157/155
f 117/132/130 116/130/128 131/156/154 132/158/156
f 110/133/131 78/16/16 125/159/157
f 123/129/127 138/155/153 47/157/155 94/134/132
f 118/135/133 117/132/130 132/160/158 133/145/143
f 111/136/134 110/133/131 125/159/157 126/147/145
f 138/155/153 137/153/151 3/1/1 150/9/9
f 131/156/154 130/154/152 144/5/5 145/11/11
f 17/10/10 31/39/37 93/122/120 109/99/97
f 132/158/156 131/156/154 145/11/11 146/13/13
f 125/159/157 78/16/16 140/15/15
f 76/89/87 92/97/95 139/125/123 151/131/129
f 133/145/143 132/160/158 146/19/13 147/18/18
f 126/147/145 125/159/157 140/15/15 141/22/20
f 134/146/144 133/145/143 147/18/18 148/24/22
f 127/148/146 126/147/145 141/22/20 142/26/24
f 135/149/147 134/146/144 148/24/22 149/28/26
f 128/150/148 127/148/146 142/26/24 1/30/28
f 136/151/149 135/149/147 149/28/26 2/2/2
f 129/152/150 128/150/148 1/30/28 143/6/6
f 137/153/151 136/151/149 2/2/2 3/1/1
f 130/154/152 129/152/150 143/6/6 144/5/5
f 109/99/97 93/122/120 156/161/159 158/162/160
f 47/157/155 32/100/98 152/163/161 153/164/162
f 124/124/122 94/134/132 157/165/163 159/166/164
f 62/91/89 151/131/129 161/167/165 154/168/166
f 77/92/90 62/91/89 154/168/166 155/169/167
f 32/100/98 109/99/97 158/162/160 152/163/161
f 139/125/123 124/124/122 159/166/164 160/170/168
f 94/134/132 47/157/155 153/164/162 157/165/163
f 151/131/129 139/125/123 160/170/168 161/167/165
f 93/122/120 77/92/90 155/169/167 156/161/159
f 163/55/53 162/171/169 165/172/170 166/173/171
f 164/52/50 163/55/53 166/173/171 167/53/51
f 42/74/72 43/51/49 167/53/51 166/173/171
f 26/43/41 41/49/47 165/172/170 162/171/169
f 27/45/43 26/43/41 162/171/169 163/55/53
f 41/49/47 42/74/72 166/173/171 165/172/170
f 169/137/135 168/174/172 171/175/173 172/176/174
f 170/138/136 169/137/135 172/176/174 173/141/139
f 103/111/109 118/135/133 171/175/173 168/174/172
f 119/144/142 120/140/138 173/141/139 172/176/174
f 104/112/110 103/111/109 168/174/172 169/137/135
f 118/135/133 119/144/142 172/176/174 171/175/173
f 11/177/14 146/178/175 178/179/165 174/180/176
f 25/181/39 11/177/14 174/180/176 175/182/177
f 146/178/175 132/183/156 177/184/178 178/179/165
f 132/183/156 117/185/179 176/186/180 177/184/178
o 帽子.001
v 0.006418 1.070915 -0.333412
v -0.238437 1.070915 -0.231990
v -0.339860 1.070915 0.012865
v -0.238437 1.070915 0.257720
v 0.006418 1.070915 0.359143
v 0.251273 1.070915 0.257720
v 0.352695 1.070915 0.012865
v 0.251273 1.070915 -0.231990
v -0.133988 2.054473 -0.153974
v -0.133988 2.054473 -0.153974
v -0.133988 2.054473 -0.153974
v -0.133988 2.054473 -0.153974
v -0.133988 2.054473 -0.153974
v -0.133988 2.054473 -0.153974
v -0.133988 2.054473 -0.153974
v -0.133988 2.054473 -0.153974
v -0.133988 2.054473 -0.153974
v -0.192944 1.515820 -0.021104
v -0.142233 1.515820 0.101324
v -0.019805 1.515820 -0.194242
v -0.142233 1.515820 -0.143531
v 0.102623 1.515820 -0.143531
v 0.102623 1.515820 0.101324
v 0.153334 1.515820 -0.021104
v -0.019805 1.515820 0.152035
v -0.169594 1.249666 0.183024
v -0.169594 1.249666 -0.184259
v 0.273755 1.249666 -0.000617
v 0.014047 1.249666 0.259091
v -0.245661 1.249666 -0.000617
v 0.014047 1.249666 -0.260325
v 0.197688 1.249666 -0.184259
v 0.197688 1.249666 0.183024
v -0.151397 1.776730 -0.068568
v -0.064827 1.776730 -0.155138
v -0.003614 1.776730 -0.129782
v -0.003614 1.776730 -0.007354
v -0.126041 1.776730 -0.007354
v -0.126041 1.776730 -0.129782
v 0.021742 1.776730 -0.068568
v -0.064827 1.776730 0.018001
v 0.004548 0.981211 -0.563759
v -0.406270 0.981211 -0.393593
v -0.576436 0.981211 0.017225
v -0.406270 0.981211 0.428042
v 0.004548 0.981211 0.598208
v 0.415365 0.981211 0.428042
v 0.585532 0.981211 0.017225
v 0.415365 0.981211 -0.393593
v 0.007228 0.878682 -0.769361
v -0.577212 0.878682 -0.527278
v -0.819295 0.878682 0.057162
v -0.577212 0.878682 0.641602
v 0.007228 0.878682 0.883685
v 0.591668 0.878682 0.641602
v 0.833751 0.878682 0.057162
v 0.591668 0.878682 -0.527278
v -0.243958 1.074468 -0.237336
v 0.006351 1.074121 -0.341248
v -0.347346 1.074868 0.012969
v -0.243622 1.075096 0.262948
v 0.006361 1.075052 0.366530
v 0.256525 1.074754 0.263139
v 0.360436 1.074342 0.012979
v 0.256856 1.074065 -0.237521
v -0.174832 1.253846 0.188199
v -0.174916 1.253199 -0.189816
v 0.281503 1.253076 -0.000769
v 0.014128 1.253798 0.266480
v -0.253155 1.253604 -0.000763
v 0.014134 1.252867 -0.268163
v 0.203212 1.252815 -0.189849
v 0.203146 1.253486 0.188250
vn 0.9100 -0.1729 -0.3769
vn 0.3811 0.0910 0.9200
vn -0.3808 -0.0987 0.9194
vn -0.7797 -0.5365 -0.3230
vn 0.3454 -0.4304 -0.8340
vn 0.9222 0.0597 0.3820
vn -0.8577 -0.3717 0.3553
vn -0.3183 -0.5551 -0.7685
vn -0.0000 -0.0000 -1.0000
vn -0.3528 -0.3875 -0.8517
vn -0.8612 -0.3622 0.3567
vn 0.9132 -0.1518 0.3783
vn 0.3642 -0.3073 -0.8792
vn -0.8433 -0.4084 -0.3493
vn -0.3687 -0.2679 0.8901
vn 0.3766 -0.1778 0.9092
vn 0.9037 -0.2078 -0.3743
vn -0.3844 0.9094 0.1586
vn -0.4223 0.8892 -0.1759
vn -0.1907 0.8661 -0.4621
vn 0.1991 0.8541 -0.4804
vn -0.3366 -0.4756 -0.8127
vn -0.8589 -0.3685 0.3558
vn 0.9211 -0.0773 0.3815
vn 0.3543 -0.3782 -0.8552
vn -0.8144 -0.4721 -0.3373
vn -0.3749 -0.2004 0.9051
vn 0.3817 -0.0722 0.9215
vn 0.9029 -0.2118 -0.3740
vn -0.1491 -0.9210 0.3599
vn -0.3533 -0.9240 -0.1463
vn 0.1436 -0.9269 -0.3467
vn 0.3531 -0.9241 0.1463
vn -0.3580 -0.9219 0.1483
vn -0.1444 -0.9261 -0.3486
vn 0.3485 -0.9261 -0.1444
vn 0.1482 -0.9219 0.3578
vn -0.3991 -0.9019 0.1653
vn -0.1382 -0.9325 -0.3336
vn 0.3634 -0.9194 -0.1505
vn 0.1825 -0.8789 0.4407
vn -0.1810 -0.8811 0.4370
vn -0.3571 -0.9223 -0.1479
vn 0.1391 -0.9316 -0.3359
vn 0.4068 -0.8979 0.1685
vn -0.4348 -0.8825 -0.1791
vn -0.1999 -0.8529 0.4823
vn 0.4202 -0.8904 0.1751
vn 0.1529 -0.9165 -0.3695
vn 0.8211 -0.4585 -0.3400
vn 0.3560 -0.3665 0.8596
vn -0.3599 -0.3397 0.8689
vn -0.8466 -0.4003 -0.3506
vn 0.3376 -0.4708 -0.8151
vn 0.8399 -0.4164 0.3480
vn -0.8639 -0.3544 0.3579
vn -0.3422 -0.4479 -0.8260
vn 0.3819 -0.9107 -0.1575
vn -0.1539 0.9155 0.3718
vn 0.1906 -0.8660 0.4622
vn 0.1641 0.9043 0.3941
vn -0.4711 -0.8601 0.1958
vn 0.4363 0.8816 0.1798
vn -0.1630 -0.9056 -0.3915
vn 0.4703 0.8606 -0.1954
vt 0.719823 0.577326
vt 0.719855 0.577170
vt 0.720017 0.577155
vt 0.720019 0.577145
vt 0.719943 0.577027
vt 0.720107 0.577085
vt 0.719983 0.577141
vt 0.720000 0.577160
vt 0.720237 0.577186
vt 0.719970 0.577119
vt 0.720271 0.577355
vt 0.720123 0.577453
vt 0.719980 0.577105
vt 0.719974 0.577107
vt 0.719928 0.577475
vt 0.720000 0.577125
vt 0.719992 0.577133
vt 0.726401 0.593189
vt 0.714108 0.592817
vt 0.718591 0.581236
vt 0.721556 0.581317
vt 0.735661 0.572678
vt 0.735431 0.584892
vt 0.723828 0.579376
vt 0.723809 0.576363
vt 0.706263 0.571817
vt 0.715040 0.563513
vt 0.718760 0.574091
vt 0.716754 0.576182
vt 0.705889 0.583839
vt 0.716651 0.579028
vt 0.727122 0.563988
vt 0.721686 0.574278
vt 0.753401 0.566275
vt 0.753026 0.593451
vt 0.751537 0.592755
vt 0.752153 0.566715
vt 0.733056 0.611793
vt 0.732465 0.610514
vt 0.705871 0.610757
vt 0.706370 0.609617
vt 0.687223 0.590947
vt 0.688613 0.590532
vt 0.734620 0.546952
vt 0.745384 0.522621
vt 0.778591 0.556492
vt 0.778470 0.605044
vt 0.742499 0.637933
vt 0.694344 0.635996
vt 0.661236 0.601063
vt 0.707688 0.545851
vt 0.687645 0.564001
vt 0.661943 0.552541
vt 0.698108 0.520521
vt 0.804664 0.549273
vt 0.805537 0.621783
vt 0.751046 0.669964
vt 0.680779 0.666630
vt 0.632140 0.616030
vt 0.632140 0.543630
vt 0.686731 0.496542
vt 0.755857 0.499889
vt 0.704954 0.571217
vt 0.714567 0.562347
vt 0.713606 0.593974
vt 0.704685 0.584218
vt 0.736614 0.585449
vt 0.726958 0.594402
vt 0.727617 0.562863
vt 0.736947 0.572236
vt 0.689102 0.564637
vt 0.708220 0.547124
vt 0.734063 0.548138
s 0
usemtl マテリアル.018
f 216/187/181 212/188/181 189/189/181 190/190/181
f 217/191/182 213/192/182 187/193/182 188/194/182
f 213/192/183 214/195/183 194/196/183 187/193/183
f 218/197/184 215/198/184 192/199/184 193/200/184
f 219/201/185 216/187/185 190/190/185 191/202/185
f 212/188/186 217/191/186 188/194/186 189/189/186
f 214/195/187 218/197/187 193/200/187 194/196/187
f 215/198/188 219/201/188 191/202/188 192/199/188
f 194/196/189 193/200/189 195/203/189 187/193/189
f 193/200/189 192/199/189 191/202/189 195/203/189
f 187/193/189 195/203/189 189/189/189 188/194/189
f 195/203/189 191/202/189 190/190/189 189/189/189
f 211/204/190 207/205/190 203/206/190 201/207/190
f 210/208/191 206/209/191 202/210/191 200/211/191
f 208/212/192 205/213/192 199/214/192 196/215/192
f 207/205/193 204/216/193 197/217/193 203/206/193
f 206/209/194 211/204/194 201/207/194 202/210/194
f 209/218/195 210/208/195 200/211/195 198/219/195
f 205/213/196 209/218/196 198/219/196 199/214/196
f 204/216/197 208/212/197 196/215/197 197/217/197
f 186/220/198 185/221/198 242/222/198 243/223/198
f 185/221/199 184/224/199 241/225/199 242/222/199
f 184/224/200 183/226/200 240/227/200 241/225/200
f 183/226/201 182/228/201 239/229/201 240/227/201
f 201/207/202 203/206/202 219/201/202 215/198/202
f 200/211/203 202/210/203 218/197/203 214/195/203
f 196/215/204 199/214/204 217/191/204 212/188/204
f 203/206/205 197/217/205 216/187/205 219/201/205
f 202/210/206 201/207/206 215/198/206 218/197/206
f 198/219/207 200/211/207 214/195/207 213/192/207
f 199/214/208 198/219/208 213/192/208 217/191/208
f 197/217/209 196/215/209 212/188/209 216/187/209
f 186/220/210 179/230/210 220/231/210 227/232/210
f 184/224/211 185/221/211 226/233/211 225/234/211
f 182/228/212 183/226/212 224/235/212 223/236/212
f 180/237/213 181/238/213 222/239/213 221/240/213
f 185/221/214 186/220/214 227/232/214 226/233/214
f 183/226/215 184/224/215 225/234/215 224/235/215
f 181/238/216 182/228/216 223/236/216 222/239/216
f 179/230/217 180/237/217 221/240/217 220/231/217
f 226/233/218 227/232/218 235/241/218 234/242/218
f 224/235/219 225/234/219 233/243/219 232/244/219
f 222/239/220 223/236/220 231/245/220 230/246/220
f 220/231/221 221/240/221 229/247/221 228/248/221
f 227/232/222 220/231/222 228/248/222 235/241/222
f 225/234/223 226/233/223 234/242/223 233/243/223
f 223/236/224 224/235/224 232/244/224 231/245/224
f 221/240/225 222/239/225 230/246/225 229/247/225
usemtl マテリアル.019
f 205/213/226 208/212/226 248/249/226 245/250/226
f 204/216/227 207/205/227 247/251/227 244/252/227
f 211/204/228 206/209/228 246/253/228 251/254/228
f 210/208/229 209/218/229 249/255/229 250/256/229
f 239/229/230 238/257/230 248/249/230 244/252/230
f 236/258/231 237/259/231 249/255/231 245/250/231
f 237/259/232 243/223/232 250/256/232 249/255/232
f 242/222/233 241/225/233 251/254/233 246/253/233
f 240/227/234 239/229/234 244/252/234 247/251/234
f 238/257/235 236/258/235 245/250/235 248/249/235
f 243/223/236 242/222/236 246/253/236 250/256/236
f 241/225/237 240/227/237 247/251/237 251/254/237
f 206/209/238 210/208/238 250/256/238 246/253/238
f 179/230/239 186/220/239 243/223/239 237/259/239
f 207/205/240 211/204/240 251/254/240 247/251/240
f 180/237/241 179/230/241 237/259/241 236/258/241
f 208/212/242 204/216/242 244/252/242 248/249/242
f 181/238/243 180/237/243 236/258/243 238/257/243
f 209/218/244 205/213/244 245/250/244 249/255/244
f 182/228/245 181/238/245 238/257/245 239/229/245
