# Blender 4.1.1
# www.blender.org
mtllib TtianglePlayerHead.mtl
o feice
v 0.000000 1.117246 -0.301618
v 0.000000 0.517656 -0.271463
v 0.000000 0.464929 -0.213287
v 0.044023 1.233279 -0.060592
v 0.086354 1.209152 -0.118856
v 0.125367 1.169973 -0.172553
v 0.159562 1.117246 -0.219618
v 0.187625 1.052998 -0.258243
v 0.208478 0.979699 -0.286945
v 0.221319 0.900164 -0.304619
v 0.225654 0.817451 -0.310587
v 0.221319 0.734737 -0.304619
v 0.208478 0.655203 -0.286945
v 0.187625 0.580226 -0.258243
v 0.159562 0.517656 -0.219618
v 0.125367 0.464929 -0.172553
v 0.086354 0.425749 -0.118856
v 0.071231 1.233279 -0.023144
v 0.139724 1.209152 -0.045399
v 0.202848 1.169973 -0.065909
v 0.263582 1.128452 -0.083887
v 0.308989 1.064204 -0.098640
v 0.342729 0.990905 -0.109603
v 0.358101 0.900164 -0.116354
v 0.365117 0.817451 -0.118634
v 0.358101 0.732639 -0.045916
v 0.310675 0.655445 -0.043252
v 0.276203 0.585848 -0.038926
v 0.244670 0.500952 -0.083887
v 0.202848 0.464929 -0.065909
v 0.139724 0.425749 -0.045399
v 0.000000 0.399419 -0.039877
v 0.071231 1.233279 0.023144
v 0.139724 1.209152 0.045399
v 0.202848 1.169973 0.065909
v 0.263582 1.128452 0.083887
v 0.308989 1.064204 0.098640
v 0.342729 0.990905 0.109603
v 0.358101 0.900164 0.116354
v 0.365117 0.817451 0.118634
v 0.358101 0.732639 0.045916
v 0.310675 0.655445 0.043252
v 0.276203 0.585848 0.038926
v 0.244670 0.500952 0.083887
v 0.202848 0.464929 0.065909
v 0.139724 0.425749 0.045399
v -0.023439 0.399419 -0.032261
v 0.044023 1.233279 0.060592
v 0.086354 1.209152 0.118856
v 0.125367 1.169973 0.172553
v 0.159562 1.117246 0.219618
v 0.187625 1.052998 0.258243
v 0.208478 0.979699 0.286945
v 0.221319 0.900164 0.304619
v 0.225655 0.817451 0.290552
v 0.221319 0.734737 0.284584
v 0.208478 0.655203 0.251492
v 0.187625 0.581903 0.258243
v 0.159562 0.517656 0.219618
v 0.125367 0.464929 0.172553
v 0.086354 0.425749 0.118856
v 0.023439 0.399419 0.032261
v 0.000000 1.233279 0.074896
v 0.000000 1.209152 0.146915
v 0.000000 1.169973 0.213287
v 0.000000 1.117246 0.271463
v 0.000000 1.052998 0.319206
v 0.000000 0.979699 0.347468
v 0.000000 0.900164 0.362555
v 0.000000 0.817451 0.338794
v 0.000000 0.734737 0.307526
v 0.000000 0.655203 0.267399
v 0.000000 0.599145 0.333767
v 0.000000 0.517656 0.310638
v 0.000000 0.464929 0.276946
v 0.000000 0.425749 0.146915
v 0.037926 0.399419 0.012323
v 0.000000 1.241425 -0.000000
v -0.044023 1.233279 0.060592
v -0.086354 1.209152 0.118856
v -0.125367 1.169973 0.172553
v -0.159562 1.117246 0.219618
v -0.187625 1.052998 0.258243
v -0.208478 0.979699 0.286945
v -0.221319 0.900164 0.304619
v -0.225654 0.817451 0.290552
v -0.221319 0.734737 0.284584
v -0.208478 0.655203 0.251492
v -0.187625 0.581903 0.258243
v -0.159562 0.517656 0.219618
v -0.125367 0.464929 0.172553
v -0.086354 0.425749 0.118856
v 0.037926 0.399419 -0.012323
v -0.037926 0.399419 -0.012323
v -0.071231 1.233279 0.023144
v -0.139724 1.209152 0.045399
v -0.202848 1.169973 0.065909
v -0.269335 1.129122 0.083887
v -0.314742 1.064874 0.098640
v -0.348482 0.991575 0.109603
v -0.369259 0.912040 0.116354
v -0.365117 0.817451 0.118634
v -0.358101 0.734525 0.045916
v -0.312503 0.655203 0.043252
v -0.285383 0.590890 0.038926
v -0.247863 0.503272 0.083887
v -0.226137 0.470566 0.065909
v -0.139724 0.425749 0.045399
v 0.023439 0.399419 -0.032261
v -0.071231 1.233279 -0.023144
v -0.139724 1.209152 -0.045399
v -0.202848 1.169973 -0.065909
v -0.269335 1.129122 -0.083887
v -0.314742 1.064874 -0.098640
v -0.348482 0.991575 -0.109603
v -0.369259 0.912040 -0.116354
v -0.365117 0.817451 -0.118634
v -0.358101 0.734525 -0.045916
v -0.312503 0.655203 -0.043252
v -0.285383 0.590890 -0.038926
v -0.247863 0.503272 -0.083887
v -0.226137 0.470566 -0.065909
v -0.139724 0.425749 -0.045399
v -0.037926 0.399419 0.012323
v -0.044023 1.233279 -0.060592
v -0.086354 1.209152 -0.118856
v -0.125367 1.169973 -0.172553
v -0.159562 1.117246 -0.219618
v -0.187625 1.052998 -0.258243
v -0.208478 0.979699 -0.286945
v -0.221319 0.900164 -0.304619
v -0.225655 0.817451 -0.310587
v -0.221319 0.734737 -0.304619
v -0.208478 0.655203 -0.286945
v -0.187625 0.580227 -0.258243
v -0.159562 0.517656 -0.219618
v -0.125367 0.464929 -0.172553
v -0.086354 0.425749 -0.118856
v -0.023439 0.399419 0.032261
v 0.000000 1.233279 -0.074896
v 0.000000 1.209152 -0.146915
v 0.000000 1.169973 -0.243443
v 0.000000 1.052998 -0.349362
v 0.000000 0.979699 -0.384839
v 0.000000 0.900164 -0.406685
v 0.000000 0.817451 -0.397801
v 0.000000 0.734737 -0.376530
v 0.000000 0.655203 -0.354683
v 0.000000 0.581903 -0.319206
v 0.000000 0.425749 -0.146915
v 0.000000 0.399419 0.039877
v 0.000000 0.354053 -0.039877
v -0.023439 0.354053 -0.032261
v 0.023439 0.354053 0.032261
v 0.037926 0.354053 0.012323
v 0.037926 0.354053 -0.012323
v -0.037926 0.354053 -0.012323
v 0.023439 0.354053 -0.032261
v -0.037926 0.354053 0.012323
v -0.023439 0.354053 0.032261
v 0.000000 0.354053 0.039877
v 0.374318 0.685477 -0.045916
v 0.360131 0.634005 -0.043252
v 0.315827 0.572159 -0.038926
v 0.374318 0.685477 0.045916
v 0.360131 0.634005 0.043252
v 0.315827 0.572159 0.038926
v -0.386678 0.678668 0.045916
v -0.372160 0.627420 0.043252
v -0.320271 0.584989 0.038926
v -0.386678 0.678668 -0.045916
v -0.372160 0.627420 -0.043252
v -0.320271 0.584989 -0.038926
v 0.225654 0.387060 -0.310587
v 0.365117 0.571971 -0.118634
v -0.365117 0.571971 -0.118634
v -0.225655 0.387060 -0.310587
v 0.000000 0.387060 -0.397801
vn -0.0000 -0.6636 -0.7481
vn 0.3463 -0.8001 -0.4898
vn -0.0000 -0.7948 -0.6068
vn -0.0000 0.5226 -0.8526
vn 0.5924 0.3268 -0.7364
vn -0.0000 0.3552 -0.9348
vn -0.0000 -0.9150 -0.4035
vn 0.2371 -0.9150 -0.3264
vn 0.6196 0.1380 -0.7727
vn -0.0000 0.1313 -0.9913
vn -0.0000 -0.1757 -0.9844
vn 0.6233 -0.2024 -0.7553
vn -0.0000 0.9721 -0.2344
vn -0.0000 1.0000 -0.0000
vn 0.1381 0.9720 -0.1900
vn -0.0000 -0.2163 -0.9763
vn 0.6088 -0.2859 -0.7400
vn 0.2629 0.9093 -0.3224
vn -0.0000 0.9249 -0.3801
vn -0.0000 -0.3430 -0.9393
vn 0.6110 -0.3864 -0.6909
vn 0.3702 0.8130 -0.4495
vn -0.0000 0.8202 -0.5721
vn -0.0000 -0.5089 -0.8608
vn 0.6011 -0.4645 -0.6503
vn 0.4681 0.6609 -0.5866
vn -0.0000 0.6758 -0.7371
vn 0.5148 -0.6030 -0.6094
vn 0.5387 0.4985 -0.6792
vn 0.5163 0.8355 -0.1879
vn 0.6703 0.7006 -0.2449
vn 0.7885 -0.5532 -0.2688
vn 0.8091 0.5129 -0.2868
vn 0.5566 -0.8105 -0.1821
vn 0.8998 0.3140 -0.3028
vn 0.3838 -0.9150 -0.1247
vn 0.9398 0.1434 -0.3103
vn 0.9641 -0.0996 -0.2463
vn 0.2234 0.9720 -0.0726
vn 0.9415 -0.0803 -0.3274
vn 0.4118 0.9014 -0.1338
vn 0.5028 -0.2626 -0.8236
vn 0.6811 -0.5852 -0.4400
vn 0.9267 -0.0976 0.3630
vn 0.2229 0.9721 0.0724
vn 0.9355 -0.0899 0.3416
vn 0.4118 0.9014 0.1338
vn 0.2437 -0.7525 0.6118
vn 0.6901 -0.5632 0.4545
vn 0.5163 0.8356 0.1878
vn 0.2437 -0.7525 -0.6118
vn 0.6703 0.7006 0.2449
vn 0.7891 -0.5520 0.2696
vn 0.8091 0.5130 0.2868
vn 0.5566 -0.8106 0.1821
vn 0.8998 0.3140 0.3028
vn 0.3838 -0.9150 0.1247
vn 0.9401 0.1240 0.3177
vn 0.6338 -0.1297 0.7626
vn 0.5930 -0.5277 0.6082
vn 0.4155 0.6681 0.6173
vn 0.4872 0.4955 0.7191
vn 0.4133 -0.7988 0.4372
vn 0.5342 0.3136 0.7851
vn 0.2514 -0.9276 0.2762
vn 0.5412 0.0524 0.8392
vn 0.5448 -0.1881 0.8172
vn 0.1381 0.9720 0.1901
vn 0.4925 -0.3651 0.7900
vn 0.2545 0.9014 0.3503
vn 0.6218 -0.2687 0.7357
vn 0.4905 -0.2509 0.8346
vn 0.3346 0.8059 0.4884
vn -0.0000 -0.3225 0.9466
vn -0.0000 0.9721 0.2344
vn -0.0000 0.9012 0.4333
vn -0.0000 0.0206 0.9998
vn -0.0000 0.7949 0.6067
vn -0.0000 0.0051 1.0000
vn -0.0000 0.6612 0.7502
vn -0.0000 -0.5641 0.8257
vn -0.0000 0.4889 0.8724
vn -0.0000 -0.7950 0.6067
vn -0.0000 0.3055 0.9522
vn -0.0000 -0.9519 0.3065
vn -0.0000 0.0035 1.0000
vn 0.7173 -0.6566 0.2331
vn -0.0000 -0.2202 0.9755
vn -0.5868 -0.5232 0.6180
vn -0.4109 -0.7932 0.4495
vn -0.4792 0.4943 0.7253
vn -0.5196 0.3232 0.7909
vn -0.2410 -0.9305 0.2759
vn -0.5301 0.0477 0.8466
vn -0.0000 -0.6566 -0.7542
vn -0.5387 -0.2036 0.8175
vn -0.1381 0.9720 0.1900
vn -0.4935 -0.3631 0.7903
vn -0.2545 0.9014 0.3503
vn -0.6222 -0.2531 0.7408
vn -0.3282 0.8090 0.4876
vn -0.6280 -0.1258 0.7679
vn -0.4064 0.6704 0.6208
vn -0.2229 0.9721 0.0724
vn -0.4118 0.9014 0.1338
vn -0.9289 -0.0573 0.3658
vn -0.4956 -0.2415 0.8343
vn -0.4975 0.8466 0.1890
vn -0.6994 -0.5672 0.4349
vn -0.6571 0.7113 0.2496
vn -0.8060 -0.5128 0.2955
vn -0.8050 0.5141 0.2960
vn -0.6284 -0.7556 0.1848
vn -0.8827 0.3485 0.3152
vn -0.3515 -0.9273 0.1284
vn -0.9394 0.1101 0.3248
vn 0.7173 -0.6566 -0.2331
vn -0.9178 -0.1462 0.3691
vn -0.7173 -0.6566 0.2331
vn -0.4433 -0.6566 0.6102
vn -0.8827 0.3485 -0.3152
vn -0.3515 -0.9273 -0.1284
vn -0.9393 0.1277 -0.3184
vn -0.0000 -0.6566 0.7542
vn 0.4433 -0.6566 0.6102
vn -0.9521 -0.1645 -0.2579
vn -0.2229 0.9721 -0.0724
vn -0.9351 -0.0477 -0.3512
vn -0.4118 0.9014 -0.1338
vn -0.1859 -0.7476 0.6376
vn -0.4975 0.8466 -0.1890
vn -0.1859 -0.7476 -0.6376
vn -0.6896 -0.5905 -0.4193
vn -0.6571 0.7113 -0.2496
vn -0.8056 -0.5140 -0.2947
vn -0.8050 0.5141 -0.2960
vn -0.6284 -0.7556 -0.1848
vn -0.5078 -0.2558 -0.8226
vn -0.6097 -0.2835 -0.7402
vn -0.6125 -0.3765 -0.6950
vn -0.3638 0.8162 -0.4488
vn -0.5970 -0.4596 -0.6575
vn -0.4593 0.6636 -0.5905
vn -0.5090 -0.5977 -0.6194
vn -0.5311 0.4973 -0.6860
vn -0.3436 -0.7938 -0.5018
vn -0.5785 0.3366 -0.7430
vn -0.2270 -0.9177 -0.3262
vn -0.6095 0.1308 -0.7819
vn -0.4433 -0.6566 -0.6102
vn -0.6119 -0.2315 -0.7563
vn -0.1381 0.9720 -0.1901
vn -0.7173 -0.6566 -0.2331
vn -0.2629 0.9094 -0.3224
vn 0.4433 -0.6566 -0.6102
vn -0.6119 -0.2317 -0.7563
vn 0.5878 -0.0000 -0.8090
vn -0.5878 -0.0000 -0.8090
vn -0.9510 -0.0000 0.3090
vn 0.5878 -0.0000 0.8090
vn 0.9511 -0.0000 0.3090
vn -0.0000 -0.0000 -1.0000
vn -0.5878 -0.0000 0.8090
vn -0.9511 -0.0000 -0.3090
vn -0.0000 -0.0000 1.0000
vn 0.9510 -0.0000 -0.3090
vn 0.7542 0.0097 -0.6566
vn 0.6534 -0.3393 0.6767
vn 0.6534 -0.3393 -0.6767
vn 0.7542 0.0097 0.6566
vn -0.7630 0.0621 0.6434
vn -0.6222 -0.4288 -0.6550
vn -0.6222 -0.4288 0.6550
vn -0.7630 0.0621 -0.6434
vn -0.0000 -0.1755 -0.9845
vn -0.5514 -0.0000 0.8342
vn -0.8090 -0.0000 0.5878
vn -0.6119 -0.2316 -0.7563
vn 0.8090 -0.0000 0.5878
vn 0.5514 -0.0000 0.8342
vn -0.9520 -0.1645 -0.2581
vt 0.314679 0.297889
vt 0.359347 0.357200
vt 0.312138 0.334585
vt 0.307282 0.786478
vt 0.444590 0.760342
vt 0.307092 0.836451
vt 0.310722 0.363685
vt 0.338827 0.375315
vt 0.499484 0.800509
vt 0.306860 0.899918
vt 0.306400 0.999872
vt 0.580212 0.849435
vt 0.307718 0.654497
vt 0.307728 0.634644
vt 0.319781 0.649802
vt 0.326499 0.109977
vt 0.631884 0.200275
vt 0.536499 0.249871
vt 0.333837 0.665988
vt 0.307671 0.677239
vt 0.319099 0.193280
vt 0.467546 0.281661
vt 0.351648 0.684044
vt 0.307549 0.713556
vt 0.316550 0.252176
vt 0.420378 0.313148
vt 0.375324 0.704859
vt 0.307429 0.746358
vt 0.384912 0.337376
vt 0.404956 0.729624
vt 0.367526 0.643366
vt 0.390876 0.640870
vt 0.392534 0.400344
vt 0.420233 0.636349
vt 0.373476 0.400940
vt 0.457814 0.625853
vt 0.350511 0.401017
vt 0.520988 0.598132
vt 0.595185 0.539905
vt 0.325851 0.639190
vt 0.480257 0.482750
vt 0.345662 0.642555
vt 0.452251 0.437470
vt 0.419274 0.427855
vt 0.404325 0.526019
vt 0.324384 0.627990
vt 0.427115 0.497856
vt 0.340034 0.620035
vt 0.412404 0.455986
vt 0.400657 0.452612
vt 0.354985 0.610313
vt 0.425483 0.443664
vt 0.368822 0.599363
vt 0.370269 0.447013
vt 0.381325 0.585396
vt 0.359507 0.436496
vt 0.392142 0.568863
vt 0.344319 0.425018
vt 0.400173 0.547220
vt 0.343186 0.482398
vt 0.339490 0.467821
vt 0.337879 0.579555
vt 0.342271 0.565914
vt 0.334778 0.453186
vt 0.345475 0.552172
vt 0.328317 0.438835
vt 0.347318 0.538366
vt 0.348364 0.524453
vt 0.317409 0.620251
vt 0.348191 0.510317
vt 0.325477 0.606447
vt 0.347692 0.494847
vt 0.406980 0.474896
vt 0.332183 0.592889
vt 0.308572 0.510794
vt 0.307826 0.617409
vt 0.307815 0.601948
vt 0.308823 0.496985
vt 0.307824 0.587725
vt 0.309087 0.483515
vt 0.307888 0.574385
vt 0.309257 0.473709
vt 0.308039 0.561594
vt 0.309435 0.464871
vt 0.308104 0.549548
vt 0.309889 0.442614
vt 0.308208 0.537299
vt 0.320005 0.411789
vt 0.308363 0.524714
vt 0.279126 0.466745
vt 0.284396 0.452285
vt 0.273426 0.565460
vt 0.270347 0.551565
vt 0.291638 0.438228
vt 0.268539 0.537442
vt 0.310321 0.397020
vt 0.268257 0.523309
vt 0.298109 0.619979
vt 0.268761 0.509268
vt 0.290060 0.606085
vt 0.269819 0.493811
vt 0.283420 0.592529
vt 0.274851 0.481222
vt 0.277774 0.579147
vt 0.290962 0.627787
vt 0.275322 0.619619
vt 0.188292 0.491663
vt 0.209510 0.470774
vt 0.260592 0.609663
vt 0.216640 0.451721
vt 0.245653 0.598379
vt 0.247974 0.444642
vt 0.233160 0.584304
vt 0.254936 0.435939
vt 0.222202 0.567623
vt 0.276263 0.423746
vt 0.213952 0.548123
vt 0.320695 0.405359
vt 0.211295 0.522994
vt 0.300729 0.412121
vt 0.304913 0.416613
vt 0.157841 0.623796
vt 0.270447 0.399743
vt 0.106885 0.600882
vt 0.310488 0.418394
vt 0.316135 0.416525
vt 0.000128 0.528948
vt 0.289629 0.639080
vt 0.131655 0.476415
vt 0.269983 0.642273
vt 0.205981 0.454509
vt 0.248045 0.642956
vt 0.194497 0.437945
vt 0.201040 0.426453
vt 0.223621 0.639434
vt 0.227037 0.397576
vt 0.194682 0.634585
vt 0.240977 0.400936
vt 0.171074 0.428832
vt 0.094293 0.223008
vt 0.164496 0.270153
vt 0.263598 0.683689
vt 0.208305 0.305743
vt 0.239697 0.704377
vt 0.240987 0.332801
vt 0.209890 0.728936
vt 0.264343 0.355628
vt 0.170137 0.759297
vt 0.283072 0.375197
vt 0.114582 0.799010
vt 0.303506 0.399499
vt 0.037769 0.848200
vt 0.295655 0.649733
vt 0.299931 0.405547
vt 0.281579 0.665778
vt 0.317078 0.399488
vt 0.000128 0.158607
vt 0.312430 0.405750
vt 0.308592 0.405568
vt 0.307426 0.409273
vt 0.312124 0.411124
vt 0.313275 0.409586
vt 0.310564 0.404983
vt 0.308624 0.410918
vt 0.307388 0.407242
vt 0.310376 0.411604
vt 0.313353 0.407495
vt 0.452673 0.468184
vt 0.420810 0.469181
vt 0.439856 0.456537
vt 0.426084 0.480388
vt 0.189462 0.471735
vt 0.182054 0.450037
vt 0.195609 0.462535
vt 0.171498 0.457721
vt 0.632140 0.248207
vt 0.833898 0.373451
vt 0.632140 0.373451
vt 0.747216 0.496285
vt 0.632140 0.496285
vt 0.632140 0.122963
vt 0.833898 0.248207
vt 0.747216 0.000128
vt 0.833898 0.122963
vt 0.334011 0.000128
vt 0.632140 0.000128
s 1
usemtl マテリアル.017
f 2/1/1 16/2/2 3/3/3
f 143/4/4 9/5/5 144/6/6
f 150/7/7 16/2/2 17/8/8
f 144/6/6 10/9/9 145/10/10
f 146/11/11 10/9/9 11/12/12
f 140/13/13 78/14/14 4/15/15
f 147/16/16 11/17/12 12/18/17
f 140/13/13 5/19/18 141/20/19
f 148/21/20 12/18/17 13/22/21
f 141/20/19 6/23/22 142/24/23
f 149/25/24 13/22/21 14/26/25
f 142/24/23 7/27/26 1/28/27
f 2/1/1 14/26/25 15/29/28
f 1/28/27 8/30/29 143/4/4
f 7/27/26 20/31/30 21/32/31
f 14/26/25 29/33/32 15/29/28
f 7/27/26 22/34/33 8/30/29
f 16/2/2 29/33/32 30/35/34
f 8/30/29 23/36/35 9/5/5
f 16/2/2 31/37/36 17/8/8
f 9/5/5 24/38/37 10/9/9
f 10/9/9 25/39/38 11/12/12
f 4/15/15 78/14/14 18/40/39
f 12/18/17 25/39/38 26/41/40
f 5/19/18 18/40/39 19/42/41
f 12/18/17 27/43/42 13/22/21
f 6/23/22 19/42/41 20/31/30
f 14/26/25 27/43/42 28/44/43
f 24/38/37 40/45/44 25/39/38
f 18/40/39 78/14/14 33/46/45
f 25/39/38 41/47/46 26/41/40
f 18/40/39 34/48/47 19/42/41
f 28/44/43 167/49/48 43/50/49
f 19/42/41 35/51/50 20/31/30
f 27/43/42 164/52/51 28/44/43
f 20/31/30 36/53/52 21/32/31
f 28/44/43 44/54/53 29/33/32
f 21/32/31 37/55/54 22/34/33
f 30/35/34 44/54/53 45/56/55
f 22/34/33 38/57/56 23/36/35
f 30/35/34 46/58/57 31/37/36
f 23/36/35 39/59/58 24/38/37
f 44/54/53 58/60/59 59/61/60
f 37/55/54 51/62/61 52/63/62
f 44/54/53 60/64/63 45/56/55
f 38/57/56 52/63/62 53/65/64
f 46/58/57 60/64/63 61/66/65
f 39/59/58 53/65/64 54/67/66
f 39/59/58 55/68/67 40/45/44
f 33/46/45 78/14/14 48/69/68
f 40/45/44 56/70/69 41/47/46
f 33/46/45 49/71/70 34/48/47
f 41/47/46 57/72/71 42/73/72
f 34/48/47 50/74/73 35/51/50
f 43/50/49 57/72/71 58/60/59
f 35/51/50 51/62/61 36/53/52
f 55/68/67 71/75/74 56/70/69
f 49/71/70 63/76/75 64/77/76
f 57/72/71 71/75/74 72/78/77
f 50/74/73 64/77/76 65/79/78
f 58/60/59 72/78/77 73/80/79
f 50/74/73 66/81/80 51/62/61
f 58/60/59 74/82/81 59/61/60
f 51/62/61 67/83/82 52/63/62
f 59/61/60 75/84/83 60/64/63
f 52/63/62 68/85/84 53/65/64
f 60/64/63 76/86/85 61/66/65
f 53/65/64 69/87/86 54/67/66
f 61/66/65 77/88/87 46/58/57
f 54/67/66 70/89/88 55/68/67
f 48/69/68 78/14/14 63/76/75
f 75/84/83 90/90/89 91/91/90
f 68/85/84 83/92/91 84/93/92
f 76/86/85 91/91/90 92/94/93
f 69/87/86 84/93/92 85/95/94
f 17/8/8 32/96/95 150/7/7
f 70/89/88 85/95/94 86/97/96
f 63/76/75 78/14/14 79/98/97
f 71/75/74 86/97/96 87/99/98
f 63/76/75 80/100/99 64/77/76
f 71/75/74 88/101/100 72/78/77
f 64/77/76 81/102/101 65/79/78
f 72/78/77 89/103/102 73/80/79
f 66/81/80 81/102/101 82/104/103
f 74/82/81 89/103/102 90/90/89
f 67/83/82 82/104/103 83/92/91
f 80/100/99 95/105/104 96/106/105
f 88/101/100 103/107/106 104/108/107
f 81/102/101 96/106/105 97/109/108
f 88/101/100 105/110/109 89/103/102
f 82/104/103 97/109/108 98/111/110
f 89/103/102 106/112/111 90/90/89
f 82/104/103 99/113/112 83/92/91
f 91/91/90 106/112/111 107/114/113
f 83/92/91 100/115/114 84/93/92
f 91/91/90 108/116/115 92/94/93
f 84/93/92 101/117/116 85/95/94
f 46/58/57 93/118/117 31/37/36
f 86/97/96 101/117/116 102/119/118
f 79/98/97 78/14/14 95/105/104
f 92/94/93 124/120/119 139/121/120
f 87/99/98 102/119/118 103/107/106
f 99/113/112 115/122/121 100/115/114
f 107/114/113 123/123/122 108/116/115
f 101/117/116 115/122/121 116/124/123
f 61/66/65 151/125/124 62/126/125
f 101/117/116 117/127/126 102/119/118
f 95/105/104 78/14/14 110/128/127
f 123/123/122 124/120/119 108/116/115
f 102/119/118 118/129/128 103/107/106
f 95/105/104 111/130/129 96/106/105
f 104/108/107 170/131/130 105/110/109
f 96/106/105 112/132/131 97/109/108
f 105/110/109 173/133/132 120/134/133
f 97/109/108 113/135/134 98/111/110
f 105/110/109 121/136/135 106/112/111
f 98/111/110 114/137/136 99/113/112
f 106/112/111 122/138/137 107/114/113
f 119/139/138 133/140/139 134/141/140
f 111/130/129 127/142/141 112/132/131
f 119/139/138 135/143/142 120/134/133
f 112/132/131 128/144/143 113/135/134
f 121/136/135 135/143/142 136/145/144
f 114/137/136 128/144/143 129/146/145
f 121/136/135 137/147/146 122/138/137
f 115/122/121 129/146/145 130/148/147
f 123/123/122 137/147/146 138/149/148
f 116/124/123 130/148/147 131/150/149
f 138/149/148 32/96/95 47/151/150
f 117/127/126 131/150/149 132/152/151
f 110/128/127 78/14/14 125/153/152
f 138/149/148 94/154/153 123/123/122
f 117/127/126 133/140/139 118/129/128
f 110/128/127 126/155/154 111/130/129
f 137/147/146 150/7/7 138/149/148
f 131/150/149 144/6/6 145/10/10
f 17/8/8 93/118/117 109/156/155
f 131/150/149 146/11/11 132/152/151
f 125/153/152 78/14/14 140/13/13
f 92/94/93 151/125/124 76/86/85
f 132/157/156 147/16/16 133/140/139
f 126/155/154 140/13/13 141/20/19
f 133/140/139 148/21/20 134/141/140
f 127/142/141 141/20/19 142/24/23
f 134/141/140 149/25/24 135/143/142
f 128/144/143 142/24/23 1/28/27
f 135/143/142 2/1/1 136/145/144
f 129/146/145 1/28/27 143/4/4
f 137/147/146 2/1/1 3/3/3
f 130/148/147 143/4/4 144/6/6
f 93/118/117 158/158/157 109/156/155
f 32/96/95 153/159/158 47/151/150
f 94/154/153 159/160/159 124/120/119
f 151/125/124 154/161/160 62/126/125
f 62/126/125 155/162/161 77/88/87
f 109/156/155 152/163/162 32/96/95
f 124/120/119 160/164/163 139/121/120
f 47/151/150 157/165/164 94/154/153
f 139/121/120 161/166/165 151/125/124
f 77/88/87 156/167/166 93/118/117
f 162/168/167 166/169/168 163/170/169
f 163/170/169 167/49/48 164/52/51
f 42/73/72 167/49/48 166/169/168
f 41/47/46 162/168/167 26/41/40
f 27/43/42 162/168/167 163/170/169
f 42/73/72 165/171/170 41/47/46
f 168/172/171 172/173/172 169/174/173
f 169/174/173 173/133/132 170/131/130
f 118/129/128 168/172/171 103/107/106
f 119/139/138 173/133/132 172/173/172
f 104/108/107 168/172/171 169/174/173
f 119/139/138 171/175/174 118/129/128
f 146/176/175 174/177/176 11/178/12
f 11/178/12 175/179/177 25/180/38
f 132/181/178 178/182/165 146/176/175
f 132/181/178 176/183/179 177/184/180
f 2/1/1 15/29/28 16/2/2
f 143/4/4 8/30/29 9/5/5
f 150/7/7 3/3/3 16/2/2
f 144/6/6 9/5/5 10/9/9
f 146/11/11 145/10/10 10/9/9
f 147/16/16 146/185/11 11/17/12
f 140/13/13 4/15/15 5/19/18
f 148/21/20 147/16/16 12/18/17
f 141/20/19 5/19/18 6/23/22
f 149/25/24 148/21/20 13/22/21
f 142/24/23 6/23/22 7/27/26
f 2/1/1 149/25/24 14/26/25
f 1/28/27 7/27/26 8/30/29
f 7/27/26 6/23/22 20/31/30
f 14/26/25 28/44/43 29/33/32
f 7/27/26 21/32/31 22/34/33
f 16/2/2 15/29/28 29/33/32
f 8/30/29 22/34/33 23/36/35
f 16/2/2 30/35/34 31/37/36
f 9/5/5 23/36/35 24/38/37
f 10/9/9 24/38/37 25/39/38
f 12/18/17 11/17/12 25/39/38
f 5/19/18 4/15/15 18/40/39
f 12/18/17 26/41/40 27/43/42
f 6/23/22 5/19/18 19/42/41
f 14/26/25 13/22/21 27/43/42
f 24/38/37 39/59/58 40/45/44
f 25/39/38 40/45/44 41/47/46
f 18/40/39 33/46/45 34/48/47
f 28/44/43 164/52/51 167/49/48
f 19/42/41 34/48/47 35/51/50
f 27/43/42 163/170/169 164/52/51
f 20/31/30 35/51/50 36/53/52
f 28/44/43 43/50/49 44/54/53
f 21/32/31 36/53/52 37/55/54
f 30/35/34 29/33/32 44/54/53
f 22/34/33 37/55/54 38/57/56
f 30/35/34 45/56/55 46/58/57
f 23/36/35 38/57/56 39/59/58
f 44/54/53 43/50/49 58/60/59
f 37/55/54 36/53/52 51/62/61
f 44/54/53 59/61/60 60/64/63
f 38/57/56 37/55/54 52/63/62
f 46/58/57 45/56/55 60/64/63
f 39/59/58 38/57/56 53/65/64
f 39/59/58 54/67/66 55/68/67
f 40/45/44 55/68/67 56/70/69
f 33/46/45 48/69/68 49/71/70
f 41/47/46 56/70/69 57/72/71
f 34/48/47 49/71/70 50/74/73
f 43/50/49 42/73/72 57/72/71
f 35/51/50 50/74/73 51/62/61
f 55/68/67 70/89/88 71/75/74
f 49/71/70 48/69/68 63/76/75
f 57/72/71 56/70/69 71/75/74
f 50/74/73 49/71/70 64/77/76
f 58/60/59 57/72/71 72/78/77
f 50/74/73 65/79/78 66/81/80
f 58/60/59 73/80/79 74/82/81
f 51/62/61 66/81/80 67/83/82
f 59/61/60 74/82/81 75/84/83
f 52/63/62 67/83/82 68/85/84
f 60/64/63 75/84/83 76/86/85
f 53/65/64 68/85/84 69/87/86
f 61/66/65 62/126/125 77/88/87
f 54/67/66 69/87/86 70/89/88
f 75/84/83 74/82/81 90/90/89
f 68/85/84 67/83/82 83/92/91
f 76/86/85 75/84/83 91/91/90
f 69/87/86 68/85/84 84/93/92
f 17/8/8 109/156/155 32/96/95
f 70/89/88 69/87/86 85/95/94
f 71/75/74 70/89/88 86/97/96
f 63/76/75 79/98/97 80/100/99
f 71/75/74 87/99/98 88/101/100
f 64/77/76 80/100/99 81/102/101
f 72/78/77 88/101/100 89/103/102
f 66/81/80 65/79/78 81/102/101
f 74/82/81 73/80/79 89/103/102
f 67/83/82 66/81/80 82/104/103
f 80/100/99 79/98/97 95/105/104
f 88/101/100 87/99/98 103/107/106
f 81/102/101 80/100/99 96/106/105
f 88/101/100 104/108/107 105/110/109
f 82/104/103 81/102/101 97/109/108
f 89/103/102 105/110/109 106/112/111
f 82/104/103 98/111/110 99/113/112
f 91/91/90 90/90/89 106/112/111
f 83/92/91 99/113/112 100/115/114
f 91/91/90 107/114/113 108/116/115
f 84/93/92 100/115/114 101/117/116
f 46/58/57 77/88/87 93/118/117
f 86/97/96 85/95/94 101/117/116
f 92/94/93 108/116/115 124/120/119
f 87/99/98 86/97/96 102/119/118
f 99/113/112 114/137/136 115/122/121
f 107/114/113 122/138/137 123/123/122
f 101/117/116 100/115/114 115/122/121
f 61/66/65 76/86/85 151/125/124
f 101/117/116 116/124/123 117/127/126
f 123/123/122 94/154/153 124/120/119
f 102/119/118 117/127/126 118/129/128
f 95/105/104 110/128/127 111/130/129
f 104/108/107 169/174/173 170/131/130
f 96/106/105 111/130/129 112/132/131
f 105/110/109 170/131/130 173/133/132
f 97/109/108 112/132/131 113/135/134
f 105/110/109 120/134/133 121/136/135
f 98/111/110 113/135/134 114/137/136
f 106/112/111 121/136/135 122/138/137
f 119/139/138 118/129/128 133/140/139
f 111/130/129 126/155/154 127/142/141
f 119/139/138 134/141/140 135/143/142
f 112/132/131 127/142/141 128/144/143
f 121/136/135 120/134/133 135/143/142
f 114/137/136 113/135/134 128/144/143
f 121/136/135 136/145/144 137/147/146
f 115/122/121 114/137/136 129/146/145
f 123/123/122 122/138/137 137/147/146
f 116/124/123 115/122/121 130/148/147
f 138/149/148 150/7/7 32/96/95
f 117/127/126 116/124/123 131/150/149
f 138/149/148 47/151/150 94/154/153
f 117/127/126 132/157/156 133/140/139
f 110/128/127 125/153/152 126/155/154
f 137/147/146 3/3/3 150/7/7
f 131/150/149 130/148/147 144/6/6
f 17/8/8 31/37/36 93/118/117
f 131/150/149 145/10/10 146/11/11
f 92/94/93 139/121/120 151/125/124
f 132/157/156 146/185/11 147/16/16
f 126/155/154 125/153/152 140/13/13
f 133/140/139 147/16/16 148/21/20
f 127/142/141 126/155/154 141/20/19
f 134/141/140 148/21/20 149/25/24
f 128/144/143 127/142/141 142/24/23
f 135/143/142 149/25/24 2/1/1
f 129/146/145 128/144/143 1/28/27
f 137/147/146 136/145/144 2/1/1
f 130/148/147 129/146/145 143/4/4
f 93/118/117 156/167/166 158/158/157
f 32/96/95 152/163/162 153/159/158
f 94/154/153 157/165/164 159/160/159
f 151/125/124 161/166/165 154/161/160
f 62/126/125 154/161/160 155/162/161
f 109/156/155 158/158/157 152/163/162
f 124/120/119 159/160/159 160/164/163
f 47/151/150 153/159/158 157/165/164
f 139/121/120 160/164/163 161/166/165
f 77/88/87 155/162/161 156/167/166
f 162/168/167 165/171/170 166/169/168
f 163/170/169 166/169/168 167/49/48
f 42/73/72 43/50/49 167/49/48
f 41/47/46 165/171/170 162/168/167
f 27/43/42 26/41/40 162/168/167
f 42/73/72 166/169/168 165/171/170
f 168/172/171 171/175/174 172/173/172
f 169/174/173 172/173/172 173/133/132
f 118/129/128 171/175/174 168/172/171
f 119/139/138 120/134/133 173/133/132
f 104/108/107 103/107/106 168/172/171
f 119/139/138 172/173/172 171/175/174
f 146/176/175 178/182/165 174/177/176
f 11/178/12 174/177/176 175/179/177
f 132/181/178 177/184/180 178/182/165
f 132/181/178 117/186/181 176/183/179
o 帽子.001
v 0.006418 1.070915 -0.333412
v -0.238437 1.070915 -0.231990
v -0.339860 1.070915 0.012865
v -0.238437 1.070915 0.257720
v 0.006418 1.070915 0.359143
v 0.251273 1.070915 0.257720
v 0.352695 1.070915 0.012865
v 0.251273 1.070915 -0.231990
v -0.133988 2.054473 -0.153974
v -0.133988 2.054473 -0.153974
v -0.133988 2.054473 -0.153974
v -0.133988 2.054473 -0.153974
v -0.133988 2.054473 -0.153974
v -0.133988 2.054473 -0.153974
v -0.133988 2.054473 -0.153974
v -0.133988 2.054473 -0.153974
v -0.133988 2.054473 -0.153974
v -0.192944 1.515820 -0.021104
v -0.142233 1.515820 0.101324
v -0.019805 1.515820 -0.194242
v -0.142233 1.515820 -0.143531
v 0.102623 1.515820 -0.143531
v 0.102623 1.515820 0.101324
v 0.153334 1.515820 -0.021104
v -0.019805 1.515820 0.152035
v -0.169594 1.249666 0.183024
v -0.169594 1.249666 -0.184259
v 0.273755 1.249666 -0.000617
v 0.014047 1.249666 0.259091
v -0.245661 1.249666 -0.000617
v 0.014047 1.249666 -0.260325
v 0.197688 1.249666 -0.184259
v 0.197688 1.249666 0.183024
v -0.151397 1.776730 -0.068568
v -0.064827 1.776730 -0.155138
v -0.003614 1.776730 -0.129782
v -0.003614 1.776730 -0.007354
v -0.126041 1.776730 -0.007354
v -0.126041 1.776730 -0.129782
v 0.021742 1.776730 -0.068568
v -0.064827 1.776730 0.018001
v 0.004548 0.981211 -0.563759
v -0.406270 0.981211 -0.393593
v -0.576436 0.981211 0.017225
v -0.406270 0.981211 0.428042
v 0.004548 0.981211 0.598208
v 0.415365 0.981211 0.428042
v 0.585532 0.981211 0.017225
v 0.415365 0.981211 -0.393593
v 0.007228 0.878682 -0.769361
v -0.577212 0.878682 -0.527278
v -0.819295 0.878682 0.057162
v -0.577212 0.878682 0.641602
v 0.007228 0.878682 0.883685
v 0.591668 0.878682 0.641602
v 0.833751 0.878682 0.057162
v 0.591668 0.878682 -0.527278
v -0.243958 1.074468 -0.237336
v 0.006351 1.074121 -0.341248
v -0.347346 1.074868 0.012969
v -0.243622 1.075096 0.262948
v 0.006361 1.075052 0.366530
v 0.256525 1.074754 0.263139
v 0.360436 1.074342 0.012979
v 0.256856 1.074065 -0.237521
v -0.174832 1.253846 0.188199
v -0.174916 1.253199 -0.189816
v 0.281503 1.253076 -0.000769
v 0.014128 1.253798 0.266480
v -0.253155 1.253604 -0.000763
v 0.014134 1.252867 -0.268163
v 0.203212 1.252815 -0.189849
v 0.203146 1.253486 0.188250
vn -0.8840 -0.0253 -0.4667
vn -0.0000 -0.0000 1.0000
vn 0.9703 0.0278 0.2404
vn -0.9958 -0.0285 -0.0867
vn 0.9986 0.0286 0.0434
vn -0.9703 -0.2417 0.0041
vn -0.0000 -0.0000 -1.0000
vn 0.9704 0.2416 -0.0020
vn -0.8424 -0.4724 -0.2591
vn 0.8648 0.4849 0.1307
vn -0.8318 -0.2072 -0.5150
vn 0.9351 0.2328 0.2672
vn -0.9541 0.0598 -0.2934
vn 0.9870 -0.0619 0.1484
vn -0.9024 -0.4237 -0.0786
vn 0.9045 0.4246 0.0393
vn -0.8167 -0.3834 -0.4312
vn 0.8828 0.4144 0.2211
vn -0.3528 -0.3875 -0.8517
vn -0.8612 -0.3622 0.3567
vn 0.9132 -0.1518 0.3783
vn 0.3642 -0.3073 -0.8792
vn -0.8433 -0.4084 -0.3493
vn -0.3687 -0.2679 0.8901
vn 0.3766 -0.1778 0.9092
vn 0.9037 -0.2078 -0.3743
vn -0.3844 0.9094 0.1586
vn -0.4223 0.8892 -0.1759
vn -0.1907 0.8661 -0.4621
vn 0.1991 0.8542 -0.4804
vn -0.3366 -0.4756 -0.8127
vn -0.8589 -0.3685 0.3558
vn 0.9211 -0.0773 0.3815
vn 0.3543 -0.3782 -0.8552
vn -0.8144 -0.4721 -0.3373
vn -0.3749 -0.2004 0.9051
vn 0.3817 -0.0722 0.9215
vn 0.9029 -0.2118 -0.3740
vn -0.1491 -0.9210 0.3599
vn -0.3533 -0.9240 -0.1463
vn 0.1436 -0.9269 -0.3467
vn 0.3531 -0.9241 0.1463
vn -0.3579 -0.9219 0.1483
vn -0.1444 -0.9261 -0.3486
vn 0.3485 -0.9261 -0.1444
vn 0.1482 -0.9219 0.3578
vn -0.3991 -0.9019 0.1653
vn -0.1382 -0.9325 -0.3336
vn 0.3634 -0.9194 -0.1505
vn 0.1825 -0.8789 0.4407
vn -0.1810 -0.8811 0.4370
vn -0.3571 -0.9223 -0.1479
vn 0.1391 -0.9316 -0.3359
vn 0.4068 -0.8979 0.1685
vn -0.4348 -0.8826 -0.1791
vn -0.1999 -0.8529 0.4823
vn 0.4202 -0.8904 0.1751
vn 0.1529 -0.9166 -0.3695
vn 0.8211 -0.4583 -0.3403
vn 0.3561 -0.3664 0.8596
vn -0.3599 -0.3396 0.8690
vn -0.8466 -0.4002 -0.3507
vn 0.3375 -0.4709 -0.8151
vn 0.8400 -0.4164 0.3480
vn -0.8638 -0.3545 0.3579
vn -0.3425 -0.4483 -0.8257
vn 0.3819 -0.9107 -0.1575
vn -0.1539 0.9155 0.3718
vn 0.1907 -0.8660 0.4622
vn 0.1641 0.9043 0.3941
vn -0.4711 -0.8601 0.1958
vn 0.4363 0.8816 0.1798
vn -0.1630 -0.9056 -0.3916
vn 0.4703 0.8606 -0.1953
vn 0.9100 -0.1729 -0.3769
vn 0.3811 0.0910 0.9200
vn -0.3808 -0.0987 0.9194
vn -0.7797 -0.5365 -0.3230
vn 0.3454 -0.4304 -0.8340
vn 0.9222 0.0597 0.3820
vn -0.8577 -0.3717 0.3553
vn -0.3183 -0.5551 -0.7685
vn 0.1991 0.8541 -0.4805
vn 0.3542 -0.3782 -0.8553
vn -0.3580 -0.9219 0.1483
vn -0.4348 -0.8825 -0.1791
vn -0.1999 -0.8529 0.4822
vn 0.1529 -0.9165 -0.3695
vn 0.8210 -0.4588 -0.3397
vn 0.3560 -0.3665 0.8596
vn -0.3600 -0.3398 0.8689
vn -0.8466 -0.4004 -0.3505
vn 0.3376 -0.4708 -0.8151
vn 0.8400 -0.4163 0.3479
vn -0.8641 -0.3541 0.3577
vn -0.3420 -0.4476 -0.8262
vn 0.1906 -0.8660 0.4622
vn 0.4363 0.8817 0.1798
vn 0.4702 0.8606 -0.1954
vt 0.719823 0.577326
vt 0.720017 0.577155
vt 0.720019 0.577145
vt 0.719943 0.577027
vt 0.719983 0.577141
vt 0.720000 0.577160
vt 0.720107 0.577085
vt 0.719970 0.577119
vt 0.720271 0.577355
vt 0.719980 0.577105
vt 0.719974 0.577107
vt 0.719928 0.577475
vt 0.720000 0.577125
vt 0.719855 0.577170
vt 0.720237 0.577186
vt 0.720123 0.577453
vt 0.719992 0.577133
vt 0.714108 0.592817
vt 0.721556 0.581317
vt 0.726401 0.593189
vt 0.735661 0.572678
vt 0.723828 0.579376
vt 0.723809 0.576363
vt 0.715040 0.563513
vt 0.716754 0.576182
vt 0.706263 0.571817
vt 0.705889 0.583839
vt 0.718591 0.581236
vt 0.735431 0.584892
vt 0.727122 0.563988
vt 0.721686 0.574278
vt 0.718760 0.574091
vt 0.716651 0.579028
vt 0.753026 0.593451
vt 0.752153 0.566715
vt 0.753401 0.566275
vt 0.733056 0.611793
vt 0.751537 0.592755
vt 0.705871 0.610757
vt 0.732465 0.610514
vt 0.687223 0.590947
vt 0.706370 0.609617
vt 0.734620 0.546952
vt 0.778591 0.556492
vt 0.778470 0.605044
vt 0.742499 0.637933
vt 0.694344 0.635996
vt 0.661236 0.601063
vt 0.687645 0.564001
vt 0.698108 0.520521
vt 0.707688 0.545851
vt 0.661943 0.552541
vt 0.745384 0.522621
vt 0.804664 0.549273
vt 0.805537 0.621783
vt 0.751046 0.669964
vt 0.680779 0.666630
vt 0.632140 0.543630
vt 0.755857 0.499889
vt 0.632140 0.616030
vt 0.686731 0.496542
vt 0.704954 0.571217
vt 0.714567 0.562347
vt 0.704685 0.584218
vt 0.726958 0.594402
vt 0.727617 0.562863
vt 0.736947 0.572236
vt 0.689102 0.564637
vt 0.688613 0.590532
vt 0.734063 0.548138
vt 0.708220 0.547124
vt 0.736614 0.585449
vt 0.713606 0.593974
s 0
usemtl マテリアル.018
f 216/187/182 189/188/183 190/189/184
f 217/190/185 187/191/183 188/192/186
f 213/193/187 194/194/188 187/191/189
f 218/195/190 192/196/183 193/197/191
f 219/198/192 190/189/183 191/199/193
f 212/200/194 188/192/183 189/188/195
f 214/201/196 193/197/183 194/194/197
f 215/202/198 191/199/183 192/196/199
f 194/194/183 195/203/183 187/191/183
f 193/197/183 191/199/183 195/203/183
f 187/191/183 189/188/183 188/192/183
f 195/203/183 190/189/183 189/188/183
f 207/204/200 201/205/200 211/206/200
f 210/207/201 202/208/201 200/209/201
f 205/210/202 196/211/202 208/212/202
f 204/213/203 203/214/203 207/204/203
f 206/215/204 201/205/204 202/208/204
f 209/216/205 200/209/205 198/217/205
f 205/210/206 198/217/206 199/218/206
f 208/212/207 197/219/207 204/213/207
f 185/220/208 243/221/208 186/222/208
f 184/223/209 242/224/209 185/220/209
f 183/225/210 241/226/210 184/223/210
f 182/227/211 240/228/211 183/225/211
f 203/214/212 215/202/212 201/205/212
f 200/209/213 218/195/213 214/201/213
f 199/218/214 212/200/214 196/211/214
f 197/219/215 219/198/215 203/214/215
f 202/208/216 215/202/216 218/195/216
f 198/217/217 214/201/217 213/193/217
f 199/218/218 213/193/218 217/190/218
f 196/211/219 216/187/219 197/219/219
f 179/229/220 227/230/220 186/222/220
f 184/223/221 226/231/221 225/232/221
f 182/227/222 224/233/222 223/234/222
f 181/235/223 221/236/223 180/237/223
f 185/220/224 227/230/224 226/231/224
f 183/225/225 225/232/225 224/233/225
f 182/227/226 222/238/226 181/235/226
f 180/237/227 220/239/227 179/229/227
f 226/231/228 235/240/228 234/241/228
f 224/233/229 233/242/229 232/243/229
f 223/234/230 230/244/230 222/238/230
f 221/236/231 228/245/231 220/239/231
f 227/230/232 228/245/232 235/240/232
f 225/232/233 234/241/233 233/242/233
f 224/233/234 231/246/234 223/234/234
f 222/238/235 229/247/235 221/236/235
f 216/187/256 212/200/256 189/188/256
f 217/190/257 213/193/257 187/191/257
f 213/193/258 214/201/258 194/194/258
f 218/195/259 215/202/259 192/196/259
f 219/198/260 216/187/260 190/189/260
f 212/200/261 217/190/261 188/192/261
f 214/201/262 218/195/262 193/197/262
f 215/202/263 219/198/263 191/199/263
f 194/194/183 193/197/183 195/203/183
f 193/197/183 192/196/183 191/199/183
f 187/191/183 195/203/183 189/188/183
f 195/203/183 191/199/183 190/189/183
f 207/204/200 203/214/200 201/205/200
f 210/207/201 206/215/201 202/208/201
f 205/210/202 199/218/202 196/211/202
f 204/213/203 197/219/203 203/214/203
f 206/215/204 211/206/204 201/205/204
f 209/216/205 210/207/205 200/209/205
f 205/210/206 209/216/206 198/217/206
f 208/212/207 196/211/207 197/219/207
f 185/220/208 242/224/208 243/221/208
f 184/223/209 241/226/209 242/224/209
f 183/225/210 240/228/210 241/226/210
f 182/227/264 239/255/264 240/228/264
f 203/214/212 219/198/212 215/202/212
f 200/209/213 202/208/213 218/195/213
f 199/218/214 217/190/214 212/200/214
f 197/219/265 216/187/265 219/198/265
f 202/208/216 201/205/216 215/202/216
f 198/217/217 200/209/217 214/201/217
f 199/218/218 198/217/218 213/193/218
f 196/211/219 212/200/219 216/187/219
f 179/229/220 220/239/220 227/230/220
f 184/223/221 185/220/221 226/231/221
f 182/227/222 183/225/222 224/233/222
f 181/235/223 222/238/223 221/236/223
f 185/220/266 186/222/266 227/230/266
f 183/225/225 184/223/225 225/232/225
f 182/227/226 223/234/226 222/238/226
f 180/237/227 221/236/227 220/239/227
f 226/231/228 227/230/228 235/240/228
f 224/233/229 225/232/229 233/242/229
f 223/234/230 231/246/230 230/244/230
f 221/236/231 229/247/231 228/245/231
f 227/230/232 220/239/232 228/245/232
f 225/232/233 226/231/233 234/241/233
f 224/233/234 232/243/234 231/246/234
f 222/238/235 230/244/235 229/247/235
usemtl マテリアル.019
f 205/210/236 248/248/236 245/249/236
f 207/204/237 244/250/237 204/213/237
f 206/215/238 251/251/238 211/206/238
f 210/207/239 249/252/239 250/253/239
f 238/254/240 244/250/240 239/255/240
f 237/256/241 245/249/241 236/257/241
f 243/221/242 249/252/242 237/256/242
f 242/224/243 251/251/243 246/258/243
f 240/228/244 244/250/244 247/259/244
f 236/257/245 248/248/245 238/254/245
f 243/221/246 246/258/246 250/253/246
f 241/226/247 247/259/247 251/251/247
f 210/207/248 246/258/248 206/215/248
f 179/229/249 243/221/249 237/256/249
f 211/206/250 247/259/250 207/204/250
f 180/237/251 237/256/251 236/257/251
f 208/212/252 244/250/252 248/248/252
f 181/235/253 236/257/253 238/254/253
f 209/216/254 245/249/254 249/252/254
f 182/227/255 238/254/255 239/255/255
f 205/210/267 208/212/267 248/248/267
f 207/204/268 247/259/268 244/250/268
f 206/215/238 246/258/238 251/251/238
f 210/207/269 209/216/269 249/252/269
f 238/254/270 248/248/270 244/250/270
f 237/256/271 249/252/271 245/249/271
f 243/221/272 250/253/272 249/252/272
f 242/224/273 241/226/273 251/251/273
f 240/228/274 239/255/274 244/250/274
f 236/257/275 245/249/275 248/248/275
f 243/221/276 242/224/276 246/258/276
f 241/226/277 240/228/277 247/259/277
f 210/207/248 250/253/248 246/258/248
f 179/229/249 186/222/249 243/221/249
f 211/206/278 251/251/278 247/259/278
f 180/237/251 179/229/251 237/256/251
f 208/212/252 204/213/252 244/250/252
f 181/235/279 180/237/279 236/257/279
f 209/216/254 205/210/254 245/249/254
f 182/227/280 181/235/280 238/254/280
