# Blender 4.1.1
# www.blender.org
mtllib enemyBullet.mtl
o 球.001
v 0.125402 0.980785 -0.149448
v 0.245984 0.923880 -0.293153
v 0.357114 0.831470 -0.425591
v 0.454519 0.707107 -0.541675
v 0.534458 0.555570 -0.636943
v 0.593858 0.382683 -0.707733
v 0.630437 0.195090 -0.751325
v 0.642788 0.000000 -0.766044
v 0.630437 -0.195090 -0.751325
v 0.593858 -0.382683 -0.707733
v 0.534458 -0.555570 -0.636943
v 0.454519 -0.707107 -0.541675
v 0.357114 -0.831470 -0.425591
v 0.245984 -0.923880 -0.293153
v 0.125402 -0.980785 -0.149448
v 0.192126 0.980785 -0.033877
v 0.376870 0.923880 -0.066452
v 0.547130 0.831470 -0.096474
v 0.696364 0.707107 -0.122788
v 0.818838 0.555570 -0.144383
v 0.909844 0.382683 -0.160430
v 0.965885 0.195090 -0.170312
v 0.984808 0.000000 -0.173648
v 0.965885 -0.195090 -0.170312
v 0.909844 -0.382683 -0.160430
v 0.818838 -0.555570 -0.144383
v 0.696364 -0.707107 -0.122788
v 0.547130 -0.831470 -0.096474
v 0.376870 -0.923880 -0.066452
v 0.192126 -0.980785 -0.033877
v 0.168953 0.980785 0.097545
v 0.331414 0.923880 0.191342
v 0.481138 0.831470 0.277785
v 0.612372 0.707107 0.353553
v 0.720074 0.555570 0.415735
v 0.800103 0.382683 0.461940
v 0.849385 0.195090 0.490393
v 0.866025 0.000000 0.500000
v 0.849385 -0.195090 0.490393
v 0.800103 -0.382683 0.461940
v 0.720074 -0.555570 0.415735
v 0.612372 -0.707107 0.353553
v 0.481138 -0.831470 0.277785
v 0.331414 -0.923880 0.191342
v 0.168953 -0.980785 0.097545
v 0.066725 0.980785 0.183325
v 0.130885 0.923880 0.359605
v 0.190016 0.831470 0.522065
v 0.241845 0.707107 0.664463
v 0.284379 0.555570 0.781326
v 0.315985 0.382683 0.868163
v 0.335448 0.195090 0.921637
v 0.342020 0.000000 0.939692
v 0.335448 -0.195090 0.921637
v 0.315985 -0.382683 0.868163
v 0.284379 -0.555570 0.781326
v 0.241845 -0.707107 0.664463
v 0.190016 -0.831470 0.522065
v 0.130885 -0.923880 0.359605
v 0.066725 -0.980785 0.183325
v -0.066725 0.980785 0.183325
v -0.130885 0.923880 0.359605
v -0.190016 0.831470 0.522065
v -0.241845 0.707107 0.664463
v -0.284379 0.555570 0.781326
v -0.315985 0.382683 0.868163
v -0.335448 0.195090 0.921637
v -0.342020 0.000000 0.939692
v -0.335448 -0.195090 0.921637
v -0.315985 -0.382683 0.868163
v -0.284379 -0.555570 0.781326
v -0.241845 -0.707107 0.664463
v -0.190016 -0.831470 0.522065
v -0.130885 -0.923880 0.359605
v -0.066725 -0.980785 0.183325
v 0.000000 -1.000000 0.000000
v 0.000000 1.000000 0.000000
v -0.168953 0.980785 0.097545
v -0.331414 0.923880 0.191342
v -0.481138 0.831470 0.277785
v -0.612372 0.707107 0.353553
v -0.720074 0.555570 0.415735
v -0.800103 0.382683 0.461940
v -0.849385 0.195090 0.490393
v -0.866025 0.000000 0.500000
v -0.849385 -0.195090 0.490393
v -0.800103 -0.382683 0.461940
v -0.720074 -0.555570 0.415735
v -0.612372 -0.707107 0.353553
v -0.481138 -0.831470 0.277785
v -0.331414 -0.923880 0.191342
v -0.168953 -0.980785 0.097545
v -0.192126 0.980785 -0.033877
v -0.376870 0.923880 -0.066452
v -0.547130 0.831470 -0.096474
v -0.696364 0.707107 -0.122788
v -0.818838 0.555570 -0.144383
v -0.909844 0.382683 -0.160430
v -0.965885 0.195090 -0.170311
v -0.984808 0.000000 -0.173648
v -0.965885 -0.195090 -0.170311
v -0.909844 -0.382683 -0.160430
v -0.818838 -0.555570 -0.144383
v -0.696364 -0.707107 -0.122788
v -0.547130 -0.831470 -0.096474
v -0.376870 -0.923880 -0.066452
v -0.192126 -0.980785 -0.033877
v -0.125402 0.980785 -0.149448
v -0.245984 0.923880 -0.293152
v -0.357114 0.831470 -0.425591
v -0.454519 0.707107 -0.541675
v -0.534458 0.555570 -0.636942
v -0.593858 0.382683 -0.707732
v -0.630437 0.195090 -0.751325
v -0.642788 0.000000 -0.766044
v -0.630437 -0.195090 -0.751325
v -0.593858 -0.382683 -0.707732
v -0.534458 -0.555570 -0.636942
v -0.454519 -0.707107 -0.541675
v -0.357114 -0.831470 -0.425591
v -0.245984 -0.923880 -0.293152
v -0.125402 -0.980785 -0.149448
v -0.000000 0.980785 -0.195090
v -0.000000 0.923880 -0.382683
v -0.000000 0.831470 -0.555570
v -0.000000 0.707107 -0.707107
v -0.000000 0.555570 -0.831469
v -0.000000 0.382683 -0.923879
v -0.000000 0.195090 -0.980785
v -0.000000 0.000000 -1.000000
v -0.000000 -0.195090 -0.980785
v -0.000000 -0.382683 -0.923879
v -0.000000 -0.555570 -0.831469
v -0.000000 -0.707107 -0.707107
v -0.000000 -0.831470 -0.555570
v -0.000000 -0.923880 -0.382683
v -0.000000 -0.980785 -0.195090
vn 0.1387 0.9764 -0.1653
vn 0.2577 0.9161 -0.3071
vn 0.3665 0.8215 -0.4368
vn 0.4612 0.6965 -0.5497
vn 0.5386 0.5459 -0.6418
vn 0.5958 0.3753 -0.7100
vn 0.6309 0.1911 -0.7519
vn 0.6428 -0.0000 -0.7660
vn 0.6309 -0.1911 -0.7519
vn 0.5958 -0.3753 -0.7100
vn 0.5386 -0.5459 -0.6418
vn 0.4612 -0.6965 -0.5497
vn 0.3665 -0.8215 -0.4368
vn 0.2577 -0.9161 -0.3071
vn 0.1387 -0.9764 -0.1653
vn 0.2126 0.9764 -0.0375
vn 0.3948 0.9161 -0.0696
vn 0.5615 0.8215 -0.0990
vn 0.7067 0.6965 -0.1246
vn 0.8251 0.5459 -0.1455
vn 0.9128 0.3753 -0.1609
vn 0.9667 0.1911 -0.1705
vn 0.9848 -0.0000 -0.1736
vn 0.9667 -0.1911 -0.1705
vn 0.9128 -0.3753 -0.1610
vn 0.8251 -0.5459 -0.1455
vn 0.7067 -0.6965 -0.1246
vn 0.5615 -0.8215 -0.0990
vn 0.3948 -0.9161 -0.0696
vn 0.2126 -0.9764 -0.0375
vn 0.1869 0.9764 0.1079
vn 0.3472 0.9161 0.2005
vn 0.4938 0.8215 0.2851
vn 0.6214 0.6965 0.3588
vn 0.7256 0.5459 0.4189
vn 0.8027 0.3753 0.4635
vn 0.8501 0.1911 0.4908
vn 0.8660 -0.0000 0.5000
vn 0.8501 -0.1911 0.4908
vn 0.8027 -0.3753 0.4634
vn 0.7256 -0.5459 0.4189
vn 0.6214 -0.6965 0.3588
vn 0.4938 -0.8215 0.2851
vn 0.3472 -0.9161 0.2005
vn 0.1869 -0.9764 0.1079
vn 0.0738 0.9764 0.2028
vn 0.1371 0.9161 0.3767
vn 0.1950 0.8215 0.5358
vn 0.2454 0.6965 0.6743
vn 0.2866 0.5459 0.7873
vn 0.3170 0.3753 0.8710
vn 0.3357 0.1911 0.9224
vn 0.3420 -0.0000 0.9397
vn 0.3357 -0.1911 0.9224
vn 0.3170 -0.3753 0.8710
vn 0.2866 -0.5459 0.7873
vn 0.2454 -0.6965 0.6743
vn 0.1950 -0.8215 0.5358
vn 0.1371 -0.9161 0.3767
vn 0.0738 -0.9764 0.2028
vn -0.0738 0.9764 0.2028
vn -0.1371 0.9161 0.3767
vn -0.1950 0.8215 0.5358
vn -0.2454 0.6965 0.6743
vn -0.2866 0.5459 0.7873
vn -0.3170 0.3753 0.8710
vn -0.3357 0.1911 0.9224
vn -0.3420 -0.0000 0.9397
vn -0.3357 -0.1911 0.9224
vn -0.3170 -0.3753 0.8710
vn -0.2866 -0.5459 0.7873
vn -0.2454 -0.6965 0.6743
vn -0.1950 -0.8215 0.5358
vn -0.1371 -0.9161 0.3767
vn -0.0738 -0.9764 0.2028
vn -0.0000 -1.0000 -0.0000
vn -0.0000 1.0000 -0.0000
vn -0.1869 0.9764 0.1079
vn -0.3472 0.9161 0.2005
vn -0.4938 0.8215 0.2851
vn -0.6214 0.6965 0.3588
vn -0.7256 0.5459 0.4189
vn -0.8027 0.3753 0.4635
vn -0.8501 0.1911 0.4908
vn -0.8660 -0.0000 0.5000
vn -0.8501 -0.1911 0.4908
vn -0.8027 -0.3753 0.4635
vn -0.7256 -0.5459 0.4189
vn -0.6214 -0.6965 0.3588
vn -0.4938 -0.8215 0.2851
vn -0.3472 -0.9161 0.2005
vn -0.1869 -0.9764 0.1079
vn -0.2126 0.9764 -0.0375
vn -0.3948 0.9161 -0.0696
vn -0.5615 0.8215 -0.0990
vn -0.7067 0.6965 -0.1246
vn -0.8251 0.5459 -0.1455
vn -0.9128 0.3753 -0.1609
vn -0.9667 0.1911 -0.1705
vn -0.9848 -0.0000 -0.1736
vn -0.9667 -0.1911 -0.1705
vn -0.9128 -0.3753 -0.1609
vn -0.8251 -0.5459 -0.1455
vn -0.7067 -0.6965 -0.1246
vn -0.5615 -0.8215 -0.0990
vn -0.3948 -0.9161 -0.0696
vn -0.2126 -0.9764 -0.0375
vn -0.1387 0.9764 -0.1653
vn -0.2577 0.9161 -0.3071
vn -0.3665 0.8215 -0.4368
vn -0.4612 0.6965 -0.5497
vn -0.5386 0.5459 -0.6418
vn -0.5958 0.3753 -0.7100
vn -0.6309 0.1911 -0.7519
vn -0.6428 -0.0000 -0.7660
vn -0.6309 -0.1911 -0.7519
vn -0.5958 -0.3753 -0.7100
vn -0.5386 -0.5459 -0.6418
vn -0.4612 -0.6965 -0.5497
vn -0.3665 -0.8215 -0.4368
vn -0.2577 -0.9161 -0.3071
vn -0.1387 -0.9764 -0.1653
vn -0.0000 0.9764 -0.2158
vn -0.0000 0.9161 -0.4009
vn -0.0000 0.8215 -0.5702
vn -0.0000 0.6965 -0.7176
vn -0.0000 0.5459 -0.8379
vn -0.0000 0.3753 -0.9269
vn -0.0000 0.1911 -0.9816
vn -0.0000 -0.0000 -1.0000
vn -0.0000 -0.1911 -0.9816
vn -0.0000 -0.3753 -0.9269
vn -0.0000 -0.5459 -0.8379
vn -0.0000 -0.6965 -0.7176
vn -0.0000 -0.8215 -0.5702
vn -0.0000 -0.9161 -0.4009
vn -0.0000 -0.9764 -0.2158
vt 0.666667 0.250000
vt 0.555556 0.187500
vt 0.666667 0.187500
vt 0.666667 0.625000
vt 0.555556 0.687500
vt 0.555556 0.625000
vt 0.555556 0.125000
vt 0.666667 0.125000
vt 0.666667 0.562500
vt 0.555556 0.562500
vt 0.555556 0.062500
vt 0.666667 0.062500
vt 0.666667 0.500000
vt 0.555556 0.500000
vt 0.666667 0.937500
vt 0.611111 1.000000
vt 0.555556 0.937500
vt 0.611111 0.000000
vt 0.555556 0.437500
vt 0.666667 0.437500
vt 0.666667 0.875000
vt 0.555556 0.875000
vt 0.555556 0.375000
vt 0.666667 0.375000
vt 0.666667 0.812500
vt 0.555556 0.812500
vt 0.555556 0.312500
vt 0.666667 0.312500
vt 0.666667 0.750000
vt 0.555556 0.750000
vt 0.555556 0.250000
vt 0.666667 0.687500
vt 0.444444 0.750000
vt 0.444444 0.312500
vt 0.444444 0.250000
vt 0.444444 0.687500
vt 0.444444 0.187500
vt 0.444444 0.625000
vt 0.444444 0.125000
vt 0.444444 0.562500
vt 0.444444 0.062500
vt 0.444444 0.500000
vt 0.500000 1.000000
vt 0.444444 0.937500
vt 0.500000 0.000000
vt 0.444444 0.437500
vt 0.444444 0.875000
vt 0.444444 0.375000
vt 0.444444 0.812500
vt 0.333333 0.500000
vt 0.388889 1.000000
vt 0.333333 0.937500
vt 0.388889 0.000000
vt 0.333333 0.062500
vt 0.333333 0.437500
vt 0.333333 0.875000
vt 0.333333 0.375000
vt 0.333333 0.812500
vt 0.333333 0.312500
vt 0.333333 0.750000
vt 0.333333 0.250000
vt 0.333333 0.687500
vt 0.333333 0.187500
vt 0.333333 0.625000
vt 0.333333 0.125000
vt 0.333333 0.562500
vt 0.222222 0.250000
vt 0.222222 0.687500
vt 0.222222 0.187500
vt 0.222222 0.625000
vt 0.222222 0.125000
vt 0.222222 0.562500
vt 0.222222 0.062500
vt 0.222222 0.500000
vt 0.277778 1.000000
vt 0.222222 0.937500
vt 0.277778 0.000000
vt 0.222222 0.437500
vt 0.222222 0.875000
vt 0.222222 0.375000
vt 0.222222 0.812500
vt 0.222222 0.312500
vt 0.222222 0.750000
vt 0.166667 0.000000
vt 0.111111 0.062500
vt 0.111111 0.437500
vt 0.111111 0.875000
vt 0.111111 0.375000
vt 0.111111 0.812500
vt 0.111111 0.312500
vt 0.111111 0.750000
vt 0.111111 0.250000
vt 0.111111 0.687500
vt 0.111111 0.187500
vt 0.111111 0.625000
vt 0.111111 0.125000
vt 0.111111 0.562500
vt 0.111111 0.500000
vt 0.166667 1.000000
vt 0.111111 0.937500
vt 0.000000 0.187500
vt 0.000000 0.687500
vt 0.000000 0.625000
vt 0.000000 0.125000
vt 0.000000 0.562500
vt 0.000000 0.062500
vt 0.000000 0.500000
vt 0.055556 1.000000
vt 0.000000 0.937500
vt 0.055556 0.000000
vt 0.000000 0.437500
vt 0.000000 0.875000
vt 0.000000 0.375000
vt 0.000000 0.812500
vt 0.000000 0.312500
vt 0.000000 0.750000
vt 0.000000 0.250000
vt 1.000000 0.937500
vt 0.888889 0.875000
vt 1.000000 0.875000
vt 1.000000 0.375000
vt 0.888889 0.437500
vt 0.888889 0.375000
vt 1.000000 0.812500
vt 0.888889 0.812500
vt 0.888889 0.312500
vt 1.000000 0.312500
vt 1.000000 0.750000
vt 0.888889 0.750000
vt 1.000000 0.250000
vt 0.888889 0.250000
vt 0.888889 0.687500
vt 1.000000 0.687500
vt 0.888889 0.187500
vt 1.000000 0.187500
vt 1.000000 0.625000
vt 0.888889 0.625000
vt 0.888889 0.125000
vt 1.000000 0.125000
vt 0.888889 0.562500
vt 1.000000 0.562500
vt 1.000000 0.062500
vt 0.888889 0.062500
vt 1.000000 0.500000
vt 0.888889 0.500000
vt 0.944444 1.000000
vt 0.888889 0.937500
vt 0.944444 0.000000
vt 1.000000 0.437500
vt 0.777778 0.687500
vt 0.777778 0.625000
vt 0.777778 0.125000
vt 0.777778 0.562500
vt 0.777778 0.062500
vt 0.777778 0.500000
vt 0.833333 1.000000
vt 0.777778 0.937500
vt 0.833333 0.000000
vt 0.777778 0.437500
vt 0.777778 0.875000
vt 0.777778 0.375000
vt 0.777778 0.812500
vt 0.777778 0.312500
vt 0.777778 0.750000
vt 0.777778 0.250000
vt 0.777778 0.187500
vt 0.722222 1.000000
vt 0.722222 0.000000
s 1
usemtl マテリアル.012
f 134/1/134 13/2/13 135/3/135
f 128/4/128 5/5/5 6/6/6
f 135/3/135 14/7/14 136/8/136
f 129/9/129 6/6/6 7/10/7
f 136/8/136 15/11/15 137/12/137
f 130/13/130 7/10/7 8/14/8
f 123/15/123 77/16/77 1/17/1
f 76/18/76 137/12/137 15/11/15
f 130/13/130 9/19/9 131/20/131
f 124/21/124 1/17/1 2/22/2
f 131/20/131 10/23/10 132/24/132
f 125/25/125 2/22/2 3/26/3
f 132/24/132 11/27/11 133/28/133
f 126/29/126 3/26/3 4/30/4
f 134/1/134 11/27/11 12/31/12
f 126/29/126 5/5/5 127/32/127
f 3/26/3 19/33/19 4/30/4
f 12/31/12 26/34/26 27/35/27
f 4/30/4 20/36/20 5/5/5
f 13/2/13 27/35/27 28/37/28
f 5/5/5 21/38/21 6/6/6
f 13/2/13 29/39/29 14/7/14
f 7/10/7 21/38/21 22/40/22
f 14/7/14 30/41/30 15/11/15
f 7/10/7 23/42/23 8/14/8
f 1/17/1 77/43/77 16/44/16
f 76/45/76 15/11/15 30/41/30
f 9/19/9 23/42/23 24/46/24
f 2/22/2 16/44/16 17/47/17
f 9/19/9 25/48/25 10/23/10
f 3/26/3 17/47/17 18/49/18
f 10/23/10 26/34/26 11/27/11
f 22/40/22 38/50/38 23/42/23
f 16/44/16 77/51/77 31/52/31
f 76/53/76 30/41/30 45/54/45
f 24/46/24 38/50/38 39/55/39
f 16/44/16 32/56/32 17/47/17
f 24/46/24 40/57/40 25/48/25
f 18/49/18 32/56/32 33/58/33
f 26/34/26 40/57/40 41/59/41
f 18/49/18 34/60/34 19/33/19
f 27/35/27 41/59/41 42/61/42
f 19/33/19 35/62/35 20/36/20
f 28/37/28 42/61/42 43/63/43
f 20/36/20 36/64/36 21/38/21
f 28/37/28 44/65/44 29/39/29
f 22/40/22 36/64/36 37/66/37
f 30/41/30 44/65/44 45/54/45
f 41/59/41 57/67/57 42/61/42
f 34/60/34 50/68/50 35/62/35
f 43/63/43 57/67/57 58/69/58
f 35/62/35 51/70/51 36/64/36
f 43/63/43 59/71/59 44/65/44
f 37/66/37 51/70/51 52/72/52
f 45/54/45 59/71/59 60/73/60
f 38/50/38 52/72/52 53/74/53
f 31/52/31 77/75/77 46/76/46
f 76/77/76 45/54/45 60/73/60
f 38/50/38 54/78/54 39/55/39
f 31/52/31 47/79/47 32/56/32
f 39/55/39 55/80/55 40/57/40
f 33/58/33 47/79/47 48/81/48
f 40/57/40 56/82/56 41/59/41
f 33/58/33 49/83/49 34/60/34
f 76/84/76 60/73/60 75/85/75
f 53/74/53 69/86/69 54/78/54
f 46/76/46 62/87/62 47/79/47
f 55/80/55 69/86/69 70/88/70
f 48/81/48 62/87/62 63/89/63
f 55/80/55 71/90/71 56/82/56
f 48/81/48 64/91/64 49/83/49
f 57/67/57 71/90/71 72/92/72
f 49/83/49 65/93/65 50/68/50
f 58/69/58 72/92/72 73/94/73
f 51/70/51 65/93/65 66/95/66
f 58/69/58 74/96/74 59/71/59
f 51/70/51 67/97/67 52/72/52
f 60/73/60 74/96/74 75/85/75
f 53/74/53 67/97/67 68/98/68
f 46/76/46 77/99/77 61/100/61
f 72/92/72 90/101/90 73/94/73
f 66/95/66 82/102/82 83/103/83
f 73/94/73 91/104/91 74/96/74
f 66/95/66 84/105/84 67/97/67
f 75/85/75 91/104/91 92/106/92
f 68/98/68 84/105/84 85/107/85
f 61/100/61 77/108/77 78/109/78
f 76/110/76 75/85/75 92/106/92
f 68/98/68 86/111/86 69/86/69
f 61/100/61 79/112/79 62/87/62
f 70/88/70 86/111/86 87/113/87
f 63/89/63 79/112/79 80/114/80
f 70/88/70 88/115/88 71/90/71
f 64/91/64 80/114/80 81/116/81
f 72/92/72 88/115/88 89/117/89
f 64/91/64 82/102/82 65/93/65
f 78/118/78 94/119/94 79/120/79
f 87/121/87 101/122/101 102/123/102
f 80/124/80 94/119/94 95/125/95
f 87/121/87 103/126/103 88/127/88
f 81/128/81 95/125/95 96/129/96
f 89/130/89 103/126/103 104/131/104
f 81/128/81 97/132/97 82/133/82
f 89/130/89 105/134/105 90/135/90
f 83/136/83 97/132/97 98/137/98
f 90/135/90 106/138/106 91/139/91
f 83/136/83 99/140/99 84/141/84
f 92/142/92 106/138/106 107/143/107
f 85/144/85 99/140/99 100/145/100
f 78/118/78 77/146/77 93/147/93
f 76/148/76 92/142/92 107/143/107
f 85/144/85 101/122/101 86/149/86
f 98/137/98 112/150/112 113/151/113
f 105/134/105 121/152/121 106/138/106
f 98/137/98 114/153/114 99/140/99
f 107/143/107 121/152/121 122/154/122
f 100/145/100 114/153/114 115/155/115
f 93/147/93 77/156/77 108/157/108
f 76/158/76 107/143/107 122/154/122
f 100/145/100 116/159/116 101/122/101
f 93/147/93 109/160/109 94/119/94
f 102/123/102 116/159/116 117/161/117
f 95/125/95 109/160/109 110/162/110
f 102/123/102 118/163/118 103/126/103
f 96/129/96 110/162/110 111/164/111
f 104/131/104 118/163/118 119/165/119
f 96/129/96 112/150/112 97/132/97
f 104/131/104 120/166/120 105/134/105
f 117/161/117 131/20/131 132/24/132
f 110/162/110 124/21/124 125/25/125
f 117/161/117 133/28/133 118/163/118
f 111/164/111 125/25/125 126/29/126
f 119/165/119 133/28/133 134/1/134
f 111/164/111 127/32/127 112/150/112
f 119/165/119 135/3/135 120/166/120
f 113/151/113 127/32/127 128/4/128
f 120/166/120 136/8/136 121/152/121
f 113/151/113 129/9/129 114/153/114
f 122/154/122 136/8/136 137/12/137
f 115/155/115 129/9/129 130/13/130
f 108/157/108 77/167/77 123/15/123
f 76/168/76 122/154/122 137/12/137
f 115/155/115 131/20/131 116/159/116
f 108/157/108 124/21/124 109/160/109
f 134/1/134 12/31/12 13/2/13
f 128/4/128 127/32/127 5/5/5
f 135/3/135 13/2/13 14/7/14
f 129/9/129 128/4/128 6/6/6
f 136/8/136 14/7/14 15/11/15
f 130/13/130 129/9/129 7/10/7
f 130/13/130 8/14/8 9/19/9
f 124/21/124 123/15/123 1/17/1
f 131/20/131 9/19/9 10/23/10
f 125/25/125 124/21/124 2/22/2
f 132/24/132 10/23/10 11/27/11
f 126/29/126 125/25/125 3/26/3
f 134/1/134 133/28/133 11/27/11
f 126/29/126 4/30/4 5/5/5
f 3/26/3 18/49/18 19/33/19
f 12/31/12 11/27/11 26/34/26
f 4/30/4 19/33/19 20/36/20
f 13/2/13 12/31/12 27/35/27
f 5/5/5 20/36/20 21/38/21
f 13/2/13 28/37/28 29/39/29
f 7/10/7 6/6/6 21/38/21
f 14/7/14 29/39/29 30/41/30
f 7/10/7 22/40/22 23/42/23
f 9/19/9 8/14/8 23/42/23
f 2/22/2 1/17/1 16/44/16
f 9/19/9 24/46/24 25/48/25
f 3/26/3 2/22/2 17/47/17
f 10/23/10 25/48/25 26/34/26
f 22/40/22 37/66/37 38/50/38
f 24/46/24 23/42/23 38/50/38
f 16/44/16 31/52/31 32/56/32
f 24/46/24 39/55/39 40/57/40
f 18/49/18 17/47/17 32/56/32
f 26/34/26 25/48/25 40/57/40
f 18/49/18 33/58/33 34/60/34
f 27/35/27 26/34/26 41/59/41
f 19/33/19 34/60/34 35/62/35
f 28/37/28 27/35/27 42/61/42
f 20/36/20 35/62/35 36/64/36
f 28/37/28 43/63/43 44/65/44
f 22/40/22 21/38/21 36/64/36
f 30/41/30 29/39/29 44/65/44
f 41/59/41 56/82/56 57/67/57
f 34/60/34 49/83/49 50/68/50
f 43/63/43 42/61/42 57/67/57
f 35/62/35 50/68/50 51/70/51
f 43/63/43 58/69/58 59/71/59
f 37/66/37 36/64/36 51/70/51
f 45/54/45 44/65/44 59/71/59
f 38/50/38 37/66/37 52/72/52
f 38/50/38 53/74/53 54/78/54
f 31/52/31 46/76/46 47/79/47
f 39/55/39 54/78/54 55/80/55
f 33/58/33 32/56/32 47/79/47
f 40/57/40 55/80/55 56/82/56
f 33/58/33 48/81/48 49/83/49
f 53/74/53 68/98/68 69/86/69
f 46/76/46 61/100/61 62/87/62
f 55/80/55 54/78/54 69/86/69
f 48/81/48 47/79/47 62/87/62
f 55/80/55 70/88/70 71/90/71
f 48/81/48 63/89/63 64/91/64
f 57/67/57 56/82/56 71/90/71
f 49/83/49 64/91/64 65/93/65
f 58/69/58 57/67/57 72/92/72
f 51/70/51 50/68/50 65/93/65
f 58/69/58 73/94/73 74/96/74
f 51/70/51 66/95/66 67/97/67
f 60/73/60 59/71/59 74/96/74
f 53/74/53 52/72/52 67/97/67
f 72/92/72 89/117/89 90/101/90
f 66/95/66 65/93/65 82/102/82
f 73/94/73 90/101/90 91/104/91
f 66/95/66 83/103/83 84/105/84
f 75/85/75 74/96/74 91/104/91
f 68/98/68 67/97/67 84/105/84
f 68/98/68 85/107/85 86/111/86
f 61/100/61 78/109/78 79/112/79
f 70/88/70 69/86/69 86/111/86
f 63/89/63 62/87/62 79/112/79
f 70/88/70 87/113/87 88/115/88
f 64/91/64 63/89/63 80/114/80
f 72/92/72 71/90/71 88/115/88
f 64/91/64 81/116/81 82/102/82
f 78/118/78 93/147/93 94/119/94
f 87/121/87 86/149/86 101/122/101
f 80/124/80 79/120/79 94/119/94
f 87/121/87 102/123/102 103/126/103
f 81/128/81 80/124/80 95/125/95
f 89/130/89 88/127/88 103/126/103
f 81/128/81 96/129/96 97/132/97
f 89/130/89 104/131/104 105/134/105
f 83/136/83 82/133/82 97/132/97
f 90/135/90 105/134/105 106/138/106
f 83/136/83 98/137/98 99/140/99
f 92/142/92 91/139/91 106/138/106
f 85/144/85 84/141/84 99/140/99
f 85/144/85 100/145/100 101/122/101
f 98/137/98 97/132/97 112/150/112
f 105/134/105 120/166/120 121/152/121
f 98/137/98 113/151/113 114/153/114
f 107/143/107 106/138/106 121/152/121
f 100/145/100 99/140/99 114/153/114
f 100/145/100 115/155/115 116/159/116
f 93/147/93 108/157/108 109/160/109
f 102/123/102 101/122/101 116/159/116
f 95/125/95 94/119/94 109/160/109
f 102/123/102 117/161/117 118/163/118
f 96/129/96 95/125/95 110/162/110
f 104/131/104 103/126/103 118/163/118
f 96/129/96 111/164/111 112/150/112
f 104/131/104 119/165/119 120/166/120
f 117/161/117 116/159/116 131/20/131
f 110/162/110 109/160/109 124/21/124
f 117/161/117 132/24/132 133/28/133
f 111/164/111 110/162/110 125/25/125
f 119/165/119 118/163/118 133/28/133
f 111/164/111 126/29/126 127/32/127
f 119/165/119 134/1/134 135/3/135
f 113/151/113 112/150/112 127/32/127
f 120/166/120 135/3/135 136/8/136
f 113/151/113 128/4/128 129/9/129
f 122/154/122 121/152/121 136/8/136
f 115/155/115 114/153/114 129/9/129
f 115/155/115 130/13/130 131/20/131
f 108/157/108 123/15/123 124/21/124
