# Blender 4.1.1
# www.blender.org
mtllib weapon.mtl
o 立方体.001
v -1.311566 1.587998 1.852691
v -1.461256 2.206892 2.290888
v -1.332632 1.675096 1.654059
v -1.476417 2.269576 2.128875
v -1.212373 1.611989 1.852691
v -1.362063 2.230883 2.290888
v -1.233439 1.699088 1.654059
v -1.377224 2.293568 2.128875
v -1.321128 1.534319 1.713305
v -1.394408 1.837295 2.136837
v -1.570349 2.564721 2.367242
v -1.493199 2.035128 1.787465
v -1.274137 1.648000 1.552088
v -1.436388 2.318826 2.052581
v -1.272455 2.088518 1.787465
v -1.179336 1.568614 1.713305
v -1.428556 2.599016 2.367242
v -1.252616 1.871590 2.136837
v -1.236843 1.493808 1.862623
v -1.435281 2.314250 2.428732
v -1.511525 1.915278 1.969326
v -1.389542 2.106738 1.714133
v -1.185134 1.994221 1.969326
v -1.312345 1.805972 2.217467
v -1.228858 1.460796 1.655842
v -1.525553 2.687480 2.402474
v -1.561341 1.439997 1.947482
v -1.595875 1.719898 1.759238
v -1.625401 0.950367 1.231201
v -1.659935 1.230268 1.042957
v -1.452213 1.444724 1.934491
v -1.486747 1.724625 1.746247
v -1.516273 0.955094 1.218210
v -1.550807 1.234995 1.029966
v -1.603654 1.181098 1.599889
v -1.582956 1.628299 1.936479
v -1.641536 1.488132 1.393397
v -1.638744 1.201900 1.312700
v -1.569650 0.506032 1.072136
v -1.700784 0.786633 0.072684
v -1.505702 1.207663 1.296862
v -1.470612 1.186861 1.584051
v -1.508494 1.493895 1.377559
v -1.449915 1.634062 1.920641
v -1.498084 1.482442 2.028592
v -1.535966 1.789476 1.822100
v -1.647098 1.328749 1.502844
v -1.586953 1.092197 1.140080
v -1.463871 1.336686 1.481032
v -1.501706 1.743765 2.093260
v -1.532006 1.089700 1.600736
v -1.595926 1.483967 1.207257
v -1.022847 1.548574 1.934491
v -1.120044 1.813318 1.746247
v -0.742106 1.142340 1.218210
v -0.839304 1.407084 1.029966
v -0.923621 1.594241 1.947482
v -1.020819 1.858985 1.759238
v -0.642881 1.188007 1.231201
v -0.740079 1.452751 1.042957
v -0.888637 1.327621 1.584051
v -1.111418 1.715933 1.920641
v -0.995258 1.618030 1.377559
v -0.866933 1.362161 1.296862
v -0.489408 0.767307 1.072136
v -0.501004 1.076821 0.072684
v -0.745963 1.417835 1.312700
v -0.767667 1.383295 1.599889
v -0.874288 1.673704 1.393397
v -0.990449 1.771607 1.936479
v -0.999283 1.603086 2.028592
v -1.105903 1.893494 1.822100
v -0.963104 1.457805 1.481032
v -0.741896 1.296589 1.140080
v -0.796502 1.534480 1.502844
v -1.115486 1.837179 2.093260
v -0.789628 1.269257 1.600736
v -0.912953 1.649156 1.207257
v -0.434405 -1.823870 -0.522745
v -1.234740 1.485113 1.577278
v -0.386814 -1.820612 -0.509741
v -1.187149 1.488371 1.590282
v -0.353630 -1.834191 -0.475697
v -1.153965 1.474791 1.624326
v -0.347528 -1.859422 -0.433617
v -1.147862 1.449561 1.666407
v -0.370838 -1.886665 -0.399572
v -1.171173 1.422317 1.700450
v -0.414657 -1.905517 -0.386569
v -1.214992 1.403466 1.713454
v -0.462248 -1.908774 -0.399572
v -1.262583 1.400208 1.700450
v -0.495432 -1.895195 -0.433617
v -1.295767 1.413788 1.666406
v -0.501535 -1.869964 -0.475697
v -1.301869 1.439018 1.624326
v -0.478224 -1.842721 -0.509741
v -1.278559 1.466262 1.590282
vn -0.7766 -0.5682 0.2721
vn -0.8387 -0.3317 0.4319
vn -0.9935 0.1107 -0.0272
vn -0.8812 -0.2427 -0.4056
vn -0.8718 -0.0471 -0.4876
vn -0.6932 0.6096 -0.3845
vn 0.3751 0.8410 -0.3900
vn 0.7822 0.3731 -0.4991
vn 0.9086 0.2139 -0.3587
vn 0.8143 0.5727 -0.0941
vn 0.8991 0.0903 0.4283
vn 0.9504 -0.1505 0.2721
vn 0.9260 -0.1631 0.3405
vn 0.8065 -0.0078 0.5911
vn -0.7187 -0.3743 0.5861
vn -0.7550 -0.5636 0.3352
vn -0.6750 -0.3324 -0.6587
vn 0.9260 0.0150 -0.3771
vn 0.9780 -0.1967 0.0692
vn -0.4416 -0.8267 0.3487
vn 0.7659 0.4706 -0.4381
vn -0.6690 0.4201 -0.6131
vn -0.5065 -0.0620 0.8600
vn 0.8983 0.0724 0.4334
vn -0.7734 -0.5712 0.2748
vn -0.8265 -0.3466 0.4435
vn -0.6025 0.3766 -0.7037
vn -0.9211 -0.2758 -0.2746
vn -0.5927 0.0339 -0.8047
vn -0.9128 0.2771 -0.3000
vn 0.6865 0.6551 -0.3155
vn 0.5381 0.3209 -0.7794
vn 0.9193 0.2119 -0.3315
vn 0.3669 0.6099 -0.7025
vn 0.8949 0.0702 0.4407
vn 0.9503 -0.1509 0.2724
vn 0.8669 -0.3007 0.3975
vn 0.8891 0.0250 0.4571
vn -0.8072 -0.3822 0.4498
vn -0.6390 -0.6609 0.3936
vn -0.8347 -0.4073 -0.3706
vn 0.7487 0.0094 -0.6629
vn 0.7669 -0.5384 0.3493
vn -0.7851 -0.6157 0.0680
vn 0.3970 0.6805 -0.6159
vn -0.8998 0.0624 -0.4318
vn -0.8356 -0.3458 0.4268
vn 0.4734 0.1752 0.8633
vn -0.8226 -0.3484 0.4494
vn -0.9920 -0.0919 0.0863
vn -0.9033 -0.3199 0.2860
vn -0.9136 0.4045 -0.0407
vn -0.9577 0.0385 0.2853
vn -0.9772 0.2048 -0.0567
vn -0.9944 -0.1058 0.0081
vn -0.9931 -0.1164 -0.0112
vn -0.4569 -0.6485 -0.6088
vn -0.8652 -0.4944 -0.0836
vn -0.9918 -0.1134 0.0593
vn 0.9580 0.1310 -0.2549
vn 0.9819 -0.0094 -0.1893
vn 0.9737 -0.0418 -0.2238
vn 0.9684 -0.2365 0.0789
vn 0.8970 0.3301 -0.2939
vn 0.9892 0.0435 -0.1396
vn 0.8998 0.4006 -0.1730
vn 0.9809 0.1887 0.0474
vn 0.9586 -0.1599 0.2357
vn 0.7809 0.3743 0.5002
vn 0.0453 -0.4813 0.8754
vn 0.0074 -0.7846 0.6200
vn 0.2024 0.8023 -0.5615
vn -0.8767 -0.2573 -0.4065
vn 0.1957 0.9703 -0.1425
vn -0.7796 -0.5803 0.2357
vn -0.8998 -0.4134 -0.1396
vn -0.7533 -0.6530 0.0789
vn -0.9834 -0.0549 -0.1730
vn -0.9587 -0.2804 0.0474
vn -0.9487 -0.1163 -0.2939
vn -0.8690 -0.4571 -0.1893
vn -0.8470 -0.4822 -0.2238
vn 0.7028 -0.3680 -0.6088
vn 0.9955 -0.0443 -0.0836
vn -0.9120 -0.3213 -0.2549
vn 0.9340 0.3524 0.0593
vn 0.9328 0.3603 0.0081
vn 0.9366 0.3503 -0.0112
vn 0.9496 0.1283 0.2860
vn 0.7756 0.6287 -0.0567
vn 0.9244 0.3716 0.0863
vn 0.6278 0.7773 -0.0407
vn 0.8342 0.4719 0.2853
vn 0.8909 0.0660 0.4494
vn -0.8656 -0.0240 0.5002
vn 0.1796 -0.4488 0.8754
vn 0.3520 -0.7013 0.6200
vn -0.5467 0.6211 -0.5615
vn 0.8973 0.1718 -0.4065
vn -0.6174 0.7736 -0.1425
vn -0.2160 0.8931 -0.3946
vn 0.5562 0.0809 -0.8271
vn 0.0140 -0.0580 -0.9982
vn 0.3647 0.8727 -0.3246
vn 0.9461 0.1512 -0.2865
vn 0.8602 0.5063 -0.0611
vn 0.9965 -0.0572 0.0611
vn 0.9106 0.2979 0.2865
vn 0.7232 -0.6096 0.3246
vn 0.5317 0.1822 0.8271
vn 0.2160 -0.8931 0.3946
vn -0.0140 0.0580 0.9982
vn -0.3647 -0.8727 0.3246
vn -0.5562 -0.0809 0.8271
vn -0.8602 -0.5063 0.0611
vn -0.9461 -0.1512 0.2865
vn -0.9106 -0.2979 -0.2865
vn -0.9965 0.0572 -0.0611
vn -0.5317 -0.1822 -0.8271
vn -0.7232 0.6096 -0.3246
vt 0.150083 0.529917
vt 0.081888 0.577550
vt 0.090431 0.549314
vt 0.214371 0.540453
vt 0.152079 0.580829
vt 0.202968 0.626940
vt 0.143649 0.606779
vt 0.088096 0.606845
vt 0.134811 0.645644
vt 0.073899 0.637817
vt 0.183112 0.691842
vt 0.129219 0.683273
vt 0.079226 0.671683
vt 0.071984 0.695094
vt 0.126442 0.712278
vt 0.163105 0.769160
vt 0.110924 0.746563
vt 0.063665 0.719689
vt 0.094776 0.781061
vt 0.037196 0.745540
vt 0.135214 0.836772
vt 0.074033 0.818770
vt 0.026005 0.780265
vt 0.019636 0.647308
vt 0.039745 0.683755
vt 0.002338 0.670930
vt 0.052574 0.651727
vt 0.029482 0.714424
vt 0.000183 0.698093
vt 0.214234 0.676774
vt 0.195770 0.733836
vt 0.256666 0.740595
vt 0.218267 0.736528
vt 0.204387 0.786117
vt 0.256666 0.592103
vt 0.188846 0.658743
vt 0.168844 0.811406
vt 0.248153 0.681801
vt 0.243214 0.803441
vt 0.821102 0.177337
vt 0.776114 0.281385
vt 0.771423 0.170482
vt 0.829731 0.388401
vt 0.834996 0.278907
vt 0.780695 0.399408
vt 0.743482 0.282563
vt 0.725480 0.178239
vt 0.677215 0.285068
vt 0.684299 0.008709
vt 0.734252 0.395187
vt 0.607543 0.387649
vt 0.612407 0.277106
vt 0.634482 0.175897
vt 0.588846 0.167932
vt 0.561900 0.382367
vt 0.580373 0.273320
vt 0.516262 0.369054
vt 0.527772 0.267043
vt 0.540207 0.171791
vt 0.474423 0.260482
vt 0.493976 0.154139
vt 0.419318 0.362968
vt 0.417772 0.253412
vt 0.444493 0.154197
vt 0.538897 0.000183
vt 0.603034 0.079968
vt 0.519395 0.044390
vt 0.749370 0.000779
vt 0.519811 0.126058
vt 0.491464 0.085367
vt 0.563474 0.456565
vt 0.523191 0.529551
vt 0.681153 0.526492
vt 0.492852 0.490612
vt 0.488049 0.409536
vt 0.662687 0.529551
vt 0.467224 0.375045
vt 0.462516 0.451729
vt 0.403513 0.177337
vt 0.358525 0.281385
vt 0.353834 0.170482
vt 0.412141 0.388401
vt 0.417406 0.278907
vt 0.363106 0.399408
vt 0.325893 0.282563
vt 0.307891 0.178239
vt 0.259626 0.285068
vt 0.266710 0.008709
vt 0.316663 0.395187
vt 0.189954 0.387649
vt 0.194817 0.277106
vt 0.216893 0.175897
vt 0.171257 0.167932
vt 0.144310 0.382367
vt 0.162783 0.273320
vt 0.098673 0.369054
vt 0.110183 0.267043
vt 0.122618 0.171791
vt 0.056834 0.260482
vt 0.076387 0.154139
vt 0.001729 0.362968
vt 0.000183 0.253412
vt 0.026903 0.154197
vt 0.121308 0.000183
vt 0.185444 0.079968
vt 0.101806 0.044390
vt 0.331781 0.000779
vt 0.102222 0.126058
vt 0.073875 0.085367
vt 0.145884 0.456565
vt 0.105602 0.529551
vt 0.263564 0.526492
vt 0.075263 0.490612
vt 0.070460 0.409536
vt 0.245098 0.529551
vt 0.049635 0.375045
vt 0.044926 0.451729
vt 0.999817 0.000183
vt 0.835362 0.051003
vt 0.835362 0.000183
vt 0.999817 0.051003
vt 0.835362 0.101822
vt 0.999817 0.101822
vt 0.835362 0.152641
vt 0.999817 0.152641
vt 0.835362 0.203461
vt 0.999817 0.203461
vt 0.835362 0.254280
vt 0.999817 0.254280
vt 0.835362 0.305100
vt 0.999817 0.305100
vt 0.835362 0.355919
vt 0.999817 0.355919
vt 0.835362 0.406739
vt 0.413805 0.637555
vt 0.540340 0.545621
vt 0.570211 0.637555
vt 0.999817 0.406739
vt 0.835362 0.457558
vt 0.999817 0.457558
vt 0.835362 0.508378
vt 0.286903 0.678668
vt 0.335235 0.529917
vt 0.413439 0.586735
vt 0.540340 0.678668
vt 0.492008 0.694372
vt 0.443676 0.678668
vt 0.413805 0.586735
vt 0.443676 0.545621
vt 0.492008 0.529917
vt 0.570211 0.586735
vt 0.999817 0.508378
vt 0.413439 0.637555
vt 0.383568 0.678668
vt 0.335235 0.694372
vt 0.257032 0.637555
vt 0.257032 0.586735
vt 0.286903 0.545621
vt 0.383568 0.545621
s 0
usemtl マテリアル.005
f 10/1/1 9/2/1 1/3/1
f 2/4/2 21/5/2 10/1/2
f 21/5/3 4/6/3 12/7/3
f 9/2/4 12/7/4 3/8/4
f 3/8/5 22/9/5 13/10/5
f 4/6/6 22/9/6 12/7/6
f 22/9/7 8/11/7 15/12/7
f 22/9/8 7/13/8 13/10/8
f 15/12/9 16/14/9 7/13/9
f 8/11/10 23/15/10 15/12/10
f 23/15/11 6/16/11 18/17/11
f 16/14/12 18/17/12 5/18/12
f 5/18/13 24/19/13 19/20/13
f 6/16/14 24/19/14 18/17/14
f 24/19/15 2/21/15 10/22/15
f 24/19/16 1/23/16 19/20/16
f 3/24/17 25/25/17 9/26/17
f 7/13/18 25/25/18 13/27/18
f 25/25/19 5/18/19 19/28/19
f 25/25/20 1/29/20 9/26/20
f 14/30/21 17/31/21 8/11/21
f 14/30/22 11/32/22 26/33/22
f 11/32/23 20/34/23 26/33/23
f 17/31/24 20/34/24 6/16/24
f 10/1/25 21/5/25 9/2/25
f 2/4/26 11/35/26 21/5/26
f 21/5/27 11/35/27 4/6/27
f 9/2/28 21/5/28 12/7/28
f 3/8/29 12/7/29 22/9/29
f 4/6/30 14/36/30 22/9/30
f 22/9/31 14/36/31 8/11/31
f 22/9/32 15/12/32 7/13/32
f 15/12/33 23/15/33 16/14/33
f 8/11/34 17/31/34 23/15/34
f 23/15/35 17/31/35 6/16/35
f 16/14/36 23/15/36 18/17/36
f 5/18/37 18/17/37 24/19/37
f 6/16/38 20/37/38 24/19/38
f 24/19/39 20/37/39 2/21/39
f 24/19/40 10/22/40 1/23/40
f 3/24/41 13/27/41 25/25/41
f 7/13/42 16/14/42 25/25/42
f 25/25/43 16/14/43 5/18/43
f 25/25/44 19/28/44 1/29/44
f 14/30/45 26/33/45 17/31/45
f 14/30/46 4/38/46 11/32/46
f 11/32/47 2/39/47 20/34/47
f 17/31/48 26/33/48 20/34/48
s 1
usemtl マテリアル.009
f 27/40/49 47/41/50 35/42/51
f 28/43/52 47/41/50 36/44/53
f 37/45/54 38/46/55 47/41/50
f 35/42/51 38/46/55 29/47/56
f 29/47/56 48/48/57 39/49/58
f 30/50/59 48/48/57 38/46/55
f 48/48/57 34/51/60 41/52/61
f 48/48/57 33/53/62 39/49/58
f 41/52/61 42/54/63 33/53/62
f 41/52/61 43/55/64 49/56/65
f 49/56/65 32/57/66 44/58/67
f 49/56/65 31/59/68 42/54/63
f 31/59/68 50/60/69 45/61/70
f 32/57/66 50/60/69 44/58/67
f 50/60/69 28/62/52 36/63/53
f 50/60/69 27/64/49 45/61/70
f 29/65/56 51/66/71 35/67/51
f 33/53/62 51/66/71 39/68/58
f 42/54/63 45/69/70 51/66/71
f 35/67/51 45/69/70 27/70/49
f 34/51/60 52/71/72 43/55/64
f 30/72/59 52/71/72 40/73/73
f 37/74/54 46/75/74 52/71/72
f 43/55/64 46/75/74 32/57/66
f 27/40/49 36/44/53 47/41/50
f 28/43/52 37/45/54 47/41/50
f 37/45/54 30/50/59 38/46/55
f 35/42/51 47/41/50 38/46/55
f 29/47/56 38/46/55 48/48/57
f 30/50/59 40/76/73 48/48/57
f 48/48/57 40/76/73 34/51/60
f 48/48/57 41/52/61 33/53/62
f 41/52/61 49/56/65 42/54/63
f 41/52/61 34/51/60 43/55/64
f 49/56/65 43/55/64 32/57/66
f 49/56/65 44/58/67 31/59/68
f 31/59/68 44/58/67 50/60/69
f 32/57/66 46/77/74 50/60/69
f 50/60/69 46/77/74 28/62/52
f 50/60/69 36/63/53 27/64/49
f 29/65/56 39/68/58 51/66/71
f 33/53/62 42/54/63 51/66/71
f 42/54/63 31/59/68 45/69/70
f 35/67/51 51/66/71 45/69/70
f 34/51/60 40/73/73 52/71/72
f 30/72/59 37/74/54 52/71/72
f 37/74/54 28/78/52 46/75/74
f 43/55/64 52/71/72 46/75/74
f 53/79/75 73/80/76 61/81/77
f 54/82/78 73/80/76 62/83/79
f 63/84/80 64/85/81 73/80/76
f 61/81/77 64/85/81 55/86/82
f 55/86/82 74/87/83 65/88/84
f 56/89/85 74/87/83 64/85/81
f 74/87/83 60/90/86 67/91/87
f 74/87/83 59/92/88 65/88/84
f 67/91/87 68/93/89 59/92/88
f 67/91/87 69/94/90 75/95/91
f 75/95/91 58/96/92 70/97/93
f 75/95/91 57/98/94 68/93/89
f 57/98/94 76/99/95 71/100/96
f 58/96/92 76/99/95 70/97/93
f 76/99/95 54/101/78 62/102/79
f 76/99/95 53/103/75 71/100/96
f 55/104/82 77/105/97 61/106/77
f 59/92/88 77/105/97 65/107/84
f 68/93/89 71/108/96 77/105/97
f 61/106/77 71/108/96 53/109/75
f 60/90/86 78/110/98 69/94/90
f 56/111/85 78/110/98 66/112/99
f 63/113/80 72/114/100 78/110/98
f 69/94/90 72/114/100 58/96/92
f 53/79/75 62/83/79 73/80/76
f 54/82/78 63/84/80 73/80/76
f 63/84/80 56/89/85 64/85/81
f 61/81/77 73/80/76 64/85/81
f 55/86/82 64/85/81 74/87/83
f 56/89/85 66/115/99 74/87/83
f 74/87/83 66/115/99 60/90/86
f 74/87/83 67/91/87 59/92/88
f 67/91/87 75/95/91 68/93/89
f 67/91/87 60/90/86 69/94/90
f 75/95/91 69/94/90 58/96/92
f 75/95/91 70/97/93 57/98/94
f 57/98/94 70/97/93 76/99/95
f 58/96/92 72/116/100 76/99/95
f 76/99/95 72/116/100 54/101/78
f 76/99/95 62/102/79 53/103/75
f 55/104/82 65/107/84 77/105/97
f 59/92/88 68/93/89 77/105/97
f 68/93/89 57/98/94 71/108/96
f 61/106/77 77/105/97 71/108/96
f 60/90/86 66/112/99 78/110/98
f 56/111/85 63/113/80 78/110/98
f 63/113/80 54/117/78 72/114/100
f 69/94/90 78/110/98 72/114/100
f 80/118/101 81/119/102 79/120/103
f 82/121/104 83/122/105 81/119/102
f 84/123/106 85/124/107 83/122/105
f 86/125/108 87/126/109 85/124/107
f 88/127/110 89/128/111 87/126/109
f 90/129/112 91/130/113 89/128/111
f 92/131/114 93/132/115 91/130/113
f 94/133/116 95/134/117 93/132/115
f 96/135/118 88/136/110 84/137/106
f 96/138/118 97/139/119 95/134/117
f 98/140/120 79/141/103 97/139/119
f 85/142/107 93/143/115 97/144/119
f 80/118/101 82/121/104 81/119/102
f 82/121/104 84/123/106 83/122/105
f 84/123/106 86/125/108 85/124/107
f 86/125/108 88/127/110 87/126/109
f 88/127/110 90/129/112 89/128/111
f 90/129/112 92/131/114 91/130/113
f 92/131/114 94/133/116 93/132/115
f 94/133/116 96/138/118 95/134/117
f 84/137/106 82/145/104 80/146/101
f 80/146/101 98/147/120 96/135/118
f 96/135/118 94/148/116 92/149/114
f 92/149/114 90/150/112 88/136/110
f 88/136/110 86/151/108 84/137/106
f 84/137/106 80/146/101 96/135/118
f 96/135/118 92/149/114 88/136/110
f 96/138/118 98/140/120 97/139/119
f 98/140/120 80/152/101 79/141/103
f 97/144/119 79/153/103 81/154/102
f 81/154/102 83/155/105 97/144/119
f 83/155/105 85/142/107 97/144/119
f 85/142/107 87/156/109 89/157/111
f 89/157/111 91/158/113 93/143/115
f 93/143/115 95/159/117 97/144/119
f 85/142/107 89/157/111 93/143/115
