# Blender 4.1.1
# www.blender.org
mtllib TtianglePlayerRightArm.mtl
o 右腕
v -0.289634 -0.134064 -0.056430
v -0.172927 0.223004 -0.063144
v -0.289634 -0.134064 0.065758
v -0.195436 0.189253 0.055928
v -0.406483 -0.098340 -0.056430
v -0.303610 0.262958 -0.063144
v -0.386025 -0.071483 0.050037
v -0.302444 0.221969 0.055928
v -0.288574 -0.176387 0.004664
v -0.264476 0.036568 -0.030704
v -0.136621 0.289676 0.005183
v -0.267334 0.036734 0.034698
v -0.347800 -0.117560 0.060999
v -0.238217 0.240679 0.068141
v -0.328903 0.055558 0.034698
v -0.431029 -0.132834 0.004664
v -0.304796 0.310292 0.005183
v -0.331906 0.057183 -0.030704
v -0.359801 -0.154611 -0.069818
v -0.225135 0.285937 -0.078117
v -0.251759 0.032680 0.004551
v -0.298045 0.045407 0.040496
v -0.344623 0.061071 0.004551
v -0.298191 0.046875 -0.044003
v -0.372827 -0.207084 0.004664
v -0.154917 0.330243 0.005183
vn 0.6533 -0.2755 -0.7052
vn 0.9561 -0.2892 0.0478
vn 0.8851 -0.4599 0.0716
vn 0.6817 -0.1657 -0.7126
vn 0.6812 -0.2124 -0.7006
vn 0.5877 -0.1743 0.7901
vn 0.5832 -0.1684 0.7947
vn 0.5443 -0.2389 0.8042
vn -0.1196 -0.1047 0.9873
vn -0.0350 0.0102 0.9993
vn -0.5543 0.2172 0.8035
vn -0.5698 0.1648 0.8051
vn -0.5814 0.1292 0.8033
vn -0.9543 0.2838 0.0940
vn -0.9832 0.1116 0.1447
vn -0.6521 0.2803 -0.7044
vn -0.6772 0.2003 -0.7080
vn -0.6963 0.1353 -0.7049
vn -0.0016 -0.0053 -1.0000
vn -0.0527 -0.1684 -0.9843
vn -0.3449 -0.8961 0.2793
vn 0.0073 0.1264 0.9920
vn -0.8715 0.4662 0.1521
vn 0.9829 -0.1134 0.1452
vn 0.6453 0.6662 0.3738
vn 0.0185 0.1721 -0.9849
vt 0.606618 0.000094
vt 0.626891 0.226753
vt 0.485609 0.078880
vt 0.886016 0.186102
vt 0.691867 0.139371
vt 0.720468 0.412315
vt 0.562875 0.310242
vt 0.400560 0.195903
vt 0.366174 0.305553
vt 0.501650 0.397446
vt 0.585855 0.600926
vt 0.440016 0.484497
vt 0.317580 0.398919
vt 0.371591 0.574055
vt 0.238392 0.460039
vt 0.466704 0.818728
vt 0.294803 0.659305
vt 0.153355 0.534014
vt 0.219019 0.742211
vt 0.056254 0.632343
vt 0.218944 0.999906
vt 0.145161 0.818223
vt 0.000094 0.759484
vt 0.274744 0.300483
vt 0.092715 0.241728
vt 0.214092 0.193386
vt 0.168037 0.358608
vt 0.056790 0.448964
vt 0.000094 0.332404
vt 0.722931 0.603994
vt 0.541710 0.709155
vt 0.849068 0.827413
vt 0.780833 0.804449
vt 0.586508 0.940982
vt 0.862278 0.348816
vt 0.666464 0.514921
vt 0.360408 0.934026
vt 0.857339 0.662689
vt 0.762497 0.984834
s 1
usemtl マテリアル.008
f 1/1/1 21/2/2 9/3/3
f 2/4/4 21/2/2 10/5/5
f 21/2/2 4/6/6 12/7/7
f 21/2/2 3/8/8 9/3/3
f 12/7/7 13/9/9 3/8/8
f 4/6/6 22/10/10 12/7/7
f 22/10/10 8/11/11 15/12/12
f 22/10/10 7/13/13 13/9/9
f 7/13/13 23/14/14 16/15/15
f 8/11/11 23/14/14 15/12/12
f 23/14/14 6/16/16 18/17/17
f 23/14/14 5/18/18 16/15/15
f 5/18/18 24/19/19 19/20/20
f 6/16/16 24/19/19 18/17/17
f 24/19/19 2/21/4 10/22/5
f 24/19/19 1/23/1 19/20/20
f 13/24/9 9/25/3 3/26/8
f 13/24/9 16/15/15 25/27/21
f 16/15/15 19/28/20 25/27/21
f 9/25/3 19/28/20 1/29/1
f 14/30/22 17/31/23 8/11/11
f 14/30/22 11/32/24 26/33/25
f 11/32/24 20/34/26 26/33/25
f 17/31/23 20/34/26 6/16/16
f 1/1/1 10/5/5 21/2/2
f 2/4/4 11/35/24 21/2/2
f 21/2/2 11/35/24 4/6/6
f 21/2/2 12/7/7 3/8/8
f 12/7/7 22/10/10 13/9/9
f 4/6/6 14/36/22 22/10/10
f 22/10/10 14/36/22 8/11/11
f 22/10/10 15/12/12 7/13/13
f 7/13/13 15/12/12 23/14/14
f 8/11/11 17/31/23 23/14/14
f 23/14/14 17/31/23 6/16/16
f 23/14/14 18/17/17 5/18/18
f 5/18/18 18/17/17 24/19/19
f 6/16/16 20/37/26 24/19/19
f 24/19/19 20/37/26 2/21/4
f 24/19/19 10/22/5 1/23/1
f 13/24/9 25/27/21 9/25/3
f 13/24/9 7/13/13 16/15/15
f 16/15/15 5/18/18 19/28/20
f 9/25/3 25/27/21 19/28/20
f 14/30/22 26/33/25 17/31/23
f 14/30/22 4/38/6 11/32/24
f 11/32/24 2/39/4 20/34/26
f 17/31/23 26/33/25 20/34/26
