# Blender 4.1.1
# www.blender.org
mtllib player_Body.mtl
o 体
v -0.273718 -0.260666 0.153797
v -0.153797 0.246927 0.153797
v -0.273718 -0.244416 -0.102746
v -0.153797 0.253812 -0.117845
v 0.264736 -0.260666 0.153797
v 0.153797 0.246927 0.153797
v 0.264736 -0.244416 -0.102746
v 0.153797 0.253811 -0.117845
v -0.307420 -0.316282 0.000000
v -0.097300 -0.006869 0.187499
v -0.218352 0.320256 -0.000000
v -0.097300 -0.006869 -0.081288
v 0.000000 -0.213381 -0.170095
v 0.000000 0.288354 -0.139254
v 0.086124 -0.006869 -0.081288
v 0.298438 -0.316282 0.000000
v 0.204929 0.320256 -0.000000
v 0.086124 -0.006869 0.187499
v 0.000000 -0.316282 0.220879
v 0.000000 0.298723 0.152244
v -0.168028 -0.006869 0.000000
v 0.000000 -0.006869 -0.096678
v 0.156852 -0.006869 0.000000
v 0.000000 0.002656 0.218789
v 0.000000 -0.432997 0.000000
v 0.000000 0.405335 -0.000000
vn -0.7743 -0.1119 0.6228
vn -0.9817 0.1698 -0.0861
vn -0.9546 -0.2365 -0.1814
vn -0.6588 0.2437 0.7118
vn -0.5146 0.1134 0.8499
vn -0.5405 0.1579 -0.8264
vn -0.4887 0.1000 -0.8667
vn -0.6293 -0.0213 -0.7768
vn 0.0052 -0.1241 -0.9923
vn 0.0050 0.0704 -0.9975
vn 0.5717 0.1478 -0.8071
vn 0.4978 0.0983 -0.8617
vn 0.6330 -0.0196 -0.7739
vn 0.9832 0.1634 -0.0815
vn 0.9554 -0.2332 -0.1811
vn 0.6854 0.2292 0.6912
vn 0.5201 0.1130 0.8466
vn 0.7778 -0.1086 0.6190
vn 0.0064 -0.3853 0.9228
vn 0.0045 0.0953 0.9954
vn 0.0045 -0.9737 -0.2278
vn 0.0062 0.9985 -0.0549
vn 0.9344 0.3467 -0.0818
vn 0.0053 0.2856 -0.9583
vn -0.9359 0.3421 -0.0838
vn 0.0055 0.5078 0.8614
vt 0.966529 0.814867
vt 0.764524 0.783576
vt 0.947453 0.708847
vt 0.743272 0.969600
vt 0.851591 0.932996
vt 0.596166 0.825230
vt 0.689451 0.706358
vt 0.887467 0.656225
vt 0.701711 0.547691
vt 0.618037 0.639279
vt 0.436945 0.683118
vt 0.553100 0.583390
vt 0.580712 0.382679
vt 0.470990 0.517173
vt 0.521593 0.351182
vt 0.298238 0.579548
vt 0.299789 0.447345
vt 0.433952 0.320425
vt 0.243295 0.296522
vt 0.228214 0.434046
vt 0.093375 0.520473
vt 0.156552 0.420958
vt 0.041995 0.298466
vt 0.723442 0.094435
vt 0.584636 0.208753
vt 0.668025 0.048230
vt 0.694584 0.263184
vt 0.463412 0.153603
vt 0.572458 0.018690
vt 0.313584 0.722215
vt 0.375454 0.635979
vt 0.324718 0.850925
vt 0.391056 0.773962
vt 0.234436 0.832075
vt 0.236953 0.660669
vt 0.640568 0.911236
vt 0.513736 0.756546
vt 0.194375 0.565584
vt 0.170765 0.738074
s 1
usemtl マテリアル.006
f 1/1/1 21/2/2 9/3/3
f 2/4/4 21/2/2 10/5/5
f 21/2/2 4/6/6 12/7/7
f 21/2/2 3/8/8 9/3/3
f 12/7/7 13/9/9 3/8/8
f 4/6/6 22/10/10 12/7/7
f 22/10/10 8/11/11 15/12/12
f 13/9/9 15/12/12 7/13/13
f 7/13/13 23/14/14 16/15/15
f 8/11/11 23/14/14 15/12/12
f 23/14/14 6/16/16 18/17/17
f 23/14/14 5/18/18 16/15/15
f 18/17/17 19/19/19 5/18/18
f 6/16/16 24/20/20 18/17/17
f 24/20/20 2/21/4 10/22/5
f 19/19/19 10/22/5 1/23/1
f 3/24/8 25/25/21 9/26/3
f 7/13/13 25/25/21 13/27/9
f 25/25/21 5/18/18 19/28/19
f 25/25/21 1/29/1 9/26/3
f 8/11/11 26/30/22 17/31/23
f 4/32/6 26/30/22 14/33/24
f 11/34/25 20/35/26 26/30/22
f 17/31/23 20/35/26 6/16/16
f 1/1/1 10/5/5 21/2/2
f 2/4/4 11/36/25 21/2/2
f 21/2/2 11/36/25 4/6/6
f 21/2/2 12/7/7 3/8/8
f 12/7/7 22/10/10 13/9/9
f 4/6/6 14/37/24 22/10/10
f 22/10/10 14/37/24 8/11/11
f 13/9/9 22/10/10 15/12/12
f 7/13/13 15/12/12 23/14/14
f 8/11/11 17/31/23 23/14/14
f 23/14/14 17/31/23 6/16/16
f 23/14/14 18/17/17 5/18/18
f 18/17/17 24/20/20 19/19/19
f 6/16/16 20/38/26 24/20/20
f 24/20/20 20/38/26 2/21/4
f 19/19/19 24/20/20 10/22/5
f 3/24/8 13/27/9 25/25/21
f 7/13/13 16/15/15 25/25/21
f 25/25/21 16/15/15 5/18/18
f 25/25/21 19/28/19 1/29/1
f 8/11/11 14/33/24 26/30/22
f 4/32/6 11/34/25 26/30/22
f 11/34/25 2/39/4 20/35/26
f 17/31/23 26/30/22 20/35/26
