# Blender 4.1.1
# www.blender.org
mtllib playerHead.mtl
o 帽子.001
v 0.006418 1.070915 -0.333412
v -0.238437 1.070915 -0.231990
v -0.339860 1.070915 0.012865
v -0.238437 1.070915 0.257720
v 0.006418 1.070915 0.359143
v 0.251273 1.070915 0.257720
v 0.352695 1.070915 0.012865
v 0.251273 1.070915 -0.231990
v -0.133988 2.054473 -0.153974
v -0.133988 2.054473 -0.153974
v -0.133988 2.054473 -0.153974
v -0.133988 2.054473 -0.153974
v -0.133988 2.054473 -0.153974
v -0.133988 2.054473 -0.153974
v -0.133988 2.054473 -0.153974
v -0.133988 2.054473 -0.153974
v -0.133988 2.054473 -0.153974
v -0.192944 1.515820 -0.021104
v -0.142233 1.515820 0.101324
v -0.019805 1.515820 -0.194242
v -0.142233 1.515820 -0.143531
v 0.102623 1.515820 -0.143531
v 0.102623 1.515820 0.101324
v 0.153334 1.515820 -0.021104
v -0.019805 1.515820 0.152035
v -0.169594 1.249666 0.183024
v -0.169594 1.249666 -0.184259
v 0.273755 1.249666 -0.000617
v 0.014047 1.249666 0.259091
v -0.245661 1.249666 -0.000617
v 0.014047 1.249666 -0.260325
v 0.197688 1.249666 -0.184259
v 0.197688 1.249666 0.183024
v -0.151397 1.776730 -0.068568
v -0.064827 1.776730 -0.155138
v -0.003614 1.776730 -0.129782
v -0.003614 1.776730 -0.007354
v -0.126041 1.776730 -0.007354
v -0.126041 1.776730 -0.129782
v 0.021742 1.776730 -0.068568
v -0.064827 1.776730 0.018001
v 0.004548 0.981211 -0.563759
v -0.406270 0.981211 -0.393593
v -0.576436 0.981211 0.017225
v -0.406270 0.981211 0.428042
v 0.004548 0.981211 0.598208
v 0.415365 0.981211 0.428042
v 0.585532 0.981211 0.017225
v 0.415365 0.981211 -0.393593
v 0.007228 0.878682 -0.769361
v -0.577212 0.878682 -0.527278
v -0.819295 0.878682 0.057162
v -0.577212 0.878682 0.641602
v 0.007228 0.878682 0.883685
v 0.591668 0.878682 0.641602
v 0.833751 0.878682 0.057162
v 0.591668 0.878682 -0.527278
v -0.243958 1.074468 -0.237336
v 0.006351 1.074121 -0.341248
v -0.347346 1.074868 0.012969
v -0.243622 1.075096 0.262948
v 0.006361 1.075052 0.366530
v 0.256525 1.074754 0.263139
v 0.360436 1.074342 0.012979
v 0.256856 1.074065 -0.237521
v -0.174832 1.253846 0.188199
v -0.174916 1.253199 -0.189816
v 0.281503 1.253076 -0.000769
v 0.014128 1.253798 0.266480
v -0.253155 1.253604 -0.000763
v 0.014134 1.252867 -0.268163
v 0.203212 1.252815 -0.189849
v 0.203146 1.253486 0.188250
vn 0.9100 -0.1729 -0.3769
vn 0.3811 0.0910 0.9200
vn -0.3808 -0.0987 0.9194
vn -0.7797 -0.5365 -0.3230
vn 0.3454 -0.4304 -0.8340
vn 0.9222 0.0597 0.3820
vn -0.8577 -0.3717 0.3553
vn -0.3183 -0.5551 -0.7685
vn -0.0000 -0.0000 -1.0000
vn -0.3528 -0.3875 -0.8517
vn -0.8612 -0.3622 0.3567
vn 0.9132 -0.1518 0.3783
vn 0.3642 -0.3073 -0.8792
vn -0.8433 -0.4084 -0.3493
vn -0.3687 -0.2679 0.8901
vn 0.3766 -0.1778 0.9092
vn 0.9037 -0.2078 -0.3743
vn -0.3844 0.9094 0.1586
vn -0.4223 0.8892 -0.1759
vn -0.1907 0.8661 -0.4621
vn 0.1991 0.8541 -0.4804
vn -0.3366 -0.4756 -0.8127
vn -0.8589 -0.3685 0.3558
vn 0.9211 -0.0773 0.3815
vn 0.3543 -0.3782 -0.8552
vn -0.8144 -0.4721 -0.3373
vn -0.3749 -0.2004 0.9051
vn 0.3817 -0.0722 0.9215
vn 0.9029 -0.2118 -0.3740
vn -0.1491 -0.9210 0.3599
vn -0.3533 -0.9240 -0.1463
vn 0.1436 -0.9269 -0.3467
vn 0.3531 -0.9241 0.1463
vn -0.3580 -0.9219 0.1483
vn -0.1444 -0.9261 -0.3486
vn 0.3485 -0.9261 -0.1444
vn 0.1482 -0.9219 0.3578
vn -0.3991 -0.9019 0.1653
vn -0.1382 -0.9325 -0.3336
vn 0.3634 -0.9194 -0.1505
vn 0.1825 -0.8789 0.4407
vn -0.1810 -0.8811 0.4370
vn -0.3571 -0.9223 -0.1479
vn 0.1391 -0.9316 -0.3359
vn 0.4068 -0.8979 0.1685
vn -0.4348 -0.8825 -0.1791
vn -0.1999 -0.8529 0.4823
vn 0.4202 -0.8904 0.1751
vn 0.1529 -0.9165 -0.3695
vn 0.8211 -0.4585 -0.3400
vn 0.3560 -0.3665 0.8596
vn -0.3599 -0.3397 0.8689
vn -0.8466 -0.4003 -0.3506
vn 0.3376 -0.4708 -0.8151
vn 0.8399 -0.4164 0.3480
vn -0.8639 -0.3544 0.3579
vn -0.3422 -0.4479 -0.8260
vn 0.3819 -0.9107 -0.1575
vn -0.1539 0.9155 0.3718
vn 0.1906 -0.8660 0.4622
vn 0.1641 0.9043 0.3941
vn -0.4711 -0.8601 0.1958
vn 0.4363 0.8816 0.1798
vn -0.1630 -0.9056 -0.3915
vn 0.4703 0.8606 -0.1954
vt 0.719823 0.577326
vt 0.719855 0.577170
vt 0.720017 0.577155
vt 0.720019 0.577145
vt 0.719943 0.577027
vt 0.720107 0.577085
vt 0.719983 0.577141
vt 0.720000 0.577160
vt 0.720237 0.577186
vt 0.719970 0.577119
vt 0.720271 0.577355
vt 0.720123 0.577453
vt 0.719980 0.577105
vt 0.719974 0.577107
vt 0.719928 0.577475
vt 0.720000 0.577125
vt 0.719992 0.577133
vt 0.726401 0.593189
vt 0.714108 0.592817
vt 0.718591 0.581236
vt 0.721556 0.581317
vt 0.735661 0.572678
vt 0.735431 0.584892
vt 0.723828 0.579376
vt 0.723809 0.576363
vt 0.706263 0.571817
vt 0.715040 0.563513
vt 0.718760 0.574091
vt 0.716754 0.576182
vt 0.705889 0.583839
vt 0.716651 0.579028
vt 0.727122 0.563988
vt 0.721686 0.574278
vt 0.753401 0.566275
vt 0.753026 0.593451
vt 0.751537 0.592755
vt 0.752153 0.566715
vt 0.733056 0.611793
vt 0.732465 0.610514
vt 0.705871 0.610757
vt 0.706370 0.609617
vt 0.687223 0.590947
vt 0.688613 0.590532
vt 0.734620 0.546952
vt 0.745384 0.522621
vt 0.778591 0.556492
vt 0.778470 0.605044
vt 0.742499 0.637933
vt 0.694344 0.635996
vt 0.661236 0.601063
vt 0.707688 0.545851
vt 0.687645 0.564001
vt 0.661943 0.552541
vt 0.698108 0.520521
vt 0.804664 0.549273
vt 0.805537 0.621783
vt 0.751046 0.669964
vt 0.680779 0.666630
vt 0.632140 0.616030
vt 0.632140 0.543630
vt 0.686731 0.496542
vt 0.755857 0.499889
vt 0.704954 0.571217
vt 0.714567 0.562347
vt 0.713606 0.593974
vt 0.704685 0.584218
vt 0.736614 0.585449
vt 0.726958 0.594402
vt 0.727617 0.562863
vt 0.736947 0.572236
vt 0.689102 0.564637
vt 0.708220 0.547124
vt 0.734063 0.548138
s 0
usemtl マテリアル.004
f 38/1/1 34/2/1 11/3/1 12/4/1
f 39/5/2 35/6/2 9/7/2 10/8/2
f 35/6/3 36/9/3 16/10/3 9/7/3
f 40/11/4 37/12/4 14/13/4 15/14/4
f 41/15/5 38/1/5 12/4/5 13/16/5
f 34/2/6 39/5/6 10/8/6 11/3/6
f 36/9/7 40/11/7 15/14/7 16/10/7
f 37/12/8 41/15/8 13/16/8 14/13/8
f 16/10/9 15/14/9 17/17/9 9/7/9
f 15/14/9 14/13/9 13/16/9 17/17/9
f 9/7/9 17/17/9 11/3/9 10/8/9
f 17/17/9 13/16/9 12/4/9 11/3/9
f 33/18/10 29/19/10 25/20/10 23/21/10
f 32/22/11 28/23/11 24/24/11 22/25/11
f 30/26/12 27/27/12 21/28/12 18/29/12
f 29/19/13 26/30/13 19/31/13 25/20/13
f 28/23/14 33/18/14 23/21/14 24/24/14
f 31/32/15 32/22/15 22/25/15 20/33/15
f 27/27/16 31/32/16 20/33/16 21/28/16
f 26/30/17 30/26/17 18/29/17 19/31/17
f 8/34/18 7/35/18 64/36/18 65/37/18
f 7/35/19 6/38/19 63/39/19 64/36/19
f 6/38/20 5/40/20 62/41/20 63/39/20
f 5/40/21 4/42/21 61/43/21 62/41/21
f 23/21/22 25/20/22 41/15/22 37/12/22
f 22/25/23 24/24/23 40/11/23 36/9/23
f 18/29/24 21/28/24 39/5/24 34/2/24
f 25/20/25 19/31/25 38/1/25 41/15/25
f 24/24/26 23/21/26 37/12/26 40/11/26
f 20/33/27 22/25/27 36/9/27 35/6/27
f 21/28/28 20/33/28 35/6/28 39/5/28
f 19/31/29 18/29/29 34/2/29 38/1/29
f 8/34/30 1/44/30 42/45/30 49/46/30
f 6/38/31 7/35/31 48/47/31 47/48/31
f 4/42/32 5/40/32 46/49/32 45/50/32
f 2/51/33 3/52/33 44/53/33 43/54/33
f 7/35/34 8/34/34 49/46/34 48/47/34
f 5/40/35 6/38/35 47/48/35 46/49/35
f 3/52/36 4/42/36 45/50/36 44/53/36
f 1/44/37 2/51/37 43/54/37 42/45/37
f 48/47/38 49/46/38 57/55/38 56/56/38
f 46/49/39 47/48/39 55/57/39 54/58/39
f 44/53/40 45/50/40 53/59/40 52/60/40
f 42/45/41 43/54/41 51/61/41 50/62/41
f 49/46/42 42/45/42 50/62/42 57/55/42
f 47/48/43 48/47/43 56/56/43 55/57/43
f 45/50/44 46/49/44 54/58/44 53/59/44
f 43/54/45 44/53/45 52/60/45 51/61/45
usemtl マテリアル.005
f 27/27/46 30/26/46 70/63/46 67/64/46
f 26/30/47 29/19/47 69/65/47 66/66/47
f 33/18/48 28/23/48 68/67/48 73/68/48
f 32/22/49 31/32/49 71/69/49 72/70/49
f 61/43/50 60/71/50 70/63/50 66/66/50
f 58/72/51 59/73/51 71/69/51 67/64/51
f 59/73/52 65/37/52 72/70/52 71/69/52
f 64/36/53 63/39/53 73/68/53 68/67/53
f 62/41/54 61/43/54 66/66/54 69/65/54
f 60/71/55 58/72/55 67/64/55 70/63/55
f 65/37/56 64/36/56 68/67/56 72/70/56
f 63/39/57 62/41/57 69/65/57 73/68/57
f 28/23/58 32/22/58 72/70/58 68/67/58
f 1/44/59 8/34/59 65/37/59 59/73/59
f 29/19/60 33/18/60 73/68/60 69/65/60
f 2/51/61 1/44/61 59/73/61 58/72/61
f 30/26/62 26/30/62 66/66/62 70/63/62
f 3/52/63 2/51/63 58/72/63 60/71/63
f 31/32/64 27/27/64 67/64/64 71/69/64
f 4/42/65 3/52/65 60/71/65 61/43/65
o feice
v 0.000000 1.117246 -0.301618
v 0.000000 0.517656 -0.271463
v 0.000000 0.464929 -0.213287
v 0.044023 1.233279 -0.060592
v 0.086354 1.209152 -0.118856
v 0.125367 1.169973 -0.172553
v 0.159562 1.117246 -0.219618
v 0.187625 1.052998 -0.258243
v 0.208478 0.979699 -0.286945
v 0.221319 0.900164 -0.304619
v 0.225654 0.817451 -0.310587
v 0.221319 0.734737 -0.304619
v 0.208478 0.655203 -0.286945
v 0.187625 0.580226 -0.258243
v 0.159562 0.517656 -0.219618
v 0.125367 0.464929 -0.172553
v 0.086354 0.425749 -0.118856
v 0.071231 1.233279 -0.023144
v 0.139724 1.209152 -0.045399
v 0.202848 1.169973 -0.065909
v 0.263582 1.128452 -0.083887
v 0.308989 1.064204 -0.098640
v 0.342729 0.990905 -0.109603
v 0.358101 0.900164 -0.116354
v 0.365117 0.817451 -0.118634
v 0.358101 0.732639 -0.045916
v 0.310675 0.655445 -0.043252
v 0.276203 0.585848 -0.038926
v 0.244670 0.500952 -0.083887
v 0.202848 0.464929 -0.065909
v 0.139724 0.425749 -0.045399
v -0.000000 0.399419 -0.039877
v 0.071231 1.233279 0.023144
v 0.139724 1.209152 0.045399
v 0.202848 1.169973 0.065909
v 0.263582 1.128452 0.083887
v 0.308989 1.064204 0.098640
v 0.342729 0.990905 0.109603
v 0.358101 0.900164 0.116354
v 0.365117 0.817451 0.118634
v 0.358101 0.732639 0.045916
v 0.310675 0.655445 0.043252
v 0.276203 0.585848 0.038926
v 0.244670 0.500952 0.083887
v 0.202848 0.464929 0.065909
v 0.139724 0.425749 0.045399
v -0.023439 0.399419 -0.032261
v 0.044023 1.233279 0.060592
v 0.086354 1.209152 0.118856
v 0.125367 1.169973 0.172553
v 0.159562 1.117246 0.219618
v 0.187625 1.052998 0.258243
v 0.208478 0.979699 0.286945
v 0.221319 0.900164 0.304619
v 0.225655 0.817451 0.290552
v 0.221319 0.734737 0.284584
v 0.208478 0.655203 0.251492
v 0.187625 0.581903 0.258243
v 0.159562 0.517656 0.219618
v 0.125367 0.464929 0.172553
v 0.086354 0.425749 0.118856
v 0.023439 0.399419 0.032261
v 0.000000 1.233279 0.074896
v 0.000000 1.209152 0.146915
v 0.000000 1.169973 0.213287
v 0.000000 1.117246 0.271463
v 0.000000 1.052998 0.319206
v 0.000000 0.979699 0.347468
v 0.000000 0.900164 0.362555
v 0.000000 0.817451 0.338794
v 0.000000 0.734737 0.307526
v 0.000000 0.655203 0.267399
v 0.000000 0.599145 0.333767
v 0.000000 0.517656 0.310638
v 0.000000 0.464929 0.276946
v 0.000000 0.425749 0.146915
v 0.037926 0.399419 0.012323
v 0.000000 1.241425 0.000000
v -0.044023 1.233279 0.060592
v -0.086354 1.209152 0.118856
v -0.125367 1.169973 0.172553
v -0.159562 1.117246 0.219618
v -0.187625 1.052998 0.258243
v -0.208478 0.979699 0.286945
v -0.221319 0.900164 0.304619
v -0.225654 0.817451 0.290552
v -0.221319 0.734737 0.284584
v -0.208478 0.655203 0.251492
v -0.187625 0.581903 0.258243
v -0.159562 0.517656 0.219618
v -0.125367 0.464929 0.172553
v -0.086354 0.425749 0.118856
v 0.037926 0.399419 -0.012323
v -0.037926 0.399419 -0.012323
v -0.071231 1.233279 0.023144
v -0.139724 1.209152 0.045399
v -0.202848 1.169973 0.065909
v -0.269335 1.129122 0.083887
v -0.314742 1.064874 0.098640
v -0.348482 0.991575 0.109603
v -0.369259 0.912040 0.116354
v -0.365117 0.817451 0.118634
v -0.358101 0.734525 0.045916
v -0.312503 0.655203 0.043252
v -0.285383 0.590890 0.038926
v -0.247863 0.503272 0.083887
v -0.226137 0.470566 0.065909
v -0.139724 0.425749 0.045399
v 0.023439 0.399419 -0.032261
v -0.071231 1.233279 -0.023144
v -0.139724 1.209152 -0.045399
v -0.202848 1.169973 -0.065909
v -0.269335 1.129122 -0.083887
v -0.314742 1.064874 -0.098640
v -0.348482 0.991575 -0.109603
v -0.369259 0.912040 -0.116354
v -0.365117 0.817451 -0.118634
v -0.358101 0.734525 -0.045916
v -0.312503 0.655203 -0.043252
v -0.285383 0.590890 -0.038926
v -0.247863 0.503272 -0.083887
v -0.226137 0.470566 -0.065909
v -0.139724 0.425749 -0.045399
v -0.037926 0.399419 0.012323
v -0.044023 1.233279 -0.060592
v -0.086354 1.209152 -0.118856
v -0.125367 1.169973 -0.172553
v -0.159562 1.117246 -0.219618
v -0.187625 1.052998 -0.258243
v -0.208478 0.979699 -0.286945
v -0.221319 0.900164 -0.304619
v -0.225655 0.817451 -0.310587
v -0.221319 0.734737 -0.304619
v -0.208478 0.655203 -0.286945
v -0.187625 0.580227 -0.258243
v -0.159562 0.517656 -0.219618
v -0.125367 0.464929 -0.172553
v -0.086354 0.425749 -0.118856
v -0.023439 0.399419 0.032261
v -0.000000 1.233279 -0.074896
v -0.000000 1.209152 -0.146915
v -0.000000 1.169973 -0.243443
v -0.000000 1.052998 -0.349362
v -0.000000 0.979699 -0.384839
v -0.000000 0.900164 -0.406685
v -0.000000 0.817451 -0.397801
v -0.000000 0.734737 -0.376530
v -0.000000 0.655203 -0.354683
v -0.000000 0.581903 -0.319206
v -0.000000 0.425749 -0.146915
v 0.000000 0.399419 0.039877
v -0.000000 0.354053 -0.039877
v -0.023439 0.354053 -0.032261
v 0.023439 0.354053 0.032261
v 0.037926 0.354053 0.012323
v 0.037926 0.354053 -0.012323
v -0.037926 0.354053 -0.012323
v 0.023439 0.354053 -0.032261
v -0.037926 0.354053 0.012323
v -0.023439 0.354053 0.032261
v 0.000000 0.354053 0.039877
v 0.374318 0.685477 -0.045916
v 0.360131 0.634005 -0.043252
v 0.315827 0.572159 -0.038926
v 0.374318 0.685477 0.045916
v 0.360131 0.634005 0.043252
v 0.315827 0.572159 0.038926
v -0.386678 0.678668 0.045916
v -0.372160 0.627420 0.043252
v -0.320271 0.584989 0.038926
v -0.386678 0.678668 -0.045916
v -0.372160 0.627420 -0.043252
v -0.320271 0.584989 -0.038926
v 0.225654 0.387060 -0.310587
v 0.365117 0.571971 -0.118634
v -0.365117 0.571971 -0.118634
v -0.225655 0.387060 -0.310587
v -0.000000 0.387060 -0.397801
vn -0.0000 0.6758 -0.7371
vn -0.0000 -0.6637 -0.7480
vn -0.0000 -0.7948 -0.6069
vn 0.1381 0.9720 -0.1901
vn 0.2629 0.9094 -0.3224
vn 0.3702 0.8130 -0.4495
vn 0.4681 0.6609 -0.5866
vn 0.5388 0.4982 -0.6793
vn 0.5925 0.3266 -0.7364
vn 0.6196 0.1379 -0.7728
vn 0.6233 -0.2025 -0.7553
vn 0.6088 -0.2859 -0.7400
vn 0.6110 -0.3864 -0.6910
vn 0.6011 -0.4645 -0.6503
vn 0.5149 -0.6030 -0.6094
vn 0.3463 -0.8001 -0.4898
vn 0.2372 -0.9149 -0.3265
vn 0.2234 0.9720 -0.0726
vn 0.4121 0.9013 -0.1339
vn 0.5163 0.8355 -0.1879
vn 0.6703 0.7006 -0.2449
vn 0.8091 0.5130 -0.2867
vn 0.8998 0.3140 -0.3028
vn 0.9398 0.1431 -0.3103
vn 0.9641 -0.0996 -0.2463
vn 0.9415 -0.0803 -0.3274
vn 0.5028 -0.2626 -0.8236
vn 0.6811 -0.5852 -0.4400
vn 0.7885 -0.5532 -0.2688
vn 0.5569 -0.8104 -0.1822
vn 0.3838 -0.9149 -0.1247
vn -0.0000 -0.6566 -0.7542
vn 0.2234 0.9720 0.0726
vn 0.4121 0.9013 0.1339
vn 0.5163 0.8355 0.1879
vn 0.6703 0.7006 0.2449
vn 0.8091 0.5130 0.2867
vn 0.8998 0.3140 0.3028
vn 0.9401 0.1237 0.3178
vn 0.9267 -0.0976 0.3630
vn 0.9355 -0.0899 0.3416
vn 0.4905 -0.2509 0.8346
vn 0.6901 -0.5632 0.4545
vn 0.7890 -0.5520 0.2696
vn 0.5569 -0.8104 0.1822
vn 0.3838 -0.9149 0.1247
vn -0.4433 -0.6566 -0.6102
vn 0.1381 0.9720 0.1901
vn 0.2547 0.9013 0.3505
vn 0.3346 0.8059 0.4884
vn 0.4155 0.6681 0.6173
vn 0.4872 0.4955 0.7191
vn 0.5342 0.3135 0.7851
vn 0.5412 0.0524 0.8393
vn 0.5448 -0.1882 0.8172
vn 0.4925 -0.3651 0.7900
vn 0.6218 -0.2687 0.7357
vn 0.6338 -0.1297 0.7626
vn 0.5930 -0.5277 0.6082
vn 0.4133 -0.7988 0.4372
vn 0.2514 -0.9276 0.2762
vn 0.4433 -0.6566 0.6102
vn -0.0000 0.9720 0.2349
vn -0.0000 0.9013 0.4333
vn -0.0000 0.7948 0.6069
vn -0.0000 0.6612 0.7502
vn -0.0000 0.4887 0.8724
vn -0.0000 0.3056 0.9522
vn -0.0000 0.0036 1.0000
vn -0.0000 -0.2202 0.9755
vn -0.0000 -0.3222 0.9467
vn -0.0000 0.0204 0.9998
vn -0.0000 0.0051 1.0000
vn -0.0000 -0.5641 0.8257
vn -0.0000 -0.7950 0.6066
vn -0.0000 -0.9518 0.3068
vn 0.7173 -0.6566 0.2331
vn -0.0000 1.0000 -0.0000
vn -0.1381 0.9720 0.1901
vn -0.2547 0.9013 0.3505
vn -0.3282 0.8090 0.4876
vn -0.4064 0.6704 0.6208
vn -0.4792 0.4942 0.7254
vn -0.5196 0.3231 0.7910
vn -0.5301 0.0477 0.8466
vn -0.5388 -0.2036 0.8175
vn -0.4935 -0.3631 0.7903
vn -0.6222 -0.2531 0.7408
vn -0.6280 -0.1258 0.7679
vn -0.5868 -0.5232 0.6180
vn -0.4109 -0.7931 0.4495
vn -0.2412 -0.9304 0.2759
vn 0.7173 -0.6566 -0.2331
vn -0.7173 -0.6566 -0.2331
vn -0.2234 0.9720 0.0726
vn -0.4121 0.9013 0.1339
vn -0.4975 0.8466 0.1890
vn -0.6571 0.7113 0.2496
vn -0.8051 0.5140 0.2960
vn -0.8827 0.3485 0.3152
vn -0.9394 0.1101 0.3248
vn -0.9178 -0.1462 0.3691
vn -0.9289 -0.0573 0.3658
vn -0.4956 -0.2415 0.8343
vn -0.6994 -0.5672 0.4349
vn -0.8060 -0.5128 0.2955
vn -0.6284 -0.7556 0.1848
vn -0.3516 -0.9273 0.1285
vn 0.4433 -0.6566 -0.6102
vn -0.2234 0.9720 -0.0726
vn -0.4121 0.9013 -0.1339
vn -0.4975 0.8466 -0.1890
vn -0.6571 0.7113 -0.2496
vn -0.8051 0.5140 -0.2960
vn -0.8827 0.3485 -0.3152
vn -0.9393 0.1277 -0.3184
vn -0.9520 -0.1645 -0.2579
vn -0.9351 -0.0477 -0.3512
vn -0.5078 -0.2558 -0.8226
vn -0.6896 -0.5905 -0.4193
vn -0.8056 -0.5140 -0.2947
vn -0.6284 -0.7556 -0.1848
vn -0.3516 -0.9273 -0.1285
vn -0.7173 -0.6566 0.2331
vn -0.1381 0.9720 -0.1901
vn -0.2629 0.9094 -0.3224
vn -0.3638 0.8162 -0.4488
vn -0.4593 0.6636 -0.5905
vn -0.5311 0.4973 -0.6860
vn -0.5785 0.3363 -0.7431
vn -0.6095 0.1309 -0.7819
vn -0.6119 -0.2317 -0.7563
vn -0.6096 -0.2835 -0.7403
vn -0.6124 -0.3764 -0.6951
vn -0.5971 -0.4596 -0.6575
vn -0.5090 -0.5977 -0.6194
vn -0.3436 -0.7938 -0.5018
vn -0.2270 -0.9177 -0.3262
vn -0.4433 -0.6566 0.6102
vn -0.0000 0.9720 -0.2349
vn -0.0000 0.9250 -0.3800
vn -0.0000 0.8202 -0.5721
vn -0.0000 0.5226 -0.8526
vn -0.0000 0.3552 -0.9348
vn -0.0000 0.1310 -0.9914
vn -0.0000 -0.1757 -0.9844
vn -0.0000 -0.2160 -0.9764
vn -0.0000 -0.3429 -0.9394
vn -0.0000 -0.5086 -0.8610
vn -0.0000 -0.9149 -0.4036
vn -0.0000 -0.6566 0.7542
vn -0.0000 -0.0000 -1.0000
vn -0.5878 -0.0000 -0.8090
vn 0.5878 -0.0000 0.8090
vn 0.9511 -0.0000 0.3090
vn 0.9511 -0.0000 -0.3090
vn -0.9511 -0.0000 -0.3090
vn 0.5878 -0.0000 -0.8090
vn -0.9511 -0.0000 0.3090
vn -0.5878 -0.0000 0.8090
vn -0.0000 -0.0000 1.0000
vn 0.7542 0.0097 -0.6566
vn 0.6534 -0.3393 -0.6767
vn 0.2437 -0.7525 -0.6118
vn 0.7542 0.0097 0.6566
vn 0.6534 -0.3393 0.6767
vn 0.2437 -0.7525 0.6118
vn -0.7630 0.0621 0.6434
vn -0.6222 -0.4288 0.6550
vn -0.1859 -0.7476 0.6376
vn -0.7630 0.0621 -0.6434
vn -0.6222 -0.4288 -0.6550
vn -0.1859 -0.7476 -0.6376
vn -0.5514 -0.0000 0.8342
vn -0.8090 -0.0000 0.5878
vn 0.8090 -0.0000 0.5878
vn 0.5514 -0.0000 0.8342
vt 0.312138 0.334585
vt 0.314679 0.297889
vt 0.384912 0.337376
vt 0.359347 0.357200
vt 0.307092 0.836451
vt 0.307282 0.786478
vt 0.404956 0.729624
vt 0.444590 0.760342
vt 0.310722 0.363685
vt 0.338827 0.375315
vt 0.306860 0.899918
vt 0.499484 0.800509
vt 0.306400 0.999872
vt 0.580212 0.849435
vt 0.307718 0.654497
vt 0.307728 0.634644
vt 0.319781 0.649802
vt 0.326499 0.109977
vt 0.334011 0.000128
vt 0.631884 0.200275
vt 0.536499 0.249871
vt 0.307671 0.677239
vt 0.333837 0.665988
vt 0.319099 0.193280
vt 0.467546 0.281661
vt 0.307549 0.713556
vt 0.351648 0.684044
vt 0.316550 0.252176
vt 0.420378 0.313148
vt 0.307429 0.746358
vt 0.375324 0.704859
vt 0.367526 0.643366
vt 0.390876 0.640870
vt 0.419274 0.427855
vt 0.392534 0.400344
vt 0.420233 0.636349
vt 0.373476 0.400940
vt 0.457814 0.625853
vt 0.350511 0.401017
vt 0.520988 0.598132
vt 0.595185 0.539905
vt 0.325851 0.639190
vt 0.480257 0.482750
vt 0.345662 0.642555
vt 0.452251 0.437470
vt 0.400173 0.547220
vt 0.404325 0.526019
vt 0.324384 0.627990
vt 0.427115 0.497856
vt 0.340034 0.620035
vt 0.400657 0.452612
vt 0.425483 0.443664
vt 0.412404 0.455986
vt 0.354985 0.610313
vt 0.439856 0.456537
vt 0.368822 0.599363
vt 0.370269 0.447013
vt 0.381325 0.585396
vt 0.359507 0.436496
vt 0.392142 0.568863
vt 0.344319 0.425018
vt 0.343186 0.482398
vt 0.339490 0.467821
vt 0.337879 0.579555
vt 0.342271 0.565914
vt 0.334778 0.453186
vt 0.345475 0.552172
vt 0.328317 0.438835
vt 0.347318 0.538366
vt 0.348364 0.524453
vt 0.317409 0.620251
vt 0.348191 0.510317
vt 0.325477 0.606447
vt 0.406980 0.474896
vt 0.347692 0.494847
vt 0.332183 0.592889
vt 0.308363 0.524714
vt 0.308572 0.510794
vt 0.307826 0.617409
vt 0.307815 0.601948
vt 0.308823 0.496985
vt 0.307824 0.587725
vt 0.309087 0.483515
vt 0.307888 0.574385
vt 0.309257 0.473709
vt 0.308039 0.561594
vt 0.309435 0.464871
vt 0.308104 0.549548
vt 0.309889 0.442614
vt 0.308208 0.537299
vt 0.316135 0.416525
vt 0.320005 0.411789
vt 0.279126 0.466745
vt 0.284396 0.452285
vt 0.273426 0.565460
vt 0.270347 0.551565
vt 0.291638 0.438228
vt 0.268539 0.537442
vt 0.317078 0.399488
vt 0.310321 0.397020
vt 0.268257 0.523309
vt 0.298109 0.619979
vt 0.268761 0.509268
vt 0.290060 0.606085
vt 0.269819 0.493811
vt 0.283420 0.592529
vt 0.274851 0.481222
vt 0.277774 0.579147
vt 0.290962 0.627787
vt 0.275322 0.619619
vt 0.188292 0.491663
vt 0.209510 0.470774
vt 0.260592 0.609663
vt 0.216640 0.451721
vt 0.245653 0.598379
vt 0.247974 0.444642
vt 0.233160 0.584304
vt 0.254936 0.435939
vt 0.222202 0.567623
vt 0.276263 0.423746
vt 0.213952 0.548123
vt 0.320695 0.405359
vt 0.211295 0.522994
vt 0.300729 0.412121
vt 0.304913 0.416613
vt 0.194682 0.634585
vt 0.157841 0.623796
vt 0.240977 0.400936
vt 0.270447 0.399743
vt 0.106885 0.600882
vt 0.310488 0.418394
vt 0.000128 0.528948
vt 0.289629 0.639080
vt 0.299931 0.405547
vt 0.131655 0.476415
vt 0.269983 0.642273
vt 0.195609 0.462535
vt 0.205981 0.454509
vt 0.248045 0.642956
vt 0.201040 0.426453
vt 0.194497 0.437945
vt 0.223621 0.639434
vt 0.227037 0.397576
vt 0.171074 0.428832
vt 0.094293 0.223008
vt 0.164496 0.270153
vt 0.281579 0.665778
vt 0.263598 0.683689
vt 0.208305 0.305743
vt 0.239697 0.704377
vt 0.240987 0.332801
vt 0.209890 0.728936
vt 0.264343 0.355628
vt 0.170137 0.759297
vt 0.283072 0.375197
vt 0.114582 0.799010
vt 0.303506 0.399499
vt 0.037769 0.848200
vt 0.295655 0.649733
vt 0.000128 0.158607
vt 0.313353 0.407495
vt 0.312430 0.405750
vt 0.310564 0.404983
vt 0.308592 0.405568
vt 0.307388 0.407242
vt 0.307426 0.409273
vt 0.310376 0.411604
vt 0.312124 0.411124
vt 0.313275 0.409586
vt 0.308624 0.410918
vt 0.452673 0.468184
vt 0.426084 0.480388
vt 0.420810 0.469181
vt 0.189462 0.471735
vt 0.171498 0.457721
vt 0.182054 0.450037
vt 0.632140 0.373451
vt 0.632140 0.248207
vt 0.833898 0.248207
vt 0.833898 0.373451
vt 0.632140 0.496285
vt 0.747216 0.496285
vt 0.632140 0.122963
vt 0.833898 0.122963
vt 0.632140 0.000128
vt 0.747216 0.000128
s 1
usemtl マテリアル.007
f 76/74/68 75/75/67 88/76/80 89/77/81
f 217/78/209 216/79/208 81/80/73 82/81/74
f 223/82/215 76/74/68 89/77/81 90/83/82
f 218/84/210 217/78/209 82/81/74 83/85/75
f 219/86/211 218/84/210 83/85/75 84/87/76
f 213/88/205 151/89/143 77/90/69
f 220/91/212 219/92/211 84/93/76 85/94/77
f 214/95/206 213/88/205 77/90/69 78/96/70
f 221/97/213 220/91/212 85/94/77 86/98/78
f 215/99/207 214/95/206 78/96/70 79/100/71
f 222/101/214 221/97/213 86/98/78 87/102/79
f 74/103/66 215/99/207 79/100/71 80/104/72
f 75/75/67 222/101/214 87/102/79 88/76/80
f 216/79/208 74/103/66 80/104/72 81/80/73
f 80/104/72 79/100/71 93/105/85 94/106/86
f 88/76/80 87/102/79 101/107/93 102/108/94
f 81/80/73 80/104/72 94/106/86 95/109/87
f 89/77/81 88/76/80 102/108/94 103/110/95
f 82/81/74 81/80/73 95/109/87 96/111/88
f 90/83/82 89/77/81 103/110/95 104/112/96
f 83/85/75 82/81/74 96/111/88 97/113/89
f 84/87/76 83/85/75 97/113/89 98/114/90
f 77/90/69 151/89/143 91/115/83
f 85/94/77 84/93/76 98/114/90 99/116/91
f 78/96/70 77/90/69 91/115/83 92/117/84
f 86/98/78 85/94/77 99/116/91 100/118/92
f 79/100/71 78/96/70 92/117/84 93/105/85
f 87/102/79 86/98/78 100/118/92 101/107/93
f 98/114/90 97/113/89 112/119/104 113/120/105
f 91/115/83 151/89/143 106/121/98
f 99/116/91 98/114/90 113/120/105 114/122/106
f 92/117/84 91/115/83 106/121/98 107/123/99
f 116/124/108 101/107/93 237/125/229 240/126/232
f 93/105/85 92/117/84 107/123/99 108/127/100
f 101/107/93 100/118/92 236/128/228 237/125/229
f 94/106/86 93/105/85 108/127/100 109/129/101
f 102/108/94 101/107/93 116/124/108 117/130/109
f 95/109/87 94/106/86 109/129/101 110/131/102
f 103/110/95 102/108/94 117/130/109 118/132/110
f 96/111/88 95/109/87 110/131/102 111/133/103
f 104/112/96 103/110/95 118/132/110 119/134/111
f 97/113/89 96/111/88 111/133/103 112/119/104
f 117/130/109 116/124/108 131/135/123 132/136/124
f 110/131/102 109/129/101 124/137/116 125/138/117
f 118/132/110 117/130/109 132/136/124 133/139/125
f 111/133/103 110/131/102 125/138/117 126/140/118
f 119/134/111 118/132/110 133/139/125 134/141/126
f 112/119/104 111/133/103 126/140/118 127/142/119
f 113/120/105 112/119/104 127/142/119 128/143/120
f 106/121/98 151/89/143 121/144/113
f 114/122/106 113/120/105 128/143/120 129/145/121
f 107/123/99 106/121/98 121/144/113 122/146/114
f 115/147/107 114/122/106 129/145/121 130/148/122
f 108/127/100 107/123/99 122/146/114 123/149/115
f 116/124/108 115/147/107 130/148/122 131/135/123
f 109/129/101 108/127/100 123/149/115 124/137/116
f 129/145/121 128/143/120 143/150/135 144/151/136
f 122/146/114 121/144/113 136/152/128 137/153/129
f 130/148/122 129/145/121 144/151/136 145/154/137
f 123/149/115 122/146/114 137/153/129 138/155/130
f 131/135/123 130/148/122 145/154/137 146/156/138
f 124/137/116 123/149/115 138/155/130 139/157/131
f 132/136/124 131/135/123 146/156/138 147/158/139
f 125/138/117 124/137/116 139/157/131 140/159/132
f 133/139/125 132/136/124 147/158/139 148/160/140
f 126/140/118 125/138/117 140/159/132 141/161/133
f 134/141/126 133/139/125 148/160/140 149/162/141
f 127/142/119 126/140/118 141/161/133 142/163/134
f 119/134/111 134/141/126 135/164/127 150/165/142
f 128/143/120 127/142/119 142/163/134 143/150/135
f 121/144/113 151/89/143 136/152/128
f 148/160/140 147/158/139 163/166/155 164/167/156
f 141/161/133 140/159/132 156/168/148 157/169/149
f 149/162/141 148/160/140 164/167/156 165/170/157
f 142/163/134 141/161/133 157/169/149 158/171/150
f 223/82/215 90/83/82 182/172/174 105/173/97
f 143/150/135 142/163/134 158/171/150 159/174/151
f 136/152/128 151/89/143 152/175/144
f 144/151/136 143/150/135 159/174/151 160/176/152
f 137/153/129 136/152/128 152/175/144 153/177/145
f 145/154/137 144/151/136 160/176/152 161/178/153
f 138/155/130 137/153/129 153/177/145 154/179/146
f 146/156/138 145/154/137 161/178/153 162/180/154
f 139/157/131 138/155/130 154/179/146 155/181/147
f 147/158/139 146/156/138 162/180/154 163/166/155
f 140/159/132 139/157/131 155/181/147 156/168/148
f 153/177/145 152/175/144 168/182/160 169/183/161
f 161/178/153 160/176/152 176/184/168 177/185/169
f 154/179/146 153/177/145 169/183/161 170/186/162
f 162/180/154 161/178/153 177/185/169 178/187/170
f 155/181/147 154/179/146 170/186/162 171/188/163
f 163/166/155 162/180/154 178/187/170 179/189/171
f 156/168/148 155/181/147 171/188/163 172/190/164
f 164/167/156 163/166/155 179/189/171 180/191/172
f 157/169/149 156/168/148 172/190/164 173/192/165
f 165/170/157 164/167/156 180/191/172 181/193/173
f 158/171/150 157/169/149 173/192/165 174/194/166
f 104/112/96 119/134/111 150/165/142 166/195/158
f 159/174/151 158/171/150 174/194/166 175/196/167
f 152/175/144 151/89/143 168/182/160
f 165/170/157 181/193/173 197/197/189 212/198/204
f 160/176/152 159/174/151 175/196/167 176/184/168
f 173/192/165 172/190/164 187/199/179 188/200/180
f 181/193/173 180/191/172 195/201/187 196/202/188
f 174/194/166 173/192/165 188/200/180 189/203/181
f 134/141/126 149/162/141 224/204/216 135/164/127
f 175/196/167 174/194/166 189/203/181 190/205/182
f 168/182/160 151/89/143 183/206/175
f 181/193/173 196/202/188 167/207/159 197/197/189
f 176/184/168 175/196/167 190/205/182 191/208/183
f 169/183/161 168/182/160 183/206/175 184/209/176
f 178/187/170 177/185/169 242/210/234 243/211/235
f 170/186/162 169/183/161 184/209/176 185/212/177
f 193/213/185 178/187/170 243/211/235 246/214/238
f 171/188/163 170/186/162 185/212/177 186/215/178
f 179/189/171 178/187/170 193/213/185 194/216/186
f 172/190/164 171/188/163 186/215/178 187/199/179
f 180/191/172 179/189/171 194/216/186 195/201/187
f 192/217/184 191/208/183 206/218/198 207/219/199
f 185/212/177 184/209/176 199/220/191 200/221/192
f 193/213/185 192/217/184 207/219/199 208/222/200
f 186/215/178 185/212/177 200/221/192 201/223/193
f 194/216/186 193/213/185 208/222/200 209/224/201
f 187/199/179 186/215/178 201/223/193 202/225/194
f 195/201/187 194/216/186 209/224/201 210/226/202
f 188/200/180 187/199/179 202/225/194 203/227/195
f 196/202/188 195/201/187 210/226/202 211/228/203
f 189/203/181 188/200/180 203/227/195 204/229/196
f 211/228/203 223/82/215 105/173/97 120/230/112
f 190/205/182 189/203/181 204/229/196 205/231/197
f 183/206/175 151/89/143 198/232/190
f 196/202/188 211/228/203 120/230/112 167/207/159
f 191/208/183 190/205/182 205/233/197 206/218/198
f 184/209/176 183/206/175 198/232/190 199/220/191
f 211/228/203 210/226/202 76/74/68 223/82/215
f 204/229/196 203/227/195 217/78/209 218/84/210
f 90/83/82 104/112/96 166/195/158 182/172/174
f 205/231/197 204/229/196 218/84/210 219/86/211
f 198/232/190 151/89/143 213/88/205
f 149/162/141 165/170/157 212/198/204 224/204/216
f 206/218/198 205/233/197 219/92/211 220/91/212
f 199/220/191 198/232/190 213/88/205 214/95/206
f 207/219/199 206/218/198 220/91/212 221/97/213
f 200/221/192 199/220/191 214/95/206 215/99/207
f 208/222/200 207/219/199 221/97/213 222/101/214
f 201/223/193 200/221/192 215/99/207 74/103/66
f 209/224/201 208/222/200 222/101/214 75/75/67
f 202/225/194 201/223/193 74/103/66 216/79/208
f 210/226/202 209/224/201 75/75/67 76/74/68
f 203/227/195 202/225/194 216/79/208 217/78/209
f 182/172/174 166/195/158 229/234/221 231/235/223
f 120/230/112 105/173/97 225/236/217 226/237/218
f 197/197/189 167/207/159 230/238/222 232/239/224
f 135/164/127 224/204/216 234/240/226 227/241/219
f 150/165/142 135/164/127 227/241/219 228/242/220
f 105/173/97 182/172/174 231/235/223 225/236/217
f 212/198/204 197/197/189 232/239/224 233/243/225
f 167/207/159 120/230/112 226/237/218 230/238/222
f 224/204/216 212/198/204 233/243/225 234/240/226
f 166/195/158 150/165/142 228/242/220 229/234/221
f 236/128/228 235/244/227 238/245/230 239/246/231
f 237/125/229 236/128/228 239/246/231 240/126/232
f 115/147/107 116/124/108 240/126/232 239/246/231
f 99/116/91 114/122/106 238/245/230 235/244/227
f 100/118/92 99/116/91 235/244/227 236/128/228
f 114/122/106 115/147/107 239/246/231 238/245/230
f 242/210/234 241/247/233 244/248/236 245/249/237
f 243/211/235 242/210/234 245/249/237 246/214/238
f 176/184/168 191/208/183 244/248/236 241/247/233
f 192/217/184 193/213/185 246/214/238 245/249/237
f 177/185/169 176/184/168 241/247/233 242/210/234
f 191/208/183 192/217/184 245/249/237 244/248/236
f 84/250/76 219/251/211 251/252/226 247/253/239
f 98/254/90 84/250/76 247/253/239 248/255/240
f 219/251/211 205/256/197 250/257/242 251/252/226
f 205/256/197 190/258/182 249/259/241 250/257/242
