# Blender 4.1.1
# www.blender.org
mtllib playerRightLeg.mtl
o 右足
v -0.214380 -2.571662 -0.207772
v -0.214380 -1.005195 -0.207772
v -0.214380 -2.571662 0.214925
v -0.214380 -1.005195 0.294256
v -0.637077 -2.571662 -0.207772
v -0.637077 -1.005195 -0.207772
v -0.637077 -2.571662 0.214925
v -0.637077 -1.005195 0.425287
v -0.174887 -3.005121 0.003577
v -0.168064 -1.788428 -0.049798
v -0.099839 -0.778979 0.003577
v -0.168064 -1.788428 0.099057
v -0.425728 -2.832456 0.230227
v -0.425728 -0.833560 0.378813
v -0.564485 -1.788428 0.099057
v -0.565497 -3.030714 0.003577
v -0.819841 -1.045060 0.003577
v -0.564485 -1.788428 -0.049798
v -0.425728 -2.929371 -0.254087
v -0.425728 -0.901022 -0.340929
v -0.098740 -1.430801 0.003577
v -0.425728 -1.766779 0.221920
v -0.607100 -1.788428 0.016484
v -0.425728 -1.788428 -0.146993
v -0.425728 -3.083021 0.003577
v -0.425728 -0.473369 0.003577
vn 0.5765 -0.0379 -0.8162
vn 0.9958 -0.0518 -0.0754
vn 0.9343 -0.3564 0.0096
vn 0.6731 0.0949 -0.7335
vn 0.1155 0.1249 -0.9854
vn 0.6101 0.0477 0.7909
vn 0.6696 0.0206 0.7424
vn 0.5640 -0.0859 0.8213
vn -0.0937 -0.0931 0.9912
vn -0.0341 -0.1623 0.9861
vn -0.4863 0.1889 0.8531
vn -0.8606 -0.0439 0.5073
vn -0.7802 -0.0979 0.6178
vn -0.9970 -0.0608 -0.0472
vn -0.8890 -0.4520 0.0729
vn -0.9906 0.0575 -0.1245
vn -0.7731 -0.0073 -0.6342
vn -0.7812 -0.0501 -0.6222
vn -0.1102 -0.0079 -0.9939
vn -0.0418 -0.1683 -0.9848
vn -0.6607 0.1912 -0.7259
vn -0.0718 -0.9893 0.1268
vn -0.3452 0.3792 0.8585
vn 0.7093 0.7023 -0.0614
vn -0.1794 0.9838 -0.0020
vn -0.0668 0.4744 -0.8778
vt 0.552815 0.000089
vt 0.693675 0.188750
vt 0.452458 0.104920
vt 0.791449 0.067368
vt 0.648492 0.126882
vt 0.724601 0.378510
vt 0.614628 0.235848
vt 0.461892 0.235402
vt 0.523138 0.434860
vt 0.369309 0.308991
vt 0.685462 0.614577
vt 0.423070 0.539040
vt 0.317012 0.414320
vt 0.387074 0.605848
vt 0.206917 0.468772
vt 0.515748 0.716037
vt 0.349503 0.651877
vt 0.167423 0.583410
vt 0.264504 0.756746
vt 0.077774 0.661127
vt 0.452462 0.807397
vt 0.267090 0.952679
vt 0.145952 0.891611
vt 0.068273 0.779293
vt 0.236774 0.341966
vt 0.070910 0.339203
vt 0.162074 0.265426
vt 0.157396 0.423345
vt 0.075061 0.517095
vt 0.000089 0.432277
vt 0.744091 0.715356
vt 0.706500 0.970871
vt 0.607448 0.843261
vt 0.461226 0.939558
vt 0.793598 0.210411
vt 0.717926 0.501563
vt 0.385376 0.912381
vt 0.793598 0.827701
vt 0.579157 0.999911
s 1
usemtl マテリアル.010
f 1/1/1 21/2/2 9/3/3
f 2/4/4 21/2/2 10/5/5
f 21/2/2 4/6/6 12/7/7
f 21/2/2 3/8/8 9/3/3
f 3/8/8 22/9/9 13/10/10
f 4/6/6 22/9/9 12/7/7
f 22/9/9 8/11/11 15/12/12
f 22/9/9 7/13/13 13/10/10
f 7/13/13 23/14/14 16/15/15
f 15/12/12 17/16/16 23/14/14
f 17/16/16 18/17/17 23/14/14
f 23/14/14 5/18/18 16/15/15
f 5/18/18 24/19/19 19/20/20
f 6/21/21 24/19/19 18/17/17
f 24/19/19 2/22/4 10/23/5
f 24/19/19 1/24/1 19/20/20
f 13/25/10 9/26/3 3/27/8
f 13/25/10 16/15/15 25/28/22
f 16/15/15 19/29/20 25/28/22
f 9/26/3 19/29/20 1/30/1
f 14/31/23 17/16/16 8/11/11
f 14/31/23 11/32/24 26/33/25
f 11/32/24 20/34/26 26/33/25
f 17/16/16 20/34/26 6/21/21
f 1/1/1 10/5/5 21/2/2
f 2/4/4 11/35/24 21/2/2
f 21/2/2 11/35/24 4/6/6
f 21/2/2 12/7/7 3/8/8
f 3/8/8 12/7/7 22/9/9
f 4/6/6 14/36/23 22/9/9
f 22/9/9 14/36/23 8/11/11
f 22/9/9 15/12/12 7/13/13
f 7/13/13 15/12/12 23/14/14
f 15/12/12 8/11/11 17/16/16
f 17/16/16 6/21/21 18/17/17
f 23/14/14 18/17/17 5/18/18
f 5/18/18 18/17/17 24/19/19
f 6/21/21 20/37/26 24/19/19
f 24/19/19 20/37/26 2/22/4
f 24/19/19 10/23/5 1/24/1
f 13/25/10 25/28/22 9/26/3
f 13/25/10 7/13/13 16/15/15
f 16/15/15 5/18/18 19/29/20
f 9/26/3 25/28/22 19/29/20
f 14/31/23 26/33/25 17/16/16
f 14/31/23 4/38/6 11/32/24
f 11/32/24 2/39/4 20/34/26
f 17/16/16 26/33/25 20/34/26
