# Blender 4.1.1
# www.blender.org
mtllib playerLeftLeg.mtl
o 左足
v 0.214380 -2.571662 0.214925
v 0.214380 -1.005195 0.214925
v 0.214380 -2.571662 -0.207772
v 0.214380 -1.005195 -0.287102
v 0.637077 -2.571662 0.214925
v 0.637077 -1.005195 0.214925
v 0.637077 -2.571662 -0.207772
v 0.637077 -1.005195 -0.418134
v 0.174887 -3.005121 0.003577
v 0.168064 -1.788428 0.056978
v 0.099841 -0.778979 0.003577
v 0.168064 -1.788428 -0.055728
v 0.425728 -2.832456 -0.223074
v 0.425728 -0.833560 -0.371659
v 0.546635 -1.788428 -0.055728
v 0.565497 -3.030714 0.003577
v 0.819841 -1.045060 0.003577
v 0.546635 -1.788428 0.056978
v 0.425728 -2.929371 0.261241
v 0.425728 -0.901022 0.348082
v 0.098742 -1.430801 0.003577
v 0.425728 -1.766779 -0.178591
v 0.589248 -1.788428 0.007035
v 0.425728 -1.788428 0.232572
v 0.425728 -3.083021 0.003577
v 0.425728 -0.473369 0.003577
vn -0.6202 -0.0653 0.7817
vn -0.9966 -0.0641 0.0526
vn -0.9350 -0.3541 -0.0182
vn -0.6845 0.1139 0.7201
vn -0.2072 0.1249 0.9703
vn -0.6010 0.0378 -0.7983
vn -0.2765 0.0869 -0.9571
vn -0.5461 -0.0719 -0.8346
vn 0.1305 -0.0906 -0.9873
vn 0.0352 -0.1448 -0.9888
vn 0.4908 0.1818 -0.8521
vn 0.8602 -0.0218 -0.5095
vn 0.7709 -0.0797 -0.6320
vn 0.9966 -0.0397 0.0727
vn 0.8934 -0.4435 -0.0716
vn 0.9922 0.0482 0.1150
vn 0.8288 0.0026 0.5595
vn 0.8193 -0.0726 0.5687
vn 0.1548 -0.0136 0.9879
vn 0.0482 -0.1897 0.9807
vn 0.6788 0.2066 0.7046
vn 0.0718 -0.9893 -0.1268
vn 0.3415 0.3694 -0.8642
vn -0.7072 0.7043 0.0614
vn 0.1794 0.9838 0.0020
vn 0.0670 0.5158 0.8541
vt 0.621739 0.000093
vt 0.759719 0.206333
vt 0.510107 0.104750
vt 0.864742 0.082471
vt 0.715258 0.139023
vt 0.794079 0.400070
vt 0.679637 0.231989
vt 0.508394 0.232626
vt 0.571825 0.446147
vt 0.415238 0.299100
vt 0.765360 0.625037
vt 0.474632 0.549331
vt 0.354686 0.396238
vt 0.451942 0.608323
vt 0.243787 0.484467
vt 0.595901 0.720420
vt 0.420440 0.648578
vt 0.221369 0.624546
vt 0.329581 0.797902
vt 0.135380 0.718374
vt 0.531309 0.807047
vt 0.347587 0.999907
vt 0.206565 0.969030
vt 0.131551 0.845434
vt 0.248329 0.333706
vt 0.060307 0.367163
vt 0.147000 0.263830
vt 0.176959 0.443625
vt 0.103197 0.568041
vt 0.000093 0.487900
vt 0.819771 0.725924
vt 0.774610 0.975417
vt 0.681626 0.847199
vt 0.535442 0.936646
vt 0.862909 0.229495
vt 0.789417 0.516877
vt 0.461015 0.923650
vt 0.864742 0.837809
vt 0.648867 0.999659
s 1
usemtl マテリアル.011
f 1/1/1 21/2/2 9/3/3
f 2/4/4 21/2/2 10/5/5
f 21/2/2 4/6/6 12/7/7
f 21/2/2 3/8/8 9/3/3
f 3/8/8 22/9/9 13/10/10
f 4/6/6 22/9/9 12/7/7
f 22/9/9 8/11/11 15/12/12
f 22/9/9 7/13/13 13/10/10
f 7/13/13 23/14/14 16/15/15
f 15/12/12 17/16/16 23/14/14
f 17/16/16 18/17/17 23/14/14
f 23/14/14 5/18/18 16/15/15
f 5/18/18 24/19/19 19/20/20
f 6/21/21 24/19/19 18/17/17
f 24/19/19 2/22/4 10/23/5
f 24/19/19 1/24/1 19/20/20
f 13/25/10 9/26/3 3/27/8
f 13/25/10 16/15/15 25/28/22
f 16/15/15 19/29/20 25/28/22
f 9/26/3 19/29/20 1/30/1
f 14/31/23 17/16/16 8/11/11
f 14/31/23 11/32/24 26/33/25
f 11/32/24 20/34/26 26/33/25
f 17/16/16 20/34/26 6/21/21
f 1/1/1 10/5/5 21/2/2
f 2/4/4 11/35/24 21/2/2
f 21/2/2 11/35/24 4/6/6
f 21/2/2 12/7/7 3/8/8
f 3/8/8 12/7/7 22/9/9
f 4/6/6 14/36/23 22/9/9
f 22/9/9 14/36/23 8/11/11
f 22/9/9 15/12/12 7/13/13
f 7/13/13 15/12/12 23/14/14
f 15/12/12 8/11/11 17/16/16
f 17/16/16 6/21/21 18/17/17
f 23/14/14 18/17/17 5/18/18
f 5/18/18 18/17/17 24/19/19
f 6/21/21 20/37/26 24/19/19
f 24/19/19 20/37/26 2/22/4
f 24/19/19 10/23/5 1/24/1
f 13/25/10 25/28/22 9/26/3
f 13/25/10 7/13/13 16/15/15
f 16/15/15 5/18/18 19/29/20
f 9/26/3 25/28/22 19/29/20
f 14/31/23 26/33/25 17/16/16
f 14/31/23 4/38/6 11/32/24
f 11/32/24 2/39/4 20/34/26
f 17/16/16 26/33/25 20/34/26
