# Blender 4.1.1
# www.blender.org
mtllib playerRightArm.mtl
o 右腕
v -0.720162 0.013850 0.614068
v -0.429975 0.429679 -0.170542
v -0.720162 0.279572 0.761360
v -0.485943 0.647940 0.046392
v -1.010702 0.056913 0.536379
v -0.754913 0.477842 -0.257430
v -0.959834 0.320822 0.606314
v -0.752014 0.687377 -0.024755
v -0.717526 0.095692 0.779754
v -0.657608 0.275485 0.274005
v -0.339702 0.658640 -0.233169
v -0.664714 0.417916 0.352484
v -0.864789 0.289118 0.719733
v -0.592316 0.736491 -0.050721
v -0.817803 0.440607 0.311548
v -1.071734 0.148193 0.685039
v -0.757862 0.683492 -0.278002
v -0.825269 0.300336 0.229174
v -0.894629 -0.040034 0.642612
v -0.559788 0.472980 -0.325452
v -0.625987 0.347467 0.324959
v -0.741076 0.440979 0.340612
v -0.856890 0.381691 0.263217
v -0.741439 0.258988 0.235560
v -0.927018 0.058688 0.846511
v -0.385194 0.707542 -0.321390
vn 0.6545 -0.7506 -0.0903
vn 0.9560 -0.0843 0.2809
vn 0.8898 -0.1656 0.4253
vn 0.7069 -0.6864 -0.1706
vn 0.6741 -0.7216 -0.1576
vn 0.6035 0.5963 0.5294
vn 0.5302 0.6547 0.5388
vn 0.4641 0.5324 0.7080
vn -0.1523 0.8129 0.5622
vn 0.0013 0.8691 0.4946
vn -0.5892 0.7793 0.2134
vn -0.5345 0.8012 0.2691
vn -0.5935 0.7639 0.2533
vn -0.9555 0.2106 -0.2064
vn -0.9807 0.1931 -0.0311
vn -0.6648 -0.4991 -0.5559
vn -0.6767 -0.5217 -0.5195
vn -0.6967 -0.5516 -0.4587
vn -0.0019 -0.8776 -0.4794
vn -0.0518 -0.9407 -0.3353
vn -0.4170 -0.3091 0.8547
vn -0.0396 0.9898 0.1371
vn -0.7897 0.5807 -0.1977
vn 0.8726 0.3609 -0.3292
vn 0.7818 0.3247 -0.5323
vn 0.2722 -0.2714 -0.9232
vt 0.606618 0.000094
vt 0.626891 0.226753
vt 0.485609 0.078880
vt 0.886016 0.186102
vt 0.691867 0.139371
vt 0.720468 0.412315
vt 0.562875 0.310242
vt 0.400560 0.195903
vt 0.366174 0.305553
vt 0.501650 0.397446
vt 0.585855 0.600926
vt 0.440016 0.484497
vt 0.317580 0.398919
vt 0.371591 0.574055
vt 0.238392 0.460039
vt 0.466704 0.818728
vt 0.294803 0.659305
vt 0.153355 0.534014
vt 0.219019 0.742211
vt 0.056254 0.632343
vt 0.218944 0.999906
vt 0.145161 0.818223
vt 0.000094 0.759484
vt 0.274744 0.300483
vt 0.092715 0.241728
vt 0.214092 0.193386
vt 0.168037 0.358608
vt 0.056790 0.448964
vt 0.000094 0.332404
vt 0.722931 0.603994
vt 0.541710 0.709155
vt 0.849068 0.827413
vt 0.780833 0.804449
vt 0.586508 0.940982
vt 0.862278 0.348816
vt 0.666464 0.514921
vt 0.360408 0.934026
vt 0.857339 0.662689
vt 0.762497 0.984834
s 1
usemtl マテリアル.008
f 1/1/1 21/2/2 9/3/3
f 2/4/4 21/2/2 10/5/5
f 21/2/2 4/6/6 12/7/7
f 21/2/2 3/8/8 9/3/3
f 12/7/7 13/9/9 3/8/8
f 4/6/6 22/10/10 12/7/7
f 22/10/10 8/11/11 15/12/12
f 22/10/10 7/13/13 13/9/9
f 7/13/13 23/14/14 16/15/15
f 8/11/11 23/14/14 15/12/12
f 23/14/14 6/16/16 18/17/17
f 23/14/14 5/18/18 16/15/15
f 5/18/18 24/19/19 19/20/20
f 6/16/16 24/19/19 18/17/17
f 24/19/19 2/21/4 10/22/5
f 24/19/19 1/23/1 19/20/20
f 13/24/9 9/25/3 3/26/8
f 13/24/9 16/15/15 25/27/21
f 16/15/15 19/28/20 25/27/21
f 9/25/3 19/28/20 1/29/1
f 14/30/22 17/31/23 8/11/11
f 14/30/22 11/32/24 26/33/25
f 11/32/24 20/34/26 26/33/25
f 17/31/23 20/34/26 6/16/16
f 1/1/1 10/5/5 21/2/2
f 2/4/4 11/35/24 21/2/2
f 21/2/2 11/35/24 4/6/6
f 21/2/2 12/7/7 3/8/8
f 12/7/7 22/10/10 13/9/9
f 4/6/6 14/36/22 22/10/10
f 22/10/10 14/36/22 8/11/11
f 22/10/10 15/12/12 7/13/13
f 7/13/13 15/12/12 23/14/14
f 8/11/11 17/31/23 23/14/14
f 23/14/14 17/31/23 6/16/16
f 23/14/14 18/17/17 5/18/18
f 5/18/18 18/17/17 24/19/19
f 6/16/16 20/37/26 24/19/19
f 24/19/19 20/37/26 2/21/4
f 24/19/19 10/22/5 1/23/1
f 13/24/9 25/27/21 9/25/3
f 13/24/9 7/13/13 16/15/15
f 16/15/15 5/18/18 19/28/20
f 9/25/3 25/27/21 19/28/20
f 14/30/22 26/33/25 17/31/23
f 14/30/22 4/38/6 11/32/24
f 11/32/24 2/39/4 20/34/26
f 17/31/23 26/33/25 20/34/26
