# Blender 4.1.1
# www.blender.org
mtllib playerHat.mtl
o 円柱
v 0.000000 2.136965 -2.000000
v 0.000000 2.336964 -2.000000
v 1.732051 2.136965 -1.000000
v 1.732051 2.336964 -1.000000
v 1.732051 2.136965 1.000000
v 1.732051 2.336964 1.000000
v 0.000000 2.136965 2.000000
v 0.000000 2.336964 2.000000
v -1.732051 2.136965 1.000000
v -1.732051 2.336964 1.000000
v -1.732051 2.136965 -1.000000
v -1.732051 2.336964 -1.000000
v 0.000000 2.746964 -1.100000
v 0.952628 2.746964 -0.550000
v 0.952628 2.746964 0.550000
v 0.000000 2.746964 1.100000
v -0.952628 2.746964 0.550000
v -0.952628 2.746964 -0.550000
v 0.000000 4.247688 -1.726755
v 0.000000 2.336964 -1.100000
v -0.952628 2.336964 -0.550000
v 0.952628 2.336964 -0.550000
v -0.952628 2.336964 0.550000
v 0.000000 2.336964 1.100000
v 0.952628 2.336964 0.550000
vn -0.0000 -0.9979 -0.0648
vn -0.0000 0.9979 -0.0648
vn 0.0561 -0.9979 -0.0324
vn 0.0561 0.9979 -0.0324
vn 0.0561 -0.9979 0.0324
vn 0.0561 0.9979 0.0324
vn -0.0000 -0.9979 0.0648
vn -0.0000 0.9979 0.0648
vn -0.0561 -0.9979 0.0324
vn -0.0561 0.9979 0.0324
vn -0.0561 -0.9979 -0.0324
vn -0.0561 0.9979 -0.0324
vn -0.0000 -0.2050 -0.9788
vn 0.8667 0.0862 -0.4913
vn 0.7215 0.5474 0.4239
vn -0.0000 0.6794 0.7337
vn -0.7215 0.5474 0.4239
vn -0.8667 0.0862 -0.4913
vn -0.0000 1.0000 -0.0029
vn -0.0000 -0.0000 -1.0000
vn -0.8660 -0.0000 -0.5000
vn 0.8660 -0.0000 -0.5000
vn -0.8660 -0.0000 0.5000
vn -0.0000 -0.0000 1.0000
vn 0.8660 -0.0000 0.5000
vt 0.687389 0.619633
vt 0.893884 0.516386
vt 0.893884 0.619633
vt 0.687389 0.516386
vt 0.893884 0.413138
vt 0.687389 0.413138
vt 0.893884 0.309891
vt 0.687389 0.309891
vt 0.893884 0.206643
vt 0.178978 0.948228
vt 0.000148 0.948228
vt 0.089563 0.793357
vt 0.687389 0.206643
vt 0.893884 0.103396
vt 0.687389 0.103396
vt 0.893884 0.000148
vt 0.776804 0.826425
vt 0.687389 0.671553
vt 0.866219 0.671553
vt 0.338215 0.393620
vt 0.343178 0.396326
vt 0.338365 0.399455
vt 0.343484 0.402436
vt 0.348605 0.399295
vt 0.348397 0.393299
vt 0.343171 0.390527
vt 0.000148 0.594534
vt 0.000148 0.198550
vt 0.342835 0.793061
vt 0.343336 0.000148
vt 0.687093 0.198534
vt 0.686953 0.595675
vt 0.178978 0.844981
vt 0.089563 0.999852
vt 0.000148 0.844981
vt 0.687389 0.000148
vt 0.866219 0.774801
vt 0.687389 0.774801
vt 0.776804 0.619929
s 1
usemtl マテリアル
f 2/1/2 3/2/3 1/3/1
f 4/4/4 5/5/5 3/2/3
f 6/6/6 7/7/7 5/5/5
f 8/8/8 9/9/9 7/7/7
f 2/10/2 10/11/10 6/12/6
f 10/13/10 11/14/11 9/9/9
f 12/15/12 1/16/1 11/14/11
f 3/17/3 7/18/7 11/19/11
f 13/20/13 19/21/19 14/22/14
f 14/22/14 19/21/19 15/23/15
f 15/23/15 19/21/19 16/24/16
f 16/24/16 19/21/19 17/25/17
f 18/26/18 20/27/20 21/28/21
f 17/25/17 19/21/19 18/26/18
f 18/26/18 19/21/19 13/20/13
f 13/20/13 22/29/22 20/27/20
f 17/25/17 21/28/21 23/30/23
f 16/24/16 23/30/23 24/31/24
f 15/23/15 24/31/24 25/32/25
f 14/22/14 25/32/25 22/29/22
f 2/1/2 4/4/4 3/2/3
f 4/4/4 6/6/6 5/5/5
f 6/6/6 8/8/8 7/7/7
f 8/8/8 10/13/10 9/9/9
f 6/12/6 4/33/4 2/10/2
f 2/10/2 12/34/12 10/11/10
f 10/11/10 8/35/8 6/12/6
f 10/13/10 12/15/12 11/14/11
f 12/15/12 2/36/2 1/16/1
f 11/19/11 1/37/1 3/17/3
f 3/17/3 5/38/5 7/18/7
f 7/18/7 9/39/9 11/19/11
f 18/26/18 13/20/13 20/27/20
f 13/20/13 14/22/14 22/29/22
f 17/25/17 18/26/18 21/28/21
f 16/24/16 17/25/17 23/30/23
f 15/23/15 16/24/16 24/31/24
f 14/22/14 15/23/15 25/32/25
