# Blender 4.1.1
# www.blender.org
mtllib playerBody.mtl
o 体
v -0.273718 -0.260666 0.153797
v -0.153797 0.246927 0.153797
v -0.273718 -0.244416 -0.102746
v -0.153797 0.253812 -0.117845
v 0.264736 -0.260666 0.153797
v 0.153797 0.246927 0.153797
v 0.264736 -0.244416 -0.102746
v 0.153797 0.253811 -0.117845
v -0.307420 -0.316282 -0.000000
v -0.097300 -0.006869 0.187499
v -0.218352 0.320256 0.000000
v -0.097300 -0.006869 -0.081288
v 0.000000 -0.213381 -0.170095
v -0.000000 0.288354 -0.139254
v 0.086124 -0.006869 -0.081288
v 0.298438 -0.316282 0.000000
v 0.204929 0.320256 0.000000
v 0.086124 -0.006869 0.187499
v -0.000000 -0.316282 0.220879
v -0.000000 0.298723 0.152244
v -0.168028 -0.006869 0.000000
v 0.000000 -0.006869 -0.096678
v 0.156852 -0.006869 0.000000
v -0.000000 0.002656 0.218789
v 0.000000 -0.432997 0.000000
v -0.000000 0.405335 0.000000
vn -0.7743 -0.1119 0.6228
vn -0.6588 0.2437 0.7118
vn -0.6292 -0.0213 -0.7769
vn -0.5405 0.1578 -0.8264
vn 0.7778 -0.1086 0.6190
vn 0.6854 0.2292 0.6912
vn 0.6330 -0.0196 -0.7739
vn 0.5717 0.1478 -0.8071
vn -0.9546 -0.2364 -0.1815
vn -0.5146 0.1134 0.8499
vn -0.9362 0.3419 -0.0812
vn -0.4887 0.1000 -0.8667
vn 0.0052 -0.1241 -0.9923
vn 0.0043 0.2856 -0.9584
vn 0.4978 0.0983 -0.8617
vn 0.9555 -0.2330 -0.1811
vn 0.9347 0.3466 -0.0788
vn 0.5201 0.1130 0.8466
vn 0.0064 -0.3852 0.9228
vn 0.0048 0.5077 0.8615
vn -0.9817 0.1698 -0.0861
vn 0.0049 0.0704 -0.9975
vn 0.9832 0.1634 -0.0815
vn 0.0045 0.0953 0.9954
vn 0.0045 -0.9737 -0.2279
vn 0.0062 0.9985 -0.0549
vt 0.966529 0.814867
vt 0.851591 0.932996
vt 0.764524 0.783576
vt 0.947453 0.708847
vt 0.743272 0.969600
vt 0.640568 0.911236
vt 0.596166 0.825230
vt 0.689451 0.706358
vt 0.887467 0.656225
vt 0.618037 0.639279
vt 0.701711 0.547691
vt 0.513736 0.756546
vt 0.436945 0.683118
vt 0.553100 0.583390
vt 0.580712 0.382679
vt 0.470990 0.517173
vt 0.521593 0.351182
vt 0.375454 0.635979
vt 0.298238 0.579548
vt 0.299789 0.447345
vt 0.433952 0.320425
vt 0.228214 0.434046
vt 0.243295 0.296522
vt 0.194375 0.565584
vt 0.093375 0.520473
vt 0.156552 0.420958
vt 0.041995 0.298466
vt 0.723442 0.094435
vt 0.694584 0.263184
vt 0.584636 0.208753
vt 0.668025 0.048230
vt 0.463412 0.153603
vt 0.572458 0.018690
vt 0.391056 0.773962
vt 0.313584 0.722215
vt 0.324718 0.850925
vt 0.234436 0.832075
vt 0.170765 0.738074
vt 0.236953 0.660669
s 1
usemtl マテリアル.006
f 1/1/1 10/2/10 21/3/21 9/4/9
f 10/2/10 2/5/2 11/6/11 21/3/21
f 21/3/21 11/6/11 4/7/4 12/8/12
f 9/4/9 21/3/21 12/8/12 3/9/3
f 3/9/3 12/8/12 22/10/22 13/11/13
f 12/8/12 4/7/4 14/12/14 22/10/22
f 22/10/22 14/12/14 8/13/8 15/14/15
f 13/11/13 22/10/22 15/14/15 7/15/7
f 7/15/7 15/14/15 23/16/23 16/17/16
f 15/14/15 8/13/8 17/18/17 23/16/23
f 23/16/23 17/18/17 6/19/6 18/20/18
f 16/17/16 23/16/23 18/20/18 5/21/5
f 5/21/5 18/20/18 24/22/24 19/23/19
f 18/20/18 6/19/6 20/24/20 24/22/24
f 24/22/24 20/24/20 2/25/2 10/26/10
f 19/23/19 24/22/24 10/26/10 1/27/1
f 3/28/3 13/29/13 25/30/25 9/31/9
f 13/29/13 7/15/7 16/17/16 25/30/25
f 25/30/25 16/17/16 5/21/5 19/32/19
f 9/31/9 25/30/25 19/32/19 1/33/1
f 8/13/8 14/34/14 26/35/26 17/18/17
f 14/34/14 4/36/4 11/37/11 26/35/26
f 26/35/26 11/37/11 2/38/2 20/39/20
f 17/18/17 26/35/26 20/39/20 6/19/6
