# Blender 4.1.1
# www.blender.org
mtllib playerBullet.mtl
o playerBullet
v -3.300000 3.600000 -0.100000
v -3.300000 3.600000 0.100000
v -0.474429 3.168034 -0.090000
v -0.474429 3.168034 0.090000
v -2.824472 3.254508 -0.100000
v -2.824472 3.254508 0.100000
v -2.824472 2.945491 -0.100000
v -2.824472 2.945491 0.100000
v -3.006107 2.695491 -0.100000
v -0.474429 -0.068034 -0.090000
v -3.006107 2.695491 0.100000
v -0.474429 -0.068034 0.090000
v -3.300000 2.600000 -0.100000
v -3.300000 2.600000 0.100000
v -2.825571 -0.068034 -0.090000
v -2.825571 -0.068034 0.090000
v -3.775528 2.945491 -0.100000
v -3.775528 2.945491 0.100000
v -3.775528 3.254508 -0.100000
v -3.775528 3.254508 0.100000
v -2.825571 3.168034 -0.090000
v -3.593893 3.504508 -0.100000
v -2.825571 3.168034 0.090000
v -3.593893 3.504508 0.100000
v -3.564503 3.464057 0.100000
v -3.727975 2.960942 0.100000
v -3.300000 2.650000 0.100000
v -2.872025 2.960942 0.100000
v -3.300000 3.550000 0.100000
v -3.727975 3.239058 0.100000
v -2.872025 3.239058 0.100000
v -3.035497 2.735942 0.100000
v -3.300000 3.550000 -0.100000
v -2.872025 3.239058 -0.100000
v -3.035497 2.735942 -0.100000
v -3.727975 3.239058 -0.100000
v -3.300000 2.650000 -0.100000
v -3.727975 2.960942 -0.100000
v -2.872025 2.960942 -0.100000
v -3.564503 3.464057 -0.100000
v -3.606107 1.954508 -0.100000
v -3.606107 1.954508 0.100000
v -3.424472 1.704508 -0.100000
v -3.424472 1.704508 0.100000
v -3.424472 1.395491 -0.100000
v -3.424472 1.395491 0.100000
v -3.606107 1.145491 -0.100000
v -3.606107 1.145491 0.100000
v -4.193892 1.145491 -0.100000
v -4.193892 1.145491 0.100000
v -4.375528 1.395491 -0.100000
v -4.375528 1.395491 0.100000
v -4.375528 1.704508 -0.100000
v -4.375528 1.704508 0.100000
v -4.193892 1.954508 -0.100000
v -4.193892 1.954508 0.100000
v -3.635497 1.914058 0.100000
v -4.164503 1.914058 0.100000
v -4.327975 1.410942 0.100000
v -3.472024 1.410942 0.100000
v -4.164503 1.185942 0.100000
v -4.327975 1.689058 0.100000
v -3.472024 1.689058 0.100000
v -3.635497 1.185942 0.100000
v -3.472024 1.689058 -0.100000
v -3.635497 1.185942 -0.100000
v -4.164503 1.185942 -0.100000
v -4.327975 1.689058 -0.100000
v -3.635497 1.914058 -0.100000
v -4.327975 1.410942 -0.100000
v -3.472024 1.410942 -0.100000
v -4.164503 1.914058 -0.100000
v -3.300000 0.500000 -0.100000
v -3.300000 0.500000 0.100000
v -3.006107 0.404509 -0.100000
v -3.006107 0.404509 0.100000
v -2.824472 0.154509 -0.100000
v -2.824472 0.154509 0.100000
v -2.824472 -0.154509 -0.100000
v -2.824472 -0.154509 0.100000
v -3.300000 -0.500000 -0.100000
v -3.300000 -0.500000 0.100000
v -3.593893 -0.404509 -0.100000
v -3.593893 -0.404509 0.100000
v -3.775528 -0.154509 -0.100000
v -3.775528 -0.154509 0.100000
v -3.775528 0.154509 -0.100000
v -3.775528 0.154509 0.100000
v -3.035497 0.364058 0.100000
v -3.727975 -0.139058 0.100000
v -3.300000 -0.450000 0.100000
v -2.872025 -0.139058 0.100000
v -3.300000 0.450000 0.100000
v -3.564503 -0.364058 0.100000
v -3.727975 0.139058 0.100000
v -2.872025 0.139058 0.100000
v -3.300000 0.450000 -0.100000
v -2.872025 0.139058 -0.100000
v -3.564503 -0.364058 -0.100000
v -3.727975 0.139058 -0.100000
v -3.035497 0.364058 -0.100000
v -3.300000 -0.450000 -0.100000
v -3.727975 -0.139058 -0.100000
v -2.872025 -0.139058 -0.100000
v -1.650000 -0.300000 -0.100000
v -1.650000 -0.300000 0.100000
v -1.356107 -0.395492 -0.100000
v -1.356107 -0.395492 0.100000
v -1.174472 -0.954508 -0.100000
v -1.174472 -0.954508 0.100000
v -1.356107 -1.204508 -0.100000
v -1.356107 -1.204508 0.100000
v -1.650000 -1.300000 -0.100000
v -1.650000 -1.300000 0.100000
v -1.943893 -1.204508 -0.100000
v -1.943893 -1.204508 0.100000
v -2.125528 -0.954508 -0.100000
v -2.125528 -0.954508 0.100000
v -1.943893 -0.395492 -0.100000
v -1.943893 -0.395492 0.100000
v -1.385496 -0.435942 0.100000
v -1.914503 -0.435942 0.100000
v -2.077975 -0.939058 0.100000
v -1.650000 -1.250000 0.100000
v -1.222024 -0.939058 0.100000
v -1.650000 -0.350000 0.100000
v -1.914503 -1.164057 0.100000
v -1.385496 -1.164057 0.100000
v -1.650000 -0.350000 -0.100000
v -1.385496 -1.164057 -0.100000
v -1.914503 -1.164057 -0.100000
v -1.385496 -0.435942 -0.100000
v -1.650000 -1.250000 -0.100000
v -2.077975 -0.939058 -0.100000
v -1.222024 -0.939058 -0.100000
v -1.914503 -0.435942 -0.100000
v 0.000000 0.500000 -0.100000
v 0.000000 0.500000 0.100000
v 0.475528 0.154509 -0.100000
v 0.475528 0.154509 0.100000
v 0.475528 -0.154509 -0.100000
v 0.475528 -0.154509 0.100000
v 0.293893 -0.404509 -0.100000
v 0.293893 -0.404509 0.100000
v 0.000000 -0.500000 -0.100000
v 0.000000 -0.500000 0.100000
v -0.475528 -0.154509 -0.100000
v -0.475528 -0.154509 0.100000
v -0.475528 0.154509 -0.100000
v -0.475528 0.154509 0.100000
v -0.293893 0.404509 -0.100000
v -0.293893 0.404509 0.100000
v -0.264503 0.364058 0.100000
v -0.427975 -0.139058 0.100000
v 0.000000 -0.450000 0.100000
v 0.427975 -0.139058 0.100000
v 0.000000 0.450000 0.100000
v -0.427975 0.139058 0.100000
v 0.427975 0.139058 0.100000
v 0.264503 -0.364058 0.100000
v 0.000000 0.450000 -0.100000
v 0.427975 0.139058 -0.100000
v 0.264503 -0.364058 -0.100000
v -0.427975 0.139058 -0.100000
v 0.000000 -0.450000 -0.100000
v -0.427975 -0.139058 -0.100000
v 0.427975 -0.139058 -0.100000
v -0.264503 0.364058 -0.100000
v 0.893893 1.954509 -0.100000
v 0.893893 1.954509 0.100000
v 1.075528 1.704509 -0.100000
v 1.075528 1.704509 0.100000
v 1.075528 1.395491 -0.100000
v 1.075528 1.395491 0.100000
v 0.893893 1.145491 -0.100000
v 0.893893 1.145491 0.100000
v 0.306107 1.145491 -0.100000
v 0.306107 1.145491 0.100000
v 0.124472 1.395491 -0.100000
v 0.124472 1.395491 0.100000
v 0.124472 1.704509 -0.100000
v 0.124472 1.704509 0.100000
v 0.306107 1.954509 -0.100000
v 0.306107 1.954509 0.100000
v 0.864504 1.914057 0.100000
v 0.335497 1.914057 0.100000
v 0.172024 1.410942 0.100000
v 1.027975 1.410942 0.100000
v 0.335497 1.185942 0.100000
v 0.172024 1.689058 0.100000
v 1.027975 1.689058 0.100000
v 0.864504 1.185942 0.100000
v 1.027975 1.689058 -0.100000
v 0.864504 1.185942 -0.100000
v 0.335497 1.185942 -0.100000
v 0.172024 1.689058 -0.100000
v 0.864504 1.914057 -0.100000
v 0.172024 1.410942 -0.100000
v 1.027975 1.410942 -0.100000
v 0.335497 1.914057 -0.100000
v 0.000000 3.600000 -0.100000
v 0.000000 3.600000 0.100000
v 0.293893 3.504508 -0.100000
v 0.293893 3.504508 0.100000
v 0.475528 3.254508 -0.100000
v 0.475528 3.254508 0.100000
v 0.475528 2.945491 -0.100000
v 0.475528 2.945491 0.100000
v 0.000000 2.600000 -0.100000
v 0.000000 2.600000 0.100000
v -0.293893 2.695491 -0.100000
v -0.293893 2.695491 0.100000
v -0.475528 2.945491 -0.100000
v -0.475528 2.945491 0.100000
v -0.475528 3.254508 -0.100000
v -0.475528 3.254508 0.100000
v 0.264503 3.464057 0.100000
v -0.427975 2.960942 0.100000
v 0.000000 2.650000 0.100000
v 0.427975 2.960942 0.100000
v 0.000000 3.550000 0.100000
v -0.264503 2.735942 0.100000
v -0.427975 3.239058 0.100000
v 0.427975 3.239058 0.100000
v 0.000000 3.550000 -0.100000
v 0.427975 3.239058 -0.100000
v -0.264503 2.735942 -0.100000
v -0.427975 3.239058 -0.100000
v 0.264503 3.464057 -0.100000
v 0.000000 2.650000 -0.100000
v -0.427975 2.960942 -0.100000
v 0.427975 2.960942 -0.100000
v -1.650000 4.400000 -0.100000
v -1.650000 4.400000 0.100000
v -1.356107 4.304508 -0.100000
v -1.356107 4.304508 0.100000
v -1.174472 4.054508 -0.100000
v -1.174472 4.054508 0.100000
v -1.356107 3.495491 -0.100000
v -1.356107 3.495491 0.100000
v -1.650000 3.400000 -0.100000
v -1.650000 3.400000 0.100000
v -1.943893 3.495491 -0.100000
v -1.943893 3.495491 0.100000
v -2.125528 4.054508 -0.100000
v -2.125528 4.054508 0.100000
v -1.943893 4.304508 -0.100000
v -1.943893 4.304508 0.100000
v -1.385496 4.264057 0.100000
v -1.914503 4.264057 0.100000
v -1.650000 3.450000 0.100000
v -1.650000 4.349999 0.100000
v -1.914503 3.535942 0.100000
v -2.077976 4.039058 0.100000
v -1.222025 4.039058 0.100000
v -1.385496 3.535942 0.100000
v -1.650000 4.349999 -0.100000
v -1.222025 4.039058 -0.100000
v -1.385496 3.535942 -0.100000
v -1.914503 3.535942 -0.100000
v -2.077976 4.039058 -0.100000
v -1.385496 4.264057 -0.100000
v -1.650000 3.450000 -0.100000
v -1.914503 4.264057 -0.100000
v -3.137804 3.547299 0.100000
v -3.137804 3.547299 -0.100000
v -2.920799 3.387092 0.100000
v -2.920799 3.387092 -0.100000
v -2.824472 3.168391 0.090000
v -2.824472 2.945491 0.090000
v -2.824472 3.168391 -0.090000
v -2.824472 2.945491 -0.090000
v -3.006107 2.695491 -0.090000
v -3.006107 2.695491 0.090000
v -3.219196 2.626255 0.090000
v -3.219196 2.626255 -0.090000
v -3.487825 2.661028 0.100000
v -3.487825 2.661028 -0.100000
v -3.675285 2.807519 0.100000
v -3.675285 2.807519 -0.100000
v -3.775528 2.993153 0.090000
v -3.775528 2.993153 -0.090000
v -3.775528 3.254508 0.090000
v -3.775528 3.254508 -0.090000
v -3.645896 2.847970 0.100000
v -3.458435 2.701479 0.100000
v -2.968352 3.371641 0.100000
v -3.167193 3.506848 0.100000
v -3.593893 3.504508 -0.090000
v -3.593893 3.504508 0.090000
v -3.345329 3.585272 0.090000
v -3.345329 3.585272 -0.090000
v -2.968352 3.371641 -0.100000
v -3.167193 3.506848 -0.100000
v -3.458435 2.701479 -0.100000
v -3.645896 2.847970 -0.100000
v -2.872025 3.104095 0.090000
v -2.872025 3.104095 -0.090000
v -2.872025 2.960942 -0.090000
v -2.872025 2.960942 0.090000
v -3.035497 2.735942 -0.090000
v -3.035497 2.735942 0.090000
v -3.171643 2.691705 0.090000
v -3.171643 2.691705 -0.090000
v -3.727975 3.058604 0.090000
v -3.727975 3.239058 -0.090000
v -3.727975 3.239058 0.090000
v -3.727975 3.058604 -0.090000
v -3.564503 3.464057 -0.090000
v -3.564503 3.464057 0.090000
v -3.392881 3.519821 0.090000
v -3.392881 3.519821 -0.090000
v -3.789877 2.014219 0.100000
v -3.789877 2.014219 -0.100000
v -3.552113 1.880192 0.090000
v -3.424472 1.704508 0.090000
v -3.552113 1.880192 -0.090000
v -3.424472 1.704508 -0.090000
v -3.424472 1.395491 -0.090000
v -3.424472 1.395491 0.090000
v -3.552113 1.219808 0.090000
v -3.552113 1.219808 -0.090000
v -3.789877 1.085781 0.100000
v -3.789877 1.085781 -0.100000
v -4.027641 1.091473 0.100000
v -4.027641 1.091473 -0.100000
v -4.217853 1.178469 0.090000
v -4.217853 1.178469 -0.090000
v -4.375528 1.395491 0.090000
v -4.375528 1.395491 -0.090000
v -4.375528 1.704508 -0.090000
v -4.375528 1.704508 0.090000
v -3.789877 1.135781 0.100000
v -4.027641 1.141473 0.100000
v -4.027641 1.958527 0.100000
v -3.789877 1.964219 0.100000
v -4.027641 2.008527 0.100000
v -4.217853 1.921530 0.090000
v -4.217853 1.921530 -0.090000
v -4.027641 2.008527 -0.100000
v -3.789877 1.135781 -0.100000
v -3.789877 1.964219 -0.100000
v -4.027641 1.141473 -0.100000
v -4.027641 1.958527 -0.100000
v -3.552113 1.799290 0.090000
v -3.552113 1.799290 -0.090000
v -3.472024 1.689058 -0.090000
v -3.472024 1.689058 0.090000
v -3.472024 1.410942 -0.090000
v -3.472024 1.410942 0.090000
v -3.552113 1.300710 0.090000
v -3.552113 1.300710 -0.090000
v -4.217853 1.259371 0.090000
v -4.327975 1.410942 -0.090000
v -4.327975 1.410942 0.090000
v -4.217853 1.259371 -0.090000
v -4.327975 1.689058 -0.090000
v -4.327975 1.689058 0.090000
v -4.217853 1.840629 0.090000
v -4.217853 1.840629 -0.090000
v -3.219196 0.473745 0.090000
v -3.219196 0.473745 -0.090000
v -3.006107 0.404509 0.090000
v -3.006107 0.404509 -0.090000
v -2.824472 0.154509 -0.090000
v -2.824472 0.154509 0.090000
v -2.824472 -0.068391 0.090000
v -2.824472 -0.068391 -0.090000
v -2.920799 -0.287092 0.100000
v -2.920799 -0.287092 -0.100000
v -3.137804 -0.447299 0.100000
v -3.137804 -0.447299 -0.100000
v -3.345329 -0.485272 0.090000
v -3.345329 -0.485272 -0.090000
v -3.593893 -0.404509 -0.090000
v -3.593893 -0.404509 0.090000
v -3.775528 -0.154509 -0.090000
v -3.775528 -0.154509 0.090000
v -3.775528 0.106847 0.090000
v -3.775528 0.106847 -0.090000
v -2.968352 -0.271641 0.100000
v -3.167193 -0.406848 0.100000
v -3.675285 0.292481 0.100000
v -3.645896 0.252030 0.100000
v -3.458435 0.398521 0.100000
v -3.487825 0.438972 0.100000
v -3.675285 0.292481 -0.100000
v -3.487825 0.438972 -0.100000
v -2.968352 -0.271641 -0.100000
v -3.167193 -0.406848 -0.100000
v -3.458435 0.398521 -0.100000
v -3.645896 0.252030 -0.100000
v -3.171643 0.408294 0.090000
v -3.035497 0.364058 -0.090000
v -3.035497 0.364058 0.090000
v -3.171643 0.408294 -0.090000
v -2.872025 0.139058 -0.090000
v -2.872025 0.139058 0.090000
v -2.872025 -0.004096 0.090000
v -2.872025 -0.004096 -0.090000
v -3.392881 -0.419821 0.090000
v -3.392881 -0.419821 -0.090000
v -3.564503 -0.364058 -0.090000
v -3.564503 -0.364058 0.090000
v -3.727975 -0.139058 -0.090000
v -3.727975 -0.139058 0.090000
v -3.727975 0.041396 0.090000
v -3.727975 0.041396 -0.090000
v -1.419174 -0.375000 0.090000
v -1.650000 -0.300000 -0.090000
v -1.650000 -0.300000 0.090000
v -1.233250 -0.564590 0.100000
v -1.233250 -0.564590 -0.100000
v -1.174472 -0.795492 0.100000
v -1.174472 -0.795492 -0.100000
v -1.213449 -1.008156 0.090000
v -1.213449 -1.008156 -0.090000
v -1.356107 -1.204508 -0.090000
v -1.356107 -1.204508 0.090000
v -1.650000 -1.300000 -0.090000
v -1.650000 -1.300000 0.090000
v -1.943893 -1.204508 -0.090000
v -1.943893 -1.204508 0.090000
v -2.086551 -1.008156 0.090000
v -2.086551 -1.008156 -0.090000
v -2.125528 -0.795492 0.100000
v -2.125528 -0.795492 -0.100000
v -1.222024 -0.810942 0.100000
v -2.077975 -0.810943 0.100000
v -1.280803 -0.580041 0.100000
v -2.066750 -0.564590 0.100000
v -2.019197 -0.580041 0.100000
v -2.066750 -0.564590 -0.100000
v -1.880826 -0.375000 0.090000
v -1.880826 -0.375000 -0.090000
v -1.222024 -0.810942 -0.100000
v -1.280803 -0.580041 -0.100000
v -2.019197 -0.580041 -0.100000
v -2.077975 -0.810943 -0.100000
v -1.496115 -0.400000 0.090000
v -1.496115 -0.400000 -0.090000
v -1.650000 -0.350000 -0.090000
v -1.650000 -0.350000 0.090000
v -1.290391 -1.033156 0.090000
v -1.290391 -1.033156 -0.090000
v -1.385496 -1.164057 -0.090000
v -1.385496 -1.164057 0.090000
v -1.650000 -1.250000 -0.090000
v -1.650000 -1.250000 0.090000
v -1.914503 -1.164057 -0.090000
v -1.914503 -1.164057 0.090000
v -2.009609 -1.033156 0.090000
v -2.009609 -1.033156 -0.090000
v -1.803885 -0.400000 0.090000
v -1.803885 -0.400000 -0.090000
v 0.187825 0.438972 0.100000
v 0.187825 0.438972 -0.100000
v 0.375285 0.292481 0.100000
v 0.375285 0.292481 -0.100000
v 0.475528 0.106847 0.090000
v 0.475528 0.106847 -0.090000
v 0.475528 -0.154509 -0.090000
v 0.475528 -0.154509 0.090000
v 0.293893 -0.404509 -0.090000
v 0.293893 -0.404509 0.090000
v 0.045329 -0.485272 0.090000
v 0.045329 -0.485272 -0.090000
v -0.162197 -0.447299 0.100000
v -0.162197 -0.447299 -0.100000
v -0.379200 -0.287092 0.100000
v -0.379200 -0.287092 -0.100000
v -0.475528 -0.068391 0.090000
v -0.475528 -0.068391 -0.090000
v -0.475528 0.154509 -0.090000
v -0.475528 0.154509 0.090000
v -0.331648 -0.271641 0.100000
v -0.132807 -0.406848 0.100000
v 0.345896 0.252030 0.100000
v 0.158435 0.398521 0.100000
v -0.293893 0.404509 -0.090000
v -0.293893 0.404509 0.090000
v -0.080804 0.473745 0.090000
v -0.080804 0.473745 -0.090000
v 0.345896 0.252030 -0.100000
v 0.158435 0.398521 -0.100000
v -0.132807 -0.406848 -0.100000
v -0.331648 -0.271641 -0.100000
v 0.427975 0.041396 0.090000
v 0.427975 0.041396 -0.090000
v 0.427975 -0.139058 -0.090000
v 0.427975 -0.139058 0.090000
v 0.264503 -0.364058 -0.090000
v 0.264503 -0.364058 0.090000
v 0.092881 -0.419821 0.090000
v 0.092881 -0.419821 -0.090000
v -0.427975 -0.004096 0.090000
v -0.427975 0.139058 -0.090000
v -0.427975 0.139058 0.090000
v -0.427975 -0.004096 -0.090000
v -0.264503 0.364058 -0.090000
v -0.264503 0.364058 0.090000
v -0.128356 0.408294 0.090000
v -0.128356 0.408294 -0.090000
v 0.727641 2.008527 0.100000
v 0.727641 2.008527 -0.100000
v 0.917853 1.921530 0.090000
v 0.917853 1.921530 -0.090000
v 1.075528 1.704509 -0.090000
v 1.075528 1.704509 0.090000
v 1.075528 1.395491 -0.090000
v 1.075528 1.395491 0.090000
v 0.917853 1.178470 0.090000
v 0.917853 1.178470 -0.090000
v 0.727641 1.091473 0.100000
v 0.727641 1.091473 -0.100000
v 0.489877 1.085781 0.100000
v 0.489877 1.085781 -0.100000
v 0.252113 1.219808 0.090000
v 0.252113 1.219808 -0.090000
v 0.124472 1.395491 0.090000
v 0.124472 1.395491 -0.090000
v 0.124472 1.704509 -0.090000
v 0.124472 1.704509 0.090000
v 0.727641 1.141473 0.100000
v 0.489877 1.135781 0.100000
v 0.489877 1.964219 0.100000
v 0.727641 1.958527 0.100000
v 0.489877 2.014219 0.100000
v 0.252113 1.880192 0.090000
v 0.252113 1.880192 -0.090000
v 0.489877 2.014219 -0.100000
v 0.727641 1.141473 -0.100000
v 0.727641 1.958527 -0.100000
v 0.489877 1.135781 -0.100000
v 0.489877 1.964219 -0.100000
v 0.917853 1.840629 0.090000
v 0.917853 1.840629 -0.090000
v 1.027975 1.689058 -0.090000
v 1.027975 1.689058 0.090000
v 1.027975 1.410942 -0.090000
v 1.027975 1.410942 0.090000
v 0.917853 1.259371 0.090000
v 0.917853 1.259371 -0.090000
v 0.252113 1.300710 0.090000
v 0.172024 1.410942 -0.090000
v 0.172024 1.410942 0.090000
v 0.252113 1.300710 -0.090000
v 0.172024 1.689058 -0.090000
v 0.172024 1.689058 0.090000
v 0.252113 1.799290 0.090000
v 0.252113 1.799290 -0.090000
v 0.045329 3.585272 0.090000
v 0.045329 3.585272 -0.090000
v 0.293893 3.504508 0.090000
v 0.293893 3.504508 -0.090000
v 0.475528 3.254508 -0.090000
v 0.475528 3.254508 0.090000
v 0.475528 2.993153 0.090000
v 0.475528 2.993153 -0.090000
v 0.375285 2.807519 0.100000
v 0.375285 2.807519 -0.100000
v 0.187825 2.661028 0.100000
v 0.187825 2.661028 -0.100000
v -0.080804 2.626255 0.090000
v -0.080804 2.626255 -0.090000
v -0.293893 2.695491 -0.090000
v -0.293893 2.695491 0.090000
v -0.475528 2.945491 -0.090000
v -0.475528 2.945491 0.090000
v -0.475528 3.168391 0.090000
v -0.475528 3.168391 -0.090000
v 0.345896 2.847970 0.100000
v 0.158436 2.701479 0.100000
v -0.379200 3.387092 0.100000
v -0.331648 3.371641 0.100000
v -0.132807 3.506848 0.100000
v -0.162196 3.547299 0.100000
v -0.379200 3.387092 -0.100000
v -0.162196 3.547299 -0.100000
v 0.345896 2.847970 -0.100000
v 0.158436 2.701479 -0.100000
v -0.132807 3.506848 -0.100000
v -0.331648 3.371641 -0.100000
v 0.092881 3.519821 0.090000
v 0.264503 3.464057 -0.090000
v 0.264503 3.464057 0.090000
v 0.092881 3.519821 -0.090000
v 0.427975 3.239058 -0.090000
v 0.427975 3.239058 0.090000
v 0.427975 3.058604 0.090000
v 0.427975 3.058604 -0.090000
v -0.128356 2.691705 0.090000
v -0.264503 2.735942 -0.090000
v -0.128356 2.691705 -0.090000
v -0.264503 2.735942 0.090000
v -0.427975 2.960942 -0.090000
v -0.427975 2.960942 0.090000
v -0.427975 3.104095 0.090000
v -0.427975 3.104095 -0.090000
v -1.650000 4.400000 -0.090000
v -1.650000 4.400000 0.090000
v -1.356107 4.304508 -0.090000
v -1.356107 4.304508 0.090000
v -1.213449 4.108156 0.090000
v -1.213449 4.108156 -0.090000
v -1.174472 3.895491 0.100000
v -1.174472 3.895491 -0.100000
v -1.233250 3.664590 0.100000
v -1.233250 3.664590 -0.100000
v -1.419173 3.475000 0.090000
v -1.419173 3.475000 -0.090000
v -1.650000 3.400000 -0.090000
v -1.650000 3.400000 0.090000
v -1.880826 3.475000 0.090000
v -1.880826 3.475000 -0.090000
v -2.066750 3.664590 0.100000
v -2.066750 3.664590 -0.100000
v -2.125528 3.895491 0.100000
v -2.125528 3.895491 -0.100000
v -1.222025 3.910942 0.100000
v -2.077976 3.910942 0.100000
v -2.019197 3.680041 0.100000
v -1.280803 3.680041 0.100000
v -2.086551 4.108156 0.090000
v -2.086551 4.108156 -0.090000
v -1.943893 4.304508 0.090000
v -1.943893 4.304508 -0.090000
v -1.222025 3.910942 -0.100000
v -1.280803 3.680041 -0.100000
v -2.019197 3.680041 -0.100000
v -2.077976 3.910942 -0.100000
v -1.385496 4.264057 -0.090000
v -1.385496 4.264057 0.090000
v -1.650000 4.349999 -0.090000
v -1.650000 4.349999 0.090000
v -1.290391 4.133156 0.090000
v -1.290391 4.133156 -0.090000
v -1.496116 3.500000 0.090000
v -1.650000 3.450000 0.090000
v -1.496116 3.500000 -0.090000
v -1.650000 3.450000 -0.090000
v -1.803884 3.500000 0.090000
v -1.803884 3.500000 -0.090000
v -2.009609 4.133156 0.090000
v -1.914503 4.264057 -0.090000
v -1.914503 4.264057 0.090000
v -2.009609 4.133156 -0.090000
v -1.650000 3.550000 -0.090000
v -1.650000 3.550000 0.090000
v -0.474429 3.168034 -0.090000
v -0.474429 3.168034 0.090000
v 0.252113 2.168034 -0.090000
v 0.252113 2.168034 0.090000
v 0.252113 0.931966 -0.090000
v 0.252113 0.931966 0.090000
v -0.474429 -0.068034 -0.090000
v -0.474429 -0.068034 0.090000
v -1.650000 -0.450000 -0.090000
v -1.650000 -0.450000 0.090000
v -2.825571 -0.068034 -0.090000
v -2.825571 -0.068034 0.090000
v -3.552113 0.931966 -0.090000
v -3.552113 0.931966 0.090000
v -3.552113 2.168034 -0.090000
v -3.552113 2.168034 0.090000
v -2.825571 3.168034 -0.090000
v -2.825571 3.168034 0.090000
v -0.591986 3.006230 0.090000
v -2.708014 3.006230 0.090000
v -3.361902 0.993769 0.090000
v -1.650000 -0.250000 0.090000
v 0.061902 0.993769 0.090000
v -1.650000 3.350000 0.090000
v -2.708014 0.093770 0.090000
v -3.361902 2.106230 0.090000
v 0.061902 2.106230 0.090000
v -0.591986 0.093770 0.090000
v -1.650000 3.350000 -0.090000
v 0.061902 2.106230 -0.090000
v -0.591986 0.093770 -0.090000
v -2.708014 0.093770 -0.090000
v -3.361902 2.106230 -0.090000
v -0.591986 3.006231 -0.090000
v -1.650000 -0.250000 -0.090000
v -3.361902 0.993769 -0.090000
v 0.061902 0.993769 -0.090000
v -2.708014 3.006231 -0.090000
v -1.650000 4.050000 -0.110000
v -1.650000 4.050000 0.110000
v -0.180537 3.572542 -0.110000
v -0.180537 3.572542 0.110000
v 0.727641 2.322542 -0.110000
v 0.727641 2.322542 0.110000
v 0.727641 0.777457 -0.110000
v 0.727641 0.777457 0.110000
v -0.180537 -0.472543 -0.110000
v -0.180537 -0.472543 0.110000
v -1.650000 -0.950000 -0.110000
v -1.650000 -0.950000 0.110000
v -3.119463 -0.472543 -0.110000
v -3.119463 -0.472543 0.110000
v -4.027641 0.777457 -0.110000
v -4.027641 0.777457 0.110000
v -4.027641 2.322542 -0.110000
v -4.027641 2.322542 0.110000
v -3.119463 3.572542 -0.110000
v -3.119463 3.572542 0.110000
v -0.327483 3.370288 0.110000
v -2.972517 3.370288 0.110000
v -3.789877 0.854712 0.110000
v -1.650000 -0.700000 0.110000
v 0.489877 0.854712 0.110000
v -1.650000 3.800000 0.110000
v -2.972517 -0.270288 0.110000
v -3.789877 2.245288 0.110000
v 0.489877 2.245288 0.110000
v -0.327483 -0.270288 0.110000
v -1.650000 3.800000 -0.110000
v 0.489877 2.245288 -0.110000
v -0.327483 -0.270288 -0.110000
v -2.972517 -0.270288 -0.110000
v -3.789877 2.245288 -0.110000
v -0.327483 3.370288 -0.110000
v -1.650000 -0.700000 -0.110000
v -3.789877 0.854712 -0.110000
v 0.489877 0.854712 -0.110000
v -2.972517 3.370288 -0.110000
v -1.650000 4.550000 -0.090000
v -1.650000 4.550000 0.090000
v 0.113356 3.977051 -0.090000
v 0.113356 3.977051 0.090000
v 1.203170 2.477051 -0.090000
v 1.203170 2.477051 0.090000
v 1.203170 0.622949 -0.090000
v 1.203170 0.622949 0.090000
v 0.113356 -0.877051 -0.090000
v 0.113356 -0.877051 0.090000
v -1.650000 -1.450000 -0.090000
v -1.650000 -1.450000 0.090000
v -3.413356 -0.877051 -0.090000
v -3.413356 -0.877051 0.090000
v -4.503170 0.622949 -0.090000
v -4.503170 0.622949 0.090000
v -4.503170 2.477051 -0.090000
v -4.503170 2.477051 0.090000
v -3.413356 3.977051 -0.090000
v -3.413356 3.977051 0.090000
v -0.062980 3.734346 0.090000
v -3.237020 3.734346 0.090000
v -4.217853 0.715654 0.090000
v -1.650000 -1.150000 0.090000
v 0.917853 0.715654 0.090000
v -1.650000 4.250000 0.090000
v -3.237020 -0.634346 0.090000
v -4.217853 2.384346 0.090000
v 0.917853 2.384346 0.090000
v -0.062980 -0.634346 0.090000
v -1.650000 4.250000 -0.090000
v 0.917853 2.384346 -0.090000
v -0.062980 -0.634346 -0.090000
v -3.237020 -0.634346 -0.090000
v -4.217853 2.384346 -0.090000
v -0.062980 3.734346 -0.090000
v -1.650000 -1.150000 -0.090000
v -4.217853 0.715654 -0.090000
v 0.917853 0.715654 -0.090000
v -3.237020 3.734346 -0.090000
vn -0.0000 0.2313 -0.9729
vn -0.0000 0.2313 0.9729
vn -0.3090 -0.9511 -0.0000
vn 0.2200 0.0715 -0.9729
vn 0.2200 0.0715 0.9729
vn 0.2200 -0.0715 -0.9729
vn 0.2200 -0.0715 0.9729
vn 0.1360 -0.1871 -0.9729
vn -0.3089 0.9511 -0.0000
vn 0.1360 -0.1871 0.9729
vn -0.0000 -0.2313 -0.9729
vn -0.0000 -0.2313 0.9729
vn 0.3089 0.9511 -0.0000
vn -0.2200 -0.0715 -0.9729
vn -0.2200 -0.0715 0.9729
vn -0.2200 0.0715 -0.9729
vn -0.2200 0.0715 0.9729
vn 0.3090 -0.9511 -0.0000
vn -0.1360 0.1871 -0.9729
vn -0.1360 0.1871 0.9729
vn 0.0920 -0.1267 0.9877
vn 0.1489 0.0484 0.9877
vn -0.0000 0.1565 0.9877
vn -0.1489 0.0484 0.9877
vn -0.0000 -0.1566 0.9877
vn 0.1489 -0.0484 0.9877
vn -0.1489 -0.0484 0.9877
vn -0.0920 0.1267 0.9877
vn -0.0000 -0.1566 -0.9877
vn -0.1489 -0.0484 -0.9877
vn -0.0920 0.1267 -0.9877
vn 0.1489 -0.0484 -0.9877
vn -0.0000 0.1566 -0.9877
vn 0.1489 0.0484 -0.9877
vn -0.1489 0.0484 -0.9877
vn 0.0920 -0.1267 -0.9877
vn 0.1360 0.1871 -0.9729
vn 0.1360 0.1871 0.9729
vn -0.1360 -0.1871 -0.9729
vn -0.1360 -0.1871 0.9729
vn -0.0920 -0.1266 0.9877
vn 0.0920 0.1267 0.9877
vn -0.0920 0.1266 -0.9877
vn 0.0920 0.1267 -0.9877
vn -0.0920 -0.1267 -0.9877
vn -0.0920 -0.1267 0.9877
vn -0.0000 0.1566 0.9877
vn -0.0383 0.1180 -0.9923
vn -0.0383 0.1180 0.9923
vn 0.1003 0.0729 -0.9923
vn 0.1003 0.0729 0.9923
vn -0.0000 -0.1565 0.9877
vn 0.0920 0.1266 0.9877
vn -0.0000 -0.1565 -0.9877
vn 0.0920 0.1266 -0.9877
vn -0.0920 0.1266 0.9877
vn -0.0920 -0.1266 -0.9877
vn 0.0920 -0.1266 -0.9877
vn 0.0749 0.2307 0.9701
vn 0.0749 0.2307 -0.9701
vn 0.1330 0.0966 0.9864
vn 0.1330 0.0966 -0.9864
vn 0.9611 -0.2762 -0.0000
vn 0.9511 -0.3090 -0.0000
vn 0.5878 -0.8090 -0.0000
vn -0.0749 -0.2307 0.9701
vn -0.0749 -0.2307 -0.9701
vn -0.1962 -0.1426 0.9701
vn -0.1962 -0.1426 -0.9701
vn -1.0000 -0.0000 -0.0000
vn -0.9511 0.3090 -0.0000
vn 0.0508 0.1564 0.9864
vn -0.0508 -0.1564 0.9864
vn -0.5878 0.8090 -0.0000
vn -0.3090 0.9511 -0.0000
vn -0.0508 -0.1564 -0.9864
vn 0.0508 0.1564 -0.9864
vn 1.0000 -0.0000 -0.0000
vn 0.8090 0.5878 -0.0000
vn 0.9511 0.3090 -0.0000
vn 0.8090 -0.5878 -0.0000
vn 0.0749 -0.2307 0.9701
vn 0.0749 -0.2307 -0.9701
vn -0.8090 -0.5878 -0.0000
vn -0.9511 -0.3090 -0.0000
vn -0.0508 0.1564 0.9864
vn 0.0508 -0.1563 0.9864
vn -0.0749 0.2307 0.9701
vn -0.8090 0.5878 -0.0000
vn -0.0749 0.2307 -0.9701
vn -0.0508 0.1564 -0.9864
vn -0.0508 -0.1563 -0.9864
vn 0.0508 0.1563 -0.9864
vn 0.0508 -0.1563 -0.9864
vn 0.3090 0.9511 -0.0000
vn 0.5878 0.8090 -0.0000
vn 0.9611 0.2762 -0.0000
vn 0.1330 -0.0966 0.9864
vn 0.1330 -0.0966 -0.9864
vn -0.5878 -0.8090 -0.0000
vn -0.1962 0.1426 0.9701
vn -0.0508 0.1563 0.9864
vn 0.0508 -0.1564 0.9864
vn -0.1962 0.1426 -0.9701
vn -0.0508 0.1563 -0.9864
vn 0.0508 -0.1564 -0.9864
vn -0.0000 -0.0000 -1.0000
vn 0.1962 0.1426 0.9701
vn 0.1962 0.1426 -0.9701
vn 0.2425 -0.0000 0.9701
vn 0.2425 -0.0000 -0.9701
vn -0.0000 -1.0000 -0.0000
vn -0.2425 -0.0000 0.9701
vn -0.2425 -0.0000 -0.9701
vn -0.1644 -0.0000 0.9864
vn 0.1644 -0.0000 0.9864
vn -0.1330 -0.0966 0.9864
vn -0.2571 0.7913 -0.5547
vn -0.1644 -0.0000 -0.9864
vn -0.1330 -0.0966 -0.9864
vn 0.1644 -0.0000 -0.9864
vn -0.1085 -0.3339 -0.9363
vn -0.0000 1.0000 -0.0000
vn 0.1085 -0.3339 -0.9363
vn -0.9611 0.2762 -0.0000
vn -0.0750 -0.2307 -0.9701
vn 0.0508 0.1563 0.9864
vn 0.1962 -0.1426 0.9701
vn 0.1962 -0.1426 -0.9701
vn 0.0750 -0.2307 -0.9701
vn -0.9611 -0.2762 -0.0000
vn -0.1330 0.0966 0.9864
vn -0.1330 0.0966 -0.9864
vn 0.1360 -0.1872 0.9729
vn -0.1360 0.1872 0.9729
vt 0.137705 0.978135
vt 0.131875 0.869262
vt 0.137718 0.874181
vt 0.867376 0.782771
vt 0.865850 0.831794
vt 0.863055 0.832660
vt 0.865779 0.781116
vt 0.874103 0.848875
vt 0.906764 0.875743
vt 0.870521 0.852843
vt 0.908660 0.762490
vt 0.878773 0.766597
vt 0.908153 0.757265
vt 0.933949 0.838798
vt 0.935844 0.757416
vt 0.935844 0.843677
vt 0.927580 0.836049
vt 0.932683 0.751454
vt 0.070999 0.951430
vt 0.074415 0.902087
vt 0.074397 0.950240
vt 0.071026 0.900886
vt 0.069869 0.900020
vt 0.074707 0.951733
vt 0.088218 0.960942
vt 0.905010 0.870612
vt 0.904697 0.858623
vt 0.866773 0.833336
vt 0.864447 0.831697
vt 0.110192 0.971482
vt 0.132772 0.975243
vt 0.086132 0.963926
vt 0.109490 0.976095
vt 0.084111 0.967220
vt 0.086100 0.888371
vt 0.109478 0.876184
vt 0.110180 0.880799
vt 0.137422 0.977048
vt 0.883540 0.773245
vt 0.870994 0.782743
vt 0.930599 0.760187
vt 0.908137 0.766964
vt 0.869910 0.784089
vt 0.868481 0.783950
vt 0.110488 0.885020
vt 0.088206 0.891354
vt 0.132781 0.877074
vt 0.135681 0.979540
vt 0.873398 0.836323
vt 0.885782 0.776386
vt 0.881176 0.842097
vt 0.904122 0.848320
vt 0.927495 0.839107
vt 0.919749 0.768081
vt 0.930499 0.836706
vt 0.073176 0.901839
vt 0.074721 0.900606
vt 0.079850 0.952895
vt 0.110499 0.967265
vt 0.090110 0.957662
vt 0.111072 0.962820
vt 0.111062 0.889468
vt 0.090103 0.894634
vt 0.125566 0.885221
vt 0.139751 0.892753
vt 0.147204 0.777274
vt 0.147188 0.897280
vt 0.139881 0.781699
vt 0.139311 0.784177
vt 0.164846 0.884478
vt 0.194155 0.877641
vt 0.165755 0.889640
vt 0.191356 0.799987
vt 0.165461 0.784833
vt 0.193893 0.796599
vt 0.203040 0.860193
vt 0.202988 0.813958
vt 0.204821 0.861906
vt 0.199651 0.859086
vt 0.199595 0.815067
vt 0.921503 0.154883
vt 0.924842 0.203512
vt 0.921379 0.204680
vt 0.920277 0.205475
vt 0.920389 0.154087
vt 0.960476 0.224735
vt 0.934869 0.220550
vt 0.936864 0.217295
vt 0.936868 0.142291
vt 0.959773 0.130310
vt 0.960468 0.134837
vt 0.938898 0.214287
vt 0.191588 0.874273
vt 0.199409 0.860809
vt 0.144899 0.891640
vt 0.141756 0.901609
vt 0.988249 0.231187
vt 0.983305 0.228398
vt 0.982279 0.236081
vt 0.988260 0.128411
vt 0.987899 0.230268
vt 0.982289 0.123516
vt 0.164567 0.789967
vt 0.188536 0.802613
vt 0.165023 0.794241
vt 0.199343 0.813335
vt 0.201039 0.814771
vt 0.144742 0.782740
vt 0.938899 0.145290
vt 0.141609 0.772809
vt 0.154915 0.880961
vt 0.164683 0.798767
vt 0.165233 0.880195
vt 0.186170 0.868964
vt 0.188721 0.871683
vt 0.192892 0.810629
vt 0.201097 0.859375
vt 0.925296 0.204992
vt 0.923673 0.155859
vt 0.925288 0.154586
vt 0.930106 0.206127
vt 0.960908 0.220547
vt 0.940742 0.210981
vt 0.961529 0.216129
vt 0.961524 0.143443
vt 0.940740 0.148591
vt 0.983312 0.131200
vt 0.976628 0.139186
vt 0.986284 0.232466
vt 0.920277 0.086355
vt 0.920329 0.036782
vt 0.922007 0.038480
vt 0.933958 0.099094
vt 0.959156 0.115192
vt 0.931332 0.102438
vt 0.960580 0.013342
vt 0.931388 0.020657
vt 0.959246 0.007938
vt 0.988190 0.122727
vt 0.988242 0.000395
vt 0.988300 0.119592
vt 0.983947 0.116887
vt 0.984019 0.006211
vt 0.921780 0.329842
vt 0.920853 0.396974
vt 0.920327 0.395245
vt 0.921205 0.396056
vt 0.920276 0.328839
vt 0.951610 0.395414
vt 0.981960 0.390939
vt 0.951873 0.400567
vt 0.940148 0.314023
vt 0.967766 0.300345
vt 0.968039 0.305519
vt 0.998114 0.371195
vt 0.999605 0.305647
vt 0.999605 0.372200
vt 0.979523 0.386994
vt 0.951653 0.390648
vt 0.982603 0.115721
vt 0.960494 0.105186
vt 0.925739 0.085324
vt 0.936837 0.096434
vt 0.995225 0.370044
vt 0.993634 0.369464
vt 0.998992 0.303914
vt 0.921960 0.084697
vt 0.925493 0.039636
vt 0.925443 0.083548
vt 0.982711 0.007365
vt 0.960555 0.017956
vt 0.987798 0.007594
vt 0.942696 0.317565
vt 0.934016 0.024002
vt 0.925798 0.037859
vt 0.932008 0.088091
vt 0.939474 0.029497
vt 0.936894 0.026666
vt 0.939416 0.093610
vt 0.961067 0.100361
vt 0.972355 0.105503
vt 0.972469 0.017650
vt 0.987716 0.115503
vt 0.925307 0.392845
vt 0.924537 0.331042
vt 0.926463 0.329346
vt 0.935186 0.387910
vt 0.976981 0.383439
vt 0.951414 0.385653
vt 0.974631 0.379584
vt 0.968254 0.315316
vt 0.945050 0.321408
vt 0.986814 0.373480
vt 0.984488 0.313062
vt 0.994399 0.308116
vt 0.993253 0.371693
vt 0.924010 0.039343
vt 0.540142 0.708194
vt 0.533843 0.775818
vt 0.533754 0.710424
vt 0.701543 0.904651
vt 0.703040 0.954421
vt 0.699803 0.955333
vt 0.698294 0.956304
vt 0.700281 0.903598
vt 0.712495 0.968561
vt 0.737480 0.990033
vt 0.709620 0.971959
vt 0.739174 0.885022
vt 0.713484 0.890044
vt 0.738195 0.880491
vt 0.737630 0.985312
vt 0.773319 0.975107
vt 0.768975 0.880768
vt 0.770426 0.876724
vt 0.786641 0.955983
vt 0.786831 0.896966
vt 0.788287 0.957261
vt 0.783123 0.898282
vt 0.770525 0.970776
vt 0.739138 0.975962
vt 0.532381 0.778886
vt 0.540142 0.777793
vt 0.519090 0.816225
vt 0.505971 0.790958
vt 0.503069 0.721717
vt 0.510305 0.788750
vt 0.506508 0.792763
vt 0.491529 0.716016
vt 0.496471 0.720516
vt 0.703649 0.905493
vt 0.704666 0.905794
vt 0.740148 0.889560
vt 0.504313 0.718454
vt 0.510424 0.666757
vt 0.521355 0.785093
vt 0.520100 0.702164
vt 0.532088 0.707657
vt 0.535977 0.776277
vt 0.705020 0.904454
vt 0.702026 0.954670
vt 0.703352 0.955828
vt 0.709211 0.957415
vt 0.719796 0.899153
vt 0.717789 0.896076
vt 0.718229 0.962282
vt 0.740358 0.967349
vt 0.767303 0.884177
vt 0.740956 0.894459
vt 0.767526 0.966996
vt 0.764947 0.962859
vt 0.775546 0.957805
vt 0.775646 0.895493
vt 0.782661 0.896852
vt 0.784079 0.955070
vt 0.782480 0.956334
vt 0.509632 0.791908
vt 0.500882 0.721434
vt 0.513850 0.796779
vt 0.697504 0.988913
vt 0.689863 0.909272
vt 0.695777 0.906908
vt 0.920277 0.518403
vt 0.926457 0.622523
vt 0.920303 0.620306
vt 0.920477 0.619338
vt 0.920477 0.519356
vt 0.947266 0.614927
vt 0.973653 0.610875
vt 0.947856 0.619505
vt 0.971664 0.531235
vt 0.947929 0.519245
vt 0.973684 0.527892
vt 0.987051 0.594913
vt 0.987061 0.543898
vt 0.988201 0.595803
vt 0.983609 0.593738
vt 0.983617 0.545071
vt 0.627686 0.964197
vt 0.627525 0.912659
vt 0.630381 0.962887
vt 0.625994 0.965881
vt 0.622707 0.909943
vt 0.624650 0.911648
vt 0.631473 0.964329
vt 0.641744 0.977626
vt 0.971638 0.607526
vt 0.947056 0.610743
vt 0.969539 0.604489
vt 0.924999 0.618948
vt 0.922556 0.625442
vt 0.670664 0.985996
vt 0.692894 0.990213
vt 0.670300 0.991269
vt 0.639401 0.981452
vt 0.637430 0.895593
vt 0.670834 0.876724
vt 0.669087 0.881842
vt 0.697141 0.988200
vt 0.947081 0.528004
vt 0.925025 0.519730
vt 0.983192 0.543615
vt 0.969558 0.534273
vt 0.926457 0.516177
vt 0.666795 0.885622
vt 0.640599 0.898902
vt 0.689463 0.906420
vt 0.695221 0.987576
vt 0.922568 0.513250
vt 0.932102 0.610665
vt 0.946569 0.532420
vt 0.967650 0.601162
vt 0.977998 0.596363
vt 0.978006 0.542407
vt 0.984781 0.593991
vt 0.983186 0.595193
vt 0.628509 0.911102
vt 0.628874 0.962990
vt 0.626037 0.912729
vt 0.638476 0.966332
vt 0.670028 0.981512
vt 0.646832 0.971298
vt 0.670077 0.976675
vt 0.666348 0.896400
vt 0.643445 0.902573
vt 0.681891 0.981169
vt 0.678565 0.902248
vt 0.789077 0.982864
vt 0.795475 0.879518
vt 0.795461 0.985083
vt 0.789091 0.881735
vt 0.789364 0.882526
vt 0.816806 0.977674
vt 0.842856 0.973583
vt 0.817397 0.982222
vt 0.840844 0.894346
vt 0.817398 0.882411
vt 0.842843 0.891033
vt 0.856518 0.957491
vt 0.856523 0.907100
vt 0.857640 0.958300
vt 0.853023 0.956289
vt 0.853029 0.908301
vt 0.862957 0.661875
vt 0.868592 0.710100
vt 0.865021 0.711471
vt 0.863173 0.713354
vt 0.860906 0.659890
vt 0.877839 0.725908
vt 0.905822 0.741609
vt 0.875217 0.729601
vt 0.874989 0.645317
vt 0.909112 0.626232
vt 0.907203 0.631351
vt 0.868831 0.711963
vt 0.880819 0.723015
vt 0.840853 0.970270
vt 0.852568 0.957774
vt 0.794235 0.981364
vt 0.791619 0.987875
vt 0.934668 0.745979
vt 0.932029 0.750664
vt 0.934906 0.743695
vt 0.932801 0.657564
vt 0.934129 0.742142
vt 0.926362 0.660205
vt 0.816806 0.886957
vt 0.838789 0.897412
vt 0.816499 0.891172
vt 0.852575 0.906817
vt 0.854239 0.908054
vt 0.791633 0.876724
vt 0.878270 0.648577
vt 0.794246 0.883236
vt 0.800849 0.973306
vt 0.815949 0.895612
vt 0.838797 0.967211
vt 0.815954 0.969016
vt 0.836944 0.963849
vt 0.847701 0.905673
vt 0.854233 0.956537
vt 0.866815 0.661129
vt 0.866982 0.710475
vt 0.865054 0.662748
vt 0.875863 0.714608
vt 0.906300 0.731332
vt 0.883459 0.720003
vt 0.906592 0.726268
vt 0.903951 0.645927
vt 0.881185 0.652131
vt 0.917987 0.731058
vt 0.915430 0.651977
vt 0.926659 0.656828
vt 0.929756 0.740497
vt 0.921451 0.431243
vt 0.922075 0.481801
vt 0.920277 0.430401
vt 0.937331 0.494104
vt 0.960905 0.505994
vt 0.935352 0.497426
vt 0.960190 0.410325
vt 0.934189 0.415281
vt 0.959253 0.405582
vt 0.989126 0.507607
vt 0.989126 0.401356
vt 0.988915 0.506494
vt 0.983115 0.512460
vt 0.983210 0.406294
vt 0.542592 0.838290
vt 0.545993 0.882640
vt 0.542570 0.883800
vt 0.540931 0.836646
vt 0.580511 0.907971
vt 0.551923 0.901226
vt 0.554444 0.897922
vt 0.554402 0.824090
vt 0.579407 0.808897
vt 0.580473 0.814001
vt 0.605963 0.918019
vt 0.606026 0.804046
vt 0.606310 0.915374
vt 0.557193 0.895291
vt 0.984051 0.504789
vt 0.986797 0.509020
vt 0.925773 0.482036
vt 0.939397 0.491089
vt 0.601408 0.914898
vt 0.601616 0.925037
vt 0.601682 0.797028
vt 0.924857 0.432397
vt 0.925450 0.480559
vt 0.983667 0.406836
vt 0.960706 0.414673
vt 0.986415 0.407122
vt 0.557162 0.826712
vt 0.936296 0.418525
vt 0.925143 0.430908
vt 0.930929 0.483138
vt 0.940458 0.424705
vt 0.938481 0.421460
vt 0.961779 0.497136
vt 0.941249 0.487781
vt 0.962284 0.492680
vt 0.976220 0.414952
vt 0.546225 0.837679
vt 0.544466 0.882924
vt 0.544488 0.839167
vt 0.546201 0.884413
vt 0.552384 0.887110
vt 0.580378 0.903667
vt 0.559674 0.892508
vt 0.580866 0.899108
vt 0.580838 0.822874
vt 0.559653 0.829492
vt 0.601458 0.807171
vt 0.591680 0.817569
vt 0.606721 0.920608
vt 0.923614 0.432164
vt 0.895191 0.975060
vt 0.919305 0.984578
vt 0.894081 0.978803
vt 0.895168 0.892523
vt 0.919286 0.882988
vt 0.919647 0.887581
vt 0.944752 0.986174
vt 0.944781 0.881441
vt 0.944918 0.984613
vt 0.939475 0.876533
vt 0.542403 0.704526
vt 0.546618 0.755073
vt 0.542430 0.756598
vt 0.540931 0.702680
vt 0.588701 0.675919
vt 0.588701 0.785348
vt 0.589586 0.787557
vt 0.581657 0.665028
vt 0.589545 0.673704
vt 0.862053 0.956868
vt 0.864925 0.911717
vt 0.864913 0.955929
vt 0.942992 0.987725
vt 0.939445 0.991081
vt 0.863975 0.956171
vt 0.559614 0.773525
vt 0.561386 0.770036
vt 0.919668 0.979987
vt 0.896301 0.971313
vt 0.862064 0.910777
vt 0.860906 0.909889
vt 0.874466 0.967419
vt 0.872589 0.970254
vt 0.874442 0.900184
vt 0.894055 0.888779
vt 0.943019 0.879891
vt 0.559596 0.687673
vt 0.561355 0.691160
vt 0.896281 0.896271
vt 0.876501 0.902587
vt 0.919340 0.975965
vt 0.897318 0.967284
vt 0.919414 0.971634
vt 0.919397 0.895941
vt 0.897301 0.900301
vt 0.940500 0.884079
vt 0.940477 0.983537
vt 0.932064 0.892232
vt 0.546995 0.703951
vt 0.544759 0.755369
vt 0.544728 0.705755
vt 0.553567 0.701129
vt 0.553605 0.760062
vt 0.547031 0.757170
vt 0.583731 0.677341
vt 0.583771 0.783923
vt 0.575470 0.688315
vt 0.587836 0.790602
vt 0.865193 0.910492
vt 0.863987 0.911475
vt 0.865180 0.957153
vt 0.870388 0.958270
vt 0.878372 0.962345
vt 0.878360 0.905251
vt 0.606450 0.806653
vt 0.606310 0.806653
vt 0.622635 0.909947
vt 0.625922 0.965885
vt 0.988449 0.003519
vt 0.988300 0.003519
vt 0.515227 0.813647
vt 0.516701 0.811833
vt 0.860906 0.834199
vt 0.860974 0.834205
vt 0.195494 0.000395
vt 0.139311 0.077557
vt 0.139311 0.000395
vt 0.195494 0.077557
vt 0.139311 0.154720
vt 0.195494 0.154720
vt 0.139311 0.231882
vt 0.195494 0.231882
vt 0.139311 0.309045
vt 0.195494 0.309045
vt 0.139311 0.386207
vt 0.195494 0.386207
vt 0.139311 0.463369
vt 0.195494 0.463369
vt 0.139311 0.540532
vt 0.195494 0.540532
vt 0.139311 0.617694
vt 0.814762 0.852090
vt 0.741376 0.875935
vt 0.741376 0.863449
vt 0.741376 0.626232
vt 0.814762 0.650076
vt 0.741376 0.638717
vt 0.195494 0.617694
vt 0.139311 0.694857
vt 0.195494 0.694857
vt 0.139311 0.772019
vt 0.371998 0.914731
vt 0.305951 0.880786
vt 0.371998 0.902246
vt 0.371998 0.665028
vt 0.445384 0.688872
vt 0.371998 0.677513
vt 0.196284 0.069841
vt 0.252467 0.000395
vt 0.252467 0.069841
vt 0.252467 0.139287
vt 0.196284 0.139287
vt 0.252467 0.208733
vt 0.196284 0.208733
vt 0.252467 0.278180
vt 0.196284 0.278180
vt 0.252467 0.347626
vt 0.196284 0.347626
vt 0.252467 0.417072
vt 0.196284 0.417072
vt 0.196284 0.486518
vt 0.252468 0.486518
vt 0.196284 0.555964
vt 0.252467 0.555964
vt 0.196284 0.625410
vt 0.252468 0.625410
vt 0.196284 0.694857
vt 0.252468 0.694857
vt 0.069063 0.000395
vt 0.000395 0.096848
vt 0.000395 0.000395
vt 0.069063 0.096848
vt 0.000395 0.193301
vt 0.069063 0.193301
vt 0.000395 0.289754
vt 0.069063 0.289754
vt 0.000395 0.386207
vt 0.069063 0.386207
vt 0.000395 0.482660
vt 0.069063 0.482660
vt 0.000395 0.579113
vt 0.069063 0.579113
vt 0.000395 0.675566
vt 0.069063 0.675566
vt 0.000395 0.772019
vt 0.622635 0.421151
vt 0.679328 0.343119
vt 0.688502 0.355745
vt 0.919487 0.517604
vt 0.862793 0.595636
vt 0.853620 0.583010
vt 0.069063 0.772019
vt 0.000395 0.868472
vt 0.069063 0.868472
vt 0.000395 0.964925
vt 0.919487 0.204686
vt 0.853620 0.270092
vt 0.904644 0.199863
vt 0.622635 0.108233
vt 0.679328 0.030201
vt 0.637477 0.113055
vt 0.069853 0.087203
vt 0.138521 0.000395
vt 0.138521 0.087203
vt 0.138521 0.174010
vt 0.069853 0.174010
vt 0.138521 0.260818
vt 0.069853 0.260818
vt 0.138521 0.347626
vt 0.069853 0.347626
vt 0.138521 0.434434
vt 0.069853 0.434434
vt 0.138521 0.521241
vt 0.069853 0.521241
vt 0.069853 0.608049
vt 0.138521 0.608049
vt 0.069853 0.694857
vt 0.138521 0.694857
vt 0.069853 0.781664
vt 0.138521 0.781665
vt 0.069853 0.868472
vt 0.138521 0.868472
vt 0.499950 0.623804
vt 0.621845 0.517730
vt 0.517755 0.664238
vt 0.565206 0.496777
vt 0.594668 0.375150
vt 0.576721 0.380396
vt 0.596936 0.312184
vt 0.578223 0.305881
vt 0.621845 0.164806
vt 0.563138 0.192988
vt 0.486941 0.000395
vt 0.472814 0.086418
vt 0.319646 0.096227
vt 0.374136 0.145481
vt 0.253257 0.273461
vt 0.334976 0.285242
vt 0.272546 0.468166
vt 0.469724 0.114892
vt 0.494051 0.594154
vt 0.349791 0.446777
vt 0.370008 0.618140
vt 0.414318 0.571363
vt 0.576317 0.374508
vt 0.577990 0.311894
vt 0.448381 0.288494
vt 0.464384 0.426644
vt 0.427556 0.289891
vt 0.554794 0.489359
vt 0.477908 0.560027
vt 0.509257 0.463180
vt 0.587203 0.382700
vt 0.589628 0.304194
vt 0.510655 0.237574
vt 0.551368 0.204157
vt 0.457735 0.156136
vt 0.427259 0.178287
vt 0.390623 0.159131
vt 0.356434 0.287574
vt 0.427479 0.289911
vt 0.374637 0.440329
vt 0.443235 0.429043
vt 0.423414 0.559517
vt 0.461339 0.537397
vt 0.131861 0.983054
vt 0.880974 0.770268
vt 0.935235 0.758427
vt 0.084076 0.885081
vt 0.069853 0.952307
vt 0.073160 0.950491
vt 0.877883 0.845648
vt 0.137422 0.875252
vt 0.935234 0.755563
vt 0.135694 0.872778
vt 0.877701 0.780929
vt 0.908179 0.771743
vt 0.916440 0.842904
vt 0.079854 0.899407
vt 0.125577 0.967068
vt 0.139311 0.890322
vt 0.204719 0.812214
vt 0.924944 0.156107
vt 0.934877 0.139046
vt 0.959781 0.229263
vt 0.923649 0.203761
vt 0.987899 0.129317
vt 0.986293 0.127133
vt 0.960902 0.139025
vt 0.164872 0.875654
vt 0.154706 0.793488
vt 0.186011 0.805346
vt 0.193004 0.863642
vt 0.930104 0.153435
vt 0.976635 0.220388
vt 0.960488 0.109783
vt 0.926229 0.331623
vt 0.937704 0.310099
vt 0.998690 0.304810
vt 0.920526 0.394627
vt 0.923957 0.083837
vt 0.999281 0.306225
vt 0.968006 0.310307
vt 0.932063 0.035012
vt 0.961138 0.022781
vt 0.932887 0.327514
vt 0.715533 0.893292
vt 0.788287 0.895227
vt 0.782920 0.954754
vt 0.715527 0.965629
vt 0.507308 0.789565
vt 0.518187 0.815755
vt 0.499920 0.665028
vt 0.784279 0.898034
vt 0.535824 0.710070
vt 0.512343 0.670341
vt 0.513859 0.674235
vt 0.710817 0.903361
vt 0.764757 0.891499
vt 0.514532 0.709841
vt 0.692140 0.987153
vt 0.947334 0.523828
vt 0.988212 0.542996
vt 0.634483 0.891490
vt 0.644453 0.974542
vt 0.697504 0.903247
vt 0.984788 0.544819
vt 0.692571 0.908763
vt 0.946552 0.606323
vt 0.932112 0.528057
vt 0.967665 0.537598
vt 0.635413 0.908243
vt 0.789359 0.982087
vt 0.857640 0.906284
vt 0.866667 0.662979
vt 0.871972 0.641211
vt 0.906708 0.736058
vt 0.816505 0.973459
vt 0.934906 0.653652
vt 0.929488 0.659416
vt 0.904613 0.634902
vt 0.800843 0.891319
vt 0.836939 0.900774
vt 0.847698 0.958948
vt 0.873780 0.657863
vt 0.920936 0.482690
vt 0.961539 0.501363
vt 0.988576 0.402571
vt 0.546015 0.839453
vt 0.551869 0.820791
vt 0.540938 0.885458
vt 0.579442 0.913071
vt 0.924213 0.480821
vt 0.606781 0.801463
vt 0.580343 0.818308
vt 0.930261 0.429630
vt 0.961448 0.419235
vt 0.976809 0.496742
vt 0.552384 0.834897
vt 0.591706 0.904417
vt 0.944918 0.882978
vt 0.546589 0.706047
vt 0.557164 0.683019
vt 0.540958 0.758470
vt 0.557170 0.778176
vt 0.581705 0.796238
vt 0.876519 0.965012
vt 0.872558 0.897352
vt 0.860910 0.957767
vt 0.587792 0.670659
vt 0.919320 0.891606
vt 0.932079 0.975345
vt 0.563443 0.766385
vt 0.563403 0.694809
vt 0.575530 0.772880
vt 0.870388 0.909331
vt 0.606450 0.915374
vt 0.988449 0.119592
vt 0.513270 0.775074
vt 0.865711 0.781110
vt 0.848242 0.716360
vt 0.860116 0.712502
vt 0.848242 0.785806
vt 0.860116 0.789664
vt 0.622635 0.789664
vt 0.622635 0.712502
vt 0.634509 0.785806
vt 0.634509 0.716360
vt 0.807423 0.841989
vt 0.667990 0.852090
vt 0.675328 0.841989
vt 0.675328 0.660177
vt 0.807423 0.660177
vt 0.667990 0.650076
vt 0.195494 0.772019
vt 0.298612 0.890886
vt 0.265131 0.824602
vt 0.445384 0.890886
vt 0.438045 0.880786
vt 0.253257 0.828461
vt 0.265131 0.755156
vt 0.490739 0.828461
vt 0.478865 0.824602
vt 0.253257 0.751298
vt 0.305951 0.698973
vt 0.298612 0.688872
vt 0.490739 0.751298
vt 0.478865 0.755156
vt 0.438045 0.698973
vt 0.196284 0.000395
vt 0.688502 0.583010
vt 0.679329 0.595636
vt 0.622635 0.517604
vt 0.862793 0.343119
vt 0.919487 0.421151
vt 0.904644 0.425974
vt 0.853620 0.355745
vt 0.637477 0.512781
vt 0.637477 0.425974
vt 0.771061 0.313313
vt 0.771061 0.328920
vt 0.904644 0.512781
vt 0.771061 0.625442
vt 0.771061 0.609835
vt 0.069063 0.964925
vt 0.862793 0.282718
vt 0.771061 0.296917
vt 0.919487 0.108233
vt 0.904644 0.113055
vt 0.771061 0.312523
vt 0.688502 0.270092
vt 0.862793 0.030201
vt 0.853620 0.042826
vt 0.679328 0.282718
vt 0.637477 0.199863
vt 0.771061 0.000395
vt 0.771061 0.016001
vt 0.622635 0.204686
vt 0.688502 0.042826
vt 0.069853 0.000395
vt 0.511828 0.239115
vt 0.500566 0.250092
vt 0.497267 0.452993
vt 0.510709 0.461872
vt 0.457769 0.157221
vt 0.452041 0.164073
vt 0.471355 0.554989
vt 0.477877 0.558693
vt 0.427358 0.178693
vt 0.438075 0.180780
vt 0.472085 0.535101
vt 0.461137 0.537181
vt 0.443317 0.429007
s 1
usemtl マテリアル.004
f 2/1/2 266/2/60 1/3/1
f 5/4/4 267/5/61 6/6/5
f 5/4/4 6/6/5 271/7/63
f 8/8/7 274/9/65 270/10/64
f 9/11/8 272/12/64 273/13/65
f 14/14/12 13/15/11 275/16/18
f 13/15/11 277/17/66 278/18/67
f 18/19/15 280/20/69 279/21/68
f 17/22/14 18/19/15 282/23/70
f 26/24/22 30/25/26 18/19/15
f 14/14/12 11/26/10 32/27/28
f 31/28/27 267/5/61 287/29/68
f 2/1/2 24/30/20 29/31/25
f 20/32/17 290/33/74 283/34/71
f 19/35/16 289/36/74 22/37/19
f 2/1/2 1/3/1 291/38/75
f 5/4/4 39/39/35 34/40/30
f 37/41/33 35/42/31 9/11/8
f 268/43/62 34/40/30 293/44/69
f 40/45/36 36/46/32 19/35/16
f 33/47/29 288/48/73 29/31/25
f 34/40/30 287/29/68 293/44/69
f 31/28/27 34/40/30 297/49/70
f 35/42/31 299/50/71 39/39/35
f 32/27/28 300/51/71 302/52/74
f 37/41/33 27/53/23 304/54/75
f 37/41/33 286/55/72 27/53/23
f 26/24/22 296/56/62 38/57/34
f 26/24/22 38/57/34 305/58/78
f 25/59/21 307/60/64 310/61/65
f 36/46/32 309/62/65 306/63/64
f 33/47/29 29/31/25 312/64/18
f 42/65/38 314/66/60 313/67/59
f 41/68/37 42/65/38 317/69/79
f 44/70/5 320/71/64 316/72/80
f 45/73/6 318/74/80 319/75/64
f 48/76/10 47/77/8 321/78/81
f 47/77/8 323/79/82 324/80/83
f 49/81/39 325/82/66 50/83/40
f 327/84/84 328/85/84 49/81/39
f 54/86/17 329/87/85 52/88/15
f 51/89/14 331/90/71 53/91/16
f 52/88/15 50/83/40 59/92/22
f 48/76/10 46/93/7 64/94/28
f 57/95/41 42/65/38 336/96/73
f 56/97/20 58/98/21 337/99/88
f 56/97/20 55/100/19 338/101/89
f 56/97/20 340/102/90 55/100/19
f 43/103/4 71/104/35 65/105/30
f 66/106/43 47/77/8 341/107/91
f 41/68/37 69/108/45 314/66/60
f 51/89/14 53/91/16 70/109/34
f 57/95/41 342/110/92 69/108/45
f 57/95/41 69/108/45 345/111/84
f 71/104/35 347/112/85 65/105/30
f 63/113/27 350/114/71 60/115/24
f 66/106/43 64/94/28 352/116/89
f 66/106/43 333/117/86 64/94/28
f 61/118/42 343/119/93 67/120/44
f 61/118/42 67/120/44 353/121/79
f 62/122/26 355/123/80 358/124/64
f 70/109/34 357/125/64 354/126/80
f 72/127/36 58/98/21 360/128/81
f 72/127/36 335/129/87 58/98/21
f 361/130/95 362/131/95 73/132/1
f 76/133/38 366/134/80 363/135/96
f 77/136/4 364/137/96 365/138/80
f 80/139/7 79/140/6 367/141/97
f 79/140/6 369/142/98 370/143/99
f 81/144/11 371/145/82 82/146/12
f 373/147/3 374/148/3 81/144/11
f 84/149/40 378/150/85 376/151/100
f 83/152/39 377/153/85 85/154/14
f 88/155/17 87/156/16 379/157/70
f 86/158/15 84/149/40 94/159/42
f 92/160/24 80/139/7 96/161/27
f 93/162/25 89/163/46 76/133/38
f 88/155/17 384/164/98 383/165/101
f 88/155/17 387/166/104 87/156/16
f 74/167/2 388/168/90 386/169/88
f 77/136/4 104/170/35 98/171/30
f 104/170/35 370/143/99 389/172/104
f 83/152/39 85/154/14 99/173/44
f 73/132/1 75/174/37 97/175/29
f 93/162/25 97/175/29 393/176/3
f 98/171/30 394/177/100 101/178/45
f 96/161/27 395/179/100 398/180/85
f 399/181/70 400/182/70 104/170/35
f 104/170/35 381/183/101 92/160/24
f 91/184/47 390/185/105 102/186/33
f 91/184/47 102/186/33 401/187/95
f 90/188/22 404/189/96 406/190/80
f 99/173/44 405/191/80 403/192/96
f 407/193/78 408/194/78 100/195/32
f 100/195/32 384/164/98 95/196/26
f 93/162/25 391/197/106 97/175/29
f 107/198/50 412/199/108 413/200/109
f 109/201/6 414/202/110 110/203/7
f 416/204/81 417/205/81 109/201/6
f 112/206/10 421/207/112 419/208/65
f 113/209/11 418/210/65 420/211/112
f 114/212/12 423/213/100 421/207/112
f 115/214/39 420/211/112 422/215/100
f 118/216/15 117/217/14 424/218/84
f 118/216/15 427/219/114 117/217/14
f 116/220/40 114/212/12 124/221/47
f 121/222/46 108/223/51 106/224/49
f 120/225/20 433/226/104 431/227/101
f 434/228/118 435/229/75 119/230/19
f 109/201/6 436/231/119 415/232/111
f 113/209/11 115/214/39 133/233/33
f 136/234/36 119/230/19 105/235/48
f 440/236/122 441/237/3 132/238/45
f 132/238/45 430/239/117 121/222/46
f 135/240/35 428/241/115 436/231/119
f 125/242/24 135/240/35 444/243/89
f 133/233/33 446/244/74 130/245/31
f 124/221/47 447/246/74 449/247/123
f 131/248/55 448/249/123 133/233/33
f 127/250/53 449/247/123 451/251/96
f 452/252/79 453/253/79 134/254/34
f 134/254/34 429/255/116 123/256/22
f 122/257/21 438/258/99 136/234/36
f 122/257/21 136/234/36 454/259/124
f 138/260/2 457/261/60 137/262/1
f 139/263/4 458/264/108 140/265/5
f 460/266/78 461/267/78 139/263/4
f 142/268/7 465/269/65 463/270/64
f 143/271/8 462/272/64 464/273/65
f 146/274/12 145/275/11 466/276/18
f 145/275/11 468/277/66 469/278/67
f 148/279/15 471/280/120 470/281/117
f 472/282/125 473/283/125 147/284/14
f 154/285/22 150/286/17 148/279/15
f 144/287/10 156/288/24 160/289/56
f 159/290/27 458/264/108 478/291/117
f 138/260/2 152/292/20 157/293/25
f 150/286/17 481/294/74 475/295/71
f 149/296/16 480/297/74 151/298/19
f 138/260/2 137/262/1 482/299/75
f 139/263/4 167/300/35 162/301/30
f 165/302/33 163/303/31 143/271/8
f 162/301/30 459/304/109 139/263/4
f 168/305/36 164/306/32 149/296/16
f 161/307/29 479/308/73 157/293/25
f 159/290/27 484/309/120 162/301/30
f 159/290/27 162/301/30 488/310/70
f 163/303/31 490/311/71 167/300/35
f 156/288/24 493/312/74 160/289/56
f 494/313/75 495/314/75 165/302/33
f 165/302/33 477/315/72 155/316/47
f 166/317/34 476/318/108 487/319/109
f 154/285/22 166/317/34 496/320/78
f 153/321/21 498/322/64 501/323/65
f 164/306/32 500/324/65 497/325/64
f 502/326/18 503/327/18 161/307/29
f 170/328/38 505/329/60 504/330/59
f 169/331/37 170/328/38 507/332/79
f 172/333/5 511/334/64 509/335/80
f 173/336/6 508/337/80 510/338/64
f 176/339/10 175/340/8 512/341/81
f 175/340/8 514/342/82 515/343/83
f 177/344/39 516/345/66 178/346/40
f 518/347/84 519/348/84 177/344/39
f 180/349/15 523/350/71 520/351/85
f 179/352/14 522/353/71 181/354/16
f 189/355/42 187/356/22 180/349/15
f 176/339/10 174/357/7 192/358/28
f 185/359/46 170/328/38 527/360/73
f 526/361/103 528/362/88 184/363/20
f 184/363/20 183/364/19 529/365/89
f 184/363/20 531/366/90 183/364/19
f 171/367/4 199/368/35 193/369/30
f 194/370/31 175/340/8 532/371/91
f 533/372/76 505/329/60 169/331/37
f 179/352/14 181/354/16 198/373/34
f 185/359/46 533/372/76 197/374/45
f 185/359/46 197/374/45 536/375/84
f 199/368/35 538/376/85 193/369/30
f 188/377/24 539/378/85 541/379/71
f 194/370/31 192/358/28 543/380/89
f 194/370/31 524/381/86 192/358/28
f 195/382/44 525/383/127 534/384/93
f 189/355/42 195/382/44 544/385/79
f 190/386/26 546/387/80 549/388/64
f 198/373/34 548/389/64 545/390/80
f 550/391/81 551/392/81 200/393/36
f 200/393/36 526/361/103 186/394/21
f 201/395/1 202/396/2 553/397/95
f 204/398/38 557/399/80 554/400/96
f 205/401/4 555/402/96 556/403/80
f 208/404/7 207/405/6 558/406/78
f 207/405/6 560/407/128 561/408/129
f 209/409/11 562/410/82 210/411/12
f 209/409/11 210/411/12 565/412/3
f 214/413/15 567/414/100 212/415/40
f 211/416/39 568/417/85 213/418/14
f 216/419/17 215/420/16 570/421/131
f 214/413/15 212/415/40 222/422/42
f 220/423/24 572/424/132 208/404/7
f 221/425/25 217/426/41 204/398/38
f 223/427/26 574/428/132 216/419/17
f 216/419/17 578/429/133 215/420/16
f 202/396/2 579/430/90 577/431/88
f 205/401/4 232/432/35 226/433/30
f 232/432/35 561/408/129 580/434/133
f 211/416/39 213/418/14 227/435/44
f 201/395/1 203/436/37 225/437/29
f 221/425/25 225/437/29 584/438/3
f 226/433/30 585/439/100 229/440/57
f 224/441/27 586/442/100 589/443/85
f 232/432/35 220/423/24 591/444/70
f 232/432/35 572/424/132 220/423/24
f 230/445/33 573/446/102 581/447/105
f 219/448/47 230/445/33 592/449/95
f 218/450/22 595/451/96 597/452/80
f 227/435/44 596/453/80 593/454/96
f 228/455/32 223/427/26 599/456/78
f 228/455/32 575/457/128 223/427/26
f 221/425/25 582/458/94 225/437/29
f 234/459/2 603/460/96 601/461/123
f 233/462/1 602/463/96 235/464/37
f 238/465/5 237/466/4 604/467/79
f 238/465/5 607/468/111 237/466/4
f 239/469/8 608/470/128 240/471/10
f 239/469/8 240/471/10 611/472/18
f 615/473/3 614/474/3 244/475/40
f 244/475/40 617/476/69 243/477/39
f 246/478/17 619/479/114 618/480/113
f 238/465/5 620/481/115 606/482/110
f 621/483/116 246/478/17 618/480/113
f 244/475/40 242/484/12 251/485/47
f 236/486/38 234/459/2 252/487/25
f 245/488/16 246/478/17 625/489/89
f 248/490/20 601/461/123 626/491/74
f 247/492/19 600/493/123 233/462/1
f 628/494/119 237/466/4 607/468/111
f 239/469/8 241/495/11 263/496/33
f 257/497/29 264/498/58 247/492/19
f 249/499/41 635/500/112 633/501/100
f 257/497/29 632/502/100 634/503/112
f 258/504/30 255/505/27 637/506/84
f 258/504/30 620/481/115 255/505/27
f 259/507/31 623/508/132 629/509/133
f 640/510/75 638/511/75 256/512/28
f 260/513/44 253/514/42 643/515/95
f 260/513/44 622/516/61 253/514/42
f 261/517/32 621/483/116 631/518/121
f 254/519/26 261/517/32 644/520/81
f 252/487/25 646/521/65 635/500/112
f 264/498/58 634/503/112 645/522/65
f 3/523/3 570/421/131 571/524/131
f 10/525/9 472/282/125 12/526/9
f 15/527/13 367/141/97 368/528/97
f 411/529/48 440/236/122 443/530/29
f 23/531/18 271/7/63 269/532/63
f 649/533/2 650/534/37 648/535/1
f 651/536/38 652/537/4 650/534/37
f 653/538/5 654/539/6 652/537/4
f 655/540/7 656/541/8 654/539/6
f 657/542/10 658/543/11 656/541/8
f 659/544/12 660/545/39 658/543/11
f 661/546/40 662/547/14 660/545/39
f 663/548/15 664/549/16 662/547/14
f 661/550/40 659/551/12 671/552/47
f 649/553/2 667/554/20 673/555/25
f 665/556/17 666/557/19 664/549/16
f 667/558/20 648/559/1 666/557/19
f 652/560/4 686/561/35 679/562/30
f 662/563/14 664/564/16 685/565/34
f 668/566/46 678/567/29 683/568/45
f 668/566/46 679/569/30 676/570/27
f 676/570/27 686/571/35 672/572/24
f 672/572/24 680/573/31 677/574/28
f 677/574/28 684/575/33 671/576/47
f 671/576/47 681/577/44 674/578/42
f 670/579/22 681/577/44 685/580/34
f 675/581/26 685/580/34 682/582/32
f 669/583/21 682/582/32 687/584/36
f 673/585/25 687/584/36 678/586/29
f 689/587/2 690/588/37 688/589/1
f 691/590/38 692/591/4 690/588/37
f 693/592/5 694/593/6 692/591/4
f 695/594/7 696/595/8 694/593/6
f 697/596/134 698/597/11 696/595/8
f 699/598/12 700/599/39 698/597/11
f 701/600/40 702/601/14 700/599/39
f 703/602/15 704/603/16 702/601/14
f 701/604/40 699/605/12 711/606/47
f 691/607/38 689/608/2 713/609/25
f 705/610/17 706/611/19 704/603/16
f 707/612/135 688/613/1 706/611/19
f 692/614/4 726/615/35 719/616/30
f 702/617/14 704/618/16 725/619/34
f 708/620/46 718/621/29 723/622/45
f 708/620/46 719/623/30 716/624/27
f 716/624/27 726/625/35 712/626/24
f 712/626/24 720/627/31 717/628/28
f 717/628/28 724/629/33 711/630/47
f 711/630/47 721/631/44 714/632/42
f 710/633/22 721/631/44 725/634/34
f 715/635/26 725/634/34 722/636/32
f 709/637/21 722/636/32 727/638/36
f 713/639/25 727/638/36 718/640/29
f 729/641/2 730/642/37 728/643/1
f 731/644/38 732/645/4 730/642/37
f 733/646/5 734/647/6 732/645/4
f 735/648/7 736/649/8 734/647/6
f 737/650/10 738/651/11 736/649/8
f 739/652/12 740/653/39 738/651/11
f 741/654/40 742/655/14 740/653/39
f 743/656/15 744/657/16 742/655/14
f 739/652/12 737/650/10 751/658/47
f 731/644/38 729/641/2 753/659/25
f 745/660/17 746/661/19 744/657/16
f 747/662/20 728/643/1 746/661/19
f 759/663/30 734/647/6 766/664/35
f 742/665/14 744/666/16 765/667/34
f 748/668/46 758/669/29 763/670/45
f 748/668/46 759/663/30 756/671/27
f 756/671/27 766/664/35 752/672/24
f 752/672/24 760/673/31 757/674/28
f 757/674/28 764/675/33 751/658/47
f 751/658/47 761/676/44 754/677/42
f 750/678/22 761/676/44 765/679/34
f 755/680/26 765/679/34 762/681/32
f 749/682/21 762/681/32 767/683/36
f 753/659/25 767/683/36 758/669/29
f 2/1/2 265/684/59 266/2/60
f 5/4/4 268/43/62 267/5/61
f 271/7/63 272/12/64 7/685/6
f 6/6/5 8/8/7 269/532/63
f 8/8/7 270/10/64 269/532/63
f 271/7/63 7/685/6 5/4/4
f 6/6/5 269/532/63 271/7/63
f 8/8/7 11/26/10 274/9/65
f 9/11/8 7/685/6 272/12/64
f 275/16/18 274/9/65 11/26/10
f 13/15/11 9/11/8 276/686/18
f 9/11/8 273/13/65 276/686/18
f 275/16/18 11/26/10 14/14/12
f 13/15/11 276/686/18 275/16/18
f 13/15/11 14/14/12 277/17/66
f 18/19/15 17/22/14 280/20/69
f 284/687/71 19/35/16 282/23/70
f 19/35/16 17/22/14 282/23/70
f 18/19/15 20/32/17 281/688/70
f 20/32/17 283/34/71 281/688/70
f 18/19/15 281/688/70 282/23/70
f 30/25/26 20/32/17 18/19/15
f 18/19/15 279/21/68 26/24/22
f 279/21/68 285/689/61 26/24/22
f 8/8/7 6/6/5 31/28/27
f 8/8/7 31/28/27 28/690/24
f 286/55/72 277/17/66 14/14/12
f 27/53/23 286/55/72 14/14/12
f 11/26/10 8/8/7 32/27/28
f 8/8/7 28/690/24 32/27/28
f 32/27/28 27/53/23 14/14/12
f 31/28/27 6/6/5 267/5/61
f 288/48/73 265/684/59 2/1/2
f 24/30/20 20/32/17 25/59/21
f 20/32/17 30/25/26 25/59/21
f 29/31/25 288/48/73 2/1/2
f 24/30/20 25/59/21 29/31/25
f 20/32/17 24/30/20 290/33/74
f 19/35/16 284/687/71 289/36/74
f 290/33/74 24/30/20 291/38/75
f 24/30/20 2/1/2 291/38/75
f 1/3/1 22/37/19 292/691/75
f 22/37/19 289/36/74 292/691/75
f 1/3/1 292/691/75 291/38/75
f 5/4/4 7/685/6 39/39/35
f 35/42/31 39/39/35 7/685/6
f 13/15/11 278/18/67 295/692/77
f 13/15/11 295/692/77 37/41/33
f 35/42/31 7/685/6 9/11/8
f 13/15/11 37/41/33 9/11/8
f 268/43/62 5/4/4 34/40/30
f 296/56/62 280/20/69 38/57/34
f 280/20/69 17/22/14 38/57/34
f 1/3/1 266/2/60 294/693/76
f 1/3/1 294/693/76 33/47/29
f 36/46/32 38/57/34 19/35/16
f 38/57/34 17/22/14 19/35/16
f 22/37/19 1/3/1 33/47/29
f 22/37/19 33/47/29 40/45/36
f 22/37/19 40/45/36 19/35/16
f 33/47/29 294/693/76 288/48/73
f 34/40/30 31/28/27 287/29/68
f 300/51/71 28/690/24 297/49/70
f 28/690/24 31/28/27 297/49/70
f 34/40/30 39/39/35 298/694/70
f 39/39/35 299/50/71 298/694/70
f 34/40/30 298/694/70 297/49/70
f 35/42/31 301/695/74 299/50/71
f 32/27/28 28/690/24 300/51/71
f 301/695/74 35/42/31 304/54/75
f 35/42/31 37/41/33 304/54/75
f 27/53/23 32/27/28 303/696/75
f 32/27/28 302/52/74 303/696/75
f 27/53/23 303/696/75 304/54/75
f 37/41/33 295/692/77 286/55/72
f 26/24/22 285/689/61 296/56/62
f 305/58/78 307/60/64 30/25/26
f 38/57/34 36/46/32 308/697/78
f 36/46/32 306/63/64 308/697/78
f 305/58/78 30/25/26 26/24/22
f 38/57/34 308/697/78 305/58/78
f 25/59/21 30/25/26 307/60/64
f 36/46/32 40/45/36 309/62/65
f 312/64/18 309/62/65 40/45/36
f 29/31/25 25/59/21 311/698/18
f 25/59/21 310/61/65 311/698/18
f 312/64/18 40/45/36 33/47/29
f 29/31/25 311/698/18 312/64/18
f 42/65/38 41/68/37 314/66/60
f 317/69/79 318/74/80 43/103/4
f 42/65/38 44/70/5 315/699/79
f 44/70/5 316/72/80 315/699/79
f 317/69/79 43/103/4 41/68/37
f 42/65/38 315/699/79 317/69/79
f 44/70/5 46/93/7 320/71/64
f 45/73/6 43/103/4 318/74/80
f 321/78/81 320/71/64 46/93/7
f 47/77/8 45/73/6 322/700/81
f 45/73/6 319/75/64 322/700/81
f 321/78/81 46/93/7 48/76/10
f 47/77/8 322/700/81 321/78/81
f 47/77/8 48/76/10 323/79/82
f 49/81/39 326/701/67 325/82/66
f 330/702/85 51/89/14 328/85/84
f 51/89/14 49/81/39 328/85/84
f 50/83/40 52/88/15 327/84/84
f 52/88/15 329/87/85 327/84/84
f 50/83/40 327/84/84 49/81/39
f 54/86/17 332/703/71 329/87/85
f 51/89/14 330/702/85 331/90/71
f 59/92/22 62/122/26 54/86/17
f 50/83/40 325/82/66 334/704/72
f 50/83/40 334/704/72 61/118/42
f 59/92/22 54/86/17 52/88/15
f 50/83/40 61/118/42 59/92/22
f 333/117/86 323/79/82 48/76/10
f 46/93/7 44/70/5 63/113/27
f 46/93/7 63/113/27 60/115/24
f 64/94/28 333/117/86 48/76/10
f 46/93/7 60/115/24 64/94/28
f 57/95/41 63/113/27 42/65/38
f 63/113/27 44/70/5 42/65/38
f 42/65/38 313/67/59 336/96/73
f 56/97/20 54/86/17 62/122/26
f 58/98/21 335/129/87 337/99/88
f 56/97/20 62/122/26 58/98/21
f 332/703/71 54/86/17 338/101/89
f 54/86/17 56/97/20 338/101/89
f 55/100/19 53/91/16 339/705/89
f 53/91/16 331/90/71 339/705/89
f 55/100/19 339/705/89 338/101/89
f 56/97/20 337/99/88 340/102/90
f 43/103/4 45/73/6 71/104/35
f 66/106/43 71/104/35 47/77/8
f 71/104/35 45/73/6 47/77/8
f 47/77/8 324/80/83 341/107/91
f 41/68/37 43/103/4 69/108/45
f 43/103/4 65/105/30 69/108/45
f 69/108/45 342/110/92 314/66/60
f 343/119/93 326/701/67 67/120/44
f 326/701/67 49/81/39 67/120/44
f 55/100/19 340/102/90 72/127/36
f 340/102/90 344/706/94 72/127/36
f 70/109/34 67/120/44 49/81/39
f 53/91/16 55/100/19 68/707/32
f 55/100/19 72/127/36 68/707/32
f 70/109/34 49/81/39 51/89/14
f 53/91/16 68/707/32 70/109/34
f 57/95/41 336/96/73 342/110/92
f 348/708/85 63/113/27 345/111/84
f 63/113/27 57/95/41 345/111/84
f 69/108/45 65/105/30 346/709/84
f 65/105/30 347/112/85 346/709/84
f 69/108/45 346/709/84 345/111/84
f 71/104/35 349/710/71 347/112/85
f 63/113/27 348/708/85 350/114/71
f 349/710/71 71/104/35 352/116/89
f 71/104/35 66/106/43 352/116/89
f 64/94/28 60/115/24 351/711/89
f 60/115/24 350/114/71 351/711/89
f 64/94/28 351/711/89 352/116/89
f 66/106/43 341/107/91 333/117/86
f 61/118/42 334/704/72 343/119/93
f 353/121/79 355/123/80 59/92/22
f 67/120/44 70/109/34 356/712/79
f 70/109/34 354/126/80 356/712/79
f 353/121/79 59/92/22 61/118/42
f 67/120/44 356/712/79 353/121/79
f 62/122/26 59/92/22 355/123/80
f 70/109/34 68/707/32 357/125/64
f 360/128/81 357/125/64 68/707/32
f 58/98/21 62/122/26 359/713/81
f 62/122/26 358/124/64 359/713/81
f 360/128/81 68/707/32 72/127/36
f 58/98/21 359/713/81 360/128/81
f 72/127/36 344/706/94 335/129/87
f 364/137/96 75/174/37 362/131/95
f 75/174/37 73/132/1 362/131/95
f 74/167/2 76/133/38 361/130/95
f 76/133/38 363/135/96 361/130/95
f 74/167/2 361/130/95 73/132/1
f 76/133/38 78/714/5 366/134/80
f 77/136/4 75/174/37 364/137/96
f 367/141/97 366/134/80 78/714/5
f 79/140/6 77/136/4 368/528/97
f 77/136/4 365/138/80 368/528/97
f 367/141/97 78/714/5 80/139/7
f 79/140/6 368/528/97 367/141/97
f 79/140/6 80/139/7 369/142/98
f 81/144/11 372/715/83 371/145/82
f 374/148/3 375/716/100 83/152/39
f 82/146/12 84/149/40 373/147/3
f 84/149/40 376/151/100 373/147/3
f 374/148/3 83/152/39 81/144/11
f 82/146/12 373/147/3 81/144/11
f 84/149/40 86/158/15 378/150/85
f 83/152/39 375/716/100 377/153/85
f 378/150/85 86/158/15 379/157/70
f 86/158/15 88/155/17 379/157/70
f 87/156/16 85/154/14 380/717/70
f 85/154/14 377/153/85 380/717/70
f 87/156/16 380/717/70 379/157/70
f 95/196/26 88/155/17 86/158/15
f 82/146/12 371/145/82 91/184/47
f 371/145/82 382/718/102 91/184/47
f 90/188/22 95/196/26 86/158/15
f 82/146/12 91/184/47 84/149/40
f 91/184/47 94/159/42 84/149/40
f 94/159/42 90/188/22 86/158/15
f 92/160/24 381/183/101 369/142/98
f 80/139/7 78/714/5 96/161/27
f 92/160/24 369/142/98 80/139/7
f 89/163/46 96/161/27 78/714/5
f 74/167/2 386/169/88 385/719/103
f 74/167/2 385/719/103 93/162/25
f 89/163/46 78/714/5 76/133/38
f 74/167/2 93/162/25 76/133/38
f 88/155/17 95/196/26 384/164/98
f 88/155/17 383/165/101 387/166/104
f 74/167/2 73/132/1 388/168/90
f 77/136/4 79/140/6 104/170/35
f 104/170/35 79/140/6 370/143/99
f 390/185/105 372/715/83 102/186/33
f 372/715/83 81/144/11 102/186/33
f 87/156/16 387/166/104 392/720/99
f 87/156/16 392/720/99 100/195/32
f 99/173/44 102/186/33 83/152/39
f 102/186/33 81/144/11 83/152/39
f 85/154/14 87/156/16 100/195/32
f 85/154/14 100/195/32 103/721/34
f 85/154/14 103/721/34 99/173/44
f 391/197/106 388/168/90 73/132/1
f 75/174/37 77/136/4 101/178/45
f 77/136/4 98/171/30 101/178/45
f 97/175/29 391/197/106 73/132/1
f 75/174/37 101/178/45 97/175/29
f 393/176/3 395/179/100 89/163/46
f 97/175/29 101/178/45 396/722/3
f 101/178/45 394/177/100 396/722/3
f 393/176/3 89/163/46 93/162/25
f 97/175/29 396/722/3 393/176/3
f 98/171/30 397/723/85 394/177/100
f 96/161/27 89/163/46 395/179/100
f 397/723/85 98/171/30 400/182/70
f 98/171/30 104/170/35 400/182/70
f 92/160/24 96/161/27 399/181/70
f 96/161/27 398/180/85 399/181/70
f 92/160/24 399/181/70 104/170/35
f 104/170/35 389/172/104 381/183/101
f 91/184/47 382/718/102 390/185/105
f 404/189/96 94/159/42 401/187/95
f 94/159/42 91/184/47 401/187/95
f 102/186/33 99/173/44 402/724/95
f 99/173/44 403/192/96 402/724/95
f 102/186/33 402/724/95 401/187/95
f 90/188/22 94/159/42 404/189/96
f 99/173/44 103/721/34 405/191/80
f 408/194/78 405/191/80 103/721/34
f 95/196/26 90/188/22 407/193/78
f 90/188/22 406/190/80 407/193/78
f 408/194/78 103/721/34 100/195/32
f 95/196/26 407/193/78 100/195/32
f 100/195/32 392/720/99 384/164/98
f 93/162/25 385/719/103 391/197/106
f 107/198/50 108/223/51 412/199/108
f 109/201/6 415/232/111 414/202/110
f 417/205/81 418/210/65 111/725/8
f 110/203/7 112/206/10 416/204/81
f 112/206/10 419/208/65 416/204/81
f 417/205/81 111/725/8 109/201/6
f 110/203/7 416/204/81 109/201/6
f 112/206/10 114/212/12 421/207/112
f 113/209/11 111/725/8 418/210/65
f 114/212/12 116/220/40 423/213/100
f 115/214/39 113/209/11 420/211/112
f 423/213/100 116/220/40 424/218/84
f 116/220/40 118/216/15 424/218/84
f 117/217/14 115/214/39 425/726/84
f 115/214/39 422/215/100 425/726/84
f 117/217/14 425/726/84 424/218/84
f 118/216/15 426/727/113 427/219/114
f 429/255/116 426/727/113 118/216/15
f 110/203/7 414/202/110 428/241/115
f 110/203/7 428/241/115 125/242/24
f 123/256/22 429/255/116 118/216/15
f 127/250/53 123/256/22 116/220/40
f 123/256/22 118/216/15 116/220/40
f 112/206/10 110/203/7 125/242/24
f 112/206/10 125/242/24 128/728/28
f 112/206/10 128/728/28 124/221/47
f 124/221/47 127/250/53 116/220/40
f 114/212/12 112/206/10 124/221/47
f 430/239/117 412/199/108 121/222/46
f 412/199/108 108/223/51 121/222/46
f 120/225/20 431/227/101 432/729/98
f 120/225/20 432/729/98 122/257/21
f 120/225/20 122/257/21 106/224/49
f 122/257/21 126/730/52 106/224/49
f 126/730/52 121/222/46 106/224/49
f 120/225/20 119/230/19 433/226/104
f 410/731/75 105/235/48 435/229/75
f 105/235/48 119/230/19 435/229/75
f 120/225/20 106/224/49 434/228/118
f 106/224/49 411/529/48 434/228/118
f 120/225/20 434/228/118 119/230/19
f 109/201/6 135/240/35 436/231/119
f 130/245/31 135/240/35 111/725/8
f 135/240/35 109/201/6 111/725/8
f 117/217/14 427/219/114 439/732/121
f 117/217/14 439/732/121 134/254/34
f 133/233/33 130/245/31 111/725/8
f 115/214/39 117/217/14 134/254/34
f 115/214/39 134/254/34 131/248/55
f 133/233/33 111/725/8 113/209/11
f 115/214/39 131/248/55 133/233/33
f 438/258/99 433/226/104 119/230/19
f 107/198/50 413/200/109 132/238/45
f 413/200/109 437/733/120 132/238/45
f 136/234/36 438/258/99 119/230/19
f 107/198/50 132/238/45 105/235/48
f 132/238/45 129/734/54 105/235/48
f 129/734/54 136/234/36 105/235/48
f 441/237/3 442/735/112 129/734/54
f 121/222/46 126/730/52 440/236/122
f 126/730/52 443/530/29 440/236/122
f 441/237/3 129/734/54 132/238/45
f 121/222/46 440/236/122 132/238/45
f 132/238/45 437/733/120 430/239/117
f 135/240/35 125/242/24 428/241/115
f 447/246/74 128/728/28 444/243/89
f 128/728/28 125/242/24 444/243/89
f 135/240/35 130/245/31 445/736/89
f 130/245/31 446/244/74 445/736/89
f 135/240/35 445/736/89 444/243/89
f 133/233/33 448/249/123 446/244/74
f 124/221/47 128/728/28 447/246/74
f 131/248/55 450/737/96 448/249/123
f 127/250/53 124/221/47 449/247/123
f 453/253/79 450/737/96 131/248/55
f 123/256/22 127/250/53 452/252/79
f 127/250/53 451/251/96 452/252/79
f 453/253/79 131/248/55 134/254/34
f 123/256/22 452/252/79 134/254/34
f 134/254/34 439/732/121 429/255/116
f 122/257/21 432/729/98 438/258/99
f 454/259/124 443/530/29 126/730/52
f 136/234/36 129/734/54 455/738/18
f 129/734/54 442/735/112 455/738/18
f 454/259/124 126/730/52 122/257/21
f 136/234/36 455/738/18 454/259/124
f 138/260/2 456/739/59 457/261/60
f 139/263/4 459/304/109 458/264/108
f 461/267/78 462/272/64 141/740/6
f 140/265/5 142/268/7 460/266/78
f 142/268/7 463/270/64 460/266/78
f 461/267/78 141/740/6 139/263/4
f 140/265/5 460/266/78 139/263/4
f 142/268/7 144/287/10 465/269/65
f 143/271/8 141/740/6 462/272/64
f 466/276/18 465/269/65 144/287/10
f 145/275/11 143/271/8 467/741/18
f 143/271/8 464/273/65 467/741/18
f 466/276/18 144/287/10 146/274/12
f 145/275/11 467/741/18 466/276/18
f 145/275/11 146/274/12 468/277/66
f 148/279/15 147/284/14 471/280/120
f 473/283/125 474/742/71 149/296/16
f 148/279/15 150/286/17 472/282/125
f 150/286/17 475/295/71 472/282/125
f 473/283/125 149/296/16 147/284/14
f 148/279/15 472/282/125 147/284/14
f 154/285/22 158/743/26 150/286/17
f 148/279/15 470/281/117 154/285/22
f 470/281/117 476/318/108 154/285/22
f 142/268/7 140/265/5 159/290/27
f 142/268/7 159/290/27 156/288/24
f 477/315/72 468/277/66 146/274/12
f 155/316/47 477/315/72 146/274/12
f 144/287/10 142/268/7 156/288/24
f 160/289/56 155/316/47 144/287/10
f 155/316/47 146/274/12 144/287/10
f 159/290/27 140/265/5 458/264/108
f 479/308/73 456/739/59 138/260/2
f 152/292/20 150/286/17 153/321/21
f 150/286/17 158/743/26 153/321/21
f 157/293/25 479/308/73 138/260/2
f 152/292/20 153/321/21 157/293/25
f 150/286/17 152/292/20 481/294/74
f 149/296/16 474/742/71 480/297/74
f 481/294/74 152/292/20 482/299/75
f 152/292/20 138/260/2 482/299/75
f 137/262/1 151/298/19 483/744/75
f 151/298/19 480/297/74 483/744/75
f 137/262/1 483/744/75 482/299/75
f 139/263/4 141/740/6 167/300/35
f 163/303/31 167/300/35 141/740/6
f 145/275/11 469/278/67 486/745/77
f 145/275/11 486/745/77 165/302/33
f 163/303/31 141/740/6 143/271/8
f 145/275/11 165/302/33 143/271/8
f 162/301/30 484/309/120 459/304/109
f 166/317/34 487/319/109 471/280/120
f 137/262/1 457/261/60 485/746/76
f 137/262/1 485/746/76 161/307/29
f 166/317/34 471/280/120 147/284/14
f 164/306/32 166/317/34 147/284/14
f 151/298/19 137/262/1 161/307/29
f 151/298/19 161/307/29 168/305/36
f 164/306/32 147/284/14 149/296/16
f 151/298/19 168/305/36 149/296/16
f 161/307/29 485/746/76 479/308/73
f 159/290/27 478/291/117 484/309/120
f 491/747/71 156/288/24 488/310/70
f 156/288/24 159/290/27 488/310/70
f 162/301/30 167/300/35 489/748/70
f 167/300/35 490/311/71 489/748/70
f 162/301/30 489/748/70 488/310/70
f 163/303/31 492/749/74 490/311/71
f 156/288/24 491/747/71 493/312/74
f 495/314/75 492/749/74 163/303/31
f 155/316/47 160/289/56 494/313/75
f 160/289/56 493/312/74 494/313/75
f 495/314/75 163/303/31 165/302/33
f 155/316/47 494/313/75 165/302/33
f 165/302/33 486/745/77 477/315/72
f 166/317/34 154/285/22 476/318/108
f 496/320/78 498/322/64 158/743/26
f 166/317/34 164/306/32 499/750/78
f 164/306/32 497/325/64 499/750/78
f 496/320/78 158/743/26 154/285/22
f 166/317/34 499/750/78 496/320/78
f 153/321/21 158/743/26 498/322/64
f 164/306/32 168/305/36 500/324/65
f 503/327/18 500/324/65 168/305/36
f 157/293/25 153/321/21 502/326/18
f 153/321/21 501/323/65 502/326/18
f 503/327/18 168/305/36 161/307/29
f 157/293/25 502/326/18 161/307/29
f 170/328/38 169/331/37 505/329/60
f 507/332/79 508/337/80 171/367/4
f 170/328/38 172/333/5 506/751/79
f 172/333/5 509/335/80 506/751/79
f 507/332/79 171/367/4 169/331/37
f 170/328/38 506/751/79 507/332/79
f 172/333/5 174/357/7 511/334/64
f 173/336/6 171/367/4 508/337/80
f 512/341/81 511/334/64 174/357/7
f 175/340/8 173/336/6 513/752/81
f 173/336/6 510/338/64 513/752/81
f 512/341/81 174/357/7 176/339/10
f 175/340/8 513/752/81 512/341/81
f 175/340/8 176/339/10 514/342/82
f 177/344/39 517/753/126 516/345/66
f 521/754/85 179/352/14 519/348/84
f 179/352/14 177/344/39 519/348/84
f 178/346/40 180/349/15 518/347/84
f 180/349/15 520/351/85 518/347/84
f 178/346/40 518/347/84 177/344/39
f 180/349/15 182/755/17 523/350/71
f 179/352/14 521/754/85 522/353/71
f 187/356/22 190/386/26 182/755/17
f 178/346/40 516/345/66 189/355/42
f 516/345/66 525/383/127 189/355/42
f 187/356/22 182/755/17 180/349/15
f 178/346/40 189/355/42 180/349/15
f 524/381/86 514/342/82 176/339/10
f 174/357/7 172/333/5 191/756/27
f 174/357/7 191/756/27 188/377/24
f 192/358/28 524/381/86 176/339/10
f 174/357/7 188/377/24 192/358/28
f 185/359/46 191/756/27 172/333/5
f 170/328/38 504/330/59 527/360/73
f 185/359/46 172/333/5 170/328/38
f 184/363/20 182/755/17 186/394/21
f 182/755/17 190/386/26 186/394/21
f 186/394/21 526/361/103 184/363/20
f 523/350/71 182/755/17 529/365/89
f 182/755/17 184/363/20 529/365/89
f 183/364/19 181/354/16 530/757/89
f 181/354/16 522/353/71 530/757/89
f 183/364/19 530/757/89 529/365/89
f 184/363/20 528/362/88 531/366/90
f 171/367/4 173/336/6 199/368/35
f 194/370/31 199/368/35 173/336/6
f 175/340/8 515/343/83 532/371/91
f 194/370/31 173/336/6 175/340/8
f 169/331/37 171/367/4 197/374/45
f 171/367/4 193/369/30 197/374/45
f 197/374/45 533/372/76 169/331/37
f 534/384/93 517/753/126 195/382/44
f 517/753/126 177/344/39 195/382/44
f 183/364/19 531/366/90 535/758/106
f 183/364/19 535/758/106 200/393/36
f 198/373/34 195/382/44 179/352/14
f 195/382/44 177/344/39 179/352/14
f 181/354/16 183/364/19 200/393/36
f 181/354/16 200/393/36 196/759/32
f 181/354/16 196/759/32 198/373/34
f 185/359/46 527/360/73 533/372/76
f 539/378/85 191/756/27 536/375/84
f 191/756/27 185/359/46 536/375/84
f 197/374/45 193/369/30 537/760/84
f 193/369/30 538/376/85 537/760/84
f 197/374/45 537/760/84 536/375/84
f 199/368/35 540/761/71 538/376/85
f 188/377/24 191/756/27 539/378/85
f 540/761/71 199/368/35 543/380/89
f 199/368/35 194/370/31 543/380/89
f 192/358/28 188/377/24 542/762/89
f 188/377/24 541/379/71 542/762/89
f 192/358/28 542/762/89 543/380/89
f 194/370/31 532/371/91 524/381/86
f 195/382/44 189/355/42 525/383/127
f 544/385/79 546/387/80 187/356/22
f 195/382/44 198/373/34 547/763/79
f 198/373/34 545/390/80 547/763/79
f 544/385/79 187/356/22 189/355/42
f 195/382/44 547/763/79 544/385/79
f 190/386/26 187/356/22 546/387/80
f 198/373/34 196/759/32 548/389/64
f 551/392/81 548/389/64 196/759/32
f 186/394/21 190/386/26 550/391/81
f 190/386/26 549/388/64 550/391/81
f 551/392/81 196/759/32 200/393/36
f 186/394/21 550/391/81 200/393/36
f 200/393/36 535/758/106 526/361/103
f 555/402/96 203/436/37 553/397/95
f 203/436/37 201/395/1 553/397/95
f 202/396/2 204/398/38 552/764/95
f 204/398/38 554/400/96 552/764/95
f 202/396/2 552/764/95 553/397/95
f 204/398/38 206/765/5 557/399/80
f 205/401/4 203/436/37 555/402/96
f 558/406/78 557/399/80 206/765/5
f 207/405/6 205/401/4 559/766/78
f 205/401/4 556/403/80 559/766/78
f 558/406/78 206/765/5 208/404/7
f 207/405/6 559/766/78 558/406/78
f 207/405/6 208/404/7 560/407/128
f 209/409/11 563/767/130 562/410/82
f 565/412/3 566/768/100 211/416/39
f 210/411/12 212/415/40 564/769/3
f 212/415/40 567/414/100 564/769/3
f 565/412/3 211/416/39 209/409/11
f 210/411/12 564/769/3 565/412/3
f 214/413/15 569/770/85 567/414/100
f 211/416/39 566/768/100 568/417/85
f 569/770/85 214/413/15 570/421/131
f 214/413/15 216/419/17 570/421/131
f 215/420/16 213/418/14 571/524/131
f 213/418/14 568/417/85 571/524/131
f 215/420/16 571/524/131 570/421/131
f 218/450/22 223/427/26 216/419/17
f 210/411/12 562/410/82 219/448/47
f 562/410/82 573/446/102 219/448/47
f 218/450/22 216/419/17 214/413/15
f 210/411/12 219/448/47 222/422/42
f 222/422/42 218/450/22 214/413/15
f 212/415/40 210/411/12 222/422/42
f 572/424/132 560/407/128 208/404/7
f 208/404/7 206/765/5 220/423/24
f 206/765/5 224/441/27 220/423/24
f 217/426/41 224/441/27 204/398/38
f 224/441/27 206/765/5 204/398/38
f 202/396/2 577/431/88 221/425/25
f 577/431/88 576/771/87 221/425/25
f 202/396/2 221/425/25 204/398/38
f 223/427/26 575/457/128 574/428/132
f 216/419/17 574/428/132 578/429/133
f 202/396/2 201/395/1 579/430/90
f 205/401/4 207/405/6 232/432/35
f 232/432/35 207/405/6 561/408/129
f 581/447/105 563/767/130 230/445/33
f 563/767/130 209/409/11 230/445/33
f 215/420/16 578/429/133 228/455/32
f 578/429/133 583/772/129 228/455/32
f 227/435/44 230/445/33 209/409/11
f 213/418/14 215/420/16 231/773/34
f 215/420/16 228/455/32 231/773/34
f 227/435/44 209/409/11 211/416/39
f 213/418/14 231/773/34 227/435/44
f 582/458/94 579/430/90 225/437/29
f 579/430/90 201/395/1 225/437/29
f 203/436/37 205/401/4 226/433/30
f 203/436/37 226/433/30 229/440/57
f 203/436/37 229/440/57 225/437/29
f 584/438/3 586/442/100 217/426/41
f 225/437/29 229/440/57 587/774/3
f 229/440/57 585/439/100 587/774/3
f 584/438/3 217/426/41 221/425/25
f 225/437/29 587/774/3 584/438/3
f 226/433/30 588/775/85 585/439/100
f 224/441/27 217/426/41 586/442/100
f 588/775/85 226/433/30 591/444/70
f 226/433/30 232/432/35 591/444/70
f 220/423/24 224/441/27 590/776/70
f 224/441/27 589/443/85 590/776/70
f 220/423/24 590/776/70 591/444/70
f 232/432/35 580/434/133 572/424/132
f 230/445/33 219/448/47 573/446/102
f 595/451/96 222/422/42 592/449/95
f 222/422/42 219/448/47 592/449/95
f 230/445/33 227/435/44 594/777/95
f 227/435/44 593/454/96 594/777/95
f 230/445/33 594/777/95 592/449/95
f 218/450/22 222/422/42 595/451/96
f 227/435/44 231/773/34 596/453/80
f 599/456/78 596/453/80 231/773/34
f 223/427/26 218/450/22 598/778/78
f 218/450/22 597/452/80 598/778/78
f 599/456/78 231/773/34 228/455/32
f 223/427/26 598/778/78 599/456/78
f 228/455/32 583/772/129 575/457/128
f 221/425/25 576/771/87 582/458/94
f 234/459/2 236/486/38 603/460/96
f 233/462/1 600/493/123 602/463/96
f 604/467/79 603/460/96 236/486/38
f 237/466/4 235/464/37 605/779/79
f 235/464/37 602/463/96 605/779/79
f 604/467/79 236/486/38 238/465/5
f 237/466/4 605/779/79 604/467/79
f 238/465/5 606/482/110 607/468/111
f 239/469/8 609/780/129 608/470/128
f 611/472/18 612/781/112 241/495/11
f 240/471/10 242/484/12 610/782/18
f 242/484/12 613/783/112 610/782/18
f 611/472/18 241/495/11 239/469/8
f 240/471/10 610/782/18 611/472/18
f 614/474/3 613/783/112 242/484/12
f 243/477/39 241/495/11 615/473/3
f 241/495/11 612/781/112 615/473/3
f 614/474/3 242/484/12 244/475/40
f 243/477/39 615/473/3 244/475/40
f 244/475/40 616/784/68 617/476/69
f 246/478/17 245/488/16 619/479/114
f 238/465/5 255/505/27 620/481/115
f 621/483/116 254/519/26 246/478/17
f 240/471/10 608/470/128 256/512/28
f 608/470/128 623/508/132 256/512/28
f 622/516/61 616/784/68 253/514/42
f 616/784/68 244/475/40 253/514/42
f 242/484/12 240/471/10 251/485/47
f 240/471/10 256/512/28 251/485/47
f 251/485/47 253/514/42 244/475/40
f 249/499/41 255/505/27 236/486/38
f 255/505/27 238/465/5 236/486/38
f 248/490/20 246/478/17 254/519/26
f 248/490/20 254/519/26 250/785/21
f 248/490/20 250/785/21 252/487/25
f 252/487/25 249/499/41 236/486/38
f 234/459/2 248/490/20 252/487/25
f 627/786/74 247/492/19 625/489/89
f 247/492/19 245/488/16 625/489/89
f 246/478/17 248/490/20 624/787/89
f 248/490/20 626/491/74 624/787/89
f 246/478/17 624/787/89 625/489/89
f 248/490/20 234/459/2 601/461/123
f 247/492/19 627/786/74 600/493/123
f 628/494/119 258/504/30 237/466/4
f 629/509/133 609/780/129 259/507/31
f 609/780/129 239/469/8 259/507/31
f 243/477/39 617/476/69 260/513/44
f 617/476/69 630/788/62 260/513/44
f 243/477/39 260/513/44 263/496/33
f 263/496/33 259/507/31 239/469/8
f 241/495/11 243/477/39 263/496/33
f 631/518/121 619/479/114 245/488/16
f 235/464/37 237/466/4 258/504/30
f 235/464/37 258/504/30 262/789/45
f 261/517/32 631/518/121 245/488/16
f 264/498/58 261/517/32 247/492/19
f 261/517/32 245/488/16 247/492/19
f 233/462/1 235/464/37 257/497/29
f 235/464/37 262/789/45 257/497/29
f 233/462/1 257/497/29 247/492/19
f 249/499/41 252/487/25 635/500/112
f 257/497/29 262/789/45 632/502/100
f 637/506/84 632/502/100 262/789/45
f 255/505/27 249/499/41 636/790/84
f 249/499/41 633/501/100 636/790/84
f 637/506/84 262/789/45 258/504/30
f 255/505/27 636/790/84 637/506/84
f 258/504/30 628/494/119 620/481/115
f 259/507/31 256/512/28 623/508/132
f 639/791/123 251/485/47 638/511/75
f 251/485/47 256/512/28 638/511/75
f 259/507/31 263/496/33 640/510/75
f 263/496/33 641/792/123 640/510/75
f 259/507/31 640/510/75 256/512/28
f 643/515/95 641/792/123 263/496/33
f 253/514/42 251/485/47 642/793/95
f 251/485/47 639/791/123 642/793/95
f 643/515/95 263/496/33 260/513/44
f 253/514/42 642/793/95 643/515/95
f 260/513/44 630/788/62 622/516/61
f 261/517/32 254/519/26 621/483/116
f 644/520/81 646/521/65 250/785/21
f 261/517/32 264/498/58 647/794/81
f 264/498/58 645/522/65 647/794/81
f 644/520/81 250/785/21 254/519/26
f 261/517/32 647/794/81 644/520/81
f 252/487/25 250/785/21 646/521/65
f 264/498/58 257/497/29 634/503/112
f 3/523/3 4/795/3 570/421/131
f 10/525/9 473/283/125 472/282/125
f 15/527/13 16/796/13 367/141/97
f 454/259/124 434/228/118 411/529/48
f 411/529/48 409/797/107 440/236/122
f 443/530/29 454/259/124 411/529/48
f 23/531/18 21/798/18 271/7/63
f 649/533/2 651/536/38 650/534/37
f 651/536/38 653/538/5 652/537/4
f 653/538/5 655/540/7 654/539/6
f 655/540/7 657/542/10 656/541/8
f 657/542/10 659/544/12 658/543/11
f 659/544/12 661/546/40 660/545/39
f 661/546/40 663/548/15 662/547/14
f 663/548/15 665/556/17 664/549/16
f 675/799/26 665/800/17 670/801/22
f 665/800/17 663/802/15 670/801/22
f 655/803/7 653/804/5 672/805/24
f 653/804/5 676/806/27 672/805/24
f 674/807/42 670/801/22 663/802/15
f 657/808/10 655/803/7 677/809/28
f 655/803/7 672/805/24 677/809/28
f 674/807/42 663/802/15 661/550/40
f 657/808/10 677/809/28 671/552/47
f 671/552/47 674/807/42 661/550/40
f 659/551/12 657/808/10 671/552/47
f 668/810/46 676/806/27 653/804/5
f 667/554/20 665/800/17 669/811/21
f 665/800/17 675/799/26 669/811/21
f 668/810/46 653/804/5 651/812/38
f 667/554/20 669/811/21 673/555/25
f 673/555/25 668/810/46 649/553/2
f 668/810/46 651/812/38 649/553/2
f 665/556/17 667/558/20 666/557/19
f 667/558/20 649/813/2 648/559/1
f 652/560/4 654/814/6 686/561/35
f 680/815/31 686/561/35 654/814/6
f 650/816/37 652/560/4 679/562/30
f 650/816/37 679/562/30 683/817/45
f 680/815/31 654/814/6 656/818/8
f 684/819/33 680/815/31 656/818/8
f 648/820/1 650/816/37 683/817/45
f 648/820/1 683/817/45 678/821/29
f 684/819/33 656/818/8 658/822/11
f 681/823/44 684/819/33 660/824/39
f 684/819/33 658/822/11 660/824/39
f 666/825/19 648/820/1 678/821/29
f 666/825/19 678/821/29 687/826/36
f 685/565/34 681/823/44 662/563/14
f 681/823/44 660/824/39 662/563/14
f 664/564/16 666/825/19 687/826/36
f 664/564/16 687/826/36 682/827/32
f 664/564/16 682/827/32 685/565/34
f 668/566/46 673/828/25 678/567/29
f 668/566/46 683/568/45 679/569/30
f 676/570/27 679/569/30 686/571/35
f 672/572/24 686/571/35 680/573/31
f 677/574/28 680/573/31 684/575/33
f 671/576/47 684/575/33 681/577/44
f 670/579/22 674/578/42 681/577/44
f 675/581/26 670/579/22 685/580/34
f 669/583/21 675/581/26 682/582/32
f 673/585/25 669/583/21 687/584/36
f 689/587/2 691/590/38 690/588/37
f 691/590/38 693/592/5 692/591/4
f 693/592/5 695/594/7 694/593/6
f 695/594/7 697/596/134 696/595/8
f 697/596/134 699/598/12 698/597/11
f 699/598/12 701/600/40 700/599/39
f 701/600/40 703/602/15 702/601/14
f 703/602/15 705/610/17 704/603/16
f 715/829/26 705/830/17 703/831/15
f 695/832/7 693/833/5 716/834/27
f 695/832/7 716/834/27 712/835/24
f 710/836/22 715/829/26 703/831/15
f 714/837/42 710/836/22 703/831/15
f 697/838/134 695/832/7 712/835/24
f 697/838/134 712/835/24 717/839/28
f 714/837/42 703/831/15 701/604/40
f 697/838/134 717/839/28 711/606/47
f 711/606/47 714/837/42 701/604/40
f 699/605/12 697/838/134 711/606/47
f 708/840/46 716/834/27 693/833/5
f 707/841/135 705/830/17 715/829/26
f 707/841/135 715/829/26 709/842/21
f 708/840/46 693/833/5 691/607/38
f 707/841/135 709/842/21 713/609/25
f 713/609/25 708/840/46 691/607/38
f 689/608/2 707/841/135 713/609/25
f 705/610/17 707/612/135 706/611/19
f 707/612/135 689/843/2 688/613/1
f 692/614/4 694/844/6 726/615/35
f 720/845/31 726/615/35 694/844/6
f 690/846/37 692/614/4 723/847/45
f 692/614/4 719/616/30 723/847/45
f 720/845/31 694/844/6 696/848/8
f 724/849/33 720/845/31 696/848/8
f 688/850/1 690/846/37 723/847/45
f 688/850/1 723/847/45 718/851/29
f 724/849/33 696/848/8 698/852/11
f 721/853/44 724/849/33 698/852/11
f 706/854/19 688/850/1 718/851/29
f 706/854/19 718/851/29 727/855/36
f 721/853/44 698/852/11 700/856/39
f 725/619/34 721/853/44 700/856/39
f 704/618/16 706/854/19 722/857/32
f 706/854/19 727/855/36 722/857/32
f 725/619/34 700/856/39 702/617/14
f 704/618/16 722/857/32 725/619/34
f 708/620/46 713/858/25 718/621/29
f 708/620/46 723/622/45 719/623/30
f 716/624/27 719/623/30 726/625/35
f 712/626/24 726/625/35 720/627/31
f 717/628/28 720/627/31 724/629/33
f 711/630/47 724/629/33 721/631/44
f 710/633/22 714/632/42 721/631/44
f 715/635/26 710/633/22 725/634/34
f 709/637/21 715/635/26 722/636/32
f 713/639/25 709/637/21 727/638/36
f 729/641/2 731/644/38 730/642/37
f 731/644/38 733/646/5 732/645/4
f 733/646/5 735/648/7 734/647/6
f 735/648/7 737/650/10 736/649/8
f 737/650/10 739/652/12 738/651/11
f 739/652/12 741/654/40 740/653/39
f 741/654/40 743/656/15 742/655/14
f 743/656/15 745/660/17 744/657/16
f 755/680/26 745/660/17 743/656/15
f 735/648/7 733/646/5 756/671/27
f 735/648/7 756/671/27 752/672/24
f 750/678/22 755/680/26 743/656/15
f 754/677/42 750/678/22 743/656/15
f 737/650/10 735/648/7 757/674/28
f 735/648/7 752/672/24 757/674/28
f 754/677/42 743/656/15 741/654/40
f 737/650/10 757/674/28 751/658/47
f 751/658/47 754/677/42 739/652/12
f 754/677/42 741/654/40 739/652/12
f 748/668/46 756/671/27 733/646/5
f 747/662/20 745/660/17 755/680/26
f 747/662/20 755/680/26 749/682/21
f 748/668/46 733/646/5 731/644/38
f 747/662/20 749/682/21 753/659/25
f 753/659/25 748/668/46 731/644/38
f 729/641/2 747/662/20 753/659/25
f 745/660/17 747/662/20 746/661/19
f 747/662/20 729/641/2 728/643/1
f 759/663/30 732/645/4 734/647/6
f 760/859/31 766/664/35 736/860/8
f 766/664/35 734/647/6 736/860/8
f 730/861/37 732/645/4 759/663/30
f 730/861/37 759/663/30 763/862/45
f 764/863/33 760/859/31 738/864/11
f 760/859/31 736/860/8 738/864/11
f 728/865/1 730/861/37 763/862/45
f 728/865/1 763/862/45 758/866/29
f 761/867/44 764/863/33 740/868/39
f 764/863/33 738/864/11 740/868/39
f 746/869/19 728/865/1 758/866/29
f 746/869/19 758/866/29 767/870/36
f 765/667/34 761/867/44 742/665/14
f 761/867/44 740/868/39 742/665/14
f 744/666/16 746/869/19 767/870/36
f 744/666/16 767/870/36 762/871/32
f 744/666/16 762/871/32 765/667/34
f 748/668/46 753/659/25 758/669/29
f 748/668/46 763/670/45 759/663/30
f 756/671/27 759/663/30 766/664/35
f 752/672/24 766/664/35 760/673/31
f 757/674/28 760/673/31 764/675/33
f 751/658/47 764/675/33 761/676/44
f 750/678/22 754/677/42 761/676/44
f 755/680/26 750/678/22 765/679/34
f 749/682/21 755/680/26 762/681/32
f 753/659/25 749/682/21 767/683/36
