# Blender 4.1.1
# www.blender.org
mtllib 無題.mtl
o 体
v -0.273718 -0.260666 0.153797
v -0.153797 0.246927 0.153797
v -0.273718 -0.244416 -0.102746
v -0.153797 0.253812 -0.117845
v 0.264736 -0.260666 0.153797
v 0.153797 0.246927 0.153797
v 0.264736 -0.244416 -0.102746
v 0.153797 0.253811 -0.117845
v -0.307420 -0.316282 0.000000
v -0.097300 -0.006869 0.187499
v -0.218352 0.320256 -0.000000
v -0.097300 -0.006869 -0.081288
v 0.000000 -0.213381 -0.170095
v 0.000000 0.288354 -0.139254
v 0.086124 -0.006869 -0.081288
v 0.298438 -0.316282 0.000000
v 0.204929 0.320256 -0.000000
v 0.086124 -0.006869 0.187499
v 0.000000 -0.316282 0.220879
v 0.000000 0.298723 0.152244
v -0.168028 -0.006869 0.000000
v 0.000000 -0.006869 -0.096678
v 0.156852 -0.006869 0.000000
v 0.000000 0.002656 0.218789
v 0.000000 -0.432997 0.000000
v 0.000000 0.405335 -0.000000
vn -0.7743 -0.1119 0.6228
vn -0.5146 0.1134 0.8499
vn -0.9817 0.1698 -0.0861
vn -0.9546 -0.2364 -0.1815
vn -0.6588 0.2437 0.7118
vn -0.9360 0.3420 -0.0839
vn -0.5405 0.1578 -0.8264
vn -0.4887 0.1000 -0.8667
vn -0.6292 -0.0213 -0.7769
vn 0.0050 0.0704 -0.9975
vn 0.0052 -0.1241 -0.9923
vn 0.0053 0.2856 -0.9583
vn 0.5717 0.1478 -0.8071
vn 0.4978 0.0983 -0.8617
vn 0.6330 -0.0196 -0.7739
vn 0.9832 0.1634 -0.0815
vn 0.9555 -0.2330 -0.1811
vn 0.9344 0.3467 -0.0818
vn 0.6854 0.2292 0.6912
vn 0.5201 0.1130 0.8466
vn 0.7778 -0.1086 0.6190
vn 0.0045 0.0953 0.9954
vn 0.0064 -0.3853 0.9228
vn 0.0055 0.5077 0.8615
vn 0.0045 -0.9737 -0.2279
vn 0.0062 0.9985 -0.0549
vt 0.966529 0.814867
vt 0.851591 0.932996
vt 0.764524 0.783576
vt 0.947453 0.708847
vt 0.743272 0.969600
vt 0.640568 0.911236
vt 0.596166 0.825230
vt 0.689451 0.706358
vt 0.887467 0.656225
vt 0.618037 0.639279
vt 0.701711 0.547691
vt 0.513736 0.756546
vt 0.436945 0.683118
vt 0.553100 0.583390
vt 0.580712 0.382679
vt 0.470990 0.517173
vt 0.521593 0.351182
vt 0.375454 0.635979
vt 0.298238 0.579548
vt 0.299789 0.447345
vt 0.433952 0.320425
vt 0.228214 0.434046
vt 0.243295 0.296522
vt 0.194375 0.565584
vt 0.093375 0.520473
vt 0.156552 0.420958
vt 0.041995 0.298466
vt 0.723442 0.094435
vt 0.694584 0.263184
vt 0.584636 0.208753
vt 0.668025 0.048230
vt 0.463412 0.153603
vt 0.572458 0.018690
vt 0.391056 0.773962
vt 0.313584 0.722215
vt 0.324718 0.850925
vt 0.234436 0.832075
vt 0.170765 0.738074
vt 0.236953 0.660669
s 1
usemtl マテリアル.006
f 1/1/1 10/2/2 21/3/3 9/4/4
f 10/2/2 2/5/5 11/6/6 21/3/3
f 21/3/3 11/6/6 4/7/7 12/8/8
f 9/4/4 21/3/3 12/8/8 3/9/9
f 3/9/9 12/8/8 22/10/10 13/11/11
f 12/8/8 4/7/7 14/12/12 22/10/10
f 22/10/10 14/12/12 8/13/13 15/14/14
f 13/11/11 22/10/10 15/14/14 7/15/15
f 7/15/15 15/14/14 23/16/16 16/17/17
f 15/14/14 8/13/13 17/18/18 23/16/16
f 23/16/16 17/18/18 6/19/19 18/20/20
f 16/17/17 23/16/16 18/20/20 5/21/21
f 5/21/21 18/20/20 24/22/22 19/23/23
f 18/20/20 6/19/19 20/24/24 24/22/22
f 24/22/22 20/24/24 2/25/5 10/26/2
f 19/23/23 24/22/22 10/26/2 1/27/1
f 3/28/9 13/29/11 25/30/25 9/31/4
f 13/29/11 7/15/15 16/17/17 25/30/25
f 25/30/25 16/17/17 5/21/21 19/32/23
f 9/31/4 25/30/25 19/32/23 1/33/1
f 8/13/13 14/34/12 26/35/26 17/18/18
f 14/34/12 4/36/7 11/37/6 26/35/26
f 26/35/26 11/37/6 2/38/5 20/39/24
f 17/18/18 26/35/26 20/39/24 6/19/19
o 右腕
v -0.289634 -0.134064 -0.056430
v -0.172927 0.223004 -0.063144
v -0.289634 -0.134064 0.065758
v -0.195436 0.189253 0.055928
v -0.406483 -0.098340 -0.056430
v -0.303610 0.262958 -0.063144
v -0.386025 -0.071483 0.050037
v -0.302444 0.221969 0.055928
v -0.288574 -0.176387 0.004664
v -0.264476 0.036568 -0.030704
v -0.136621 0.289676 0.005183
v -0.267334 0.036734 0.034698
v -0.347800 -0.117560 0.060999
v -0.238217 0.240679 0.068141
v -0.328903 0.055558 0.034698
v -0.431029 -0.132834 0.004664
v -0.304796 0.310292 0.005183
v -0.331906 0.057183 -0.030704
v -0.359801 -0.154611 -0.069818
v -0.225135 0.285937 -0.078117
v -0.251759 0.032680 0.004551
v -0.298045 0.045407 0.040496
v -0.344623 0.061071 0.004551
v -0.298191 0.046875 -0.044003
v -0.372827 -0.207084 0.004664
v -0.154917 0.330243 0.005183
vn 0.6533 -0.2755 -0.7052
vn 0.6812 -0.2124 -0.7006
vn 0.9561 -0.2892 0.0478
vn 0.8851 -0.4599 0.0716
vn 0.6817 -0.1657 -0.7126
vn 0.9829 -0.1134 0.1452
vn 0.5877 -0.1743 0.7901
vn 0.5833 -0.1679 0.7947
vn 0.5443 -0.2388 0.8042
vn -0.0351 0.0102 0.9993
vn -0.1196 -0.1047 0.9873
vn 0.0073 0.1264 0.9920
vn -0.5543 0.2172 0.8035
vn -0.5698 0.1648 0.8051
vn -0.5814 0.1292 0.8033
vn -0.9543 0.2838 0.0940
vn -0.9832 0.1116 0.1447
vn -0.8715 0.4661 0.1521
vn -0.6519 0.2802 -0.7046
vn -0.6771 0.2002 -0.7081
vn -0.6962 0.1353 -0.7049
vn -0.0015 -0.0052 -1.0000
vn -0.0526 -0.1683 -0.9843
vn 0.0185 0.1721 -0.9849
vn -0.3450 -0.8961 0.2793
vn 0.6453 0.6662 0.3738
vt 0.606618 0.000094
vt 0.691867 0.139371
vt 0.626891 0.226753
vt 0.485609 0.078880
vt 0.886016 0.186102
vt 0.862278 0.348816
vt 0.720468 0.412315
vt 0.562875 0.310242
vt 0.400560 0.195903
vt 0.501650 0.397446
vt 0.366174 0.305553
vt 0.666464 0.514921
vt 0.585855 0.600926
vt 0.440016 0.484497
vt 0.317580 0.398919
vt 0.371591 0.574055
vt 0.238392 0.460039
vt 0.541710 0.709155
vt 0.466704 0.818728
vt 0.294803 0.659305
vt 0.153355 0.534014
vt 0.219019 0.742211
vt 0.056254 0.632343
vt 0.360408 0.934026
vt 0.218944 0.999906
vt 0.145161 0.818223
vt 0.000094 0.759484
vt 0.214092 0.193386
vt 0.274744 0.300483
vt 0.168037 0.358608
vt 0.092715 0.241728
vt 0.056790 0.448964
vt 0.000094 0.332404
vt 0.722931 0.603994
vt 0.780833 0.804449
vt 0.857339 0.662689
vt 0.849068 0.827413
vt 0.762497 0.984834
vt 0.586508 0.940982
s 1
usemtl マテリアル.008
f 27/40/27 36/41/28 47/42/29 35/43/30
f 36/41/28 28/44/31 37/45/32 47/42/29
f 47/42/29 37/45/32 30/46/33 38/47/34
f 35/43/30 47/42/29 38/47/34 29/48/35
f 29/48/35 38/47/34 48/49/36 39/50/37
f 38/47/34 30/46/33 40/51/38 48/49/36
f 48/49/36 40/51/38 34/52/39 41/53/40
f 39/50/37 48/49/36 41/53/40 33/54/41
f 33/54/41 41/53/40 49/55/42 42/56/43
f 41/53/40 34/52/39 43/57/44 49/55/42
f 49/55/42 43/57/44 32/58/45 44/59/46
f 42/56/43 49/55/42 44/59/46 31/60/47
f 31/60/47 44/59/46 50/61/48 45/62/49
f 44/59/46 32/58/45 46/63/50 50/61/48
f 50/61/48 46/63/50 28/64/31 36/65/28
f 45/62/49 50/61/48 36/65/28 27/66/27
f 29/67/35 39/68/37 51/69/51 35/70/30
f 39/68/37 33/54/41 42/56/43 51/69/51
f 51/69/51 42/56/43 31/60/47 45/71/49
f 35/70/30 51/69/51 45/71/49 27/72/27
f 34/52/39 40/73/38 52/74/52 43/57/44
f 40/73/38 30/75/33 37/76/32 52/74/52
f 52/74/52 37/76/32 28/77/31 46/78/50
f 43/57/44 52/74/52 46/78/50 32/58/45
o 右足
v -0.086219 -1.033171 -0.085000
v -0.086219 -0.403171 -0.085000
v -0.086219 -1.033171 0.085000
v -0.086219 -0.403171 0.116905
v -0.256219 -1.033171 -0.085000
v -0.256219 -0.403171 -0.085000
v -0.256219 -1.033171 0.085000
v -0.256219 -0.403171 0.169603
v -0.070336 -1.207499 0.000000
v -0.067592 -0.718171 -0.021466
v -0.040153 -0.312192 0.000000
v -0.067592 -0.718171 0.038400
v -0.171219 -1.138057 0.091154
v -0.171219 -0.334143 0.150912
v -0.227024 -0.718171 0.038400
v -0.227431 -1.217792 0.000000
v -0.329723 -0.419204 0.000000
v -0.227024 -0.718171 -0.021466
v -0.171219 -1.177034 -0.103627
v -0.171219 -0.361275 -0.138553
v -0.039711 -0.574341 0.000000
v -0.171219 -0.709464 0.087813
v -0.244163 -0.718171 0.005191
v -0.171219 -0.718171 -0.060556
v -0.171219 -1.238829 0.000000
v -0.171219 -0.189282 0.000000
vn 0.5748 -0.0500 -0.8168
vn 0.7543 -0.0246 -0.6561
vn 0.9978 -0.0303 -0.0594
vn 0.9624 -0.2711 0.0166
vn 0.6107 0.0647 -0.7892
vn 0.9829 0.1715 -0.0662
vn 0.6218 0.0625 0.7807
vn 0.7922 -0.0384 0.6091
vn 0.5850 -0.0841 0.8066
vn 0.0590 -0.0800 0.9950
vn -0.0400 -0.1715 0.9844
vn 0.0237 0.1152 0.9931
vn -0.6033 0.0207 0.7972
vn -0.8190 -0.1099 0.5631
vn -0.7985 -0.0567 0.5993
vn -0.9901 -0.1212 -0.0708
vn -0.9576 -0.2830 0.0536
vn -0.9927 0.0431 -0.1123
vn -0.6732 0.0539 -0.7374
vn -0.7945 -0.0731 -0.6028
vn -0.7894 -0.0300 -0.6131
vn -0.0460 -0.0290 -0.9985
vn -0.0458 -0.1549 -0.9869
vn -0.0612 0.0737 -0.9954
vn -0.1002 -0.9836 0.1498
vn -0.0825 0.9810 -0.1754
vt 0.552815 0.000089
vt 0.648492 0.126882
vt 0.693675 0.188750
vt 0.452458 0.104920
vt 0.791449 0.067368
vt 0.793598 0.210411
vt 0.724601 0.378510
vt 0.614628 0.235848
vt 0.461892 0.235402
vt 0.523138 0.434860
vt 0.369309 0.308991
vt 0.717926 0.501563
vt 0.685462 0.614577
vt 0.423070 0.539040
vt 0.317012 0.414320
vt 0.387074 0.605848
vt 0.206917 0.468772
vt 0.515748 0.716037
vt 0.452462 0.807397
vt 0.349503 0.651877
vt 0.167423 0.583410
vt 0.264504 0.756746
vt 0.077774 0.661127
vt 0.385376 0.912381
vt 0.267090 0.952679
vt 0.145952 0.891611
vt 0.068273 0.779293
vt 0.162074 0.265426
vt 0.236774 0.341966
vt 0.157396 0.423345
vt 0.070910 0.339203
vt 0.075061 0.517095
vt 0.000089 0.432277
vt 0.744091 0.715356
vt 0.607448 0.843261
vt 0.793598 0.827701
vt 0.706500 0.970871
vt 0.579157 0.999911
vt 0.461226 0.939558
s 1
usemtl マテリアル.010
f 53/79/53 62/80/54 73/81/55 61/82/56
f 62/80/54 54/83/57 63/84/58 73/81/55
f 73/81/55 63/84/58 56/85/59 64/86/60
f 61/82/56 73/81/55 64/86/60 55/87/61
f 55/87/61 64/86/60 74/88/62 65/89/63
f 64/86/60 56/85/59 66/90/64 74/88/62
f 74/88/62 66/90/64 60/91/65 67/92/66
f 65/89/63 74/88/62 67/92/66 59/93/67
f 59/93/67 67/92/66 75/94/68 68/95/69
f 67/92/66 60/91/65 69/96/70 75/94/68
f 75/94/68 69/96/70 58/97/71 70/98/72
f 68/95/69 75/94/68 70/98/72 57/99/73
f 57/99/73 70/98/72 76/100/74 71/101/75
f 70/98/72 58/97/71 72/102/76 76/100/74
f 76/100/74 72/102/76 54/103/57 62/104/54
f 71/101/75 76/100/74 62/104/54 53/105/53
f 55/106/61 65/107/63 77/108/77 61/109/56
f 65/107/63 59/93/67 68/95/69 77/108/77
f 77/108/77 68/95/69 57/99/73 71/110/75
f 61/109/56 77/108/77 71/110/75 53/111/53
f 60/91/65 66/112/64 78/113/78 69/96/70
f 66/112/64 56/114/59 63/115/58 78/113/78
f 78/113/78 63/115/58 54/116/57 72/117/76
f 69/96/70 78/113/78 72/117/76 58/97/71
o 左足
v 0.086219 -1.033171 0.085000
v 0.086219 -0.403171 0.085000
v 0.086219 -1.033171 -0.085000
v 0.086219 -0.403171 -0.116905
v 0.256219 -1.033171 0.085000
v 0.256219 -0.403171 0.085000
v 0.256219 -1.033171 -0.085000
v 0.256219 -0.403171 -0.169603
v 0.070336 -1.207499 0.000000
v 0.067592 -0.718171 0.021477
v 0.040154 -0.312192 0.000000
v 0.067592 -0.718171 -0.023851
v 0.171219 -1.138057 -0.091154
v 0.171219 -0.334143 -0.150912
v 0.219845 -0.718171 -0.023851
v 0.227431 -1.217792 0.000000
v 0.329723 -0.419204 0.000000
v 0.219845 -0.718171 0.021477
v 0.171219 -1.177034 0.103627
v 0.171219 -0.361275 0.138553
v 0.039712 -0.574341 0.000000
v 0.171219 -0.709464 -0.073264
v 0.236983 -0.718171 0.001391
v 0.171219 -0.718171 0.092097
v 0.171219 -1.238829 0.000000
v 0.171219 -0.189282 0.000000
vn -0.6377 -0.0689 0.7672
vn -0.7896 -0.0239 0.6132
vn -0.9981 -0.0350 0.0501
vn -0.9626 -0.2690 -0.0319
vn -0.6524 0.0808 0.7536
vn -0.9840 0.1671 0.0623
vn -0.6135 0.0492 -0.7881
vn -0.7819 -0.0356 -0.6224
vn -0.5622 -0.0653 -0.8244
vn -0.0535 -0.0755 -0.9957
vn 0.0423 -0.1528 -0.9873
vn -0.0177 0.1031 -0.9945
vn 0.6070 0.0123 -0.7946
vn 0.8332 -0.1085 -0.5422
vn 0.7985 -0.0375 -0.6009
vn 0.9882 -0.1263 0.0869
vn 0.9605 -0.2734 -0.0519
vn 0.9936 0.0368 0.1067
vn 0.7153 0.0625 0.6960
vn 0.8456 -0.0660 0.5298
vn 0.8528 -0.0387 0.5208
vn 0.0642 -0.0330 0.9974
vn 0.0605 -0.1773 0.9823
vn 0.0687 0.0897 0.9936
vn 0.1002 -0.9836 -0.1498
vn 0.0825 0.9810 0.1754
vt 0.621739 0.000093
vt 0.715258 0.139023
vt 0.759719 0.206333
vt 0.510107 0.104750
vt 0.864742 0.082471
vt 0.862909 0.229495
vt 0.794079 0.400070
vt 0.679637 0.231989
vt 0.508394 0.232626
vt 0.571825 0.446147
vt 0.415238 0.299100
vt 0.789417 0.516877
vt 0.765360 0.625037
vt 0.474632 0.549331
vt 0.354686 0.396238
vt 0.451942 0.608323
vt 0.243787 0.484467
vt 0.595901 0.720420
vt 0.531309 0.807047
vt 0.420440 0.648578
vt 0.221369 0.624546
vt 0.329581 0.797902
vt 0.135380 0.718374
vt 0.461015 0.923650
vt 0.347587 0.999907
vt 0.206565 0.969030
vt 0.131551 0.845434
vt 0.147000 0.263830
vt 0.248329 0.333706
vt 0.176959 0.443625
vt 0.060307 0.367163
vt 0.103197 0.568041
vt 0.000093 0.487900
vt 0.819771 0.725924
vt 0.681626 0.847199
vt 0.864742 0.837809
vt 0.774610 0.975417
vt 0.648867 0.999659
vt 0.535442 0.936646
s 1
usemtl マテリアル.011
f 79/118/79 88/119/80 99/120/81 87/121/82
f 88/119/80 80/122/83 89/123/84 99/120/81
f 99/120/81 89/123/84 82/124/85 90/125/86
f 87/121/82 99/120/81 90/125/86 81/126/87
f 81/126/87 90/125/86 100/127/88 91/128/89
f 90/125/86 82/124/85 92/129/90 100/127/88
f 100/127/88 92/129/90 86/130/91 93/131/92
f 91/128/89 100/127/88 93/131/92 85/132/93
f 85/132/93 93/131/92 101/133/94 94/134/95
f 93/131/92 86/130/91 95/135/96 101/133/94
f 101/133/94 95/135/96 84/136/97 96/137/98
f 94/134/95 101/133/94 96/137/98 83/138/99
f 83/138/99 96/137/98 102/139/100 97/140/101
f 96/137/98 84/136/97 98/141/102 102/139/100
f 102/139/100 98/141/102 80/142/83 88/143/80
f 97/140/101 102/139/100 88/143/80 79/144/79
f 81/145/87 91/146/89 103/147/103 87/148/82
f 91/146/89 85/132/93 94/134/95 103/147/103
f 103/147/103 94/134/95 83/138/99 97/149/101
f 87/148/82 103/147/103 97/149/101 79/150/79
f 86/130/91 92/151/90 104/152/104 95/135/96
f 92/151/90 82/153/85 89/154/84 104/152/104
f 104/152/104 89/154/84 80/155/83 98/156/102
f 95/135/96 104/152/104 98/156/102 84/136/97
o 左腕
v 0.289634 -0.134064 0.056430
v 0.172927 0.223004 0.063144
v 0.289634 -0.134064 -0.065758
v 0.195436 0.189253 -0.055928
v 0.406483 -0.098340 0.056430
v 0.303610 0.262958 0.063144
v 0.386025 -0.071483 -0.050037
v 0.302444 0.221969 -0.055928
v 0.288574 -0.176387 -0.004664
v 0.264476 0.036568 0.030704
v 0.136621 0.289676 -0.005183
v 0.267334 0.036734 -0.034698
v 0.347800 -0.117560 -0.060999
v 0.238217 0.240679 -0.068141
v 0.328903 0.055558 -0.034698
v 0.431029 -0.132834 -0.004664
v 0.304796 0.310292 -0.005183
v 0.331906 0.057183 0.030704
v 0.359801 -0.154611 0.069818
v 0.225135 0.285937 0.078117
v 0.251759 0.032680 -0.004551
v 0.298045 0.045407 -0.040496
v 0.344623 0.061071 -0.004551
v 0.298191 0.046875 0.044003
v 0.372827 -0.207084 -0.004664
v 0.154917 0.330243 -0.005183
vn -0.6533 -0.2755 0.7052
vn -0.6812 -0.2124 0.7006
vn -0.9561 -0.2892 -0.0478
vn -0.8851 -0.4599 -0.0716
vn -0.6817 -0.1657 0.7126
vn -0.9829 -0.1134 -0.1452
vn -0.5877 -0.1743 -0.7901
vn -0.5833 -0.1679 -0.7947
vn -0.5443 -0.2388 -0.8042
vn 0.0351 0.0102 -0.9993
vn 0.1196 -0.1047 -0.9873
vn -0.0073 0.1264 -0.9920
vn 0.5543 0.2172 -0.8035
vn 0.5698 0.1648 -0.8051
vn 0.5814 0.1292 -0.8033
vn 0.9543 0.2838 -0.0940
vn 0.9832 0.1116 -0.1447
vn 0.8715 0.4661 -0.1521
vn 0.6519 0.2802 0.7046
vn 0.6771 0.2002 0.7081
vn 0.6962 0.1353 0.7049
vn 0.0015 -0.0052 1.0000
vn 0.0526 -0.1683 0.9843
vn -0.0185 0.1721 0.9849
vn 0.3450 -0.8961 -0.2793
vn -0.6453 0.6662 -0.3738
vt 0.606618 0.000094
vt 0.691867 0.139371
vt 0.626891 0.226753
vt 0.485609 0.078880
vt 0.886016 0.186102
vt 0.862278 0.348816
vt 0.720468 0.412315
vt 0.562875 0.310242
vt 0.400560 0.195903
vt 0.501650 0.397446
vt 0.366174 0.305553
vt 0.666464 0.514921
vt 0.585855 0.600926
vt 0.440016 0.484497
vt 0.317580 0.398919
vt 0.371591 0.574055
vt 0.238392 0.460039
vt 0.541710 0.709155
vt 0.466704 0.818728
vt 0.294803 0.659305
vt 0.153355 0.534014
vt 0.219019 0.742211
vt 0.056254 0.632343
vt 0.360408 0.934026
vt 0.218944 0.999906
vt 0.145161 0.818223
vt 0.000094 0.759484
vt 0.214092 0.193386
vt 0.274744 0.300483
vt 0.168037 0.358608
vt 0.092715 0.241728
vt 0.056790 0.448964
vt 0.000094 0.332404
vt 0.722931 0.603994
vt 0.780833 0.804449
vt 0.857339 0.662689
vt 0.849068 0.827413
vt 0.762497 0.984834
vt 0.586508 0.940982
s 1
usemtl マテリアル.009
f 105/157/105 114/158/106 125/159/107 113/160/108
f 114/158/106 106/161/109 115/162/110 125/159/107
f 125/159/107 115/162/110 108/163/111 116/164/112
f 113/160/108 125/159/107 116/164/112 107/165/113
f 107/165/113 116/164/112 126/166/114 117/167/115
f 116/164/112 108/163/111 118/168/116 126/166/114
f 126/166/114 118/168/116 112/169/117 119/170/118
f 117/167/115 126/166/114 119/170/118 111/171/119
f 111/171/119 119/170/118 127/172/120 120/173/121
f 119/170/118 112/169/117 121/174/122 127/172/120
f 127/172/120 121/174/122 110/175/123 122/176/124
f 120/173/121 127/172/120 122/176/124 109/177/125
f 109/177/125 122/176/124 128/178/126 123/179/127
f 122/176/124 110/175/123 124/180/128 128/178/126
f 128/178/126 124/180/128 106/181/109 114/182/106
f 123/179/127 128/178/126 114/182/106 105/183/105
f 107/184/113 117/185/115 129/186/129 113/187/108
f 117/185/115 111/171/119 120/173/121 129/186/129
f 129/186/129 120/173/121 109/177/125 123/188/127
f 113/187/108 129/186/129 123/188/127 105/189/105
f 112/169/117 118/190/116 130/191/130 121/174/122
f 118/190/116 108/192/111 115/193/110 130/191/130
f 130/191/130 115/193/110 106/194/109 124/195/128
f 121/174/122 130/191/130 124/195/128 110/175/123
o feice
v 0.000000 1.117246 -0.301618
v 0.000000 0.517656 -0.271463
v 0.000000 0.464929 -0.213287
v 0.044023 1.233279 -0.060592
v 0.086354 1.209152 -0.118856
v 0.125367 1.169973 -0.172553
v 0.159562 1.117246 -0.219618
v 0.187625 1.052998 -0.258243
v 0.208478 0.979699 -0.286945
v 0.221319 0.900164 -0.304619
v 0.225654 0.817451 -0.310587
v 0.221319 0.734737 -0.304619
v 0.208478 0.655203 -0.286945
v 0.187625 0.580226 -0.258243
v 0.159562 0.517656 -0.219618
v 0.125367 0.464929 -0.172553
v 0.086354 0.425749 -0.118856
v 0.071231 1.233279 -0.023144
v 0.139724 1.209152 -0.045399
v 0.202848 1.169973 -0.065909
v 0.263582 1.128452 -0.083887
v 0.308989 1.064204 -0.098640
v 0.342729 0.990905 -0.109603
v 0.358101 0.900164 -0.116354
v 0.365117 0.817451 -0.118634
v 0.358101 0.732639 -0.045916
v 0.310675 0.655445 -0.043252
v 0.276203 0.585848 -0.038926
v 0.244670 0.500952 -0.083887
v 0.202848 0.464929 -0.065909
v 0.139724 0.425749 -0.045399
v 0.000000 0.399419 -0.039877
v 0.071231 1.233279 0.023144
v 0.139724 1.209152 0.045399
v 0.202848 1.169973 0.065909
v 0.263582 1.128452 0.083887
v 0.308989 1.064204 0.098640
v 0.342729 0.990905 0.109603
v 0.358101 0.900164 0.116354
v 0.365117 0.817451 0.118634
v 0.358101 0.732639 0.045916
v 0.310675 0.655445 0.043252
v 0.276203 0.585848 0.038926
v 0.244670 0.500952 0.083887
v 0.202848 0.464929 0.065909
v 0.139724 0.425749 0.045399
v -0.023439 0.399419 -0.032261
v 0.044023 1.233279 0.060592
v 0.086354 1.209152 0.118856
v 0.125367 1.169973 0.172553
v 0.159562 1.117246 0.219618
v 0.187625 1.052998 0.258243
v 0.208478 0.979699 0.286945
v 0.221319 0.900164 0.304619
v 0.225655 0.817451 0.290552
v 0.221319 0.734737 0.284584
v 0.208478 0.655203 0.251492
v 0.187625 0.581903 0.258243
v 0.159562 0.517656 0.219618
v 0.125367 0.464929 0.172553
v 0.086354 0.425749 0.118856
v 0.023439 0.399419 0.032261
v 0.000000 1.233279 0.074896
v 0.000000 1.209152 0.146915
v 0.000000 1.169973 0.213287
v 0.000000 1.117246 0.271463
v 0.000000 1.052998 0.319206
v 0.000000 0.979699 0.347468
v 0.000000 0.900164 0.362555
v 0.000000 0.817451 0.338794
v 0.000000 0.734737 0.307526
v 0.000000 0.655203 0.267399
v 0.000000 0.599145 0.333767
v 0.000000 0.517656 0.310638
v 0.000000 0.464929 0.276946
v 0.000000 0.425749 0.146915
v 0.037926 0.399419 0.012323
v 0.000000 1.241425 -0.000000
v -0.044023 1.233279 0.060592
v -0.086354 1.209152 0.118856
v -0.125367 1.169973 0.172553
v -0.159562 1.117246 0.219618
v -0.187625 1.052998 0.258243
v -0.208478 0.979699 0.286945
v -0.221319 0.900164 0.304619
v -0.225654 0.817451 0.290552
v -0.221319 0.734737 0.284584
v -0.208478 0.655203 0.251492
v -0.187625 0.581903 0.258243
v -0.159562 0.517656 0.219618
v -0.125367 0.464929 0.172553
v -0.086354 0.425749 0.118856
v 0.037926 0.399419 -0.012323
v -0.037926 0.399419 -0.012323
v -0.071231 1.233279 0.023144
v -0.139724 1.209152 0.045399
v -0.202848 1.169973 0.065909
v -0.269335 1.129122 0.083887
v -0.314742 1.064874 0.098640
v -0.348482 0.991575 0.109603
v -0.369259 0.912040 0.116354
v -0.365117 0.817451 0.118634
v -0.358101 0.734525 0.045916
v -0.312503 0.655203 0.043252
v -0.285383 0.590890 0.038926
v -0.247863 0.503272 0.083887
v -0.226137 0.470566 0.065909
v -0.139724 0.425749 0.045399
v 0.023439 0.399419 -0.032261
v -0.071231 1.233279 -0.023144
v -0.139724 1.209152 -0.045399
v -0.202848 1.169973 -0.065909
v -0.269335 1.129122 -0.083887
v -0.314742 1.064874 -0.098640
v -0.348482 0.991575 -0.109603
v -0.369259 0.912040 -0.116354
v -0.365117 0.817451 -0.118634
v -0.358101 0.734525 -0.045916
v -0.312503 0.655203 -0.043252
v -0.285383 0.590890 -0.038926
v -0.247863 0.503272 -0.083887
v -0.226137 0.470566 -0.065909
v -0.139724 0.425749 -0.045399
v -0.037926 0.399419 0.012323
v -0.044023 1.233279 -0.060592
v -0.086354 1.209152 -0.118856
v -0.125367 1.169973 -0.172553
v -0.159562 1.117246 -0.219618
v -0.187625 1.052998 -0.258243
v -0.208478 0.979699 -0.286945
v -0.221319 0.900164 -0.304619
v -0.225655 0.817451 -0.310587
v -0.221319 0.734737 -0.304619
v -0.208478 0.655203 -0.286945
v -0.187625 0.580227 -0.258243
v -0.159562 0.517656 -0.219618
v -0.125367 0.464929 -0.172553
v -0.086354 0.425749 -0.118856
v -0.023439 0.399419 0.032261
v 0.000000 1.233279 -0.074896
v 0.000000 1.209152 -0.146915
v 0.000000 1.169973 -0.243443
v 0.000000 1.052998 -0.349362
v 0.000000 0.979699 -0.384839
v 0.000000 0.900164 -0.406685
v 0.000000 0.817451 -0.397801
v 0.000000 0.734737 -0.376530
v 0.000000 0.655203 -0.354683
v 0.000000 0.581903 -0.319206
v 0.000000 0.425749 -0.146915
v 0.000000 0.399419 0.039877
v 0.000000 0.354053 -0.039877
v -0.023439 0.354053 -0.032261
v 0.023439 0.354053 0.032261
v 0.037926 0.354053 0.012323
v 0.037926 0.354053 -0.012323
v -0.037926 0.354053 -0.012323
v 0.023439 0.354053 -0.032261
v -0.037926 0.354053 0.012323
v -0.023439 0.354053 0.032261
v 0.000000 0.354053 0.039877
v 0.374318 0.685477 -0.045916
v 0.360131 0.634005 -0.043252
v 0.315827 0.572159 -0.038926
v 0.374318 0.685477 0.045916
v 0.360131 0.634005 0.043252
v 0.315827 0.572159 0.038926
v -0.386678 0.678668 0.045916
v -0.372160 0.627420 0.043252
v -0.320271 0.584989 0.038926
v -0.386678 0.678668 -0.045916
v -0.372160 0.627420 -0.043252
v -0.320271 0.584989 -0.038926
v 0.225654 0.387060 -0.310587
v 0.365117 0.571971 -0.118634
v -0.365117 0.571971 -0.118634
v -0.225655 0.387060 -0.310587
v 0.000000 0.387060 -0.397801
vn -0.0000 -0.7948 -0.6068
vn -0.0000 -0.6637 -0.7480
vn 0.5149 -0.6030 -0.6094
vn 0.3463 -0.8001 -0.4898
vn -0.0000 0.3552 -0.9348
vn -0.0000 0.5226 -0.8526
vn 0.5388 0.4983 -0.6793
vn 0.5924 0.3268 -0.7364
vn -0.0000 -0.9149 -0.4036
vn 0.2372 -0.9150 -0.3265
vn -0.0000 0.1312 -0.9913
vn 0.6196 0.1379 -0.7727
vn -0.0000 -0.1757 -0.9844
vn 0.6233 -0.2025 -0.7553
vn -0.0000 0.9721 -0.2347
vn -0.0000 1.0000 -0.0000
vn 0.1381 0.9720 -0.1901
vn -0.0000 -0.2163 -0.9763
vn 0.6088 -0.2859 -0.7400
vn -0.0000 0.9249 -0.3802
vn 0.2629 0.9094 -0.3224
vn -0.0000 -0.3430 -0.9394
vn 0.6110 -0.3864 -0.6909
vn -0.0000 0.8202 -0.5721
vn 0.3702 0.8130 -0.4495
vn -0.0000 -0.5086 -0.8610
vn 0.6011 -0.4645 -0.6503
vn -0.0000 0.6758 -0.7371
vn 0.4681 0.6609 -0.5866
vn 0.5163 0.8355 -0.1879
vn 0.6703 0.7006 -0.2449
vn 0.6811 -0.5852 -0.4400
vn 0.7885 -0.5532 -0.2688
vn 0.8091 0.5130 -0.2867
vn 0.5568 -0.8105 -0.1822
vn 0.8998 0.3140 -0.3028
vn 0.3838 -0.9150 -0.1247
vn 0.9398 0.1434 -0.3102
vn 0.9641 -0.0996 -0.2463
vn 0.2235 0.9720 -0.0726
vn 0.9415 -0.0803 -0.3274
vn 0.4120 0.9013 -0.1339
vn 0.5028 -0.2626 -0.8236
vn 0.9401 0.1240 0.3177
vn 0.9267 -0.0976 0.3630
vn 0.2232 0.9721 0.0725
vn 0.9355 -0.0899 0.3416
vn 0.4121 0.9013 0.1339
vn 0.6901 -0.5632 0.4545
vn 0.2437 -0.7525 -0.6118
vn 0.2437 -0.7525 0.6118
vn 0.5163 0.8356 0.1878
vn 0.6534 -0.3393 -0.6767
vn 0.6703 0.7006 0.2449
vn 0.7890 -0.5520 0.2696
vn 0.8091 0.5130 0.2867
vn 0.5568 -0.8105 0.1822
vn 0.8998 0.3140 0.3028
vn 0.3838 -0.9150 0.1247
vn 0.6338 -0.1297 0.7626
vn 0.5930 -0.5277 0.6082
vn 0.4155 0.6681 0.6173
vn 0.4872 0.4955 0.7191
vn 0.4133 -0.7988 0.4372
vn 0.5342 0.3135 0.7851
vn 0.2514 -0.9277 0.2762
vn 0.5412 0.0524 0.8392
vn 0.5448 -0.1882 0.8172
vn 0.1381 0.9720 0.1901
vn 0.4925 -0.3651 0.7900
vn 0.2547 0.9013 0.3505
vn 0.4905 -0.2509 0.8346
vn 0.6218 -0.2687 0.7357
vn 0.3346 0.8059 0.4884
vn -0.0000 -0.2202 0.9755
vn -0.0000 -0.3223 0.9467
vn -0.0000 0.9721 0.2347
vn -0.0000 0.9012 0.4333
vn -0.0000 0.0205 0.9998
vn -0.0000 0.7948 0.6068
vn -0.0000 0.0051 1.0000
vn -0.0000 0.6612 0.7502
vn -0.0000 -0.5641 0.8257
vn -0.0000 0.4888 0.8724
vn -0.0000 -0.7950 0.6066
vn -0.0000 0.3055 0.9522
vn -0.0000 -0.9519 0.3065
vn -0.0000 0.0035 1.0000
vn 0.4433 -0.6566 0.6102
vn 0.7173 -0.6566 0.2331
vn -0.5868 -0.5232 0.6180
vn -0.4109 -0.7931 0.4495
vn -0.4792 0.4942 0.7253
vn -0.5196 0.3232 0.7909
vn -0.2411 -0.9305 0.2759
vn -0.5301 0.0477 0.8466
vn 0.4433 -0.6566 -0.6102
vn -0.0000 -0.6566 -0.7542
vn -0.5387 -0.2036 0.8175
vn -0.1381 0.9720 0.1901
vn -0.4935 -0.3631 0.7903
vn -0.2546 0.9013 0.3504
vn -0.6222 -0.2531 0.7408
vn -0.3282 0.8090 0.4876
vn -0.6280 -0.1258 0.7679
vn -0.4064 0.6704 0.6208
vn -0.2235 0.9720 0.0726
vn -0.4120 0.9013 0.1339
vn -0.9289 -0.0573 0.3658
vn -0.4956 -0.2415 0.8343
vn -0.4975 0.8466 0.1890
vn -0.6994 -0.5672 0.4349
vn -0.6571 0.7113 0.2496
vn -0.8060 -0.5128 0.2955
vn -0.8051 0.5141 0.2960
vn -0.6284 -0.7556 0.1848
vn -0.8827 0.3485 0.3152
vn -0.3516 -0.9273 0.1285
vn -0.9394 0.1101 0.3248
vn 0.7173 -0.6566 -0.2331
vn -0.9178 -0.1462 0.3691
vn -0.7173 -0.6566 0.2331
vn -0.4433 -0.6566 0.6102
vn -0.8050 0.5141 -0.2960
vn -0.8827 0.3485 -0.3152
vn -0.6284 -0.7556 -0.1848
vn -0.3516 -0.9273 -0.1285
vn -0.9393 0.1277 -0.3184
vn -0.0000 -0.6566 0.7542
vn -0.9521 -0.1645 -0.2579
vn -0.2232 0.9721 -0.0725
vn -0.7173 -0.6566 -0.2331
vn -0.9351 -0.0477 -0.3512
vn -0.4121 0.9013 -0.1339
vn -0.6222 -0.4288 0.6550
vn -0.1859 -0.7476 0.6376
vn -0.4975 0.8466 -0.1890
vn -0.6896 -0.5905 -0.4193
vn -0.1859 -0.7476 -0.6376
vn -0.6571 0.7113 -0.2496
vn -0.8056 -0.5140 -0.2947
vn -0.5078 -0.2558 -0.8226
vn -0.6097 -0.2835 -0.7402
vn -0.6125 -0.3765 -0.6951
vn -0.2629 0.9094 -0.3224
vn -0.3638 0.8162 -0.4488
vn -0.5970 -0.4596 -0.6575
vn -0.4593 0.6636 -0.5905
vn -0.5090 -0.5977 -0.6194
vn -0.5311 0.4973 -0.6860
vn -0.3436 -0.7938 -0.5018
vn -0.5785 0.3365 -0.7431
vn -0.2270 -0.9176 -0.3262
vn -0.6095 0.1308 -0.7819
vn -0.4433 -0.6566 -0.6102
vn -0.6119 -0.2316 -0.7563
vn -0.1381 0.9720 -0.1901
vn -0.6119 -0.2317 -0.7563
vn 0.9511 -0.0000 -0.3090
vn 0.5878 -0.0000 -0.8090
vn -0.0000 -0.0000 -1.0000
vn -0.5878 -0.0000 -0.8090
vn -0.9511 -0.0000 -0.3090
vn -0.9511 -0.0000 0.3090
vn -0.0000 -0.0000 1.0000
vn 0.5878 -0.0000 0.8090
vn 0.9511 -0.0000 0.3090
vn -0.5878 -0.0000 0.8090
vn 0.7542 0.0097 -0.6566
vn 0.7542 0.0097 0.6566
vn 0.6534 -0.3393 0.6767
vn -0.7630 0.0621 0.6434
vn -0.7630 0.0621 -0.6434
vn -0.6222 -0.4288 -0.6550
vn -0.0000 -0.1756 -0.9845
vn -0.5514 -0.0000 0.8342
vn -0.8090 -0.0000 0.5878
vn 0.5514 -0.0000 0.8342
vn -0.9520 -0.1645 -0.2580
vn 0.8090 -0.0000 0.5878
vt 0.312138 0.334585
vt 0.314679 0.297889
vt 0.384912 0.337376
vt 0.359347 0.357200
vt 0.307092 0.836451
vt 0.307282 0.786478
vt 0.404956 0.729624
vt 0.444590 0.760342
vt 0.310722 0.363685
vt 0.338827 0.375315
vt 0.306860 0.899918
vt 0.499484 0.800509
vt 0.306400 0.999872
vt 0.580212 0.849435
vt 0.307718 0.654497
vt 0.307728 0.634644
vt 0.319781 0.649802
vt 0.326499 0.109977
vt 0.334011 0.000128
vt 0.631884 0.200275
vt 0.536499 0.249871
vt 0.307671 0.677239
vt 0.333837 0.665988
vt 0.319099 0.193280
vt 0.467546 0.281661
vt 0.307549 0.713556
vt 0.351648 0.684044
vt 0.316550 0.252176
vt 0.420378 0.313148
vt 0.307429 0.746358
vt 0.375324 0.704859
vt 0.367526 0.643366
vt 0.390876 0.640870
vt 0.419274 0.427855
vt 0.392534 0.400344
vt 0.420233 0.636349
vt 0.373476 0.400940
vt 0.457814 0.625853
vt 0.350511 0.401017
vt 0.520988 0.598132
vt 0.595185 0.539905
vt 0.325851 0.639190
vt 0.480257 0.482750
vt 0.345662 0.642555
vt 0.452251 0.437470
vt 0.400173 0.547220
vt 0.404325 0.526019
vt 0.324384 0.627990
vt 0.427115 0.497856
vt 0.340034 0.620035
vt 0.400657 0.452612
vt 0.425483 0.443664
vt 0.412404 0.455986
vt 0.354985 0.610313
vt 0.439856 0.456537
vt 0.368822 0.599363
vt 0.370269 0.447013
vt 0.381325 0.585396
vt 0.359507 0.436496
vt 0.392142 0.568863
vt 0.344319 0.425018
vt 0.343186 0.482398
vt 0.339490 0.467821
vt 0.337879 0.579555
vt 0.342271 0.565914
vt 0.334778 0.453186
vt 0.345475 0.552172
vt 0.328317 0.438835
vt 0.347318 0.538366
vt 0.348364 0.524453
vt 0.317409 0.620251
vt 0.348191 0.510317
vt 0.325477 0.606447
vt 0.406980 0.474896
vt 0.347692 0.494847
vt 0.332183 0.592889
vt 0.308363 0.524714
vt 0.308572 0.510794
vt 0.307826 0.617409
vt 0.307815 0.601948
vt 0.308823 0.496985
vt 0.307824 0.587725
vt 0.309087 0.483515
vt 0.307888 0.574385
vt 0.309257 0.473709
vt 0.308039 0.561594
vt 0.309435 0.464871
vt 0.308104 0.549548
vt 0.309889 0.442614
vt 0.308208 0.537299
vt 0.316135 0.416525
vt 0.320005 0.411789
vt 0.279126 0.466745
vt 0.284396 0.452285
vt 0.273426 0.565460
vt 0.270347 0.551565
vt 0.291638 0.438228
vt 0.268539 0.537442
vt 0.317078 0.399488
vt 0.310321 0.397020
vt 0.268257 0.523309
vt 0.298109 0.619979
vt 0.268761 0.509268
vt 0.290060 0.606085
vt 0.269819 0.493811
vt 0.283420 0.592529
vt 0.274851 0.481222
vt 0.277774 0.579147
vt 0.290962 0.627787
vt 0.275322 0.619619
vt 0.188292 0.491663
vt 0.209510 0.470774
vt 0.260592 0.609663
vt 0.216640 0.451721
vt 0.245653 0.598379
vt 0.247974 0.444642
vt 0.233160 0.584304
vt 0.254936 0.435939
vt 0.222202 0.567623
vt 0.276263 0.423746
vt 0.213952 0.548123
vt 0.320695 0.405359
vt 0.211295 0.522994
vt 0.300729 0.412121
vt 0.304913 0.416613
vt 0.194682 0.634585
vt 0.157841 0.623796
vt 0.240977 0.400936
vt 0.270447 0.399743
vt 0.106885 0.600882
vt 0.310488 0.418394
vt 0.000128 0.528948
vt 0.289629 0.639080
vt 0.299931 0.405547
vt 0.131655 0.476415
vt 0.269983 0.642273
vt 0.195609 0.462535
vt 0.205981 0.454509
vt 0.248045 0.642956
vt 0.201040 0.426453
vt 0.194497 0.437945
vt 0.223621 0.639434
vt 0.227037 0.397576
vt 0.171074 0.428832
vt 0.094293 0.223008
vt 0.164496 0.270153
vt 0.281579 0.665778
vt 0.263598 0.683689
vt 0.208305 0.305743
vt 0.239697 0.704377
vt 0.240987 0.332801
vt 0.209890 0.728936
vt 0.264343 0.355628
vt 0.170137 0.759297
vt 0.283072 0.375197
vt 0.114582 0.799010
vt 0.303506 0.399499
vt 0.037769 0.848200
vt 0.295655 0.649733
vt 0.000128 0.158607
vt 0.313353 0.407495
vt 0.312430 0.405750
vt 0.310564 0.404983
vt 0.308592 0.405568
vt 0.307388 0.407242
vt 0.307426 0.409273
vt 0.310376 0.411604
vt 0.312124 0.411124
vt 0.313275 0.409586
vt 0.308624 0.410918
vt 0.452673 0.468184
vt 0.426084 0.480388
vt 0.420810 0.469181
vt 0.189462 0.471735
vt 0.171498 0.457721
vt 0.182054 0.450037
vt 0.632140 0.373451
vt 0.632140 0.248207
vt 0.833898 0.248207
vt 0.833898 0.373451
vt 0.632140 0.496285
vt 0.747216 0.496285
vt 0.632140 0.122963
vt 0.833898 0.122963
vt 0.632140 0.000128
vt 0.747216 0.000128
s 1
usemtl マテリアル.007
f 133/196/131 132/197/132 145/198/133 146/199/134
f 274/200/135 273/201/136 138/202/137 139/203/138
f 280/204/139 133/196/131 146/199/134 147/205/140
f 275/206/141 274/200/135 139/203/138 140/207/142
f 276/208/143 275/206/141 140/207/142 141/209/144
f 270/210/145 208/211/146 134/212/147
f 277/213/148 276/214/143 141/215/144 142/216/149
f 271/217/150 270/210/145 134/212/147 135/218/151
f 278/219/152 277/213/148 142/216/149 143/220/153
f 272/221/154 271/217/150 135/218/151 136/222/155
f 279/223/156 278/219/152 143/220/153 144/224/157
f 131/225/158 272/221/154 136/222/155 137/226/159
f 132/197/132 279/223/156 144/224/157 145/198/133
f 273/201/136 131/225/158 137/226/159 138/202/137
f 137/226/159 136/222/155 150/227/160 151/228/161
f 145/198/133 144/224/157 158/229/162 159/230/163
f 138/202/137 137/226/159 151/228/161 152/231/164
f 146/199/134 145/198/133 159/230/163 160/232/165
f 139/203/138 138/202/137 152/231/164 153/233/166
f 147/205/140 146/199/134 160/232/165 161/234/167
f 140/207/142 139/203/138 153/233/166 154/235/168
f 141/209/144 140/207/142 154/235/168 155/236/169
f 134/212/147 208/211/146 148/237/170
f 142/216/149 141/215/144 155/236/169 156/238/171
f 135/218/151 134/212/147 148/237/170 149/239/172
f 143/220/153 142/216/149 156/238/171 157/240/173
f 136/222/155 135/218/151 149/239/172 150/227/160
f 144/224/157 143/220/153 157/240/173 158/229/162
f 155/236/169 154/235/168 169/241/174 170/242/175
f 148/237/170 208/211/146 163/243/176
f 156/238/171 155/236/169 170/242/175 171/244/177
f 149/239/172 148/237/170 163/243/176 164/245/178
f 173/246/179 158/229/162 294/247/180 297/248/181
f 150/227/160 149/239/172 164/245/178 165/249/182
f 158/229/162 157/240/173 293/250/183 294/247/180
f 151/228/161 150/227/160 165/249/182 166/251/184
f 159/230/163 158/229/162 173/246/179 174/252/185
f 152/231/164 151/228/161 166/251/184 167/253/186
f 160/232/165 159/230/163 174/252/185 175/254/187
f 153/233/166 152/231/164 167/253/186 168/255/188
f 161/234/167 160/232/165 175/254/187 176/256/189
f 154/235/168 153/233/166 168/255/188 169/241/174
f 174/252/185 173/246/179 188/257/190 189/258/191
f 167/253/186 166/251/184 181/259/192 182/260/193
f 175/254/187 174/252/185 189/258/191 190/261/194
f 168/255/188 167/253/186 182/260/193 183/262/195
f 176/256/189 175/254/187 190/261/194 191/263/196
f 169/241/174 168/255/188 183/262/195 184/264/197
f 170/242/175 169/241/174 184/264/197 185/265/198
f 163/243/176 208/211/146 178/266/199
f 171/244/177 170/242/175 185/265/198 186/267/200
f 164/245/178 163/243/176 178/266/199 179/268/201
f 172/269/202 171/244/177 186/267/200 187/270/203
f 165/249/182 164/245/178 179/268/201 180/271/204
f 173/246/179 172/269/202 187/270/203 188/257/190
f 166/251/184 165/249/182 180/271/204 181/259/192
f 186/267/200 185/265/198 200/272/205 201/273/206
f 179/268/201 178/266/199 193/274/207 194/275/208
f 187/270/203 186/267/200 201/273/206 202/276/209
f 180/271/204 179/268/201 194/275/208 195/277/210
f 188/257/190 187/270/203 202/276/209 203/278/211
f 181/259/192 180/271/204 195/277/210 196/279/212
f 189/258/191 188/257/190 203/278/211 204/280/213
f 182/260/193 181/259/192 196/279/212 197/281/214
f 190/261/194 189/258/191 204/280/213 205/282/215
f 183/262/195 182/260/193 197/281/214 198/283/216
f 191/263/196 190/261/194 205/282/215 206/284/217
f 184/264/197 183/262/195 198/283/216 199/285/218
f 176/256/189 191/263/196 192/286/219 207/287/220
f 185/265/198 184/264/197 199/285/218 200/272/205
f 178/266/199 208/211/146 193/274/207
f 205/282/215 204/280/213 220/288/221 221/289/222
f 198/283/216 197/281/214 213/290/223 214/291/224
f 206/284/217 205/282/215 221/289/222 222/292/225
f 199/285/218 198/283/216 214/291/224 215/293/226
f 280/204/139 147/205/140 239/294/227 162/295/228
f 200/272/205 199/285/218 215/293/226 216/296/229
f 193/274/207 208/211/146 209/297/230
f 201/273/206 200/272/205 216/296/229 217/298/231
f 194/275/208 193/274/207 209/297/230 210/299/232
f 202/276/209 201/273/206 217/298/231 218/300/233
f 195/277/210 194/275/208 210/299/232 211/301/234
f 203/278/211 202/276/209 218/300/233 219/302/235
f 196/279/212 195/277/210 211/301/234 212/303/236
f 204/280/213 203/278/211 219/302/235 220/288/221
f 197/281/214 196/279/212 212/303/236 213/290/223
f 210/299/232 209/297/230 225/304/237 226/305/238
f 218/300/233 217/298/231 233/306/239 234/307/240
f 211/301/234 210/299/232 226/305/238 227/308/241
f 219/302/235 218/300/233 234/307/240 235/309/242
f 212/303/236 211/301/234 227/308/241 228/310/243
f 220/288/221 219/302/235 235/309/242 236/311/244
f 213/290/223 212/303/236 228/310/243 229/312/245
f 221/289/222 220/288/221 236/311/244 237/313/246
f 214/291/224 213/290/223 229/312/245 230/314/247
f 222/292/225 221/289/222 237/313/246 238/315/248
f 215/293/226 214/291/224 230/314/247 231/316/249
f 161/234/167 176/256/189 207/287/220 223/317/250
f 216/296/229 215/293/226 231/316/249 232/318/251
f 209/297/230 208/211/146 225/304/237
f 222/292/225 238/315/248 254/319/252 269/320/253
f 217/298/231 216/296/229 232/318/251 233/306/239
f 230/314/247 229/312/245 244/321/254 245/322/255
f 238/315/248 237/313/246 252/323/256 253/324/257
f 231/316/249 230/314/247 245/322/255 246/325/258
f 191/263/196 206/284/217 281/326/259 192/286/219
f 232/318/251 231/316/249 246/325/258 247/327/260
f 225/304/237 208/211/146 240/328/261
f 238/315/248 253/324/257 224/329/262 254/319/252
f 233/306/239 232/318/251 247/327/260 248/330/263
f 226/305/238 225/304/237 240/328/261 241/331/264
f 235/309/242 234/307/240 299/332/265 300/333/266
f 227/308/241 226/305/238 241/331/264 242/334/267
f 250/335/268 235/309/242 300/333/266 303/336/269
f 228/310/243 227/308/241 242/334/267 243/337/270
f 236/311/244 235/309/242 250/335/268 251/338/271
f 229/312/245 228/310/243 243/337/270 244/321/254
f 237/313/246 236/311/244 251/338/271 252/323/256
f 249/339/272 248/330/263 263/340/273 264/341/274
f 242/334/267 241/331/264 256/342/275 257/343/276
f 250/335/268 249/339/272 264/341/274 265/344/277
f 243/337/270 242/334/267 257/343/276 258/345/278
f 251/338/271 250/335/268 265/344/277 266/346/279
f 244/321/254 243/337/270 258/345/278 259/347/280
f 252/323/256 251/338/271 266/346/279 267/348/281
f 245/322/255 244/321/254 259/347/280 260/349/282
f 253/324/257 252/323/256 267/348/281 268/350/283
f 246/325/258 245/322/255 260/349/282 261/351/284
f 268/350/283 280/204/139 162/295/228 177/352/285
f 247/327/260 246/325/258 261/351/284 262/353/286
f 240/328/261 208/211/146 255/354/287
f 253/324/257 268/350/283 177/352/285 224/329/262
f 248/330/263 247/327/260 262/355/288 263/340/273
f 241/331/264 240/328/261 255/354/287 256/342/275
f 268/350/283 267/348/281 133/196/131 280/204/139
f 261/351/284 260/349/282 274/200/135 275/206/141
f 147/205/140 161/234/167 223/317/250 239/294/227
f 262/353/286 261/351/284 275/206/141 276/208/143
f 255/354/287 208/211/146 270/210/145
f 206/284/217 222/292/225 269/320/253 281/326/259
f 263/340/273 262/355/288 276/214/143 277/213/148
f 256/342/275 255/354/287 270/210/145 271/217/150
f 264/341/274 263/340/273 277/213/148 278/219/152
f 257/343/276 256/342/275 271/217/150 272/221/154
f 265/344/277 264/341/274 278/219/152 279/223/156
f 258/345/278 257/343/276 272/221/154 131/225/158
f 266/346/279 265/344/277 279/223/156 132/197/132
f 259/347/280 258/345/278 131/225/158 273/201/136
f 267/348/281 266/346/279 132/197/132 133/196/131
f 260/349/282 259/347/280 273/201/136 274/200/135
f 239/294/227 223/317/250 286/356/289 288/357/290
f 177/352/285 162/295/228 282/358/291 283/359/292
f 254/319/252 224/329/262 287/360/293 289/361/294
f 192/286/219 281/326/259 291/362/295 284/363/296
f 207/287/220 192/286/219 284/363/296 285/364/297
f 162/295/228 239/294/227 288/357/290 282/358/291
f 269/320/253 254/319/252 289/361/294 290/365/298
f 224/329/262 177/352/285 283/359/292 287/360/293
f 281/326/259 269/320/253 290/365/298 291/362/295
f 223/317/250 207/287/220 285/364/297 286/356/289
f 293/250/183 292/366/299 295/367/300 296/368/301
f 294/247/180 293/250/183 296/368/301 297/248/181
f 172/269/202 173/246/179 297/248/181 296/368/301
f 156/238/171 171/244/177 295/367/300 292/366/299
f 157/240/173 156/238/171 292/366/299 293/250/183
f 171/244/177 172/269/202 296/368/301 295/367/300
f 299/332/265 298/369/302 301/370/303 302/371/304
f 300/333/266 299/332/265 302/371/304 303/336/269
f 233/306/239 248/330/263 301/370/303 298/369/302
f 249/339/272 250/335/268 303/336/269 302/371/304
f 234/307/240 233/306/239 298/369/302 299/332/265
f 248/330/263 249/339/272 302/371/304 301/370/303
f 141/372/144 276/373/305 308/374/295 304/375/306
f 155/376/169 141/372/144 304/375/306 305/377/307
f 276/373/305 262/378/286 307/379/308 308/374/295
f 262/378/286 247/380/309 306/381/310 307/379/308
o 帽子.001
v 0.006418 1.070915 -0.333412
v -0.238437 1.070915 -0.231990
v -0.339860 1.070915 0.012865
v -0.238437 1.070915 0.257720
v 0.006418 1.070915 0.359143
v 0.251273 1.070915 0.257720
v 0.352695 1.070915 0.012865
v 0.251273 1.070915 -0.231990
v -0.133988 2.054473 -0.153974
v -0.133988 2.054473 -0.153974
v -0.133988 2.054473 -0.153974
v -0.133988 2.054473 -0.153974
v -0.133988 2.054473 -0.153974
v -0.133988 2.054473 -0.153974
v -0.133988 2.054473 -0.153974
v -0.133988 2.054473 -0.153974
v -0.133988 2.054473 -0.153974
v -0.192944 1.515820 -0.021104
v -0.142233 1.515820 0.101324
v -0.019805 1.515820 -0.194242
v -0.142233 1.515820 -0.143531
v 0.102623 1.515820 -0.143531
v 0.102623 1.515820 0.101324
v 0.153334 1.515820 -0.021104
v -0.019805 1.515820 0.152035
v -0.169594 1.249666 0.183024
v -0.169594 1.249666 -0.184259
v 0.273755 1.249666 -0.000617
v 0.014047 1.249666 0.259091
v -0.245661 1.249666 -0.000617
v 0.014047 1.249666 -0.260325
v 0.197688 1.249666 -0.184259
v 0.197688 1.249666 0.183024
v -0.151397 1.776730 -0.068568
v -0.064827 1.776730 -0.155138
v -0.003614 1.776730 -0.129782
v -0.003614 1.776730 -0.007354
v -0.126041 1.776730 -0.007354
v -0.126041 1.776730 -0.129782
v 0.021742 1.776730 -0.068568
v -0.064827 1.776730 0.018001
v 0.004548 0.981211 -0.563759
v -0.406270 0.981211 -0.393593
v -0.576436 0.981211 0.017225
v -0.406270 0.981211 0.428042
v 0.004548 0.981211 0.598208
v 0.415365 0.981211 0.428042
v 0.585532 0.981211 0.017225
v 0.415365 0.981211 -0.393593
v 0.007228 0.878682 -0.769361
v -0.577212 0.878682 -0.527278
v -0.819295 0.878682 0.057162
v -0.577212 0.878682 0.641602
v 0.007228 0.878682 0.883685
v 0.591668 0.878682 0.641602
v 0.833751 0.878682 0.057162
v 0.591668 0.878682 -0.527278
v -0.243958 1.074468 -0.237336
v 0.006351 1.074121 -0.341248
v -0.347346 1.074868 0.012969
v -0.243622 1.075096 0.262948
v 0.006361 1.075052 0.366530
v 0.256525 1.074754 0.263139
v 0.360436 1.074342 0.012979
v 0.256856 1.074065 -0.237521
v -0.174832 1.253846 0.188199
v -0.174916 1.253199 -0.189816
v 0.281503 1.253076 -0.000769
v 0.014128 1.253798 0.266480
v -0.253155 1.253604 -0.000763
v 0.014134 1.252867 -0.268163
v 0.203212 1.252815 -0.189849
v 0.203146 1.253486 0.188250
vn 0.9100 -0.1729 -0.3769
vn 0.3811 0.0910 0.9200
vn -0.3808 -0.0987 0.9194
vn -0.7797 -0.5365 -0.3230
vn 0.3454 -0.4304 -0.8340
vn 0.9222 0.0597 0.3820
vn -0.8577 -0.3717 0.3553
vn -0.3183 -0.5551 -0.7685
vn -0.0000 -0.0000 -1.0000
vn -0.3528 -0.3875 -0.8517
vn -0.8612 -0.3622 0.3567
vn 0.9132 -0.1518 0.3783
vn 0.3642 -0.3073 -0.8792
vn -0.8433 -0.4084 -0.3493
vn -0.3687 -0.2679 0.8901
vn 0.3766 -0.1778 0.9092
vn 0.9037 -0.2078 -0.3743
vn -0.3844 0.9094 0.1586
vn -0.4223 0.8892 -0.1759
vn -0.1907 0.8661 -0.4621
vn 0.1991 0.8541 -0.4804
vn -0.3366 -0.4756 -0.8127
vn -0.8589 -0.3685 0.3558
vn 0.9211 -0.0773 0.3815
vn 0.3543 -0.3782 -0.8552
vn -0.8144 -0.4721 -0.3373
vn -0.3749 -0.2004 0.9051
vn 0.3817 -0.0722 0.9215
vn 0.9029 -0.2118 -0.3740
vn -0.1491 -0.9210 0.3599
vn -0.3533 -0.9240 -0.1463
vn 0.1436 -0.9269 -0.3467
vn 0.3531 -0.9241 0.1463
vn -0.3580 -0.9219 0.1483
vn -0.1444 -0.9261 -0.3486
vn 0.3485 -0.9261 -0.1444
vn 0.1482 -0.9219 0.3578
vn -0.3991 -0.9019 0.1653
vn -0.1382 -0.9325 -0.3336
vn 0.3634 -0.9194 -0.1505
vn 0.1825 -0.8789 0.4407
vn -0.1810 -0.8811 0.4370
vn -0.3571 -0.9223 -0.1479
vn 0.1391 -0.9316 -0.3359
vn 0.4068 -0.8979 0.1685
vn -0.4348 -0.8825 -0.1791
vn -0.1999 -0.8529 0.4823
vn 0.4202 -0.8904 0.1751
vn 0.1529 -0.9165 -0.3695
vn 0.8211 -0.4585 -0.3400
vn 0.3560 -0.3665 0.8596
vn -0.3599 -0.3397 0.8689
vn -0.8466 -0.4003 -0.3506
vn 0.3376 -0.4708 -0.8151
vn 0.8399 -0.4164 0.3480
vn -0.8639 -0.3544 0.3579
vn -0.3422 -0.4479 -0.8260
vn 0.3819 -0.9107 -0.1575
vn -0.1539 0.9155 0.3718
vn 0.1906 -0.8660 0.4622
vn 0.1641 0.9043 0.3941
vn -0.4711 -0.8601 0.1958
vn 0.4363 0.8816 0.1798
vn -0.1630 -0.9056 -0.3915
vn 0.4703 0.8606 -0.1954
vt 0.719823 0.577326
vt 0.719855 0.577170
vt 0.720017 0.577155
vt 0.720019 0.577145
vt 0.719943 0.577027
vt 0.720107 0.577085
vt 0.719983 0.577141
vt 0.720000 0.577160
vt 0.720237 0.577186
vt 0.719970 0.577119
vt 0.720271 0.577355
vt 0.720123 0.577453
vt 0.719980 0.577105
vt 0.719974 0.577107
vt 0.719928 0.577475
vt 0.720000 0.577125
vt 0.719992 0.577133
vt 0.726401 0.593189
vt 0.714108 0.592817
vt 0.718591 0.581236
vt 0.721556 0.581317
vt 0.735661 0.572678
vt 0.735431 0.584892
vt 0.723828 0.579376
vt 0.723809 0.576363
vt 0.706263 0.571817
vt 0.715040 0.563513
vt 0.718760 0.574091
vt 0.716754 0.576182
vt 0.705889 0.583839
vt 0.716651 0.579028
vt 0.727122 0.563988
vt 0.721686 0.574278
vt 0.753401 0.566275
vt 0.753026 0.593451
vt 0.751537 0.592755
vt 0.752153 0.566715
vt 0.733056 0.611793
vt 0.732465 0.610514
vt 0.705871 0.610757
vt 0.706370 0.609617
vt 0.687223 0.590947
vt 0.688613 0.590532
vt 0.734620 0.546952
vt 0.745384 0.522621
vt 0.778591 0.556492
vt 0.778470 0.605044
vt 0.742499 0.637933
vt 0.694344 0.635996
vt 0.661236 0.601063
vt 0.707688 0.545851
vt 0.687645 0.564001
vt 0.661943 0.552541
vt 0.698108 0.520521
vt 0.804664 0.549273
vt 0.805537 0.621783
vt 0.751046 0.669964
vt 0.680779 0.666630
vt 0.632140 0.616030
vt 0.632140 0.543630
vt 0.686731 0.496542
vt 0.755857 0.499889
vt 0.704954 0.571217
vt 0.714567 0.562347
vt 0.713606 0.593974
vt 0.704685 0.584218
vt 0.736614 0.585449
vt 0.726958 0.594402
vt 0.727617 0.562863
vt 0.736947 0.572236
vt 0.689102 0.564637
vt 0.708220 0.547124
vt 0.734063 0.548138
s 0
usemtl マテリアル.004
f 346/382/311 342/383/311 319/384/311 320/385/311
f 347/386/312 343/387/312 317/388/312 318/389/312
f 343/387/313 344/390/313 324/391/313 317/388/313
f 348/392/314 345/393/314 322/394/314 323/395/314
f 349/396/315 346/382/315 320/385/315 321/397/315
f 342/383/316 347/386/316 318/389/316 319/384/316
f 344/390/317 348/392/317 323/395/317 324/391/317
f 345/393/318 349/396/318 321/397/318 322/394/318
f 324/391/319 323/395/319 325/398/319 317/388/319
f 323/395/319 322/394/319 321/397/319 325/398/319
f 317/388/319 325/398/319 319/384/319 318/389/319
f 325/398/319 321/397/319 320/385/319 319/384/319
f 341/399/320 337/400/320 333/401/320 331/402/320
f 340/403/321 336/404/321 332/405/321 330/406/321
f 338/407/322 335/408/322 329/409/322 326/410/322
f 337/400/323 334/411/323 327/412/323 333/401/323
f 336/404/324 341/399/324 331/402/324 332/405/324
f 339/413/325 340/403/325 330/406/325 328/414/325
f 335/408/326 339/413/326 328/414/326 329/409/326
f 334/411/327 338/407/327 326/410/327 327/412/327
f 316/415/328 315/416/328 372/417/328 373/418/328
f 315/416/329 314/419/329 371/420/329 372/417/329
f 314/419/330 313/421/330 370/422/330 371/420/330
f 313/421/331 312/423/331 369/424/331 370/422/331
f 331/402/332 333/401/332 349/396/332 345/393/332
f 330/406/333 332/405/333 348/392/333 344/390/333
f 326/410/334 329/409/334 347/386/334 342/383/334
f 333/401/335 327/412/335 346/382/335 349/396/335
f 332/405/336 331/402/336 345/393/336 348/392/336
f 328/414/337 330/406/337 344/390/337 343/387/337
f 329/409/338 328/414/338 343/387/338 347/386/338
f 327/412/339 326/410/339 342/383/339 346/382/339
f 316/415/340 309/425/340 350/426/340 357/427/340
f 314/419/341 315/416/341 356/428/341 355/429/341
f 312/423/342 313/421/342 354/430/342 353/431/342
f 310/432/343 311/433/343 352/434/343 351/435/343
f 315/416/344 316/415/344 357/427/344 356/428/344
f 313/421/345 314/419/345 355/429/345 354/430/345
f 311/433/346 312/423/346 353/431/346 352/434/346
f 309/425/347 310/432/347 351/435/347 350/426/347
f 356/428/348 357/427/348 365/436/348 364/437/348
f 354/430/349 355/429/349 363/438/349 362/439/349
f 352/434/350 353/431/350 361/440/350 360/441/350
f 350/426/351 351/435/351 359/442/351 358/443/351
f 357/427/352 350/426/352 358/443/352 365/436/352
f 355/429/353 356/428/353 364/437/353 363/438/353
f 353/431/354 354/430/354 362/439/354 361/440/354
f 351/435/355 352/434/355 360/441/355 359/442/355
usemtl マテリアル.005
f 335/408/356 338/407/356 378/444/356 375/445/356
f 334/411/357 337/400/357 377/446/357 374/447/357
f 341/399/358 336/404/358 376/448/358 381/449/358
f 340/403/359 339/413/359 379/450/359 380/451/359
f 369/424/360 368/452/360 378/444/360 374/447/360
f 366/453/361 367/454/361 379/450/361 375/445/361
f 367/454/362 373/418/362 380/451/362 379/450/362
f 372/417/363 371/420/363 381/449/363 376/448/363
f 370/422/364 369/424/364 374/447/364 377/446/364
f 368/452/365 366/453/365 375/445/365 378/444/365
f 373/418/366 372/417/366 376/448/366 380/451/366
f 371/420/367 370/422/367 377/446/367 381/449/367
f 336/404/368 340/403/368 380/451/368 376/448/368
f 309/425/369 316/415/369 373/418/369 367/454/369
f 337/400/370 341/399/370 381/449/370 377/446/370
f 310/432/371 309/425/371 367/454/371 366/453/371
f 338/407/372 334/411/372 374/447/372 378/444/372
f 311/433/373 310/432/373 366/453/373 368/452/373
f 339/413/374 335/408/374 375/445/374 379/450/374
f 312/423/375 311/433/375 368/452/375 369/424/375
o 魔法陣
v 0.000000 -1.280175 -0.500000
v 0.000000 -1.270175 -0.500000
v -0.433013 -1.280175 0.250000
v -0.433013 -1.270175 0.250000
v 0.433013 -1.280175 0.250000
v 0.433013 -1.270175 0.250000
v -0.433013 -1.280175 -0.250000
v -0.433013 -1.270175 -0.250000
v 0.000000 -1.280175 0.500000
v 0.000000 -1.270175 0.500000
v 0.433013 -1.280175 -0.250000
v 0.433013 -1.270175 -0.250000
v -0.376134 -1.280175 -0.499147
v -0.376134 -1.270175 -0.499147
v -0.590949 -1.280175 0.203480
v -0.590949 -1.270175 0.203480
v 0.010908 -1.280175 0.624905
v 0.010908 -1.270175 0.624905
v 0.597690 -1.280175 0.182732
v 0.597690 -1.270175 0.182732
v 0.358485 -1.280175 -0.511970
v 0.358485 -1.270175 -0.511970
v 0.000000 -1.280175 -0.625000
v 0.000000 -1.270175 -0.625000
v -0.594410 -1.280175 -0.193136
v -0.594410 -1.270175 -0.193136
v -0.367366 -1.280175 0.505636
v -0.367366 -1.270175 0.505636
v 0.367366 -1.280175 0.505635
v 0.367366 -1.270175 0.505635
v 0.594410 -1.280175 -0.193136
v 0.594410 -1.270175 -0.193136
v 0.000000 -1.280175 -0.500000
v 0.000000 -1.270175 -0.500000
v -0.082297 -1.280175 -0.493181
v -0.082297 -1.270175 -0.493181
v -0.162350 -1.280175 -0.472909
v -0.162350 -1.270175 -0.472909
v -0.237974 -1.280175 -0.439737
v -0.237974 -1.270175 -0.439737
v -0.307106 -1.280175 -0.394570
v -0.307106 -1.270175 -0.394570
v -0.367862 -1.280175 -0.338641
v -0.367862 -1.270175 -0.338641
v -0.418583 -1.280175 -0.273474
v -0.418583 -1.270175 -0.273474
v -0.457887 -1.280175 -0.200848
v -0.457887 -1.270175 -0.200848
v -0.484700 -1.280175 -0.122743
v -0.484700 -1.270175 -0.122743
v -0.498292 -1.280175 -0.041290
v -0.498292 -1.270175 -0.041290
v -0.498292 -1.280175 0.041290
v -0.498292 -1.270175 0.041290
v -0.484700 -1.280175 0.122743
v -0.484700 -1.270175 0.122743
v -0.457887 -1.280175 0.200848
v -0.457887 -1.270175 0.200848
v -0.418583 -1.280175 0.273474
v -0.418583 -1.270175 0.273474
v -0.367862 -1.280175 0.338641
v -0.367862 -1.270175 0.338641
v -0.307106 -1.280175 0.394570
v -0.307106 -1.270175 0.394570
v -0.237974 -1.280175 0.439737
v -0.237974 -1.270175 0.439737
v -0.162350 -1.280175 0.472909
v -0.162350 -1.270175 0.472909
v -0.082297 -1.280175 0.493181
v -0.082297 -1.270175 0.493181
v 0.000000 -1.280175 0.500000
v 0.000000 -1.270175 0.500000
v 0.082297 -1.280175 0.493181
v 0.082297 -1.270175 0.493181
v 0.162350 -1.280175 0.472909
v 0.162350 -1.270175 0.472909
v 0.237974 -1.280175 0.439737
v 0.237974 -1.270175 0.439737
v 0.307106 -1.280175 0.394570
v 0.307106 -1.270175 0.394570
v 0.367862 -1.280175 0.338641
v 0.367862 -1.270175 0.338641
v 0.418583 -1.280175 0.273474
v 0.418583 -1.270175 0.273474
v 0.457887 -1.280175 0.200848
v 0.457887 -1.270175 0.200848
v 0.484700 -1.280175 0.122743
v 0.484700 -1.270175 0.122743
v 0.498292 -1.280175 0.041290
v 0.498292 -1.270175 0.041290
v 0.498292 -1.280175 -0.041290
v 0.498292 -1.270175 -0.041290
v 0.484700 -1.280175 -0.122743
v 0.484700 -1.270175 -0.122743
v 0.457887 -1.280175 -0.200848
v 0.457887 -1.270175 -0.200848
v 0.418583 -1.280175 -0.273474
v 0.418583 -1.270175 -0.273474
v 0.367862 -1.280175 -0.338641
v 0.367862 -1.270175 -0.338641
v 0.307106 -1.280175 -0.394570
v 0.307106 -1.270175 -0.394570
v 0.237974 -1.280175 -0.439737
v 0.237974 -1.270175 -0.439737
v 0.162350 -1.280175 -0.472909
v 0.162350 -1.270175 -0.472909
v 0.082297 -1.280175 -0.493181
v 0.082297 -1.270175 -0.493181
v 0.000000 -1.280175 -0.625000
v 0.000000 -1.270175 -0.625000
v -0.102872 -1.280175 -0.616476
v -0.102872 -1.270175 -0.616476
v -0.202937 -1.280175 -0.591136
v -0.202937 -1.270175 -0.591136
v -0.297467 -1.280175 -0.549671
v -0.297467 -1.270175 -0.549671
v -0.383883 -1.280175 -0.493213
v -0.383883 -1.270175 -0.493213
v -0.459827 -1.280175 -0.423301
v -0.459827 -1.270175 -0.423301
v -0.523229 -1.280175 -0.341843
v -0.523229 -1.270175 -0.341843
v -0.572358 -1.280175 -0.251060
v -0.572358 -1.270175 -0.251060
v -0.605875 -1.280175 -0.153428
v -0.605875 -1.270175 -0.153428
v -0.622865 -1.280175 -0.051612
v -0.622865 -1.270175 -0.051612
v -0.622865 -1.280175 0.051612
v -0.622865 -1.270175 0.051612
v -0.605875 -1.280175 0.153428
v -0.605875 -1.270175 0.153428
v -0.572358 -1.280175 0.251060
v -0.572358 -1.270175 0.251060
v -0.523229 -1.280175 0.341843
v -0.523229 -1.270175 0.341843
v -0.459827 -1.280175 0.423301
v -0.459827 -1.270175 0.423301
v -0.383883 -1.280175 0.493213
v -0.383883 -1.270175 0.493213
v -0.297467 -1.280175 0.549671
v -0.297467 -1.270175 0.549671
v -0.202937 -1.280175 0.591136
v -0.202937 -1.270175 0.591136
v -0.102872 -1.280175 0.616476
v -0.102872 -1.270175 0.616476
v 0.000000 -1.280175 0.625000
v 0.000000 -1.270175 0.625000
v 0.102872 -1.280175 0.616476
v 0.102872 -1.270175 0.616476
v 0.202937 -1.280175 0.591136
v 0.202937 -1.270175 0.591136
v 0.297467 -1.280175 0.549671
v 0.297467 -1.270175 0.549671
v 0.383883 -1.280175 0.493213
v 0.383883 -1.270175 0.493213
v 0.459827 -1.280175 0.423301
v 0.459827 -1.270175 0.423301
v 0.523229 -1.280175 0.341843
v 0.523229 -1.270175 0.341843
v 0.572358 -1.280175 0.251060
v 0.572358 -1.270175 0.251060
v 0.605875 -1.280175 0.153428
v 0.605875 -1.270175 0.153428
v 0.622865 -1.280175 0.051612
v 0.622865 -1.270175 0.051612
v 0.622865 -1.280175 -0.051612
v 0.622865 -1.270175 -0.051612
v 0.605875 -1.280175 -0.153428
v 0.605875 -1.270175 -0.153428
v 0.572358 -1.280175 -0.251060
v 0.572358 -1.270175 -0.251060
v 0.523229 -1.280175 -0.341843
v 0.523229 -1.270175 -0.341843
v 0.459827 -1.280175 -0.423301
v 0.459827 -1.270175 -0.423301
v 0.383883 -1.280175 -0.493213
v 0.383883 -1.270175 -0.493213
v 0.297467 -1.280175 -0.549671
v 0.297467 -1.270175 -0.549671
v 0.202937 -1.280175 -0.591136
v 0.202937 -1.270175 -0.591136
v 0.102872 -1.280175 -0.616476
v 0.102872 -1.270175 -0.616476
v -0.424352 -1.275175 0.245000
v 0.424352 -1.275175 0.245000
v 0.000000 -1.275175 -0.490000
v 0.000000 -1.275175 0.490000
v 0.424352 -1.275175 -0.245000
v -0.424352 -1.275175 -0.245000
v -0.585105 -1.275175 0.201468
v 0.010800 -1.275175 0.618725
v 0.591780 -1.275175 0.180925
v 0.354940 -1.275175 -0.506907
v -0.372415 -1.275175 -0.494211
v -0.588532 -1.275175 -0.191226
v -0.363733 -1.275175 0.500636
v 0.363733 -1.275175 0.500636
v 0.588532 -1.275175 -0.191226
v 0.000000 -1.275175 -0.618820
v -0.081472 -1.275175 -0.488232
v -0.160721 -1.275175 -0.468163
v -0.235586 -1.275175 -0.435324
v -0.304025 -1.275175 -0.390611
v -0.364171 -1.275175 -0.335243
v -0.414383 -1.275175 -0.270730
v -0.453292 -1.275175 -0.198832
v -0.479836 -1.275175 -0.121511
v -0.493292 -1.275175 -0.040875
v -0.493292 -1.275175 0.040875
v -0.479836 -1.275175 0.121511
v -0.453292 -1.275175 0.198832
v -0.414383 -1.275175 0.270730
v -0.364171 -1.275175 0.335243
v -0.304025 -1.275175 0.390611
v -0.235586 -1.275175 0.435324
v -0.160721 -1.275175 0.468163
v -0.081471 -1.275175 0.488232
v 0.000000 -1.275175 0.494983
v 0.081472 -1.275175 0.488232
v 0.160721 -1.275175 0.468163
v 0.235586 -1.275175 0.435324
v 0.304025 -1.275175 0.390611
v 0.364171 -1.275175 0.335243
v 0.414383 -1.275175 0.270730
v 0.453292 -1.275175 0.198832
v 0.479836 -1.275175 0.121511
v 0.493292 -1.275175 0.040875
v 0.493292 -1.275175 -0.040875
v 0.479836 -1.275175 -0.121511
v 0.453292 -1.275175 -0.198832
v 0.414383 -1.275175 -0.270730
v 0.364171 -1.275175 -0.335243
v 0.304025 -1.275175 -0.390611
v 0.235586 -1.275175 -0.435324
v 0.160721 -1.275175 -0.468163
v 0.081471 -1.275175 -0.488232
v 0.000000 -1.275175 -0.494983
v -0.102046 -1.275175 -0.611527
v -0.201308 -1.275175 -0.586390
v -0.295079 -1.275175 -0.545259
v -0.380801 -1.275175 -0.489253
v -0.456136 -1.275175 -0.419903
v -0.519029 -1.275175 -0.339098
v -0.567764 -1.275175 -0.249044
v -0.601011 -1.275175 -0.152197
v -0.617865 -1.275175 -0.051198
v -0.617865 -1.275175 0.051198
v -0.601011 -1.275175 0.152197
v -0.567764 -1.275175 0.249044
v -0.519029 -1.275175 0.339098
v -0.456136 -1.275175 0.419903
v -0.380801 -1.275175 0.489253
v -0.295079 -1.275175 0.545259
v -0.201308 -1.275175 0.586390
v -0.102046 -1.275175 0.611527
v 0.000000 -1.275175 0.619983
v 0.102046 -1.275175 0.611527
v 0.201308 -1.275175 0.586390
v 0.295079 -1.275175 0.545259
v 0.380801 -1.275175 0.489253
v 0.456136 -1.275175 0.419903
v 0.519029 -1.275175 0.339098
v 0.567764 -1.275175 0.249044
v 0.601011 -1.275175 0.152197
v 0.617865 -1.275175 0.051198
v 0.617865 -1.275175 -0.051198
v 0.601011 -1.275175 -0.152197
v 0.567764 -1.275175 -0.249044
v 0.519029 -1.275175 -0.339098
v 0.456136 -1.275175 -0.419903
v 0.380801 -1.275175 -0.489253
v 0.295079 -1.275175 -0.545259
v 0.201308 -1.275175 -0.586390
v 0.102046 -1.275175 -0.611527
v 0.000000 -1.275175 -0.619983
vn -0.0000 -0.7071 -0.7071
vn -0.0000 0.7071 -0.7071
vn -0.6124 -0.7071 0.3535
vn -0.6124 0.7071 0.3535
vn 0.6124 -0.7071 0.3535
vn 0.6124 0.7071 0.3535
vn -0.6124 -0.7071 -0.3535
vn -0.6124 0.7071 -0.3535
vn -0.0000 -0.7071 0.7071
vn -0.0000 0.7071 0.7071
vn 0.6124 -0.7071 -0.3535
vn 0.6124 0.7071 -0.3535
vn 0.4056 -0.7071 -0.5792
vn 0.4056 0.7071 -0.5792
vn -0.4255 -0.7071 -0.5647
vn -0.4255 0.7071 -0.5647
vn -0.6686 -0.7071 0.2302
vn -0.6686 0.7071 0.2302
vn 0.0123 -0.7071 0.7070
vn 0.0123 0.7071 0.7070
vn 0.6762 -0.7071 0.2067
vn 0.6762 0.7071 0.2067
vn 0.6725 -0.7071 -0.2185
vn 0.6725 0.7071 -0.2185
vn -0.6725 -0.7071 -0.2185
vn -0.6725 0.7071 -0.2185
vn -0.4156 -0.7071 0.5721
vn -0.4156 0.7071 0.5721
vn 0.4156 -0.7071 0.5721
vn 0.4156 0.7071 0.5721
vn 0.1736 -0.7071 0.6854
vn 0.1736 0.7071 0.6854
vn 0.2840 -0.7071 0.6475
vn 0.2840 0.7071 0.6475
vn 0.3868 -0.7071 0.5920
vn 0.3868 0.7071 0.5920
vn 0.4789 -0.7071 0.5203
vn 0.4789 0.7071 0.5202
vn 0.5580 -0.7071 0.4343
vn 0.5580 0.7071 0.4343
vn 0.6219 -0.7071 0.3365
vn 0.6219 0.7071 0.3365
vn 0.6688 -0.7071 0.2296
vn 0.6688 0.7071 0.2296
vn 0.6974 -0.7071 0.1164
vn 0.6974 0.7071 0.1164
vn 0.7071 -0.7071 -0.0000
vn 0.7071 0.7071 -0.0000
vn 0.6974 -0.7071 -0.1164
vn 0.6974 0.7071 -0.1164
vn 0.6688 -0.7071 -0.2296
vn 0.6688 0.7071 -0.2296
vn 0.6219 -0.7071 -0.3365
vn 0.6219 0.7071 -0.3365
vn 0.5580 -0.7071 -0.4343
vn 0.5580 0.7071 -0.4343
vn 0.4789 -0.7071 -0.5203
vn 0.4789 0.7071 -0.5202
vn 0.3868 -0.7071 -0.5920
vn 0.3868 0.7071 -0.5920
vn 0.2840 -0.7071 -0.6475
vn 0.2840 0.7071 -0.6475
vn 0.1736 -0.7071 -0.6854
vn 0.1736 0.7071 -0.6854
vn 0.0584 -0.7071 -0.7047
vn 0.0584 0.7071 -0.7047
vn -0.0584 -0.7071 -0.7047
vn -0.0584 0.7071 -0.7047
vn -0.1736 -0.7071 -0.6854
vn -0.1736 0.7071 -0.6854
vn -0.2840 -0.7071 -0.6475
vn -0.2840 0.7071 -0.6475
vn -0.3868 -0.7071 -0.5920
vn -0.3868 0.7071 -0.5920
vn -0.4789 -0.7071 -0.5203
vn -0.4789 0.7071 -0.5202
vn -0.5580 -0.7071 -0.4343
vn -0.5580 0.7071 -0.4343
vn -0.6219 -0.7071 -0.3365
vn -0.6219 0.7071 -0.3365
vn -0.6688 -0.7071 -0.2296
vn -0.6688 0.7071 -0.2296
vn -0.6974 -0.7071 -0.1164
vn -0.6974 0.7071 -0.1164
vn -0.7071 -0.7071 -0.0000
vn -0.7071 0.7071 -0.0000
vn -0.6974 -0.7071 0.1164
vn -0.6974 0.7071 0.1164
vn -0.6688 -0.7071 0.2296
vn -0.6688 0.7071 0.2296
vn -0.6219 -0.7071 0.3365
vn -0.6219 0.7071 0.3365
vn -0.5580 -0.7071 0.4343
vn -0.5580 0.7071 0.4343
vn -0.4789 -0.7071 0.5203
vn -0.4789 0.7071 0.5202
vn -0.3868 -0.7071 0.5920
vn -0.3868 0.7071 0.5920
vn -0.2840 -0.7071 0.6475
vn -0.2840 0.7071 0.6475
vn -0.1736 -0.7071 0.6854
vn -0.1736 0.7071 0.6854
vn -0.0584 -0.7071 0.7047
vn -0.0584 0.7071 0.7047
vn 0.0584 -0.7071 0.7047
vn 0.0584 0.7071 0.7047
vn 0.3867 -0.7071 0.5919
vn 0.3867 0.7071 0.5919
vn 0.4789 -0.7071 0.5202
vn 0.6975 -0.7071 0.1164
vn 0.6975 0.7071 0.1164
vn 0.6975 -0.7071 -0.1164
vn 0.6975 0.7071 -0.1164
vn 0.4789 -0.7071 -0.5202
vn 0.3867 -0.7071 -0.5919
vn 0.3867 0.7071 -0.5919
vn -0.3867 -0.7071 -0.5919
vn -0.3867 0.7071 -0.5919
vn -0.4789 -0.7071 -0.5202
vn -0.6975 -0.7071 -0.1164
vn -0.6975 0.7071 -0.1164
vn -0.6975 -0.7071 0.1164
vn -0.6975 0.7071 0.1164
vn -0.4789 -0.7071 0.5202
vn -0.3867 -0.7071 0.5919
vn -0.3867 0.7071 0.5919
vt 0.000000 0.000000
s 0
usemtl Material.002
f 566/455/376 567/455/376 386/455/376 384/455/376
f 567/455/377 566/455/377 385/455/377 387/455/377
f 567/455/378 568/455/378 382/455/378 386/455/378
f 568/455/379 567/455/379 387/455/379 383/455/379
f 568/455/380 566/455/380 384/455/380 382/455/380
f 566/455/381 568/455/381 383/455/381 385/455/381
usemtl Material.001
f 569/455/382 570/455/382 392/455/382 390/455/382
f 570/455/383 569/455/383 391/455/383 393/455/383
f 570/455/384 571/455/384 388/455/384 392/455/384
f 571/455/385 570/455/385 393/455/385 389/455/385
f 571/455/386 569/455/386 390/455/386 388/455/386
f 569/455/387 571/455/387 389/455/387 391/455/387
f 572/455/388 573/455/388 398/455/388 396/455/388
f 573/455/389 572/455/389 397/455/389 399/455/389
f 573/455/390 574/455/390 400/455/390 398/455/390
f 574/455/391 573/455/391 399/455/391 401/455/391
f 574/455/392 575/455/392 402/455/392 400/455/392
f 575/455/393 574/455/393 401/455/393 403/455/393
f 575/455/394 576/455/394 394/455/394 402/455/394
f 576/455/395 575/455/395 403/455/395 395/455/395
f 576/455/396 572/455/396 396/455/396 394/455/396
f 572/455/397 576/455/397 395/455/397 397/455/397
f 577/455/398 578/455/398 408/455/398 406/455/398
f 578/455/399 577/455/399 407/455/399 409/455/399
f 578/455/376 579/455/376 410/455/376 408/455/376
f 579/455/377 578/455/377 409/455/377 411/455/377
f 579/455/400 580/455/400 412/455/400 410/455/400
f 580/455/401 579/455/401 411/455/401 413/455/401
f 580/455/402 581/455/402 404/455/402 412/455/402
f 581/455/403 580/455/403 413/455/403 405/455/403
f 581/455/404 577/455/404 406/455/404 404/455/404
f 577/455/405 581/455/405 405/455/405 407/455/405
usemtl Material.003
f 582/455/406 583/455/406 418/455/406 416/455/406
f 583/455/407 582/455/407 417/455/407 419/455/407
f 583/455/408 584/455/408 420/455/408 418/455/408
f 584/455/409 583/455/409 419/455/409 421/455/409
f 584/455/410 585/455/410 422/455/410 420/455/410
f 585/455/411 584/455/411 421/455/411 423/455/411
f 585/455/412 586/455/412 424/455/412 422/455/412
f 586/455/413 585/455/413 423/455/413 425/455/413
f 586/455/414 587/455/414 426/455/414 424/455/414
f 587/455/415 586/455/415 425/455/415 427/455/415
f 587/455/416 588/455/416 428/455/416 426/455/416
f 588/455/417 587/455/417 427/455/417 429/455/417
f 588/455/418 589/455/418 430/455/418 428/455/418
f 589/455/419 588/455/419 429/455/419 431/455/419
f 589/455/420 590/455/420 432/455/420 430/455/420
f 590/455/421 589/455/421 431/455/421 433/455/421
f 590/455/422 591/455/422 434/455/422 432/455/422
f 591/455/423 590/455/423 433/455/423 435/455/423
f 591/455/424 592/455/424 436/455/424 434/455/424
f 592/455/425 591/455/425 435/455/425 437/455/425
f 592/455/426 593/455/426 438/455/426 436/455/426
f 593/455/427 592/455/427 437/455/427 439/455/427
f 593/455/428 594/455/428 440/455/428 438/455/428
f 594/455/429 593/455/429 439/455/429 441/455/429
f 594/455/430 595/455/430 442/455/430 440/455/430
f 595/455/431 594/455/431 441/455/431 443/455/431
f 595/455/432 596/455/432 444/455/432 442/455/432
f 596/455/433 595/455/433 443/455/433 445/455/433
f 596/455/434 597/455/434 446/455/434 444/455/434
f 597/455/435 596/455/435 445/455/435 447/455/435
f 597/455/436 598/455/436 448/455/436 446/455/436
f 598/455/437 597/455/437 447/455/437 449/455/437
f 598/455/438 599/455/438 450/455/438 448/455/438
f 599/455/439 598/455/439 449/455/439 451/455/439
f 599/455/440 600/455/440 452/455/440 450/455/440
f 600/455/441 599/455/441 451/455/441 453/455/441
f 600/455/442 601/455/442 454/455/442 452/455/442
f 601/455/443 600/455/443 453/455/443 455/455/443
f 601/455/444 602/455/444 456/455/444 454/455/444
f 602/455/445 601/455/445 455/455/445 457/455/445
f 602/455/446 603/455/446 458/455/446 456/455/446
f 603/455/447 602/455/447 457/455/447 459/455/447
f 603/455/448 604/455/448 460/455/448 458/455/448
f 604/455/449 603/455/449 459/455/449 461/455/449
f 604/455/450 605/455/450 462/455/450 460/455/450
f 605/455/451 604/455/451 461/455/451 463/455/451
f 605/455/452 606/455/452 464/455/452 462/455/452
f 606/455/453 605/455/453 463/455/453 465/455/453
f 606/455/454 607/455/454 466/455/454 464/455/454
f 607/455/455 606/455/455 465/455/455 467/455/455
f 607/455/456 608/455/456 468/455/456 466/455/456
f 608/455/457 607/455/457 467/455/457 469/455/457
f 608/455/458 609/455/458 470/455/458 468/455/458
f 609/455/459 608/455/459 469/455/459 471/455/459
f 609/455/460 610/455/460 472/455/460 470/455/460
f 610/455/461 609/455/461 471/455/461 473/455/461
f 610/455/462 611/455/462 474/455/462 472/455/462
f 611/455/463 610/455/463 473/455/463 475/455/463
f 611/455/464 612/455/464 476/455/464 474/455/464
f 612/455/465 611/455/465 475/455/465 477/455/465
f 612/455/466 613/455/466 478/455/466 476/455/466
f 613/455/467 612/455/467 477/455/467 479/455/467
f 613/455/468 614/455/468 480/455/468 478/455/468
f 614/455/469 613/455/469 479/455/469 481/455/469
f 614/455/470 615/455/470 482/455/470 480/455/470
f 615/455/471 614/455/471 481/455/471 483/455/471
f 615/455/472 616/455/472 484/455/472 482/455/472
f 616/455/473 615/455/473 483/455/473 485/455/473
f 616/455/474 617/455/474 486/455/474 484/455/474
f 617/455/475 616/455/475 485/455/475 487/455/475
f 617/455/476 618/455/476 488/455/476 486/455/476
f 618/455/477 617/455/477 487/455/477 489/455/477
f 618/455/478 619/455/478 414/455/478 488/455/478
f 619/455/479 618/455/479 489/455/479 415/455/479
f 619/455/480 582/455/480 416/455/480 414/455/480
f 582/455/481 619/455/481 415/455/481 417/455/481
f 620/455/406 621/455/406 494/455/406 492/455/406
f 621/455/407 620/455/407 493/455/407 495/455/407
f 621/455/408 622/455/408 496/455/408 494/455/408
f 622/455/409 621/455/409 495/455/409 497/455/409
f 622/455/482 623/455/482 498/455/482 496/455/482
f 623/455/483 622/455/483 497/455/483 499/455/483
f 623/455/484 624/455/484 500/455/484 498/455/484
f 624/455/413 623/455/413 499/455/413 501/455/413
f 624/455/414 625/455/414 502/455/414 500/455/414
f 625/455/415 624/455/415 501/455/415 503/455/415
f 625/455/416 626/455/416 504/455/416 502/455/416
f 626/455/417 625/455/417 503/455/417 505/455/417
f 626/455/418 627/455/418 506/455/418 504/455/418
f 627/455/419 626/455/419 505/455/419 507/455/419
f 627/455/485 628/455/485 508/455/485 506/455/485
f 628/455/486 627/455/486 507/455/486 509/455/486
f 628/455/422 629/455/422 510/455/422 508/455/422
f 629/455/423 628/455/423 509/455/423 511/455/423
f 629/455/487 630/455/487 512/455/487 510/455/487
f 630/455/488 629/455/488 511/455/488 513/455/488
f 630/455/426 631/455/426 514/455/426 512/455/426
f 631/455/427 630/455/427 513/455/427 515/455/427
f 631/455/428 632/455/428 516/455/428 514/455/428
f 632/455/429 631/455/429 515/455/429 517/455/429
f 632/455/430 633/455/430 518/455/430 516/455/430
f 633/455/431 632/455/431 517/455/431 519/455/431
f 633/455/489 634/455/489 520/455/489 518/455/489
f 634/455/433 633/455/433 519/455/433 521/455/433
f 634/455/490 635/455/490 522/455/490 520/455/490
f 635/455/491 634/455/491 521/455/491 523/455/491
f 635/455/436 636/455/436 524/455/436 522/455/436
f 636/455/437 635/455/437 523/455/437 525/455/437
f 636/455/438 637/455/438 526/455/438 524/455/438
f 637/455/439 636/455/439 525/455/439 527/455/439
f 637/455/440 638/455/440 528/455/440 526/455/440
f 638/455/441 637/455/441 527/455/441 529/455/441
f 638/455/442 639/455/442 530/455/442 528/455/442
f 639/455/443 638/455/443 529/455/443 531/455/443
f 639/455/444 640/455/444 532/455/444 530/455/444
f 640/455/445 639/455/445 531/455/445 533/455/445
f 640/455/446 641/455/446 534/455/446 532/455/446
f 641/455/447 640/455/447 533/455/447 535/455/447
f 641/455/492 642/455/492 536/455/492 534/455/492
f 642/455/493 641/455/493 535/455/493 537/455/493
f 642/455/494 643/455/494 538/455/494 536/455/494
f 643/455/451 642/455/451 537/455/451 539/455/451
f 643/455/452 644/455/452 540/455/452 538/455/452
f 644/455/453 643/455/453 539/455/453 541/455/453
f 644/455/454 645/455/454 542/455/454 540/455/454
f 645/455/455 644/455/455 541/455/455 543/455/455
f 645/455/456 646/455/456 544/455/456 542/455/456
f 646/455/457 645/455/457 543/455/457 545/455/457
f 646/455/495 647/455/495 546/455/495 544/455/495
f 647/455/496 646/455/496 545/455/496 547/455/496
f 647/455/460 648/455/460 548/455/460 546/455/460
f 648/455/461 647/455/461 547/455/461 549/455/461
f 648/455/497 649/455/497 550/455/497 548/455/497
f 649/455/498 648/455/498 549/455/498 551/455/498
f 649/455/464 650/455/464 552/455/464 550/455/464
f 650/455/465 649/455/465 551/455/465 553/455/465
f 650/455/466 651/455/466 554/455/466 552/455/466
f 651/455/467 650/455/467 553/455/467 555/455/467
f 651/455/468 652/455/468 556/455/468 554/455/468
f 652/455/469 651/455/469 555/455/469 557/455/469
f 652/455/499 653/455/499 558/455/499 556/455/499
f 653/455/471 652/455/471 557/455/471 559/455/471
f 653/455/500 654/455/500 560/455/500 558/455/500
f 654/455/501 653/455/501 559/455/501 561/455/501
f 654/455/474 655/455/474 562/455/474 560/455/474
f 655/455/475 654/455/475 561/455/475 563/455/475
f 655/455/476 656/455/476 564/455/476 562/455/476
f 656/455/477 655/455/477 563/455/477 565/455/477
f 656/455/478 657/455/478 490/455/478 564/455/478
f 657/455/479 656/455/479 565/455/479 491/455/479
f 657/455/480 620/455/480 492/455/480 490/455/480
f 620/455/481 657/455/481 491/455/481 493/455/481
