# Blender 4.1.1
# www.blender.org
mtllib playerRightLeg.mtl
o 右足
v -0.086219 -1.033171 -0.085000
v -0.086219 -0.403171 -0.085000
v -0.086219 -1.033171 0.085000
v -0.086219 -0.403171 0.116905
v -0.256219 -1.033171 -0.085000
v -0.256219 -0.403171 -0.085000
v -0.256219 -1.033171 0.085000
v -0.256219 -0.403171 0.169603
v -0.070336 -1.207499 -0.000000
v -0.067592 -0.718171 -0.021466
v -0.040153 -0.312192 -0.000000
v -0.067592 -0.718171 0.038400
v -0.171219 -1.138057 0.091154
v -0.171219 -0.334143 0.150912
v -0.227024 -0.718171 0.038400
v -0.227431 -1.217792 0.000000
v -0.329723 -0.419204 0.000000
v -0.227024 -0.718171 -0.021466
v -0.171219 -1.177034 -0.103627
v -0.171219 -0.361275 -0.138553
v -0.039711 -0.574341 -0.000000
v -0.171219 -0.709464 0.087813
v -0.244163 -0.718171 0.005191
v -0.171219 -0.718171 -0.060556
v -0.171219 -1.238829 -0.000000
v -0.171219 -0.189282 -0.000000
vn 0.5748 -0.0500 -0.8168
vn 0.6107 0.0647 -0.7892
vn 0.5850 -0.0841 0.8066
vn 0.6218 0.0625 0.7807
vn -0.7894 -0.0300 -0.6131
vn -0.6732 0.0539 -0.7374
vn -0.7985 -0.0567 0.5993
vn -0.6033 0.0207 0.7972
vn 0.9624 -0.2710 0.0166
vn 0.7543 -0.0246 -0.6560
vn 0.9829 0.1715 -0.0670
vn 0.7922 -0.0384 0.6091
vn -0.0400 -0.1715 0.9844
vn 0.0237 0.1152 0.9931
vn -0.8191 -0.1099 0.5631
vn -0.9576 -0.2829 0.0536
vn -0.9927 0.0431 -0.1123
vn -0.7946 -0.0731 -0.6028
vn -0.0458 -0.1549 -0.9869
vn -0.0612 0.0737 -0.9954
vn 0.9978 -0.0303 -0.0594
vn 0.0590 -0.0800 0.9950
vn -0.9901 -0.1212 -0.0708
vn -0.0460 -0.0290 -0.9985
vn -0.1002 -0.9836 0.1498
vn -0.0825 0.9810 -0.1754
vt 0.552815 0.000089
vt 0.648492 0.126882
vt 0.693675 0.188750
vt 0.452458 0.104920
vt 0.791449 0.067368
vt 0.793598 0.210411
vt 0.724601 0.378510
vt 0.614628 0.235848
vt 0.461892 0.235402
vt 0.523138 0.434860
vt 0.369309 0.308991
vt 0.717926 0.501563
vt 0.685462 0.614577
vt 0.423070 0.539040
vt 0.317012 0.414320
vt 0.387074 0.605848
vt 0.206917 0.468772
vt 0.515748 0.716037
vt 0.452462 0.807397
vt 0.349503 0.651877
vt 0.167423 0.583410
vt 0.264504 0.756746
vt 0.077774 0.661127
vt 0.385376 0.912381
vt 0.267090 0.952679
vt 0.145952 0.891611
vt 0.068273 0.779293
vt 0.162074 0.265426
vt 0.236774 0.341966
vt 0.157396 0.423345
vt 0.070910 0.339203
vt 0.075061 0.517095
vt 0.000089 0.432277
vt 0.744091 0.715356
vt 0.607448 0.843261
vt 0.793598 0.827701
vt 0.706500 0.970871
vt 0.579157 0.999911
vt 0.461226 0.939558
s 1
usemtl マテリアル.010
f 1/1/1 10/2/10 21/3/21 9/4/9
f 10/2/10 2/5/2 11/6/11 21/3/21
f 21/3/21 11/6/11 4/7/4 12/8/12
f 9/4/9 21/3/21 12/8/12 3/9/3
f 3/9/3 12/8/12 22/10/22 13/11/13
f 12/8/12 4/7/4 14/12/14 22/10/22
f 22/10/22 14/12/14 8/13/8 15/14/15
f 13/11/13 22/10/22 15/14/15 7/15/7
f 7/15/7 15/14/15 23/16/23 16/17/16
f 15/14/15 8/13/8 17/18/17 23/16/23
f 23/16/23 17/18/17 6/19/6 18/20/18
f 16/17/16 23/16/23 18/20/18 5/21/5
f 5/21/5 18/20/18 24/22/24 19/23/19
f 18/20/18 6/19/6 20/24/20 24/22/24
f 24/22/24 20/24/20 2/25/2 10/26/10
f 19/23/19 24/22/24 10/26/10 1/27/1
f 3/28/3 13/29/13 25/30/25 9/31/9
f 13/29/13 7/15/7 16/17/16 25/30/25
f 25/30/25 16/17/16 5/21/5 19/32/19
f 9/31/9 25/30/25 19/32/19 1/33/1
f 8/13/8 14/34/14 26/35/26 17/18/17
f 14/34/14 4/36/4 11/37/11 26/35/26
f 26/35/26 11/37/11 2/38/2 20/39/20
f 17/18/17 26/35/26 20/39/20 6/19/6
