# Blender 4.1.1
# www.blender.org
mtllib playerBody.mtl
o 体
v -0.680588 -0.650862 0.385986
v -0.382409 0.611245 0.385986
v -0.680588 -0.610458 -0.251897
v -0.382409 0.628364 -0.289440
v 0.658254 -0.650862 0.385986
v 0.382409 0.611245 0.385986
v 0.658254 -0.610458 -0.251897
v 0.382409 0.628362 -0.289440
v -0.764386 -0.789149 0.003577
v -0.241932 -0.019808 0.469784
v -0.542922 0.793574 0.003576
v -0.241932 -0.019808 -0.198542
v 0.000000 -0.533291 -0.419357
v 0.000000 0.714251 -0.342672
v 0.214143 -0.019808 -0.198542
v 0.742053 -0.789149 0.003577
v 0.509547 0.793574 0.003576
v 0.214143 -0.019808 0.469784
v 0.000000 -0.789149 0.552782
v 0.000000 0.740033 0.382124
v -0.417794 -0.019808 0.003577
v 0.000000 -0.019808 -0.236809
v 0.390005 -0.019808 0.003577
v 0.000000 0.003876 0.547586
v 0.000000 -1.079356 0.003577
v 0.000000 1.005119 0.003576
vn -0.8144 -0.1698 0.5550
vn -0.9700 0.1861 -0.1562
vn -0.9583 -0.2700 -0.0931
vn -0.5652 0.2837 0.7747
vn -0.5856 0.0299 0.8101
vn -0.5590 0.1699 -0.8116
vn -0.3971 0.0863 -0.9137
vn -0.7252 -0.0702 -0.6849
vn 0.0054 -0.0910 -0.9958
vn 0.0038 0.0897 -0.9960
vn 0.5979 0.1662 -0.7841
vn 0.4002 0.0772 -0.9132
vn 0.7278 -0.0666 -0.6825
vn 0.9718 0.1759 -0.1569
vn 0.9591 -0.2658 -0.0975
vn 0.6778 0.2614 0.6872
vn 0.5458 0.0713 0.8349
vn 0.7995 -0.1180 0.5890
vn 0.0050 -0.3675 0.9300
vn 0.0182 0.0599 0.9980
vn 0.0050 -0.9727 -0.2318
vn 0.0082 0.9990 -0.0445
vn 0.8298 0.4956 -0.2564
vn -0.1240 0.3769 -0.9179
vn -0.7477 0.6466 0.1510
vn 0.0038 0.7021 0.7121
vt 0.966529 0.814867
vt 0.764524 0.783576
vt 0.947453 0.708847
vt 0.743272 0.969600
vt 0.851591 0.932996
vt 0.596166 0.825230
vt 0.689451 0.706358
vt 0.887467 0.656225
vt 0.701711 0.547691
vt 0.618037 0.639279
vt 0.436945 0.683118
vt 0.553100 0.583390
vt 0.580712 0.382679
vt 0.470990 0.517173
vt 0.521593 0.351182
vt 0.298238 0.579548
vt 0.299789 0.447345
vt 0.433952 0.320425
vt 0.243295 0.296522
vt 0.228214 0.434046
vt 0.093375 0.520473
vt 0.156552 0.420958
vt 0.041995 0.298466
vt 0.723442 0.094435
vt 0.584636 0.208753
vt 0.668025 0.048230
vt 0.694584 0.263184
vt 0.463412 0.153603
vt 0.572458 0.018690
vt 0.313584 0.722215
vt 0.375454 0.635979
vt 0.324718 0.850925
vt 0.391056 0.773962
vt 0.234436 0.832075
vt 0.236953 0.660669
vt 0.640568 0.911236
vt 0.513736 0.756546
vt 0.194375 0.565584
vt 0.170765 0.738074
s 1
usemtl マテリアル.006
f 1/1/1 21/2/2 9/3/3
f 2/4/4 21/2/2 10/5/5
f 21/2/2 4/6/6 12/7/7
f 21/2/2 3/8/8 9/3/3
f 12/7/7 13/9/9 3/8/8
f 4/6/6 22/10/10 12/7/7
f 22/10/10 8/11/11 15/12/12
f 13/9/9 15/12/12 7/13/13
f 7/13/13 23/14/14 16/15/15
f 8/11/11 23/14/14 15/12/12
f 23/14/14 6/16/16 18/17/17
f 23/14/14 5/18/18 16/15/15
f 18/17/17 19/19/19 5/18/18
f 6/16/16 24/20/20 18/17/17
f 24/20/20 2/21/4 10/22/5
f 19/19/19 10/22/5 1/23/1
f 3/24/8 25/25/21 9/26/3
f 7/13/13 25/25/21 13/27/9
f 25/25/21 5/18/18 19/28/19
f 25/25/21 1/29/1 9/26/3
f 8/11/11 26/30/22 17/31/23
f 4/32/6 26/30/22 14/33/24
f 11/34/25 20/35/26 26/30/22
f 17/31/23 20/35/26 6/16/16
f 1/1/1 10/5/5 21/2/2
f 2/4/4 11/36/25 21/2/2
f 21/2/2 11/36/25 4/6/6
f 21/2/2 12/7/7 3/8/8
f 12/7/7 22/10/10 13/9/9
f 4/6/6 14/37/24 22/10/10
f 22/10/10 14/37/24 8/11/11
f 13/9/9 22/10/10 15/12/12
f 7/13/13 15/12/12 23/14/14
f 8/11/11 17/31/23 23/14/14
f 23/14/14 17/31/23 6/16/16
f 23/14/14 18/17/17 5/18/18
f 18/17/17 24/20/20 19/19/19
f 6/16/16 20/38/26 24/20/20
f 24/20/20 20/38/26 2/21/4
f 19/19/19 24/20/20 10/22/5
f 3/24/8 13/27/9 25/25/21
f 7/13/13 16/15/15 25/25/21
f 25/25/21 16/15/15 5/18/18
f 25/25/21 19/28/19 1/29/1
f 8/11/11 14/33/24 26/30/22
f 4/32/6 11/34/25 26/30/22
f 11/34/25 2/39/4 20/35/26
f 17/31/23 26/30/22 20/35/26
