# Blender 4.1.1
# www.blender.org
mtllib playerLeftArm.mtl
o 左腕
v 0.289634 -0.134064 0.056430
v 0.172927 0.223004 0.063144
v 0.289634 -0.134064 -0.065758
v 0.195436 0.189253 -0.055928
v 0.406483 -0.098340 0.056430
v 0.303610 0.262958 0.063144
v 0.386025 -0.071483 -0.050037
v 0.302444 0.221969 -0.055928
v 0.288574 -0.176387 -0.004664
v 0.264476 0.036568 0.030704
v 0.136621 0.289676 -0.005183
v 0.267334 0.036734 -0.034698
v 0.347800 -0.117560 -0.060999
v 0.238217 0.240679 -0.068141
v 0.328903 0.055558 -0.034698
v 0.431029 -0.132834 -0.004664
v 0.304796 0.310292 -0.005183
v 0.331906 0.057183 0.030704
v 0.359801 -0.154611 0.069818
v 0.225135 0.285937 0.078117
v 0.251759 0.032680 -0.004551
v 0.298045 0.045407 -0.040496
v 0.344623 0.061071 -0.004551
v 0.298191 0.046875 0.044003
v 0.372827 -0.207084 -0.004664
v 0.154917 0.330243 -0.005183
vn -0.6534 -0.2755 0.7051
vn -0.6817 -0.1657 0.7126
vn -0.5443 -0.2388 -0.8042
vn -0.5877 -0.1743 -0.7901
vn 0.6962 0.1353 0.7049
vn 0.6525 0.2804 0.7040
vn 0.5814 0.1292 -0.8033
vn 0.5543 0.2172 -0.8035
vn -0.8851 -0.4599 -0.0716
vn -0.6813 -0.2124 0.7006
vn -0.9829 -0.1135 -0.1452
vn -0.5833 -0.1679 -0.7947
vn 0.1196 -0.1046 -0.9873
vn -0.0073 0.1264 -0.9920
vn 0.5698 0.1648 -0.8051
vn 0.9832 0.1116 -0.1447
vn 0.8715 0.4661 -0.1521
vn 0.6771 0.2002 0.7081
vn 0.0526 -0.1683 0.9843
vn -0.0185 0.1721 0.9849
vn -0.9561 -0.2892 -0.0478
vn 0.0351 0.0101 -0.9993
vn 0.9543 0.2838 -0.0940
vn 0.0015 -0.0051 1.0000
vn 0.3450 -0.8961 -0.2794
vn -0.6453 0.6662 -0.3739
vt 0.606618 0.000094
vt 0.691867 0.139371
vt 0.626891 0.226753
vt 0.485609 0.078880
vt 0.886016 0.186102
vt 0.862278 0.348816
vt 0.720468 0.412315
vt 0.562875 0.310242
vt 0.400560 0.195903
vt 0.501650 0.397446
vt 0.366174 0.305553
vt 0.666464 0.514921
vt 0.585855 0.600926
vt 0.440016 0.484497
vt 0.317580 0.398919
vt 0.371591 0.574055
vt 0.238392 0.460039
vt 0.541710 0.709155
vt 0.466704 0.818728
vt 0.294803 0.659305
vt 0.153355 0.534014
vt 0.219019 0.742211
vt 0.056254 0.632343
vt 0.360408 0.934026
vt 0.218944 0.999906
vt 0.145161 0.818223
vt 0.000094 0.759484
vt 0.214092 0.193386
vt 0.274744 0.300483
vt 0.168037 0.358608
vt 0.092715 0.241728
vt 0.056790 0.448964
vt 0.000094 0.332404
vt 0.722931 0.603994
vt 0.780833 0.804449
vt 0.857339 0.662689
vt 0.849068 0.827413
vt 0.762497 0.984834
vt 0.586508 0.940982
s 1
usemtl マテリアル.009
f 1/1/1 10/2/10 21/3/21 9/4/9
f 10/2/10 2/5/2 11/6/11 21/3/21
f 21/3/21 11/6/11 4/7/4 12/8/12
f 9/4/9 21/3/21 12/8/12 3/9/3
f 3/9/3 12/8/12 22/10/22 13/11/13
f 12/8/12 4/7/4 14/12/14 22/10/22
f 22/10/22 14/12/14 8/13/8 15/14/15
f 13/11/13 22/10/22 15/14/15 7/15/7
f 7/15/7 15/14/15 23/16/23 16/17/16
f 15/14/15 8/13/8 17/18/17 23/16/23
f 23/16/23 17/18/17 6/19/6 18/20/18
f 16/17/16 23/16/23 18/20/18 5/21/5
f 5/21/5 18/20/18 24/22/24 19/23/19
f 18/20/18 6/19/6 20/24/20 24/22/24
f 24/22/24 20/24/20 2/25/2 10/26/10
f 19/23/19 24/22/24 10/26/10 1/27/1
f 3/28/3 13/29/13 25/30/25 9/31/9
f 13/29/13 7/15/7 16/17/16 25/30/25
f 25/30/25 16/17/16 5/21/5 19/32/19
f 9/31/9 25/30/25 19/32/19 1/33/1
f 8/13/8 14/34/14 26/35/26 17/18/17
f 14/34/14 4/36/4 11/37/11 26/35/26
f 26/35/26 11/37/11 2/38/2 20/39/20
f 17/18/17 26/35/26 20/39/20 6/19/6
