# Blender 4.1.1
# www.blender.org
mtllib SkyDome.mtl
o 球
v 0.000000 490.392639 97.545082
v 0.000000 461.939758 191.341660
v 0.000000 415.734863 277.785065
v 0.000000 353.553436 353.553314
v 0.000000 277.785156 415.734772
v 0.000000 191.341782 461.939758
v 0.000000 97.545250 490.392639
v 0.000000 0.000114 500.000000
v 0.000000 -97.545029 490.392670
v 0.000000 -415.734772 277.785156
v -19.030148 490.392639 95.670784
v -37.328957 461.939758 187.665085
v -54.193226 415.734863 272.447510
v -68.974876 353.553436 346.759888
v -81.105873 277.785156 407.746521
v -90.120003 191.341782 453.063690
v -95.670883 97.545250 480.969849
v -97.545189 0.000112 490.392639
v -95.670891 -97.545029 480.969879
v -90.120010 -191.341583 453.063721
v -81.105873 -277.785034 407.746643
v -68.974876 -353.553314 346.760010
v -54.193218 -415.734772 272.447601
v -37.328938 -461.939819 187.665115
v -19.030127 -490.392670 95.670815
v -37.328979 490.392639 90.119896
v -73.223366 461.939758 176.776642
v -106.303825 415.734863 256.639893
v -135.299088 353.553436 326.640625
v -159.094879 277.785156 384.088776
v -176.776733 191.341782 426.776642
v -187.665192 97.545235 453.063660
v -191.341766 0.000108 461.939728
v -187.665192 -97.545044 453.063660
v -176.776749 -191.341583 426.776672
v -159.094879 -277.785034 384.088898
v -135.299088 -353.553314 326.640747
v -106.303810 -415.734772 256.639984
v -73.223335 -461.939819 176.776672
v -37.328934 -490.392670 90.119926
v -54.193283 490.392639 81.105736
v -106.303856 461.939758 159.094757
v -154.329224 415.734863 230.969788
v -196.423828 353.553436 293.968781
v -230.969971 277.785156 345.670746
v -256.640045 191.341782 384.088806
v -272.447601 97.545235 407.746490
v -277.785217 0.000100 415.734741
v -272.447601 -97.545044 407.746490
v -256.640045 -191.341583 384.088837
v -230.969971 -277.785034 345.670868
v -196.423828 -353.553314 293.968903
v -154.329208 -415.734772 230.969879
v -106.303810 -461.939819 159.094803
v -54.193211 -490.392670 81.105789
v -68.974968 490.392639 68.974724
v -135.299149 461.939758 135.298920
v -196.423843 415.734802 196.423615
v -250.000092 353.553436 249.999878
v -293.968994 277.785156 293.968781
v -326.640808 191.341782 326.640656
v -346.760040 97.545219 346.759857
v -353.553497 0.000092 353.553284
v -346.760040 -97.545059 346.759857
v -326.640808 -191.341583 326.640686
v -293.968994 -277.785034 293.968903
v -250.000092 -353.553314 250.000000
v -196.423828 -415.734833 196.423706
v -135.299088 -461.939819 135.298996
v -68.974869 -490.392670 68.974792
v -81.105972 490.392639 54.193039
v -159.094955 461.939758 106.303619
v -230.970001 415.734802 154.328995
v -293.968994 353.553375 196.423584
v -345.670959 277.785156 230.969757
v -384.088959 191.341751 256.639893
v -407.746643 97.545219 272.447418
v -415.734924 0.000080 277.785004
v -407.746643 -97.545059 272.447418
v -384.088959 -191.341614 256.639923
v -345.670959 -277.785034 230.969818
v -293.968994 -353.553375 196.423706
v -230.969971 -415.734833 154.329086
v -159.094894 -461.939819 106.303741
v -81.105865 -490.392670 54.193130
v -90.120125 490.392639 37.328735
v -176.776840 461.939758 73.223137
v -256.640106 415.734802 106.303604
v -326.640839 353.553375 135.298843
v -384.088989 277.785095 159.094666
v -426.776764 191.341751 176.776550
v -453.063751 97.545204 187.664963
v -461.939880 0.000066 191.341583
v -453.063751 -97.545074 187.664963
v -426.776764 -191.341614 176.776642
v -384.088989 -277.785095 159.094727
v -326.640839 -353.553375 135.298965
v -256.640076 -415.734833 106.303696
v -176.776764 -461.939819 73.223267
v -90.120003 -490.392670 37.328854
v -95.671005 490.392639 19.029909
v -187.665283 461.939758 37.328720
v -272.447662 415.734802 54.192997
v -346.760071 353.553375 68.974663
v -407.746674 277.785095 81.105644
v -453.063782 191.341721 90.119820
v -480.969910 97.545189 95.670654
v -490.392731 0.000052 97.544998
v -480.969910 -97.545090 95.670685
v -453.063782 -191.341644 90.119911
v -407.746674 -277.785095 81.105736
v -346.760071 -353.553375 68.974754
v -272.447632 -415.734833 54.193096
v -187.665207 -461.939819 37.328850
v -95.670876 -490.392670 19.030041
v -97.545303 490.392639 -0.000237
v -191.341843 461.939758 -0.000230
v -277.785248 415.734802 -0.000218
v -353.553467 353.553375 -0.000214
v -415.734894 277.785095 -0.000209
v -461.939850 191.341721 -0.000165
v -490.392639 97.545174 -0.000211
v -500.000122 0.000038 -0.000189
v -490.392639 -97.545105 -0.000183
v -461.939850 -191.341644 -0.000087
v -415.734894 -277.785095 -0.000125
v -353.553467 -353.553375 -0.000106
v -277.785187 -415.734833 -0.000109
v -191.341766 -461.939819 -0.000082
v -97.545181 -490.392670 -0.000080
v -95.670998 490.392639 -19.030380
v -187.665268 461.939758 -37.329174
v -272.447662 415.734802 -54.193432
v -346.760040 353.553375 -68.975060
v -407.746643 277.785095 -81.106064
v -453.063782 191.341721 -90.120163
v -480.969849 97.545158 -95.671066
v -490.392731 0.000024 -97.545372
v -480.969849 -97.545120 -95.671036
v -453.063782 -191.341644 -90.120079
v -407.746643 -277.785095 -81.105972
v -346.760040 -353.553375 -68.974968
v -272.447601 -415.734833 -54.193314
v -187.665192 -461.939819 -37.329014
v -95.670876 -490.392670 -19.030205
v -90.120102 490.392639 -37.329208
v -176.776810 461.939758 -73.223587
v -256.640076 415.734802 -106.304024
v -326.640808 353.553375 -135.299271
v -384.088898 277.785095 -159.095047
v -426.776764 191.341690 -176.776886
v -453.063660 97.545143 -187.665314
v -461.939850 0.000010 -191.341934
v -453.063660 -97.545135 -187.665314
v -426.776764 -191.341675 -176.776794
v -384.088898 -277.785095 -159.094986
v -326.640808 -353.553375 -135.299149
v -256.640015 -415.734833 -106.303902
v -176.776733 -461.939819 -73.223404
v -90.119995 -490.392670 -37.329006
v -81.105942 490.392639 -54.193501
v -159.094925 461.939758 -106.304054
v -230.969971 415.734802 -154.329407
v -293.968964 353.553375 -196.423981
v -345.670868 277.785034 -230.970108
v -384.088928 191.341690 -256.640137
v -407.746521 97.545128 -272.447693
v -415.734863 -0.000004 -277.785339
v -407.746521 -97.545151 -272.447693
v -384.088928 -191.341675 -256.640137
v -345.670868 -277.785156 -230.970047
v -293.968964 -353.553375 -196.423859
v -230.969910 -415.734833 -154.329269
v -159.094849 -461.939819 -106.303871
v -81.105850 -490.392670 -54.193283
v -68.974930 490.392639 -68.975174
v -135.299118 461.939758 -135.299316
v -196.423798 415.734802 -196.424011
v -250.000031 353.553314 -250.000244
v -293.968872 277.785034 -293.969147
v -326.640808 191.341660 -326.640900
v -346.759918 97.545128 -346.760101
v -353.553406 -0.000016 -353.553619
v -346.759918 -97.545151 -346.760101
v -326.640808 -191.341705 -326.640900
v -293.968872 -277.785156 -293.969025
v -250.000031 -353.553436 -250.000122
v -196.423752 -415.734833 -196.423859
v -135.299042 -461.939819 -135.299149
v -68.974854 -490.392670 -68.974937
v -54.193249 490.392639 -81.106171
v -106.303825 461.939758 -159.095108
v -154.329178 415.734741 -230.970139
v -196.423752 353.553314 -293.969147
v -230.969864 277.785034 -345.671082
v -256.640045 191.341660 -384.089050
v -272.447510 97.545113 -407.746704
v -277.785126 -0.000024 -415.735046
v -272.447510 -97.545166 -407.746704
v -256.640045 -191.341705 -384.089050
v -230.969864 -277.785156 -345.670959
v -196.423752 -353.553436 -293.969025
v -154.329132 -415.734894 -230.970001
v -106.303772 -461.939819 -159.094925
v -54.193195 -490.392670 -81.105934
v 0.000000 -500.000000 -0.000087
v -37.328957 490.392639 -90.120316
v -73.223351 461.939758 -176.776978
v -106.303795 415.734741 -256.640259
v -135.299011 353.553314 -326.640961
v -159.094788 277.785034 -384.089081
v -176.776733 191.341660 -426.776855
v -187.665070 97.545113 -453.063812
v -191.341705 -0.000032 -461.940002
v -187.665070 -97.545166 -453.063812
v -176.776733 -191.341705 -426.776855
v -159.094788 -277.785156 -384.088959
v -135.299011 -353.553436 -326.640839
v -106.303749 -415.734894 -256.640076
v -73.223305 -461.939819 -176.776794
v -37.328926 -490.392670 -90.120071
v -19.030134 490.392639 -95.671204
v -37.328953 461.939758 -187.665421
v -54.193214 415.734741 -272.447815
v -68.974831 353.553314 -346.760193
v -81.105782 277.785034 -407.746735
v -90.120010 191.341660 -453.063873
v -95.670807 97.545097 -480.969971
v -97.545128 -0.000036 -490.392853
v -95.670807 -97.545181 -480.969971
v -90.120010 -191.341705 -453.063873
v -81.105782 -277.785156 -407.746613
v -68.974831 -353.553436 -346.760071
v -54.193180 -415.734894 -272.447632
v -37.328922 -461.939819 -187.665237
v -19.030121 -490.392670 -95.670944
v 0.000004 490.392639 -97.545502
v -0.000021 461.939758 -191.341980
v -0.000013 415.734741 -277.785400
v 0.000013 353.553314 -353.553589
v 0.000043 277.785034 -415.734924
v -0.000032 191.341660 -461.939941
v 0.000043 97.545097 -490.392700
v 0.000050 -0.000038 -500.000183
v 0.000043 -97.545181 -490.392700
v -0.000032 -191.341705 -461.939941
v 0.000043 -277.785156 -415.734802
v 0.000013 -353.553436 -353.553467
v 0.000005 -415.734894 -277.785187
v -0.000002 -461.939819 -191.341797
v -0.000002 -490.392670 -97.545242
v 19.030140 490.392639 -95.671188
v 37.328907 461.939758 -187.665390
v 54.193184 415.734741 -272.447815
v 68.974861 353.553314 -346.760162
v 81.105865 277.785034 -407.746674
v 90.119949 191.341660 -453.063873
v 95.670876 97.545097 -480.969910
v 97.545219 -0.000036 -490.392792
v 95.670876 -97.545181 -480.969910
v 90.119949 -191.341705 -453.063873
v 81.105865 -277.785156 -407.746552
v 68.974861 -353.553436 -346.760040
v 54.193184 -415.734894 -272.447601
v 37.328911 -461.939819 -187.665207
v 19.030115 -490.392670 -95.670937
v 37.328957 490.392639 -90.120293
v 73.223297 461.939758 -176.776932
v 106.303764 415.734741 -256.640259
v 135.299026 353.553314 -326.640930
v 159.094818 277.785034 -384.088928
v 176.776657 191.341660 -426.776855
v 187.665131 97.545113 -453.063721
v 191.341782 -0.000032 -461.939911
v 187.665131 -97.545166 -453.063721
v 176.776657 -191.341705 -426.776855
v 159.094818 -277.785156 -384.088806
v 135.299026 -353.553436 -326.640808
v 106.303749 -415.734894 -256.640045
v 73.223289 -461.939819 -176.776749
v 37.328911 -490.392670 -90.120049
v 54.193237 490.392639 -81.106140
v 106.303757 461.939758 -159.095047
v 154.329147 415.734741 -230.970139
v 196.423737 353.553314 -293.969086
v 230.969849 277.785034 -345.670898
v 256.639954 191.341660 -384.089020
v 272.447540 97.545113 -407.746582
v 277.785187 -0.000024 -415.734924
v 272.447540 -97.545166 -407.746582
v 256.639954 -191.341705 -384.089020
v 230.969849 -277.785156 -345.670776
v 196.423737 -353.553436 -293.968964
v 154.329117 -415.734894 -230.969940
v 106.303734 -461.939819 -159.094864
v 54.193172 -490.392670 -81.105904
v 0.000115 500.000000 -0.000354
v 68.974907 490.392639 -68.975136
v 135.299026 461.939758 -135.299240
v 196.423752 415.734802 -196.423996
v 250.000000 353.553314 -250.000183
v 293.968842 277.785034 -293.968933
v 326.640686 191.341660 -326.640869
v 346.759888 97.545128 -346.759949
v 353.553436 -0.000016 -353.553467
v 346.759888 -97.545151 -346.759949
v 326.640686 -191.341705 -326.640869
v 293.968842 -277.785156 -293.968811
v 250.000000 -353.553436 -250.000061
v 196.423706 -415.734833 -196.423782
v 135.298996 -461.939819 -135.299072
v 68.974823 -490.392670 -68.974907
v 81.105904 490.392639 -54.193466
v 159.094818 461.939758 -106.303978
v 230.969894 415.734802 -154.329376
v 293.968872 353.553375 -196.423920
v 345.670746 277.785034 -230.969925
v 384.088837 191.341690 -256.640137
v 407.746460 97.545128 -272.447540
v 415.734833 -0.000004 -277.785187
v 407.746460 -97.545151 -272.447540
v 384.088837 -191.341675 -256.640137
v 345.670746 -277.785156 -230.969864
v 293.968872 -353.553375 -196.423798
v 230.969849 -415.734833 -154.329178
v 159.094788 -461.939819 -106.303780
v 81.105812 -490.392670 -54.193253
v 90.120049 490.392639 -37.329182
v 176.776672 461.939758 -73.223511
v 256.639984 415.734802 -106.303978
v 326.640717 353.553375 -135.299194
v 384.088715 277.785095 -159.094864
v 426.776672 191.341690 -176.776886
v 453.063568 97.545143 -187.665115
v 461.939758 0.000010 -191.341766
v 453.063568 -97.545135 -187.665115
v 426.776672 -191.341675 -176.776825
v 384.088715 -277.785095 -159.094803
v 326.640717 -353.553375 -135.299072
v 256.639923 -415.734833 -106.303810
v 176.776627 -461.939819 -73.223328
v 90.119942 -490.392670 -37.328983
v 95.670929 490.392639 -19.030361
v 187.665100 461.939758 -37.329121
v 272.447571 415.734802 -54.193394
v 346.759949 353.553375 -68.974991
v 407.746399 277.785095 -81.105919
v 453.063690 191.341721 -90.120171
v 480.969696 97.545158 -95.670883
v 490.392609 0.000024 -97.545219
v 480.969696 -97.545120 -95.670853
v 453.063690 -191.341644 -90.120110
v 407.746399 -277.785095 -81.105827
v 346.759949 -353.553375 -68.974899
v 272.447510 -415.734833 -54.193249
v 187.665054 -461.939819 -37.328960
v 95.670822 -490.392670 -19.030195
v 97.545227 490.392639 -0.000230
v 191.341690 461.939758 -0.000211
v 277.785095 415.734802 -0.000203
v 353.553345 353.553375 -0.000147
v 415.734619 277.785095 -0.000112
v 461.939728 191.341721 -0.000188
v 490.392426 97.545174 -0.000062
v 499.999908 0.000038 -0.000070
v 490.392426 -97.545105 -0.000034
v 461.939728 -191.341644 -0.000132
v 415.734619 -277.785095 -0.000028
v 353.553345 -353.553375 -0.000039
v 277.785034 -415.734833 -0.000068
v 191.341629 -461.939819 -0.000056
v 97.545128 -490.392670 -0.000084
v 95.670921 490.392639 19.029902
v 187.665100 461.939758 37.328701
v 272.447540 415.734802 54.192982
v 346.759918 353.553375 68.974701
v 407.746338 277.785095 81.105682
v 453.063660 191.341721 90.119789
v 480.969604 97.545189 95.670753
v 490.392517 0.000052 97.545082
v 480.969604 -97.545090 95.670784
v 453.063660 -191.341644 90.119850
v 407.746338 -277.785095 81.105774
v 346.759918 -353.553375 68.974792
v 272.447479 -415.734833 54.193104
v 187.665039 -461.939819 37.328842
v 95.670822 -490.392670 19.030024
v 90.120041 490.392639 37.328709
v 176.776657 461.939758 73.223076
v 256.639923 415.734802 106.303558
v 326.640656 353.553375 135.298859
v 384.088623 277.785095 159.094650
v 426.776642 191.341751 176.776505
v 453.063416 97.545204 187.664978
v 461.939606 0.000066 191.341614
v 453.063416 -97.545074 187.664978
v 426.776642 -191.341614 176.776566
v 384.088623 -277.785095 159.094711
v 326.640656 -353.553375 135.298981
v 256.639862 -415.734833 106.303665
v 176.776596 -461.939819 73.223221
v 90.119942 -490.392670 37.328819
v 81.105888 490.392639 54.192989
v 159.094788 461.939758 106.303528
v 230.969818 415.734802 154.328918
v 293.968842 353.553375 196.423553
v 345.670624 277.785156 230.969666
v 384.088806 191.341751 256.639801
v 407.746277 97.545219 272.447357
v 415.734619 0.000080 277.784973
v 407.746277 -97.545059 272.447357
v 384.088806 -191.341614 256.639801
v 345.670624 -277.785034 230.969727
v 293.968842 -353.553375 196.423676
v 230.969757 -415.734833 154.329025
v 159.094727 -461.939819 106.303658
v 81.105804 -490.392670 54.193077
v 68.974884 490.392639 68.974655
v 135.298965 461.939758 135.298782
v 196.423660 415.734802 196.423508
v 249.999924 353.553436 249.999802
v 293.968658 277.785156 293.968628
v 326.640686 191.341782 326.640533
v 346.759674 97.545219 346.759674
v 353.553162 0.000092 353.553192
v 346.759674 -97.545059 346.759674
v 326.640686 -191.341583 326.640533
v 293.968658 -277.785034 293.968750
v 249.999924 -353.553314 249.999924
v 196.423615 -415.734833 196.423584
v 135.298935 -461.939819 135.298874
v 68.974815 -490.392670 68.974731
v 54.193214 490.392639 81.105652
v 106.303703 461.939758 159.094574
v 154.329056 415.734863 230.969635
v 196.423645 353.553436 293.968689
v 230.969650 277.785156 345.670532
v 256.639923 191.341782 384.088654
v 272.447296 97.545235 407.746216
v 277.784912 0.000100 415.734558
v 272.447296 -97.545044 407.746216
v 256.639923 -191.341583 384.088654
v 230.969650 -277.785034 345.670654
v 196.423645 -353.553314 293.968811
v 154.329025 -415.734772 230.969711
v 106.303688 -461.939819 159.094666
v 54.193161 -490.392670 81.105728
v 37.328930 490.392639 90.119804
v 73.223259 461.939758 176.776443
v 106.303696 415.734863 256.639709
v 135.298935 353.553436 326.640503
v 159.094604 277.785156 384.088470
v 176.776642 191.341782 426.776459
v 187.664902 97.545235 453.063324
v 191.341522 0.000108 461.939453
v 187.664902 -97.545044 453.063324
v 176.776642 -191.341583 426.776459
v 159.094604 -277.785034 384.088593
v 135.298935 -353.553314 326.640625
v 106.303665 -415.734772 256.639771
v 73.223244 -461.939819 176.776535
v 37.328896 -490.392670 90.119865
v 19.030113 490.392639 95.670685
v 37.328869 461.939758 187.664871
v 54.193119 415.734863 272.447266
v 68.974762 353.553436 346.759705
v 81.105659 277.785156 407.746124
v 90.119934 191.341782 453.063477
v 95.670670 97.545250 480.969421
v 97.544991 0.000112 490.392273
v 95.670670 -97.545029 480.969421
v 90.119934 -191.341583 453.063477
v 81.105659 -277.785034 407.746246
v 68.974762 -353.553314 346.759827
v 54.193100 -415.734772 272.447327
v 37.328861 -461.939819 187.664963
v 19.030102 -490.392670 95.670738
v -0.000032 -191.341583 461.939514
v -0.000136 -277.785034 415.734436
v -0.000076 -353.553314 353.553223
v -0.000039 -461.939819 191.341522
v -0.000008 -490.392670 97.545036
vn 0.0392 0.9796 -0.1971
vn -0.0000 0.9217 -0.3879
vn -0.0000 0.9796 -0.2010
vn 0.1951 -0.0000 -0.9808
vn -0.0000 -0.1939 -0.9810
vn -0.0000 -0.0000 -1.0000
vn -0.0000 -0.9796 -0.2010
vn 0.0392 -0.9796 -0.1971
vn -0.0000 -1.0000 -0.0000
vn -0.0000 1.0000 -0.0000
vn 0.1914 0.1939 -0.9622
vn -0.0000 0.1939 -0.9810
vn -0.0000 -0.9217 -0.3879
vn 0.1804 0.3805 -0.9070
vn -0.0000 0.3805 -0.9248
vn -0.0000 -0.8286 -0.5598
vn 0.0757 -0.9217 -0.3804
vn 0.1626 0.5528 -0.8173
vn -0.0000 0.5528 -0.8333
vn 0.1385 -0.7041 -0.6965
vn -0.0000 -0.7041 -0.7101
vn 0.1385 0.7041 -0.6965
vn -0.0000 0.7041 -0.7101
vn 0.1626 -0.5528 -0.8173
vn -0.0000 -0.5528 -0.8333
vn 0.1092 0.8286 -0.5490
vn -0.0000 0.8286 -0.5598
vn -0.0000 -0.3805 -0.9248
vn 0.0757 0.9217 -0.3804
vn 0.1914 -0.1939 -0.9622
vn 0.3539 -0.3805 -0.8544
vn 0.1804 -0.3805 -0.9070
vn 0.1484 0.9217 -0.3584
vn 0.0769 0.9796 -0.1857
vn 0.3827 -0.0000 -0.9239
vn 0.0769 -0.9796 -0.1857
vn 0.3754 0.1939 -0.9063
vn 0.1484 -0.9217 -0.3584
vn 0.2142 -0.8286 -0.5172
vn 0.1092 -0.8286 -0.5490
vn 0.3189 0.5528 -0.7699
vn 0.2718 -0.7041 -0.6561
vn 0.3189 -0.5528 -0.7699
vn 0.2142 0.8286 -0.5172
vn 0.5138 0.3805 -0.7689
vn 0.3539 0.3805 -0.8544
vn 0.3110 -0.8286 -0.4654
vn 0.3945 0.7041 -0.5905
vn 0.2718 0.7041 -0.6561
vn 0.4630 -0.5528 -0.6929
vn 0.3110 0.8286 -0.4654
vn 0.5138 -0.3805 -0.7689
vn 0.2155 0.9217 -0.3225
vn 0.3754 -0.1939 -0.9063
vn 0.1117 0.9796 -0.1671
vn 0.5556 -0.0000 -0.8315
vn 0.1117 -0.9796 -0.1671
vn 0.5450 0.1939 -0.8157
vn 0.2155 -0.9217 -0.3225
vn 0.2743 0.9217 -0.2743
vn 0.6937 -0.1939 -0.6937
vn 0.5450 -0.1939 -0.8157
vn 0.1421 -0.9796 -0.1421
vn 0.1421 0.9796 -0.1421
vn 0.6937 0.1939 -0.6937
vn 0.2743 -0.9217 -0.2743
vn 0.3958 -0.8286 -0.3958
vn 0.4630 0.5528 -0.6929
vn 0.6539 0.3805 -0.6539
vn 0.5021 -0.7041 -0.5021
vn 0.3945 -0.7041 -0.5905
vn 0.5021 0.7041 -0.5021
vn 0.5893 -0.5528 -0.5893
vn 0.3958 0.8286 -0.3958
vn 0.6539 -0.3805 -0.6539
vn 0.5893 0.5528 -0.5893
vn 0.7689 0.3805 -0.5138
vn 0.5905 -0.7041 -0.3945
vn 0.5905 0.7041 -0.3945
vn 0.7689 -0.3805 -0.5138
vn 0.3225 0.9217 -0.2155
vn 0.8157 -0.1939 -0.5450
vn 0.1671 0.9796 -0.1117
vn 0.7071 -0.0000 -0.7071
vn 0.1671 -0.9796 -0.1117
vn 0.8157 0.1939 -0.5450
vn 0.3225 -0.9217 -0.2155
vn 0.4654 -0.8286 -0.3110
vn 0.3584 0.9217 -0.1484
vn 0.9239 -0.0000 -0.3827
vn 0.8315 -0.0000 -0.5556
vn 0.1857 -0.9796 -0.0769
vn 0.1857 0.9796 -0.0769
vn 0.9063 0.1939 -0.3754
vn 0.3584 -0.9217 -0.1484
vn 0.8544 0.3805 -0.3539
vn 0.5172 -0.8286 -0.2142
vn 0.6929 0.5528 -0.4630
vn 0.7699 0.5528 -0.3189
vn 0.7699 -0.5528 -0.3189
vn 0.6929 -0.5528 -0.4630
vn 0.5172 0.8286 -0.2142
vn 0.4654 0.8286 -0.3110
vn 0.8544 -0.3805 -0.3539
vn 0.6561 -0.7041 -0.2718
vn 0.5490 -0.8286 -0.1092
vn 0.6965 0.7041 -0.1385
vn 0.6561 0.7041 -0.2718
vn 0.8173 -0.5528 -0.1626
vn 0.5490 0.8286 -0.1092
vn 0.9070 -0.3805 -0.1804
vn 0.3804 0.9217 -0.0757
vn 0.9063 -0.1939 -0.3754
vn 0.1971 0.9796 -0.0392
vn 0.9808 -0.0000 -0.1951
vn 0.1971 -0.9796 -0.0392
vn 0.9622 0.1939 -0.1914
vn 0.3804 -0.9217 -0.0757
vn 0.9070 0.3805 -0.1804
vn 1.0000 -0.0000 -0.0000
vn 0.9622 -0.1939 -0.1914
vn 0.2010 -0.9796 -0.0000
vn 0.2010 0.9796 -0.0000
vn 0.9810 0.1939 -0.0000
vn 0.3879 -0.9217 -0.0000
vn 0.9248 0.3805 -0.0000
vn 0.5598 -0.8286 -0.0000
vn 0.8173 0.5528 -0.1626
vn 0.7101 -0.7041 -0.0000
vn 0.6965 -0.7041 -0.1385
vn 0.7101 0.7041 -0.0000
vn 0.8333 -0.5528 -0.0000
vn 0.9248 -0.3805 -0.0000
vn 0.5598 0.8286 -0.0000
vn 0.6965 0.7041 0.1385
vn 0.8333 0.5528 -0.0000
vn 0.6965 -0.7041 0.1385
vn 0.5490 0.8286 0.1092
vn 0.9070 -0.3805 0.1804
vn 0.3804 0.9217 0.0757
vn 0.3879 0.9217 -0.0000
vn 0.9810 -0.1939 -0.0000
vn 0.9808 -0.0000 0.1951
vn 0.1971 -0.9796 0.0392
vn 0.1971 0.9796 0.0392
vn 0.9622 0.1939 0.1914
vn 0.3804 -0.9217 0.0757
vn 0.9070 0.3805 0.1804
vn 0.5490 -0.8286 0.1092
vn 0.1857 -0.9796 0.0769
vn 0.1857 0.9796 0.0769
vn 0.9063 0.1939 0.3754
vn 0.3584 -0.9217 0.1484
vn 0.8544 0.3805 0.3539
vn 0.8173 0.5528 0.1626
vn 0.6561 -0.7041 0.2718
vn 0.6561 0.7041 0.2718
vn 0.8173 -0.5528 0.1626
vn 0.5172 0.8286 0.2142
vn 0.8544 -0.3805 0.3539
vn 0.3584 0.9217 0.1484
vn 0.9622 -0.1939 0.1914
vn 0.9239 -0.0000 0.3827
vn 0.7699 -0.5528 0.3189
vn 0.5905 -0.7041 0.3945
vn 0.5905 0.7041 0.3945
vn 0.7689 -0.3805 0.5138
vn 0.3225 0.9217 0.2155
vn 0.9063 -0.1939 0.3754
vn 0.8315 -0.0000 0.5556
vn 0.1671 -0.9796 0.1117
vn 0.1671 0.9796 0.1117
vn 0.3225 -0.9217 0.2155
vn 0.7689 0.3805 0.5138
vn 0.4654 -0.8286 0.3110
vn 0.5172 -0.8286 0.2142
vn 0.7699 0.5528 0.3189
vn 0.6937 0.1939 0.6937
vn 0.8157 0.1939 0.5450
vn 0.2743 -0.9217 0.2743
vn 0.6539 0.3805 0.6539
vn 0.6929 0.5528 0.4630
vn 0.5021 -0.7041 0.5021
vn 0.5021 0.7041 0.5021
vn 0.5893 -0.5528 0.5893
vn 0.6929 -0.5528 0.4630
vn 0.4654 0.8286 0.3110
vn 0.6539 -0.3805 0.6539
vn 0.2743 0.9217 0.2743
vn 0.8157 -0.1939 0.5450
vn 0.1421 0.9796 0.1421
vn 0.7071 -0.0000 0.7071
vn 0.1421 -0.9796 0.1421
vn 0.3958 0.8286 0.3958
vn 0.3945 0.7041 0.5905
vn 0.5138 -0.3805 0.7689
vn 0.3110 0.8286 0.4654
vn 0.6937 -0.1939 0.6937
vn 0.2155 0.9217 0.3225
vn 0.5556 -0.0000 0.8315
vn 0.1117 -0.9796 0.1671
vn 0.1117 0.9796 0.1671
vn 0.2155 -0.9217 0.3225
vn 0.5138 0.3805 0.7689
vn 0.3110 -0.8286 0.4654
vn 0.3958 -0.8286 0.3958
vn 0.5893 0.5528 0.5893
vn 0.3945 -0.7041 0.5905
vn 0.3539 0.3805 0.8544
vn 0.5450 0.1939 0.8157
vn 0.2142 -0.8286 0.5172
vn 0.4630 0.5528 0.6929
vn 0.2718 -0.7041 0.6561
vn 0.2718 0.7041 0.6561
vn 0.3189 -0.5528 0.7699
vn 0.4630 -0.5528 0.6929
vn 0.2142 0.8286 0.5172
vn 0.3539 -0.3805 0.8544
vn 0.5450 -0.1939 0.8157
vn 0.0769 0.9796 0.1857
vn 0.3827 -0.0000 0.9239
vn 0.0769 -0.9796 0.1857
vn 0.3754 0.1939 0.9063
vn 0.1484 -0.9217 0.3584
vn 0.0757 0.9217 0.3804
vn 0.1484 0.9217 0.3584
vn 0.3754 -0.1939 0.9063
vn 0.1804 -0.3805 0.9070
vn 0.0392 0.9796 0.1971
vn 0.1951 -0.0000 0.9808
vn 0.0392 -0.9796 0.1971
vn 0.1914 0.1939 0.9622
vn 0.0757 -0.9217 0.3804
vn 0.1804 0.3805 0.9070
vn 0.1092 -0.8286 0.5490
vn 0.3189 0.5528 0.7699
vn 0.1385 0.7041 0.6965
vn 0.1626 -0.5528 0.8173
vn 0.1092 0.8286 0.5490
vn -0.0000 -0.8286 0.5598
vn 0.1626 0.5528 0.8173
vn -0.0000 0.3805 0.9248
vn 0.1385 -0.7041 0.6965
vn -0.0000 0.7041 0.7101
vn -0.0000 -0.7041 0.7101
vn -0.0000 -0.3805 0.9248
vn -0.0000 0.8286 0.5598
vn 0.1914 -0.1939 0.9622
vn -0.0000 0.9217 0.3879
vn -0.0000 -0.0000 1.0000
vn -0.0000 -0.9796 0.2010
vn -0.0000 0.9796 0.2010
vn -0.0000 0.1939 0.9810
vn -0.0000 -0.9217 0.3879
vn -0.0000 -0.1939 0.9810
vn -0.1804 -0.3805 0.9070
vn -0.0757 0.9217 0.3804
vn -0.1951 -0.0000 0.9808
vn -0.0392 -0.9796 0.1971
vn -0.0392 0.9796 0.1971
vn -0.1914 0.1939 0.9622
vn -0.0757 -0.9217 0.3804
vn -0.1804 0.3805 0.9070
vn -0.1092 -0.8286 0.5490
vn -0.0000 0.5528 0.8333
vn -0.1385 0.7041 0.6965
vn -0.0000 -0.5528 0.8333
vn -0.1385 -0.7041 0.6965
vn -0.1092 0.8286 0.5490
vn -0.1626 0.5528 0.8173
vn -0.3539 0.3805 0.8544
vn -0.2142 -0.8286 0.5172
vn -0.2718 0.7041 0.6561
vn -0.3189 -0.5528 0.7699
vn -0.1626 -0.5528 0.8173
vn -0.2142 0.8286 0.5172
vn -0.3539 -0.3805 0.8544
vn -0.1484 0.9217 0.3584
vn -0.1914 -0.1939 0.9622
vn -0.0769 0.9796 0.1857
vn -0.3754 -0.1939 0.9063
vn -0.0769 -0.9796 0.1857
vn -0.3754 0.1939 0.9063
vn -0.1484 -0.9217 0.3584
vn -0.2155 0.9217 0.3225
vn -0.5556 -0.0000 0.8315
vn -0.3827 -0.0000 0.9239
vn -0.1117 -0.9796 0.1671
vn -0.1117 0.9796 0.1671
vn -0.5450 0.1939 0.8157
vn -0.2155 -0.9217 0.3225
vn -0.5138 0.3805 0.7689
vn -0.3110 -0.8286 0.4654
vn -0.3189 0.5528 0.7699
vn -0.3945 -0.7041 0.5905
vn -0.2718 -0.7041 0.6561
vn -0.3945 0.7041 0.5905
vn -0.5138 -0.3805 0.7689
vn -0.3958 -0.8286 0.3958
vn -0.5021 0.7041 0.5021
vn -0.4630 0.5528 0.6929
vn -0.4630 -0.5528 0.6929
vn -0.5021 -0.7041 0.5021
vn -0.3958 0.8286 0.3958
vn -0.3110 0.8286 0.4654
vn -0.6539 -0.3805 0.6539
vn -0.5450 -0.1939 0.8157
vn -0.1421 0.9796 0.1421
vn -0.6937 -0.1939 0.6937
vn -0.1421 -0.9796 0.1421
vn -0.6937 0.1939 0.6937
vn -0.2743 -0.9217 0.2743
vn -0.6539 0.3805 0.6539
vn -0.8315 -0.0000 0.5556
vn -0.7071 -0.0000 0.7071
vn -0.1671 -0.9796 0.1117
vn -0.1671 0.9796 0.1117
vn -0.8157 0.1939 0.5450
vn -0.7689 0.3805 0.5138
vn -0.4654 -0.8286 0.3110
vn -0.5893 0.5528 0.5893
vn -0.5905 0.7041 0.3945
vn -0.5893 -0.5528 0.5893
vn -0.5905 -0.7041 0.3945
vn -0.4654 0.8286 0.3110
vn -0.7689 -0.3805 0.5138
vn -0.2743 0.9217 0.2743
vn -0.6561 0.7041 0.2718
vn -0.6929 0.5528 0.4630
vn -0.6929 -0.5528 0.4630
vn -0.6561 -0.7041 0.2718
vn -0.5172 0.8286 0.2142
vn -0.8544 -0.3805 0.3539
vn -0.3225 0.9217 0.2155
vn -0.8157 -0.1939 0.5450
vn -0.1857 0.9796 0.0769
vn -0.9239 -0.0000 0.3827
vn -0.1857 -0.9796 0.0769
vn -0.9063 0.1939 0.3754
vn -0.3584 -0.9217 0.1484
vn -0.3225 -0.9217 0.2155
vn -0.8544 0.3805 0.3539
vn -0.5172 -0.8286 0.2142
vn -0.1971 0.9796 0.0392
vn -0.9808 -0.0000 0.1951
vn -0.1971 -0.9796 0.0392
vn -0.9070 0.3805 0.1804
vn -0.5490 -0.8286 0.1092
vn -0.7699 0.5528 0.3189
vn -0.6965 0.7041 0.1385
vn -0.7699 -0.5528 0.3189
vn -0.6965 -0.7041 0.1385
vn -0.5490 0.8286 0.1092
vn -0.9070 -0.3805 0.1804
vn -0.3804 0.9217 0.0757
vn -0.3584 0.9217 0.1484
vn -0.9063 -0.1939 0.3754
vn -0.5598 0.8286 -0.0000
vn -0.9248 -0.3805 -0.0000
vn -0.8173 -0.5528 0.1626
vn -0.9622 -0.1939 0.1914
vn -0.2010 0.9796 -0.0000
vn -1.0000 -0.0000 -0.0000
vn -0.2010 -0.9796 -0.0000
vn -0.9622 0.1939 0.1914
vn -0.3804 -0.9217 0.0757
vn -0.9248 0.3805 -0.0000
vn -0.5598 -0.8286 -0.0000
vn -0.8173 0.5528 0.1626
vn -0.7101 -0.7041 -0.0000
vn -0.8333 0.5528 -0.0000
vn -0.8333 -0.5528 -0.0000
vn -0.3879 -0.9217 -0.0000
vn -0.1971 -0.9796 -0.0392
vn -0.9070 0.3805 -0.1804
vn -0.9810 0.1939 -0.0000
vn -0.5490 -0.8286 -0.1092
vn -0.6965 -0.7041 -0.1385
vn -0.7101 0.7041 -0.0000
vn -0.8173 0.5528 -0.1626
vn -0.8173 -0.5528 -0.1626
vn -0.5490 0.8286 -0.1092
vn -0.9070 -0.3805 -0.1804
vn -0.3804 0.9217 -0.0757
vn -0.3879 0.9217 -0.0000
vn -0.9810 -0.1939 -0.0000
vn -0.1971 0.9796 -0.0392
vn -0.9808 -0.0000 -0.1951
vn -0.8544 -0.3805 -0.3539
vn -0.3584 0.9217 -0.1484
vn -0.9622 -0.1939 -0.1914
vn -0.1857 0.9796 -0.0769
vn -0.9239 -0.0000 -0.3827
vn -0.1857 -0.9796 -0.0769
vn -0.9063 0.1939 -0.3754
vn -0.9622 0.1939 -0.1914
vn -0.3584 -0.9217 -0.1484
vn -0.3804 -0.9217 -0.0757
vn -0.8544 0.3805 -0.3539
vn -0.5172 -0.8286 -0.2142
vn -0.6561 -0.7041 -0.2718
vn -0.6561 0.7041 -0.2718
vn -0.6965 0.7041 -0.1385
vn -0.7699 -0.5528 -0.3189
vn -0.5172 0.8286 -0.2142
vn -0.7689 0.3805 -0.5138
vn -0.4654 -0.8286 -0.3110
vn -0.7699 0.5528 -0.3189
vn -0.5905 0.7041 -0.3945
vn -0.5905 -0.7041 -0.3945
vn -0.7689 -0.3805 -0.5138
vn -0.3225 0.9217 -0.2155
vn -0.9063 -0.1939 -0.3754
vn -0.1671 0.9796 -0.1117
vn -0.8315 -0.0000 -0.5556
vn -0.1671 -0.9796 -0.1117
vn -0.3225 -0.9217 -0.2155
vn -0.2743 0.9217 -0.2743
vn -0.4654 0.8286 -0.3110
vn -0.8157 -0.1939 -0.5450
vn -0.6539 -0.3805 -0.6539
vn -0.1421 0.9796 -0.1421
vn -0.7071 -0.0000 -0.7071
vn -0.1421 -0.9796 -0.1421
vn -0.8157 0.1939 -0.5450
vn -0.2743 -0.9217 -0.2743
vn -0.6539 0.3805 -0.6539
vn -0.3958 -0.8286 -0.3958
vn -0.6929 0.5528 -0.4630
vn -0.5021 0.7041 -0.5021
vn -0.6929 -0.5528 -0.4630
vn -0.5021 -0.7041 -0.5021
vn -0.3958 0.8286 -0.3958
vn -0.3110 -0.8286 -0.4654
vn -0.5893 0.5528 -0.5893
vn -0.5138 0.3805 -0.7689
vn -0.3945 -0.7041 -0.5905
vn -0.3945 0.7041 -0.5905
vn -0.5893 -0.5528 -0.5893
vn -0.5138 -0.3805 -0.7689
vn -0.2155 0.9217 -0.3225
vn -0.6937 -0.1939 -0.6937
vn -0.1117 0.9796 -0.1671
vn -0.5556 -0.0000 -0.8315
vn -0.1117 -0.9796 -0.1671
vn -0.5450 0.1939 -0.8157
vn -0.6937 0.1939 -0.6937
vn -0.2155 -0.9217 -0.3225
vn -0.5450 -0.1939 -0.8157
vn -0.3539 -0.3805 -0.8544
vn -0.0769 0.9796 -0.1857
vn -0.3827 -0.0000 -0.9239
vn -0.0769 -0.9796 -0.1857
vn -0.3754 0.1939 -0.9063
vn -0.3539 0.3805 -0.8544
vn -0.2142 -0.8286 -0.5172
vn -0.4630 0.5528 -0.6929
vn -0.2718 -0.7041 -0.6561
vn -0.2718 0.7041 -0.6561
vn -0.4630 -0.5528 -0.6929
vn -0.2142 0.8286 -0.5172
vn -0.3110 0.8286 -0.4654
vn -0.3189 0.5528 -0.7699
vn -0.1804 0.3805 -0.9070
vn -0.1385 -0.7041 -0.6965
vn -0.1385 0.7041 -0.6965
vn -0.3189 -0.5528 -0.7699
vn -0.1092 0.8286 -0.5490
vn -0.1804 -0.3805 -0.9070
vn -0.0757 0.9217 -0.3804
vn -0.1484 0.9217 -0.3584
vn -0.3754 -0.1939 -0.9063
vn -0.0392 0.9796 -0.1971
vn -0.1951 -0.0000 -0.9808
vn -0.0392 -0.9796 -0.1971
vn -0.1914 0.1939 -0.9622
vn -0.0757 -0.9217 -0.3804
vn -0.1484 -0.9217 -0.3584
vn -0.1092 -0.8286 -0.5490
vn -0.1914 -0.1939 -0.9622
vn -0.1626 0.5528 -0.8173
vn -0.1626 -0.5528 -0.8173
vt 0.718750 0.062500
vt 0.750000 0.125000
vt 0.750000 0.062500
vt 0.718750 0.500000
vt 0.750000 0.562500
vt 0.750000 0.500000
vt 0.750000 0.937500
vt 0.718750 0.937500
vt 0.734375 1.000000
vt 0.734375 0.000000
vt 0.718750 0.437500
vt 0.750000 0.437500
vt 0.750000 0.875000
vt 0.718750 0.375000
vt 0.750000 0.375000
vt 0.750000 0.812500
vt 0.718750 0.875000
vt 0.718750 0.312500
vt 0.750000 0.312500
vt 0.718750 0.750000
vt 0.750000 0.750000
vt 0.718750 0.250000
vt 0.750000 0.250000
vt 0.718750 0.687500
vt 0.750000 0.687500
vt 0.718750 0.187500
vt 0.750000 0.187500
vt 0.750000 0.625000
vt 0.718750 0.125000
vt 0.718750 0.562500
vt 0.687500 0.625000
vt 0.718750 0.625000
vt 0.687500 0.125000
vt 0.687500 0.062500
vt 0.687500 0.500000
vt 0.687500 0.937500
vt 0.703125 1.000000
vt 0.703125 0.000000
vt 0.687500 0.437500
vt 0.687500 0.875000
vt 0.687500 0.812500
vt 0.718750 0.812500
vt 0.687500 0.312500
vt 0.687500 0.750000
vt 0.687500 0.687500
vt 0.687500 0.187500
vt 0.656250 0.375000
vt 0.687500 0.375000
vt 0.656250 0.812500
vt 0.656250 0.250000
vt 0.687500 0.250000
vt 0.656250 0.687500
vt 0.656250 0.187500
vt 0.656250 0.625000
vt 0.656250 0.125000
vt 0.687500 0.562500
vt 0.656250 0.062500
vt 0.656250 0.500000
vt 0.656250 0.937500
vt 0.671875 1.000000
vt 0.671875 0.000000
vt 0.656250 0.437500
vt 0.656250 0.875000
vt 0.625000 0.125000
vt 0.625000 0.562500
vt 0.656250 0.562500
vt 0.625000 0.937500
vt 0.640625 1.000000
vt 0.640625 0.000000
vt 0.625000 0.062500
vt 0.625000 0.437500
vt 0.625000 0.875000
vt 0.625000 0.812500
vt 0.656250 0.312500
vt 0.625000 0.375000
vt 0.625000 0.750000
vt 0.656250 0.750000
vt 0.625000 0.250000
vt 0.625000 0.687500
vt 0.625000 0.187500
vt 0.625000 0.625000
vt 0.625000 0.312500
vt 0.593750 0.375000
vt 0.593750 0.750000
vt 0.593750 0.250000
vt 0.593750 0.625000
vt 0.593750 0.125000
vt 0.593750 0.562500
vt 0.593750 0.062500
vt 0.625000 0.500000
vt 0.593750 0.937500
vt 0.609375 1.000000
vt 0.609375 0.000000
vt 0.593750 0.437500
vt 0.593750 0.875000
vt 0.593750 0.812500
vt 0.562500 0.125000
vt 0.562500 0.500000
vt 0.593750 0.500000
vt 0.562500 0.937500
vt 0.578125 1.000000
vt 0.578125 0.000000
vt 0.562500 0.062500
vt 0.562500 0.437500
vt 0.562500 0.875000
vt 0.562500 0.375000
vt 0.562500 0.812500
vt 0.593750 0.312500
vt 0.562500 0.312500
vt 0.562500 0.687500
vt 0.593750 0.687500
vt 0.562500 0.187500
vt 0.593750 0.187500
vt 0.562500 0.625000
vt 0.562500 0.750000
vt 0.531250 0.812500
vt 0.531250 0.250000
vt 0.562500 0.250000
vt 0.531250 0.687500
vt 0.531250 0.187500
vt 0.531250 0.625000
vt 0.531250 0.125000
vt 0.562500 0.562500
vt 0.531250 0.062500
vt 0.531250 0.500000
vt 0.531250 0.937500
vt 0.546875 1.000000
vt 0.546875 0.000000
vt 0.531250 0.437500
vt 0.531250 0.875000
vt 0.531250 0.375000
vt 0.500000 0.500000
vt 0.531250 0.562500
vt 0.500000 0.937500
vt 0.515625 1.000000
vt 0.515625 0.000000
vt 0.500000 0.062500
vt 0.500000 0.437500
vt 0.500000 0.875000
vt 0.500000 0.375000
vt 0.500000 0.812500
vt 0.531250 0.312500
vt 0.500000 0.750000
vt 0.531250 0.750000
vt 0.500000 0.250000
vt 0.500000 0.687500
vt 0.500000 0.625000
vt 0.500000 0.187500
vt 0.468750 0.250000
vt 0.500000 0.312500
vt 0.468750 0.750000
vt 0.468750 0.187500
vt 0.468750 0.625000
vt 0.468750 0.125000
vt 0.500000 0.125000
vt 0.500000 0.562500
vt 0.468750 0.500000
vt 0.468750 0.937500
vt 0.484374 1.000000
vt 0.484375 0.000000
vt 0.468750 0.062500
vt 0.468750 0.437500
vt 0.468750 0.875000
vt 0.468750 0.375000
vt 0.468750 0.812500
vt 0.437500 0.937500
vt 0.453124 1.000000
vt 0.453125 0.000000
vt 0.437500 0.062500
vt 0.437500 0.437500
vt 0.437500 0.875000
vt 0.437500 0.375000
vt 0.468750 0.312500
vt 0.437500 0.750000
vt 0.437500 0.250000
vt 0.468750 0.687500
vt 0.437500 0.187500
vt 0.437500 0.625000
vt 0.437500 0.125000
vt 0.468750 0.562500
vt 0.437500 0.500000
vt 0.437500 0.687500
vt 0.406250 0.750000
vt 0.406250 0.250000
vt 0.406250 0.625000
vt 0.406250 0.125000
vt 0.437500 0.562500
vt 0.406250 0.500000
vt 0.406250 0.937500
vt 0.421874 1.000000
vt 0.421875 0.000000
vt 0.406250 0.062500
vt 0.406250 0.875000
vt 0.406250 0.375000
vt 0.406250 0.812500
vt 0.437500 0.812500
vt 0.437500 0.312500
vt 0.375000 0.437500
vt 0.406250 0.437500
vt 0.375000 0.875000
vt 0.375000 0.375000
vt 0.406250 0.312500
vt 0.375000 0.750000
vt 0.375000 0.250000
vt 0.375000 0.687500
vt 0.406250 0.687500
vt 0.406250 0.187500
vt 0.375000 0.625000
vt 0.375000 0.125000
vt 0.406250 0.562500
vt 0.375000 0.062500
vt 0.375000 0.500000
vt 0.375000 0.937500
vt 0.390625 1.000000
vt 0.390625 0.000000
vt 0.375000 0.187500
vt 0.343750 0.250000
vt 0.343750 0.625000
vt 0.343750 0.187500
vt 0.375000 0.562500
vt 0.343750 0.125000
vt 0.343750 0.500000
vt 0.343750 0.937500
vt 0.359375 1.000000
vt 0.359375 0.000000
vt 0.343750 0.062500
vt 0.343750 0.875000
vt 0.343750 0.375000
vt 0.343750 0.812500
vt 0.375000 0.812500
vt 0.375000 0.312500
vt 0.343750 0.750000
vt 0.312500 0.375000
vt 0.343750 0.437500
vt 0.312500 0.812500
vt 0.343750 0.312500
vt 0.312500 0.750000
vt 0.312500 0.250000
vt 0.312500 0.687500
vt 0.343750 0.687500
vt 0.312500 0.187500
vt 0.312500 0.625000
vt 0.343750 0.562500
vt 0.312500 0.062500
vt 0.312500 0.500000
vt 0.312500 0.937500
vt 0.328125 1.000000
vt 0.328125 0.000000
vt 0.312500 0.437500
vt 0.312500 0.875000
vt 0.281250 0.125000
vt 0.312500 0.125000
vt 0.312500 0.562500
vt 0.281250 0.625000
vt 0.281250 0.062500
vt 0.281250 0.500000
vt 0.281250 0.937500
vt 0.296875 1.000000
vt 0.296875 0.000000
vt 0.281250 0.437500
vt 0.281250 0.875000
vt 0.281250 0.375000
vt 0.281250 0.812500
vt 0.312500 0.312500
vt 0.281250 0.250000
vt 0.281250 0.687500
vt 0.281250 0.187500
vt 0.250000 0.812500
vt 0.281250 0.312500
vt 0.250000 0.375000
vt 0.281250 0.750000
vt 0.250000 0.250000
vt 0.250000 0.750000
vt 0.250000 0.625000
vt 0.250000 0.187500
vt 0.281250 0.562500
vt 0.250000 0.125000
vt 0.250000 0.500000
vt 0.250000 0.937500
vt 0.265625 1.000000
vt 0.265625 0.000000
vt 0.250000 0.062500
vt 0.250000 0.437500
vt 0.250000 0.875000
vt 0.250000 0.562500
vt 0.218750 0.625000
vt 0.218750 0.125000
vt 0.218750 0.500000
vt 0.218750 0.937500
vt 0.234375 1.000000
vt 0.234375 0.000000
vt 0.218750 0.062500
vt 0.218750 0.437500
vt 0.218750 0.875000
vt 0.218750 0.375000
vt 0.218750 0.812500
vt 0.250000 0.312500
vt 0.218750 0.250000
vt 0.250000 0.687500
vt 0.218750 0.750000
vt 0.218750 0.187500
vt 0.218750 0.312500
vt 0.187500 0.375000
vt 0.187500 0.812500
vt 0.187500 0.250000
vt 0.187500 0.687500
vt 0.218750 0.687500
vt 0.187500 0.187500
vt 0.187500 0.625000
vt 0.187500 0.125000
vt 0.218750 0.562500
vt 0.187500 0.062500
vt 0.187500 0.562500
vt 0.187500 0.937500
vt 0.203125 1.000000
vt 0.203125 0.000000
vt 0.187500 0.437500
vt 0.187500 0.875000
vt 0.156250 0.125000
vt 0.156250 0.500000
vt 0.187500 0.500000
vt 0.156250 0.937500
vt 0.171875 1.000000
vt 0.171875 0.000000
vt 0.156250 0.062500
vt 0.156250 0.437500
vt 0.156250 0.875000
vt 0.156250 0.375000
vt 0.156250 0.812500
vt 0.187500 0.312500
vt 0.156250 0.750000
vt 0.187500 0.750000
vt 0.156250 0.250000
vt 0.156250 0.625000
vt 0.125000 0.812500
vt 0.125000 0.250000
vt 0.156250 0.312500
vt 0.156250 0.687500
vt 0.125000 0.750000
vt 0.125000 0.187500
vt 0.156250 0.187500
vt 0.125000 0.625000
vt 0.156250 0.562500
vt 0.125000 0.062500
vt 0.125000 0.562500
vt 0.125000 0.937500
vt 0.140625 1.000000
vt 0.140625 0.000000
vt 0.125000 0.437500
vt 0.125000 0.875000
vt 0.125000 0.375000
vt 0.093750 0.500000
vt 0.125000 0.500000
vt 0.093750 0.937500
vt 0.109375 1.000000
vt 0.109375 0.000000
vt 0.093750 0.062500
vt 0.093750 0.437500
vt 0.093750 0.375000
vt 0.093750 0.812500
vt 0.125000 0.312500
vt 0.093750 0.250000
vt 0.125000 0.687500
vt 0.093750 0.750000
vt 0.093750 0.187500
vt 0.093750 0.625000
vt 0.125000 0.125000
vt 0.062500 0.250000
vt 0.093750 0.312500
vt 0.093750 0.687500
vt 0.062500 0.750000
vt 0.062500 0.187500
vt 0.062500 0.625000
vt 0.093750 0.125000
vt 0.093750 0.562500
vt 0.062500 0.062500
vt 0.062500 0.500000
vt 0.062500 0.937500
vt 0.078125 1.000000
vt 0.078125 0.000000
vt 0.062500 0.437500
vt 0.062500 0.875000
vt 0.093750 0.875000
vt 0.062500 0.375000
vt 0.062500 0.812500
vt 0.046875 0.000000
vt 0.031250 0.062500
vt 0.031250 0.500000
vt 0.031250 0.937500
vt 0.031250 0.375000
vt 0.031250 0.812500
vt 0.062500 0.312500
vt 0.031250 0.250000
vt 0.062500 0.687500
vt 0.031250 0.750000
vt 0.031250 0.187500
vt 0.031250 0.625000
vt 0.031250 0.125000
vt 0.062500 0.125000
vt 0.062500 0.562500
vt 0.046875 1.000000
vt 0.000000 0.187500
vt 0.000000 0.625000
vt 0.031250 0.687500
vt 0.031250 0.562500
vt 0.000000 0.062500
vt 0.000000 0.500000
vt 0.000000 0.937500
vt 0.015625 1.000000
vt 0.015625 0.000000
vt 0.031250 0.437500
vt 0.031250 0.875000
vt 0.000000 0.375000
vt 0.000000 0.812500
vt 0.031250 0.312500
vt 0.000000 0.750000
vt 0.000000 0.312500
vt 0.000000 0.687500
vt 1.000000 0.875000
vt 0.968750 0.937500
vt 1.000000 0.937500
vt 0.968750 0.375000
vt 1.000000 0.437500
vt 1.000000 0.375000
vt 0.968750 0.812500
vt 1.000000 0.812500
vt 1.000000 0.312500
vt 0.968750 0.750000
vt 1.000000 0.750000
vt 1.000000 0.250000
vt 0.968750 0.312500
vt 0.968750 0.687500
vt 1.000000 0.687500
vt 0.968750 0.187500
vt 1.000000 0.187500
vt 0.968750 0.625000
vt 1.000000 0.625000
vt 0.968750 0.125000
vt 1.000000 0.125000
vt 1.000000 0.562500
vt 0.968750 0.062500
vt 1.000000 0.062500
vt 0.968750 0.500000
vt 1.000000 0.500000
vt 0.984375 1.000000
vt 0.984375 0.000000
vt 0.937500 0.625000
vt 0.937500 0.125000
vt 0.968750 0.562500
vt 0.937500 0.062500
vt 0.937500 0.500000
vt 0.937500 0.937500
vt 0.953125 1.000000
vt 0.953125 0.000000
vt 0.937500 0.437500
vt 0.968750 0.437500
vt 0.937500 0.875000
vt 0.968750 0.875000
vt 0.937500 0.375000
vt 0.937500 0.812500
vt 0.937500 0.750000
vt 0.937500 0.250000
vt 0.968750 0.250000
vt 0.937500 0.687500
vt 0.937500 0.187500
vt 0.906250 0.375000
vt 0.906250 0.812500
vt 0.937500 0.312500
vt 0.906250 0.250000
vt 0.906250 0.750000
vt 0.906250 0.625000
vt 0.906250 0.125000
vt 0.937500 0.562500
vt 0.906250 0.062500
vt 0.906250 0.500000
vt 0.906250 0.937500
vt 0.921875 1.000000
vt 0.921875 0.000000
vt 0.906250 0.875000
vt 0.875000 0.125000
vt 0.906250 0.187500
vt 0.906250 0.562500
vt 0.875000 0.625000
vt 0.875000 0.062500
vt 0.875000 0.500000
vt 0.875000 0.937500
vt 0.890625 1.000000
vt 0.890625 0.000000
vt 0.906250 0.437500
vt 0.875000 0.875000
vt 0.875000 0.375000
vt 0.875000 0.812500
vt 0.906250 0.312500
vt 0.875000 0.250000
vt 0.906250 0.687500
vt 0.875000 0.750000
vt 0.875000 0.187500
vt 0.843750 0.812500
vt 0.875000 0.312500
vt 0.843750 0.375000
vt 0.843750 0.750000
vt 0.843750 0.250000
vt 0.875000 0.687500
vt 0.843750 0.625000
vt 0.843750 0.125000
vt 0.875000 0.562500
vt 0.843750 0.062500
vt 0.843750 0.500000
vt 0.843750 0.937500
vt 0.859375 1.000000
vt 0.859375 0.000000
vt 0.843750 0.437500
vt 0.875000 0.437500
vt 0.843750 0.875000
vt 0.843750 0.562500
vt 0.812500 0.625000
vt 0.812500 0.062500
vt 0.812500 0.500000
vt 0.812500 0.937500
vt 0.828125 1.000000
vt 0.828125 0.000000
vt 0.812500 0.437500
vt 0.812500 0.375000
vt 0.812500 0.812500
vt 0.843750 0.312500
vt 0.812500 0.750000
vt 0.812500 0.250000
vt 0.843750 0.687500
vt 0.812500 0.187500
vt 0.843750 0.187500
vt 0.812500 0.312500
vt 0.781250 0.375000
vt 0.781250 0.750000
vt 0.781250 0.250000
vt 0.812500 0.687500
vt 0.781250 0.187500
vt 0.781250 0.625000
vt 0.781250 0.125000
vt 0.812500 0.125000
vt 0.812500 0.562500
vt 0.781250 0.062500
vt 0.781250 0.500000
vt 0.781250 0.937500
vt 0.796875 1.000000
vt 0.796875 0.000000
vt 0.781250 0.437500
vt 0.781250 0.875000
vt 0.812500 0.875000
vt 0.781250 0.812500
vt 0.781250 0.562500
vt 0.765625 1.000000
vt 0.765625 0.000000
vt 0.781250 0.312500
vt 0.781250 0.687500
vt 0.000000 0.250000
vt 0.000000 0.125000
vt 0.000000 0.562500
vt 0.000000 0.437500
vt 0.000000 0.875000
s 1
usemtl マテリアル.002
f 25/1/1 481/2/2 482/3/3
f 18/4/4 7/5/5 8/6/6
f 1/7/7 11/8/8 297/9/9
f 206/10/10 25/1/1 482/3/3
f 19/11/11 8/6/6 9/12/12
f 2/13/13 11/8/8 1/7/7
f 20/14/14 9/12/12 478/15/15
f 3/16/16 12/17/17 2/13/13
f 21/18/18 478/15/15 479/19/19
f 14/20/20 3/16/16 4/21/21
f 22/22/22 479/19/19 480/23/23
f 15/24/24 4/21/21 5/25/25
f 23/26/26 480/23/23 10/27/27
f 6/28/28 15/24/24 5/25/25
f 24/29/29 10/27/27 481/2/2
f 17/30/30 6/28/28 7/5/5
f 31/31/31 15/24/24 16/32/32
f 39/33/33 23/26/26 24/29/29
f 17/30/30 31/31/31 16/32/32
f 40/34/34 24/29/29 25/1/1
f 33/35/35 17/30/30 18/4/4
f 11/8/8 26/36/36 297/37/9
f 206/38/10 40/34/34 25/1/1
f 34/39/37 18/4/4 19/11/11
f 27/40/38 11/8/8 12/17/17
f 20/14/14 34/39/37 19/11/11
f 28/41/39 12/17/17 13/42/40
f 36/43/41 20/14/14 21/18/18
f 29/44/42 13/42/40 14/20/20
f 22/22/22 36/43/41 21/18/18
f 30/45/43 14/20/20 15/24/24
f 38/46/44 22/22/22 23/26/26
f 50/47/45 34/39/37 35/48/46
f 43/49/47 27/40/38 28/41/39
f 36/43/41 50/47/45 35/48/46
f 29/44/42 43/49/47 28/41/39
f 52/50/48 36/43/41 37/51/49
f 45/52/50 29/44/42 30/45/43
f 53/53/51 37/51/49 38/46/44
f 46/54/52 30/45/43 31/31/31
f 54/55/53 38/46/44 39/33/33
f 32/56/54 46/54/52 31/31/31
f 55/57/55 39/33/33 40/34/34
f 48/58/56 32/56/54 33/35/35
f 26/36/36 41/59/57 297/60/9
f 206/61/10 55/57/55 40/34/34
f 49/62/58 33/35/35 34/39/37
f 42/63/59 26/36/36 27/40/38
f 69/64/60 53/53/51 54/55/53
f 62/65/61 46/54/52 47/66/62
f 55/57/55 69/64/60 54/55/53
f 48/58/56 62/65/61 47/66/62
f 41/59/57 56/67/63 297/68/9
f 206/69/10 70/70/64 55/57/55
f 64/71/65 48/58/56 49/62/58
f 57/72/66 41/59/57 42/63/59
f 50/47/45 64/71/65 49/62/58
f 58/73/67 42/63/59 43/49/47
f 51/74/68 65/75/69 50/47/45
f 59/76/70 43/49/47 44/77/71
f 67/78/72 51/74/68 52/50/48
f 60/79/73 44/77/71 45/52/50
f 68/80/74 52/50/48 53/53/51
f 61/81/75 45/52/50 46/54/52
f 66/82/76 80/83/77 65/75/69
f 74/84/78 58/73/67 59/76/70
f 82/85/79 66/82/76 67/78/72
f 60/79/73 74/84/78 59/76/70
f 68/80/74 82/85/79 67/78/72
f 76/86/80 60/79/73 61/81/75
f 84/87/81 68/80/74 69/64/60
f 77/88/82 61/81/75 62/65/61
f 85/89/83 69/64/60 70/70/64
f 63/90/84 77/88/82 62/65/61
f 56/67/63 71/91/85 297/92/9
f 206/93/10 85/89/83 70/70/64
f 79/94/86 63/90/84 64/71/65
f 72/95/87 56/67/63 57/72/66
f 80/83/77 64/71/65 65/75/69
f 73/96/88 57/72/66 58/73/67
f 85/89/83 99/97/89 84/87/81
f 93/98/90 77/88/82 78/99/91
f 71/91/85 86/100/92 297/101/9
f 206/102/10 100/103/93 85/89/83
f 94/104/94 78/99/91 79/94/86
f 87/105/95 71/91/85 72/95/87
f 95/106/96 79/94/86 80/83/77
f 88/107/97 72/95/87 73/96/88
f 81/108/98 95/106/96 80/83/77
f 74/84/78 88/107/97 73/96/88
f 82/85/79 96/109/99 81/108/98
f 90/110/100 74/84/78 75/111/101
f 98/112/102 82/85/79 83/113/103
f 91/114/104 75/111/101 76/86/80
f 99/97/89 83/113/103 84/87/81
f 77/88/82 91/114/104 76/86/80
f 89/115/105 103/116/106 88/107/97
f 112/117/107 96/109/99 97/118/108
f 105/119/109 89/115/105 90/110/100
f 113/120/110 97/118/108 98/112/102
f 106/121/111 90/110/100 91/114/104
f 114/122/112 98/112/102 99/97/89
f 92/123/113 106/121/111 91/114/104
f 115/124/114 99/97/89 100/103/93
f 108/125/115 92/123/113 93/98/90
f 86/100/92 101/126/116 297/127/9
f 206/128/10 115/124/114 100/103/93
f 109/129/117 93/98/90 94/104/94
f 102/130/118 86/100/92 87/105/95
f 110/131/119 94/104/94 95/106/96
f 103/116/106 87/105/95 88/107/97
f 96/109/99 110/131/119 95/106/96
f 123/132/120 107/133/121 108/125/115
f 101/126/116 116/134/122 297/135/9
f 206/136/10 130/137/123 115/124/114
f 124/138/124 108/125/115 109/129/117
f 117/139/125 101/126/116 102/130/118
f 125/140/126 109/129/117 110/131/119
f 118/141/127 102/130/118 103/116/106
f 111/142/128 125/140/126 110/131/119
f 119/143/129 103/116/106 104/144/130
f 127/145/131 111/142/128 112/117/107
f 120/146/132 104/144/130 105/119/109
f 113/120/110 127/145/131 112/117/107
f 121/147/133 105/119/109 106/121/111
f 114/122/112 128/148/134 113/120/110
f 107/133/121 121/147/133 106/121/111
f 130/137/123 114/122/112 115/124/114
f 142/149/135 126/150/136 127/145/131
f 120/146/132 134/151/137 119/143/129
f 143/152/138 127/145/131 128/148/134
f 136/153/139 120/146/132 121/147/133
f 144/154/140 128/148/134 129/155/141
f 122/156/142 136/153/139 121/147/133
f 130/137/123 144/154/140 129/155/141
f 138/157/143 122/156/142 123/132/120
f 116/134/122 131/158/144 297/159/9
f 206/160/10 145/161/145 130/137/123
f 139/162/146 123/132/120 124/138/124
f 132/163/147 116/134/122 117/139/125
f 140/164/148 124/138/124 125/140/126
f 133/165/149 117/139/125 118/141/127
f 126/150/136 140/164/148 125/140/126
f 134/151/137 118/141/127 119/143/129
f 131/158/144 146/166/150 297/167/9
f 206/168/10 160/169/151 145/161/145
f 154/170/152 138/157/143 139/162/146
f 147/171/153 131/158/144 132/163/147
f 155/172/154 139/162/146 140/164/148
f 133/165/149 147/171/153 132/163/147
f 141/173/155 155/172/154 140/164/148
f 149/174/156 133/165/149 134/151/137
f 157/175/157 141/173/155 142/149/135
f 135/176/158 149/174/156 134/151/137
f 158/177/159 142/149/135 143/152/138
f 151/178/160 135/176/158 136/153/139
f 159/179/161 143/152/138 144/154/140
f 137/180/162 151/178/160 136/153/139
f 160/169/151 144/154/140 145/161/145
f 153/181/163 137/180/162 138/157/143
f 150/182/164 164/183/165 149/174/156
f 158/177/159 172/184/166 157/175/157
f 166/185/167 150/182/164 151/178/160
f 174/186/168 158/177/159 159/179/161
f 152/187/169 166/185/167 151/178/160
f 160/169/151 174/186/168 159/179/161
f 168/188/170 152/187/169 153/181/163
f 146/166/150 161/189/171 297/190/9
f 206/191/10 175/192/172 160/169/151
f 154/170/152 168/188/170 153/181/163
f 162/193/173 146/166/150 147/171/153
f 170/194/174 154/170/152 155/172/154
f 163/195/175 147/171/153 148/196/176
f 156/197/177 170/194/174 155/172/154
f 164/183/165 148/196/176 149/174/156
f 172/184/166 156/197/177 157/175/157
f 184/198/178 168/188/170 169/199/179
f 177/200/180 161/189/171 162/193/173
f 185/201/181 169/199/179 170/194/174
f 163/195/175 177/200/180 162/193/173
f 171/202/182 185/201/181 170/194/174
f 179/203/183 163/195/175 164/183/165
f 187/204/184 171/202/182 172/184/166
f 180/205/185 164/183/165 165/206/186
f 173/207/187 187/204/184 172/184/166
f 181/208/188 165/206/186 166/185/167
f 189/209/189 173/207/187 174/186/168
f 167/210/190 181/208/188 166/185/167
f 190/211/191 174/186/168 175/192/172
f 183/212/192 167/210/190 168/188/170
f 161/189/171 176/213/193 297/214/9
f 206/215/10 190/211/191 175/192/172
f 188/216/194 202/217/195 187/204/184
f 196/218/196 180/205/185 181/208/188
f 189/209/189 203/219/197 188/216/194
f 182/220/198 196/218/196 181/208/188
f 190/211/191 204/221/199 189/209/189
f 198/222/200 182/220/198 183/212/192
f 176/213/193 191/223/201 297/224/9
f 206/225/10 205/226/202 190/211/191
f 184/198/178 198/222/200 183/212/192
f 192/227/203 176/213/193 177/200/180
f 200/228/204 184/198/178 185/201/181
f 193/229/205 177/200/180 178/230/206
f 186/231/207 200/228/204 185/201/181
f 194/232/208 178/230/206 179/203/183
f 202/217/195 186/231/207 187/204/184
f 180/205/185 194/232/208 179/203/183
f 216/233/209 199/234/210 200/228/204
f 209/235/211 192/227/203 193/229/205
f 201/236/212 216/233/209 200/228/204
f 210/237/213 193/229/205 194/232/208
f 218/238/214 201/236/212 202/217/195
f 211/239/215 194/232/208 195/240/216
f 219/241/217 202/217/195 203/219/197
f 212/242/218 195/240/216 196/218/196
f 204/221/199 219/241/217 203/219/197
f 197/243/219 212/242/218 196/218/196
f 221/244/220 204/221/199 205/226/202
f 214/245/221 197/243/219 198/222/200
f 191/223/201 207/246/222 297/247/9
f 206/248/10 221/244/220 205/226/202
f 215/249/223 198/222/200 199/234/210
f 208/250/224 191/223/201 192/227/203
f 235/251/225 219/241/217 220/252/226
f 213/253/227 227/254/228 212/242/218
f 236/255/229 220/252/226 221/244/220
f 229/256/230 213/253/227 214/245/221
f 207/246/222 222/257/231 297/258/9
f 206/259/10 236/255/229 221/244/220
f 230/260/232 214/245/221 215/249/223
f 223/261/233 207/246/222 208/250/224
f 231/262/234 215/249/223 216/233/209
f 224/263/235 208/250/224 209/235/211
f 217/264/236 231/262/234 216/233/209
f 210/237/213 224/263/235 209/235/211
f 233/265/237 217/264/236 218/238/214
f 226/266/238 210/237/213 211/239/215
f 234/267/239 218/238/214 219/241/217
f 227/254/228 211/239/215 212/242/218
f 239/268/240 223/261/233 224/263/235
f 232/269/241 246/270/242 231/262/234
f 225/271/243 239/268/240 224/263/235
f 248/272/244 232/269/241 233/265/237
f 226/266/238 240/273/245 225/271/243
f 234/267/239 248/272/244 233/265/237
f 242/274/246 226/266/238 227/254/228
f 235/251/225 249/275/247 234/267/239
f 228/276/248 242/274/246 227/254/228
f 236/255/229 250/277/249 235/251/225
f 244/278/250 228/276/248 229/256/230
f 222/257/231 237/279/251 297/280/9
f 206/281/10 251/282/252 236/255/229
f 245/283/253 229/256/230 230/260/232
f 238/284/254 222/257/231 223/261/233
f 246/270/242 230/260/232 231/262/234
f 243/285/255 257/286/256 242/274/246
f 251/282/252 265/287/257 250/277/249
f 259/288/258 243/285/255 244/278/250
f 237/279/251 252/289/259 297/290/9
f 206/291/10 266/292/260 251/282/252
f 260/293/261 244/278/250 245/283/253
f 253/294/262 237/279/251 238/284/254
f 261/295/263 245/283/253 246/270/242
f 254/296/264 238/284/254 239/268/240
f 247/297/265 261/295/263 246/270/242
f 240/273/245 254/296/264 239/268/240
f 263/298/266 247/297/265 248/272/244
f 241/299/267 255/300/268 240/273/245
f 264/301/269 248/272/244 249/275/247
f 257/286/256 241/299/267 242/274/246
f 265/287/257 249/275/247 250/277/249
f 262/302/270 276/303/271 261/295/263
f 255/300/268 269/304/272 254/296/264
f 278/305/273 262/302/270 263/298/266
f 271/306/274 255/300/268 256/307/275
f 279/308/276 263/298/266 264/301/269
f 272/309/277 256/307/275 257/286/256
f 280/310/278 264/301/269 265/287/257
f 258/311/279 272/309/277 257/286/256
f 281/312/280 265/287/257 266/292/260
f 259/288/258 273/313/281 258/311/279
f 252/289/259 267/314/282 297/315/9
f 206/316/10 281/312/280 266/292/260
f 275/317/283 259/288/258 260/293/261
f 268/318/284 252/289/259 253/294/262
f 276/303/271 260/293/261 261/295/263
f 269/304/272 253/294/262 254/296/264
f 281/312/280 295/319/285 280/310/278
f 289/320/286 273/313/281 274/321/287
f 267/314/282 282/322/288 297/323/9
f 206/324/10 296/325/289 281/312/280
f 290/326/290 274/321/287 275/317/283
f 283/327/291 267/314/282 268/318/284
f 291/328/292 275/317/283 276/303/271
f 284/329/293 268/318/284 269/304/272
f 277/330/294 291/328/292 276/303/271
f 285/331/295 269/304/272 270/332/296
f 293/333/297 277/330/294 278/305/273
f 271/306/274 285/331/295 270/332/296
f 279/308/276 293/333/297 278/305/273
f 287/334/298 271/306/274 272/309/277
f 295/319/285 279/308/276 280/310/278
f 273/313/281 287/334/298 272/309/277
f 285/331/295 300/335/299 284/329/293
f 309/336/300 292/337/301 293/333/297
f 286/338/302 301/339/303 285/331/295
f 310/340/304 293/333/297 294/341/305
f 303/342/306 286/338/302 287/334/298
f 295/319/285 310/340/304 294/341/305
f 288/343/307 303/342/306 287/334/298
f 312/344/308 295/319/285 296/325/289
f 289/320/286 304/345/309 288/343/307
f 282/322/288 298/346/310 297/347/9
f 206/348/10 312/344/308 296/325/289
f 306/349/311 289/320/286 290/326/290
f 299/350/312 282/322/288 283/327/291
f 307/351/313 290/326/290 291/328/292
f 300/335/299 283/327/291 284/329/293
f 292/337/301 307/351/313 291/328/292
f 320/352/314 304/345/309 305/353/315
f 298/346/310 313/354/316 297/355/9
f 206/356/10 327/357/317 312/344/308
f 321/358/318 305/353/315 306/349/311
f 299/350/312 313/354/316 298/346/310
f 322/359/319 306/349/311 307/351/313
f 315/360/320 299/350/312 300/335/299
f 308/361/321 322/359/319 307/351/313
f 301/339/303 315/360/320 300/335/299
f 324/362/322 308/361/321 309/336/300
f 302/363/323 316/364/324 301/339/303
f 325/365/325 309/336/300 310/340/304
f 318/366/326 302/363/323 303/342/306
f 311/367/327 325/365/325 310/340/304
f 304/345/309 318/366/326 303/342/306
f 327/357/317 311/367/327 312/344/308
f 339/368/328 323/369/329 324/362/322
f 317/370/330 331/371/331 316/364/324
f 340/372/332 324/362/322 325/365/325
f 333/373/333 317/370/330 318/366/326
f 326/374/334 340/372/332 325/365/325
f 319/375/335 333/373/333 318/366/326
f 342/376/336 326/374/334 327/357/317
f 335/377/337 319/375/335 320/352/314
f 313/354/316 328/378/338 297/379/9
f 206/380/10 342/376/336 327/357/317
f 336/381/339 320/352/314 321/358/318
f 329/382/340 313/354/316 314/383/341
f 337/384/342 321/358/318 322/359/319
f 330/385/343 314/383/341 315/360/320
f 323/369/329 337/384/342 322/359/319
f 331/371/331 315/360/320 316/364/324
f 206/386/10 357/387/344 342/376/336
f 336/381/339 350/388/345 335/377/337
f 329/382/340 343/389/346 328/378/338
f 352/390/347 336/381/339 337/384/342
f 345/391/348 329/382/340 330/385/343
f 338/392/349 352/390/347 337/384/342
f 331/371/331 345/391/348 330/385/343
f 354/393/350 338/392/349 339/368/328
f 332/394/351 346/395/352 331/371/331
f 355/396/353 339/368/328 340/372/332
f 348/397/354 332/394/351 333/373/333
f 356/398/355 340/372/332 341/399/356
f 334/400/357 348/397/354 333/373/333
f 357/387/344 341/399/356 342/376/336
f 350/388/345 334/400/357 335/377/337
f 328/378/338 343/389/346 297/401/9
f 370/402/358 354/393/350 355/396/353
f 363/403/359 347/404/360 348/397/354
f 356/398/355 370/402/358 355/396/353
f 349/405/361 363/403/359 348/397/354
f 372/406/362 356/398/355 357/387/344
f 365/407/363 349/405/361 350/388/345
f 343/389/346 358/408/364 297/409/9
f 206/410/10 372/406/362 357/387/344
f 351/411/365 365/407/363 350/388/345
f 344/412/366 358/408/364 343/389/346
f 367/413/367 351/411/365 352/390/347
f 360/414/368 344/412/366 345/391/348
f 353/415/369 367/413/367 352/390/347
f 361/416/370 345/391/348 346/395/352
f 354/393/350 368/417/371 353/415/369
f 362/418/372 346/395/352 347/404/360
f 359/419/373 373/420/374 358/421/364
f 382/422/375 366/423/376 367/424/367
f 375/425/377 359/419/373 360/426/368
f 368/427/371 382/422/375 367/424/367
f 376/428/378 360/426/368 361/429/370
f 369/430/379 383/431/380 368/427/371
f 377/432/381 361/429/370 362/433/372
f 385/434/382 369/430/379 370/435/358
f 378/436/383 362/433/372 363/437/359
f 386/438/384 370/435/358 371/439/385
f 364/440/386 378/436/383 363/437/359
f 387/441/387 371/439/385 372/442/362
f 380/443/388 364/440/386 365/444/363
f 358/421/364 373/420/374 297/445/9
f 206/446/10 387/441/387 372/442/362
f 366/423/376 380/443/388 365/444/363
f 393/447/389 377/432/381 378/436/383
f 401/448/390 385/434/382 386/438/384
f 379/449/391 393/447/389 378/436/383
f 402/450/392 386/438/384 387/441/387
f 395/451/393 379/449/391 380/443/388
f 373/420/374 388/452/394 297/453/9
f 206/454/10 402/450/392 387/441/387
f 396/455/395 380/443/388 381/456/396
f 389/457/397 373/420/374 374/458/398
f 397/459/399 381/456/396 382/422/375
f 390/460/400 374/458/398 375/425/377
f 383/431/380 397/459/399 382/422/375
f 391/461/401 375/425/377 376/428/378
f 399/462/402 383/431/380 384/463/403
f 392/464/404 376/428/378 377/432/381
f 400/465/405 384/463/403 385/434/382
f 412/466/406 396/455/395 397/459/399
f 405/467/407 389/457/397 390/460/400
f 398/468/408 412/466/406 397/459/399
f 391/461/401 405/467/407 390/460/400
f 414/469/409 398/468/408 399/462/402
f 392/464/404 406/470/410 391/461/401
f 400/465/405 414/469/409 399/462/402
f 408/471/411 392/464/404 393/447/389
f 416/472/412 400/465/405 401/448/390
f 394/473/413 408/471/411 393/447/389
f 417/474/414 401/448/390 402/450/392
f 410/475/415 394/473/413 395/451/393
f 388/452/394 403/476/416 297/477/9
f 206/478/10 417/474/414 402/450/392
f 396/455/395 410/475/415 395/451/393
f 404/479/417 388/452/394 389/457/397
f 431/480/418 415/481/419 416/472/412
f 409/482/420 423/483/421 408/471/411
f 432/484/422 416/472/412 417/474/414
f 425/485/423 409/482/420 410/475/415
f 403/476/416 418/486/424 297/487/9
f 206/488/10 432/484/422 417/474/414
f 411/489/425 425/485/423 410/475/415
f 419/490/426 403/476/416 404/479/417
f 427/491/427 411/489/425 412/466/406
f 420/492/428 404/479/417 405/467/407
f 413/493/429 427/491/427 412/466/406
f 406/470/410 420/492/428 405/467/407
f 429/494/430 413/493/429 414/469/409
f 407/495/431 421/496/432 406/470/410
f 430/497/433 414/469/409 415/481/419
f 423/483/421 407/495/431 408/471/411
f 435/498/434 419/490/426 420/492/428
f 428/499/435 442/500/436 427/491/427
f 436/501/437 420/492/428 421/496/432
f 444/502/438 428/499/435 429/494/430
f 422/503/439 436/501/437 421/496/432
f 430/497/433 444/502/438 429/494/430
f 438/504/440 422/503/439 423/483/421
f 446/505/441 430/497/433 431/480/418
f 424/506/442 438/504/440 423/483/421
f 447/507/443 431/480/418 432/484/422
f 440/508/444 424/506/442 425/485/423
f 418/486/424 433/509/445 297/510/9
f 206/511/10 447/507/443 432/484/422
f 441/512/446 425/485/423 426/513/447
f 434/514/448 418/486/424 419/490/426
f 442/500/436 426/513/447 427/491/427
f 439/515/449 453/516/450 438/504/440
f 462/517/451 446/505/441 447/507/443
f 455/518/452 439/515/449 440/508/444
f 433/509/445 448/519/453 297/520/9
f 206/521/10 462/517/451 447/507/443
f 456/522/454 440/508/444 441/512/446
f 434/514/448 448/519/453 433/509/445
f 457/523/455 441/512/446 442/500/436
f 450/524/456 434/514/448 435/498/434
f 443/525/457 457/523/455 442/500/436
f 451/526/458 435/498/434 436/501/437
f 459/527/459 443/525/457 444/502/438
f 437/528/460 451/526/458 436/501/437
f 460/529/461 444/502/438 445/530/462
f 453/516/450 437/528/460 438/504/440
f 446/505/441 460/529/461 445/530/462
f 458/531/463 472/532/464 457/523/455
f 466/533/465 450/524/456 451/526/458
f 474/534/466 458/531/463 459/527/459
f 452/535/467 466/533/465 451/526/458
f 475/536/468 459/527/459 460/529/461
f 468/537/469 452/535/467 453/516/450
f 476/538/470 460/529/461 461/539/471
f 454/540/472 468/537/469 453/516/450
f 477/541/473 461/539/471 462/517/451
f 470/542/474 454/540/472 455/518/452
f 448/519/453 463/543/475 297/544/9
f 206/545/10 477/541/473 462/517/451
f 471/546/476 455/518/452 456/522/454
f 464/547/477 448/519/453 449/548/478
f 472/532/464 456/522/454 457/523/455
f 465/549/479 449/548/478 450/524/456
f 482/3/3 476/538/470 477/541/473
f 470/542/474 7/5/5 469/550/480
f 463/543/475 1/7/7 297/551/9
f 206/552/10 482/3/3 477/541/473
f 9/12/12 470/542/474 471/546/476
f 464/547/477 1/7/7 463/543/475
f 478/15/15 471/546/476 472/532/464
f 465/549/479 2/13/13 464/547/477
f 473/553/481 478/15/15 472/532/464
f 466/533/465 3/16/16 465/549/479
f 480/23/23 473/553/481 474/534/466
f 467/554/482 4/21/21 466/533/465
f 10/27/27 474/534/466 475/536/468
f 468/537/469 5/25/25 467/554/482
f 481/2/2 475/536/468 476/538/470
f 469/550/480 6/28/28 468/537/469
f 25/1/1 24/29/29 481/2/2
f 18/4/4 17/30/30 7/5/5
f 19/11/11 18/4/4 8/6/6
f 2/13/13 12/17/17 11/8/8
f 20/14/14 19/11/11 9/12/12
f 3/16/16 13/42/40 12/17/17
f 21/18/18 20/14/14 478/15/15
f 14/20/20 13/42/40 3/16/16
f 22/22/22 21/18/18 479/19/19
f 15/24/24 14/20/20 4/21/21
f 23/26/26 22/22/22 480/23/23
f 6/28/28 16/32/32 15/24/24
f 24/29/29 23/26/26 10/27/27
f 17/30/30 16/32/32 6/28/28
f 31/31/31 30/45/43 15/24/24
f 39/33/33 38/46/44 23/26/26
f 17/30/30 32/56/54 31/31/31
f 40/34/34 39/33/33 24/29/29
f 33/35/35 32/56/54 17/30/30
f 34/39/37 33/35/35 18/4/4
f 27/40/38 26/36/36 11/8/8
f 20/14/14 35/48/46 34/39/37
f 28/41/39 27/40/38 12/17/17
f 36/43/41 35/48/46 20/14/14
f 29/44/42 28/41/39 13/42/40
f 22/22/22 37/51/49 36/43/41
f 30/45/43 29/44/42 14/20/20
f 38/46/44 37/51/49 22/22/22
f 50/47/45 49/62/58 34/39/37
f 43/49/47 42/63/59 27/40/38
f 36/43/41 51/74/68 50/47/45
f 29/44/42 44/77/71 43/49/47
f 52/50/48 51/74/68 36/43/41
f 45/52/50 44/77/71 29/44/42
f 53/53/51 52/50/48 37/51/49
f 46/54/52 45/52/50 30/45/43
f 54/55/53 53/53/51 38/46/44
f 32/56/54 47/66/62 46/54/52
f 55/57/55 54/55/53 39/33/33
f 48/58/56 47/66/62 32/56/54
f 49/62/58 48/58/56 33/35/35
f 42/63/59 41/59/57 26/36/36
f 69/64/60 68/80/74 53/53/51
f 62/65/61 61/81/75 46/54/52
f 55/57/55 70/70/64 69/64/60
f 48/58/56 63/90/84 62/65/61
f 64/71/65 63/90/84 48/58/56
f 57/72/66 56/67/63 41/59/57
f 50/47/45 65/75/69 64/71/65
f 58/73/67 57/72/66 42/63/59
f 51/74/68 66/82/76 65/75/69
f 59/76/70 58/73/67 43/49/47
f 67/78/72 66/82/76 51/74/68
f 60/79/73 59/76/70 44/77/71
f 68/80/74 67/78/72 52/50/48
f 61/81/75 60/79/73 45/52/50
f 66/82/76 81/108/98 80/83/77
f 74/84/78 73/96/88 58/73/67
f 82/85/79 81/108/98 66/82/76
f 60/79/73 75/111/101 74/84/78
f 68/80/74 83/113/103 82/85/79
f 76/86/80 75/111/101 60/79/73
f 84/87/81 83/113/103 68/80/74
f 77/88/82 76/86/80 61/81/75
f 85/89/83 84/87/81 69/64/60
f 63/90/84 78/99/91 77/88/82
f 79/94/86 78/99/91 63/90/84
f 72/95/87 71/91/85 56/67/63
f 80/83/77 79/94/86 64/71/65
f 73/96/88 72/95/87 57/72/66
f 85/89/83 100/103/93 99/97/89
f 93/98/90 92/123/113 77/88/82
f 94/104/94 93/98/90 78/99/91
f 87/105/95 86/100/92 71/91/85
f 95/106/96 94/104/94 79/94/86
f 88/107/97 87/105/95 72/95/87
f 81/108/98 96/109/99 95/106/96
f 74/84/78 89/115/105 88/107/97
f 82/85/79 97/118/108 96/109/99
f 90/110/100 89/115/105 74/84/78
f 98/112/102 97/118/108 82/85/79
f 91/114/104 90/110/100 75/111/101
f 99/97/89 98/112/102 83/113/103
f 77/88/82 92/123/113 91/114/104
f 89/115/105 104/144/130 103/116/106
f 112/117/107 111/142/128 96/109/99
f 105/119/109 104/144/130 89/115/105
f 113/120/110 112/117/107 97/118/108
f 106/121/111 105/119/109 90/110/100
f 114/122/112 113/120/110 98/112/102
f 92/123/113 107/133/121 106/121/111
f 115/124/114 114/122/112 99/97/89
f 108/125/115 107/133/121 92/123/113
f 109/129/117 108/125/115 93/98/90
f 102/130/118 101/126/116 86/100/92
f 110/131/119 109/129/117 94/104/94
f 103/116/106 102/130/118 87/105/95
f 96/109/99 111/142/128 110/131/119
f 123/132/120 122/156/142 107/133/121
f 124/138/124 123/132/120 108/125/115
f 117/139/125 116/134/122 101/126/116
f 125/140/126 124/138/124 109/129/117
f 118/141/127 117/139/125 102/130/118
f 111/142/128 126/150/136 125/140/126
f 119/143/129 118/141/127 103/116/106
f 127/145/131 126/150/136 111/142/128
f 120/146/132 119/143/129 104/144/130
f 113/120/110 128/148/134 127/145/131
f 121/147/133 120/146/132 105/119/109
f 114/122/112 129/155/141 128/148/134
f 107/133/121 122/156/142 121/147/133
f 130/137/123 129/155/141 114/122/112
f 142/149/135 141/173/155 126/150/136
f 120/146/132 135/176/158 134/151/137
f 143/152/138 142/149/135 127/145/131
f 136/153/139 135/176/158 120/146/132
f 144/154/140 143/152/138 128/148/134
f 122/156/142 137/180/162 136/153/139
f 130/137/123 145/161/145 144/154/140
f 138/157/143 137/180/162 122/156/142
f 139/162/146 138/157/143 123/132/120
f 132/163/147 131/158/144 116/134/122
f 140/164/148 139/162/146 124/138/124
f 133/165/149 132/163/147 117/139/125
f 126/150/136 141/173/155 140/164/148
f 134/151/137 133/165/149 118/141/127
f 154/170/152 153/181/163 138/157/143
f 147/171/153 146/166/150 131/158/144
f 155/172/154 154/170/152 139/162/146
f 133/165/149 148/196/176 147/171/153
f 141/173/155 156/197/177 155/172/154
f 149/174/156 148/196/176 133/165/149
f 157/175/157 156/197/177 141/173/155
f 135/176/158 150/182/164 149/174/156
f 158/177/159 157/175/157 142/149/135
f 151/178/160 150/182/164 135/176/158
f 159/179/161 158/177/159 143/152/138
f 137/180/162 152/187/169 151/178/160
f 160/169/151 159/179/161 144/154/140
f 153/181/163 152/187/169 137/180/162
f 150/182/164 165/206/186 164/183/165
f 158/177/159 173/207/187 172/184/166
f 166/185/167 165/206/186 150/182/164
f 174/186/168 173/207/187 158/177/159
f 152/187/169 167/210/190 166/185/167
f 160/169/151 175/192/172 174/186/168
f 168/188/170 167/210/190 152/187/169
f 154/170/152 169/199/179 168/188/170
f 162/193/173 161/189/171 146/166/150
f 170/194/174 169/199/179 154/170/152
f 163/195/175 162/193/173 147/171/153
f 156/197/177 171/202/182 170/194/174
f 164/183/165 163/195/175 148/196/176
f 172/184/166 171/202/182 156/197/177
f 184/198/178 183/212/192 168/188/170
f 177/200/180 176/213/193 161/189/171
f 185/201/181 184/198/178 169/199/179
f 163/195/175 178/230/206 177/200/180
f 171/202/182 186/231/207 185/201/181
f 179/203/183 178/230/206 163/195/175
f 187/204/184 186/231/207 171/202/182
f 180/205/185 179/203/183 164/183/165
f 173/207/187 188/216/194 187/204/184
f 181/208/188 180/205/185 165/206/186
f 189/209/189 188/216/194 173/207/187
f 167/210/190 182/220/198 181/208/188
f 190/211/191 189/209/189 174/186/168
f 183/212/192 182/220/198 167/210/190
f 188/216/194 203/219/197 202/217/195
f 196/218/196 195/240/216 180/205/185
f 189/209/189 204/221/199 203/219/197
f 182/220/198 197/243/219 196/218/196
f 190/211/191 205/226/202 204/221/199
f 198/222/200 197/243/219 182/220/198
f 184/198/178 199/234/210 198/222/200
f 192/227/203 191/223/201 176/213/193
f 200/228/204 199/234/210 184/198/178
f 193/229/205 192/227/203 177/200/180
f 186/231/207 201/236/212 200/228/204
f 194/232/208 193/229/205 178/230/206
f 202/217/195 201/236/212 186/231/207
f 180/205/185 195/240/216 194/232/208
f 216/233/209 215/249/223 199/234/210
f 209/235/211 208/250/224 192/227/203
f 201/236/212 217/264/236 216/233/209
f 210/237/213 209/235/211 193/229/205
f 218/238/214 217/264/236 201/236/212
f 211/239/215 210/237/213 194/232/208
f 219/241/217 218/238/214 202/217/195
f 212/242/218 211/239/215 195/240/216
f 204/221/199 220/252/226 219/241/217
f 197/243/219 213/253/227 212/242/218
f 221/244/220 220/252/226 204/221/199
f 214/245/221 213/253/227 197/243/219
f 215/249/223 214/245/221 198/222/200
f 208/250/224 207/246/222 191/223/201
f 235/251/225 234/267/239 219/241/217
f 213/253/227 228/276/248 227/254/228
f 236/255/229 235/251/225 220/252/226
f 229/256/230 228/276/248 213/253/227
f 230/260/232 229/256/230 214/245/221
f 223/261/233 222/257/231 207/246/222
f 231/262/234 230/260/232 215/249/223
f 224/263/235 223/261/233 208/250/224
f 217/264/236 232/269/241 231/262/234
f 210/237/213 225/271/243 224/263/235
f 233/265/237 232/269/241 217/264/236
f 226/266/238 225/271/243 210/237/213
f 234/267/239 233/265/237 218/238/214
f 227/254/228 226/266/238 211/239/215
f 239/268/240 238/284/254 223/261/233
f 232/269/241 247/297/265 246/270/242
f 225/271/243 240/273/245 239/268/240
f 248/272/244 247/297/265 232/269/241
f 226/266/238 241/299/267 240/273/245
f 234/267/239 249/275/247 248/272/244
f 242/274/246 241/299/267 226/266/238
f 235/251/225 250/277/249 249/275/247
f 228/276/248 243/285/255 242/274/246
f 236/255/229 251/282/252 250/277/249
f 244/278/250 243/285/255 228/276/248
f 245/283/253 244/278/250 229/256/230
f 238/284/254 237/279/251 222/257/231
f 246/270/242 245/283/253 230/260/232
f 243/285/255 258/311/279 257/286/256
f 251/282/252 266/292/260 265/287/257
f 259/288/258 258/311/279 243/285/255
f 260/293/261 259/288/258 244/278/250
f 253/294/262 252/289/259 237/279/251
f 261/295/263 260/293/261 245/283/253
f 254/296/264 253/294/262 238/284/254
f 247/297/265 262/302/270 261/295/263
f 240/273/245 255/300/268 254/296/264
f 263/298/266 262/302/270 247/297/265
f 241/299/267 256/307/275 255/300/268
f 264/301/269 263/298/266 248/272/244
f 257/286/256 256/307/275 241/299/267
f 265/287/257 264/301/269 249/275/247
f 262/302/270 277/330/294 276/303/271
f 255/300/268 270/332/296 269/304/272
f 278/305/273 277/330/294 262/302/270
f 271/306/274 270/332/296 255/300/268
f 279/308/276 278/305/273 263/298/266
f 272/309/277 271/306/274 256/307/275
f 280/310/278 279/308/276 264/301/269
f 258/311/279 273/313/281 272/309/277
f 281/312/280 280/310/278 265/287/257
f 259/288/258 274/321/287 273/313/281
f 275/317/283 274/321/287 259/288/258
f 268/318/284 267/314/282 252/289/259
f 276/303/271 275/317/283 260/293/261
f 269/304/272 268/318/284 253/294/262
f 281/312/280 296/325/289 295/319/285
f 289/320/286 288/343/307 273/313/281
f 290/326/290 289/320/286 274/321/287
f 283/327/291 282/322/288 267/314/282
f 291/328/292 290/326/290 275/317/283
f 284/329/293 283/327/291 268/318/284
f 277/330/294 292/337/301 291/328/292
f 285/331/295 284/329/293 269/304/272
f 293/333/297 292/337/301 277/330/294
f 271/306/274 286/338/302 285/331/295
f 279/308/276 294/341/305 293/333/297
f 287/334/298 286/338/302 271/306/274
f 295/319/285 294/341/305 279/308/276
f 273/313/281 288/343/307 287/334/298
f 285/331/295 301/339/303 300/335/299
f 309/336/300 308/361/321 292/337/301
f 286/338/302 302/363/323 301/339/303
f 310/340/304 309/336/300 293/333/297
f 303/342/306 302/363/323 286/338/302
f 295/319/285 311/367/327 310/340/304
f 288/343/307 304/345/309 303/342/306
f 312/344/308 311/367/327 295/319/285
f 289/320/286 305/353/315 304/345/309
f 306/349/311 305/353/315 289/320/286
f 299/350/312 298/346/310 282/322/288
f 307/351/313 306/349/311 290/326/290
f 300/335/299 299/350/312 283/327/291
f 292/337/301 308/361/321 307/351/313
f 320/352/314 319/375/335 304/345/309
f 321/358/318 320/352/314 305/353/315
f 299/350/312 314/383/341 313/354/316
f 322/359/319 321/358/318 306/349/311
f 315/360/320 314/383/341 299/350/312
f 308/361/321 323/369/329 322/359/319
f 301/339/303 316/364/324 315/360/320
f 324/362/322 323/369/329 308/361/321
f 302/363/323 317/370/330 316/364/324
f 325/365/325 324/362/322 309/336/300
f 318/366/326 317/370/330 302/363/323
f 311/367/327 326/374/334 325/365/325
f 304/345/309 319/375/335 318/366/326
f 327/357/317 326/374/334 311/367/327
f 339/368/328 338/392/349 323/369/329
f 317/370/330 332/394/351 331/371/331
f 340/372/332 339/368/328 324/362/322
f 333/373/333 332/394/351 317/370/330
f 326/374/334 341/399/356 340/372/332
f 319/375/335 334/400/357 333/373/333
f 342/376/336 341/399/356 326/374/334
f 335/377/337 334/400/357 319/375/335
f 336/381/339 335/377/337 320/352/314
f 329/382/340 328/378/338 313/354/316
f 337/384/342 336/381/339 321/358/318
f 330/385/343 329/382/340 314/383/341
f 323/369/329 338/392/349 337/384/342
f 331/371/331 330/385/343 315/360/320
f 336/381/339 351/411/365 350/388/345
f 329/382/340 344/412/366 343/389/346
f 352/390/347 351/411/365 336/381/339
f 345/391/348 344/412/366 329/382/340
f 338/392/349 353/415/369 352/390/347
f 331/371/331 346/395/352 345/391/348
f 354/393/350 353/415/369 338/392/349
f 332/394/351 347/404/360 346/395/352
f 355/396/353 354/393/350 339/368/328
f 348/397/354 347/404/360 332/394/351
f 356/398/355 355/396/353 340/372/332
f 334/400/357 349/405/361 348/397/354
f 357/387/344 356/398/355 341/399/356
f 350/388/345 349/405/361 334/400/357
f 370/402/358 369/555/379 354/393/350
f 363/403/359 362/418/372 347/404/360
f 356/398/355 371/556/385 370/402/358
f 349/405/361 364/557/386 363/403/359
f 372/406/362 371/556/385 356/398/355
f 365/407/363 364/557/386 349/405/361
f 351/411/365 366/558/376 365/407/363
f 344/412/366 359/559/373 358/408/364
f 367/413/367 366/558/376 351/411/365
f 360/414/368 359/559/373 344/412/366
f 353/415/369 368/417/371 367/413/367
f 361/416/370 360/414/368 345/391/348
f 354/393/350 369/555/379 368/417/371
f 362/418/372 361/416/370 346/395/352
f 359/419/373 374/458/398 373/420/374
f 382/422/375 381/456/396 366/423/376
f 375/425/377 374/458/398 359/419/373
f 368/427/371 383/431/380 382/422/375
f 376/428/378 375/425/377 360/426/368
f 369/430/379 384/463/403 383/431/380
f 377/432/381 376/428/378 361/429/370
f 385/434/382 384/463/403 369/430/379
f 378/436/383 377/432/381 362/433/372
f 386/438/384 385/434/382 370/435/358
f 364/440/386 379/449/391 378/436/383
f 387/441/387 386/438/384 371/439/385
f 380/443/388 379/449/391 364/440/386
f 366/423/376 381/456/396 380/443/388
f 393/447/389 392/464/404 377/432/381
f 401/448/390 400/465/405 385/434/382
f 379/449/391 394/473/413 393/447/389
f 402/450/392 401/448/390 386/438/384
f 395/451/393 394/473/413 379/449/391
f 396/455/395 395/451/393 380/443/388
f 389/457/397 388/452/394 373/420/374
f 397/459/399 396/455/395 381/456/396
f 390/460/400 389/457/397 374/458/398
f 383/431/380 398/468/408 397/459/399
f 391/461/401 390/460/400 375/425/377
f 399/462/402 398/468/408 383/431/380
f 392/464/404 391/461/401 376/428/378
f 400/465/405 399/462/402 384/463/403
f 412/466/406 411/489/425 396/455/395
f 405/467/407 404/479/417 389/457/397
f 398/468/408 413/493/429 412/466/406
f 391/461/401 406/470/410 405/467/407
f 414/469/409 413/493/429 398/468/408
f 392/464/404 407/495/431 406/470/410
f 400/465/405 415/481/419 414/469/409
f 408/471/411 407/495/431 392/464/404
f 416/472/412 415/481/419 400/465/405
f 394/473/413 409/482/420 408/471/411
f 417/474/414 416/472/412 401/448/390
f 410/475/415 409/482/420 394/473/413
f 396/455/395 411/489/425 410/475/415
f 404/479/417 403/476/416 388/452/394
f 431/480/418 430/497/433 415/481/419
f 409/482/420 424/506/442 423/483/421
f 432/484/422 431/480/418 416/472/412
f 425/485/423 424/506/442 409/482/420
f 411/489/425 426/513/447 425/485/423
f 419/490/426 418/486/424 403/476/416
f 427/491/427 426/513/447 411/489/425
f 420/492/428 419/490/426 404/479/417
f 413/493/429 428/499/435 427/491/427
f 406/470/410 421/496/432 420/492/428
f 429/494/430 428/499/435 413/493/429
f 407/495/431 422/503/439 421/496/432
f 430/497/433 429/494/430 414/469/409
f 423/483/421 422/503/439 407/495/431
f 435/498/434 434/514/448 419/490/426
f 428/499/435 443/525/457 442/500/436
f 436/501/437 435/498/434 420/492/428
f 444/502/438 443/525/457 428/499/435
f 422/503/439 437/528/460 436/501/437
f 430/497/433 445/530/462 444/502/438
f 438/504/440 437/528/460 422/503/439
f 446/505/441 445/530/462 430/497/433
f 424/506/442 439/515/449 438/504/440
f 447/507/443 446/505/441 431/480/418
f 440/508/444 439/515/449 424/506/442
f 441/512/446 440/508/444 425/485/423
f 434/514/448 433/509/445 418/486/424
f 442/500/436 441/512/446 426/513/447
f 439/515/449 454/540/472 453/516/450
f 462/517/451 461/539/471 446/505/441
f 455/518/452 454/540/472 439/515/449
f 456/522/454 455/518/452 440/508/444
f 434/514/448 449/548/478 448/519/453
f 457/523/455 456/522/454 441/512/446
f 450/524/456 449/548/478 434/514/448
f 443/525/457 458/531/463 457/523/455
f 451/526/458 450/524/456 435/498/434
f 459/527/459 458/531/463 443/525/457
f 437/528/460 452/535/467 451/526/458
f 460/529/461 459/527/459 444/502/438
f 453/516/450 452/535/467 437/528/460
f 446/505/441 461/539/471 460/529/461
f 458/531/463 473/553/481 472/532/464
f 466/533/465 465/549/479 450/524/456
f 474/534/466 473/553/481 458/531/463
f 452/535/467 467/554/482 466/533/465
f 475/536/468 474/534/466 459/527/459
f 468/537/469 467/554/482 452/535/467
f 476/538/470 475/536/468 460/529/461
f 454/540/472 469/550/480 468/537/469
f 477/541/473 476/538/470 461/539/471
f 470/542/474 469/550/480 454/540/472
f 471/546/476 470/542/474 455/518/452
f 464/547/477 463/543/475 448/519/453
f 472/532/464 471/546/476 456/522/454
f 465/549/479 464/547/477 449/548/478
f 482/3/3 481/2/2 476/538/470
f 470/542/474 8/6/6 7/5/5
f 9/12/12 8/6/6 470/542/474
f 464/547/477 2/13/13 1/7/7
f 478/15/15 9/12/12 471/546/476
f 465/549/479 3/16/16 2/13/13
f 473/553/481 479/19/19 478/15/15
f 466/533/465 4/21/21 3/16/16
f 480/23/23 479/19/19 473/553/481
f 467/554/482 5/25/25 4/21/21
f 10/27/27 480/23/23 474/534/466
f 468/537/469 6/28/28 5/25/25
f 481/2/2 10/27/27 475/536/468
f 469/550/480 7/5/5 6/28/28
