# Blender 4.1.1
# www.blender.org
mtllib playerCircle.mtl
o 魔法陣
v 0.000000 -1.280175 -0.500000
v 0.000000 -1.270175 -0.500000
v -0.433013 -1.280175 0.250000
v -0.433013 -1.270175 0.250000
v 0.433013 -1.280175 0.250000
v 0.433013 -1.270175 0.250000
v -0.433013 -1.280175 -0.250000
v -0.433013 -1.270175 -0.250000
v 0.000000 -1.280175 0.500000
v 0.000000 -1.270175 0.500000
v 0.433013 -1.280175 -0.250000
v 0.433013 -1.270175 -0.250000
v -0.376134 -1.280175 -0.499147
v -0.376134 -1.270175 -0.499147
v -0.590949 -1.280175 0.203480
v -0.590949 -1.270175 0.203480
v 0.010908 -1.280175 0.624905
v 0.010908 -1.270175 0.624905
v 0.597690 -1.280175 0.182732
v 0.597690 -1.270175 0.182732
v 0.358485 -1.280175 -0.511970
v 0.358485 -1.270175 -0.511970
v 0.000000 -1.280175 -0.625000
v 0.000000 -1.270175 -0.625000
v -0.594410 -1.280175 -0.193136
v -0.594410 -1.270175 -0.193136
v -0.367366 -1.280175 0.505636
v -0.367366 -1.270175 0.505636
v 0.367366 -1.280175 0.505635
v 0.367366 -1.270175 0.505635
v 0.594410 -1.280175 -0.193136
v 0.594410 -1.270175 -0.193136
v 0.000000 -1.280175 -0.500000
v 0.000000 -1.270175 -0.500000
v -0.082297 -1.280175 -0.493181
v -0.082297 -1.270175 -0.493181
v -0.162350 -1.280175 -0.472909
v -0.162350 -1.270175 -0.472909
v -0.237974 -1.280175 -0.439737
v -0.237974 -1.270175 -0.439737
v -0.307106 -1.280175 -0.394570
v -0.307106 -1.270175 -0.394570
v -0.367862 -1.280175 -0.338641
v -0.367862 -1.270175 -0.338641
v -0.418583 -1.280175 -0.273474
v -0.418583 -1.270175 -0.273474
v -0.457887 -1.280175 -0.200848
v -0.457887 -1.270175 -0.200848
v -0.484700 -1.280175 -0.122743
v -0.484700 -1.270175 -0.122743
v -0.498292 -1.280175 -0.041290
v -0.498292 -1.270175 -0.041290
v -0.498292 -1.280175 0.041290
v -0.498292 -1.270175 0.041290
v -0.484700 -1.280175 0.122743
v -0.484700 -1.270175 0.122743
v -0.457887 -1.280175 0.200848
v -0.457887 -1.270175 0.200848
v -0.418583 -1.280175 0.273474
v -0.418583 -1.270175 0.273474
v -0.367862 -1.280175 0.338641
v -0.367862 -1.270175 0.338641
v -0.307106 -1.280175 0.394570
v -0.307106 -1.270175 0.394570
v -0.237974 -1.280175 0.439737
v -0.237974 -1.270175 0.439737
v -0.162350 -1.280175 0.472909
v -0.162350 -1.270175 0.472909
v -0.082297 -1.280175 0.493181
v -0.082297 -1.270175 0.493181
v 0.000000 -1.280175 0.500000
v 0.000000 -1.270175 0.500000
v 0.082297 -1.280175 0.493181
v 0.082297 -1.270175 0.493181
v 0.162350 -1.280175 0.472909
v 0.162350 -1.270175 0.472909
v 0.237974 -1.280175 0.439737
v 0.237974 -1.270175 0.439737
v 0.307106 -1.280175 0.394570
v 0.307106 -1.270175 0.394570
v 0.367862 -1.280175 0.338641
v 0.367862 -1.270175 0.338641
v 0.418583 -1.280175 0.273474
v 0.418583 -1.270175 0.273474
v 0.457887 -1.280175 0.200848
v 0.457887 -1.270175 0.200848
v 0.484700 -1.280175 0.122743
v 0.484700 -1.270175 0.122743
v 0.498292 -1.280175 0.041290
v 0.498292 -1.270175 0.041290
v 0.498292 -1.280175 -0.041290
v 0.498292 -1.270175 -0.041290
v 0.484700 -1.280175 -0.122743
v 0.484700 -1.270175 -0.122743
v 0.457887 -1.280175 -0.200848
v 0.457887 -1.270175 -0.200848
v 0.418583 -1.280175 -0.273474
v 0.418583 -1.270175 -0.273474
v 0.367862 -1.280175 -0.338641
v 0.367862 -1.270175 -0.338641
v 0.307106 -1.280175 -0.394570
v 0.307106 -1.270175 -0.394570
v 0.237974 -1.280175 -0.439737
v 0.237974 -1.270175 -0.439737
v 0.162350 -1.280175 -0.472909
v 0.162350 -1.270175 -0.472909
v 0.082297 -1.280175 -0.493181
v 0.082297 -1.270175 -0.493181
v 0.000000 -1.280175 -0.625000
v 0.000000 -1.270175 -0.625000
v -0.102872 -1.280175 -0.616476
v -0.102872 -1.270175 -0.616476
v -0.202937 -1.280175 -0.591136
v -0.202937 -1.270175 -0.591136
v -0.297467 -1.280175 -0.549671
v -0.297467 -1.270175 -0.549671
v -0.383883 -1.280175 -0.493213
v -0.383883 -1.270175 -0.493213
v -0.459827 -1.280175 -0.423301
v -0.459827 -1.270175 -0.423301
v -0.523229 -1.280175 -0.341843
v -0.523229 -1.270175 -0.341843
v -0.572358 -1.280175 -0.251060
v -0.572358 -1.270175 -0.251060
v -0.605875 -1.280175 -0.153428
v -0.605875 -1.270175 -0.153428
v -0.622865 -1.280175 -0.051612
v -0.622865 -1.270175 -0.051612
v -0.622865 -1.280175 0.051612
v -0.622865 -1.270175 0.051612
v -0.605875 -1.280175 0.153428
v -0.605875 -1.270175 0.153428
v -0.572358 -1.280175 0.251060
v -0.572358 -1.270175 0.251060
v -0.523229 -1.280175 0.341843
v -0.523229 -1.270175 0.341843
v -0.459827 -1.280175 0.423301
v -0.459827 -1.270175 0.423301
v -0.383883 -1.280175 0.493213
v -0.383883 -1.270175 0.493213
v -0.297467 -1.280175 0.549671
v -0.297467 -1.270175 0.549671
v -0.202937 -1.280175 0.591136
v -0.202937 -1.270175 0.591136
v -0.102872 -1.280175 0.616476
v -0.102872 -1.270175 0.616476
v 0.000000 -1.280175 0.625000
v 0.000000 -1.270175 0.625000
v 0.102872 -1.280175 0.616476
v 0.102872 -1.270175 0.616476
v 0.202937 -1.280175 0.591136
v 0.202937 -1.270175 0.591136
v 0.297467 -1.280175 0.549671
v 0.297467 -1.270175 0.549671
v 0.383883 -1.280175 0.493213
v 0.383883 -1.270175 0.493213
v 0.459827 -1.280175 0.423301
v 0.459827 -1.270175 0.423301
v 0.523229 -1.280175 0.341843
v 0.523229 -1.270175 0.341843
v 0.572358 -1.280175 0.251060
v 0.572358 -1.270175 0.251060
v 0.605875 -1.280175 0.153428
v 0.605875 -1.270175 0.153428
v 0.622865 -1.280175 0.051612
v 0.622865 -1.270175 0.051612
v 0.622865 -1.280175 -0.051612
v 0.622865 -1.270175 -0.051612
v 0.605875 -1.280175 -0.153428
v 0.605875 -1.270175 -0.153428
v 0.572358 -1.280175 -0.251060
v 0.572358 -1.270175 -0.251060
v 0.523229 -1.280175 -0.341843
v 0.523229 -1.270175 -0.341843
v 0.459827 -1.280175 -0.423301
v 0.459827 -1.270175 -0.423301
v 0.383883 -1.280175 -0.493213
v 0.383883 -1.270175 -0.493213
v 0.297467 -1.280175 -0.549671
v 0.297467 -1.270175 -0.549671
v 0.202937 -1.280175 -0.591136
v 0.202937 -1.270175 -0.591136
v 0.102872 -1.280175 -0.616476
v 0.102872 -1.270175 -0.616476
v -0.424352 -1.275175 0.245000
v 0.424352 -1.275175 0.245000
v 0.000000 -1.275175 -0.490000
v 0.000000 -1.275175 0.490000
v 0.424352 -1.275175 -0.245000
v -0.424352 -1.275175 -0.245000
v -0.585105 -1.275175 0.201468
v 0.010800 -1.275175 0.618725
v 0.591780 -1.275175 0.180925
v 0.354940 -1.275175 -0.506907
v -0.372415 -1.275175 -0.494211
v -0.588532 -1.275175 -0.191226
v -0.363733 -1.275175 0.500636
v 0.363733 -1.275175 0.500636
v 0.588532 -1.275175 -0.191226
v 0.000000 -1.275175 -0.618820
v -0.081472 -1.275175 -0.488232
v -0.160721 -1.275175 -0.468163
v -0.235586 -1.275175 -0.435324
v -0.304025 -1.275175 -0.390611
v -0.364171 -1.275175 -0.335243
v -0.414383 -1.275175 -0.270730
v -0.453292 -1.275175 -0.198832
v -0.479836 -1.275175 -0.121511
v -0.493292 -1.275175 -0.040875
v -0.493292 -1.275175 0.040875
v -0.479836 -1.275175 0.121511
v -0.453292 -1.275175 0.198832
v -0.414383 -1.275175 0.270730
v -0.364171 -1.275175 0.335243
v -0.304025 -1.275175 0.390611
v -0.235586 -1.275175 0.435324
v -0.160721 -1.275175 0.468163
v -0.081471 -1.275175 0.488232
v 0.000000 -1.275175 0.494983
v 0.081472 -1.275175 0.488232
v 0.160721 -1.275175 0.468163
v 0.235586 -1.275175 0.435324
v 0.304025 -1.275175 0.390611
v 0.364171 -1.275175 0.335243
v 0.414383 -1.275175 0.270730
v 0.453292 -1.275175 0.198832
v 0.479836 -1.275175 0.121511
v 0.493292 -1.275175 0.040875
v 0.493292 -1.275175 -0.040875
v 0.479836 -1.275175 -0.121511
v 0.453292 -1.275175 -0.198832
v 0.414383 -1.275175 -0.270730
v 0.364171 -1.275175 -0.335243
v 0.304025 -1.275175 -0.390611
v 0.235586 -1.275175 -0.435324
v 0.160721 -1.275175 -0.468163
v 0.081471 -1.275175 -0.488232
v 0.000000 -1.275175 -0.494983
v -0.102046 -1.275175 -0.611527
v -0.201308 -1.275175 -0.586390
v -0.295079 -1.275175 -0.545259
v -0.380801 -1.275175 -0.489253
v -0.456136 -1.275175 -0.419903
v -0.519029 -1.275175 -0.339098
v -0.567764 -1.275175 -0.249044
v -0.601011 -1.275175 -0.152197
v -0.617865 -1.275175 -0.051198
v -0.617865 -1.275175 0.051198
v -0.601011 -1.275175 0.152197
v -0.567764 -1.275175 0.249044
v -0.519029 -1.275175 0.339098
v -0.456136 -1.275175 0.419903
v -0.380801 -1.275175 0.489253
v -0.295079 -1.275175 0.545259
v -0.201308 -1.275175 0.586390
v -0.102046 -1.275175 0.611527
v 0.000000 -1.275175 0.619983
v 0.102046 -1.275175 0.611527
v 0.201308 -1.275175 0.586390
v 0.295079 -1.275175 0.545259
v 0.380801 -1.275175 0.489253
v 0.456136 -1.275175 0.419903
v 0.519029 -1.275175 0.339098
v 0.567764 -1.275175 0.249044
v 0.601011 -1.275175 0.152197
v 0.617865 -1.275175 0.051198
v 0.617865 -1.275175 -0.051198
v 0.601011 -1.275175 -0.152197
v 0.567764 -1.275175 -0.249044
v 0.519029 -1.275175 -0.339098
v 0.456136 -1.275175 -0.419903
v 0.380801 -1.275175 -0.489253
v 0.295079 -1.275175 -0.545259
v 0.201308 -1.275175 -0.586390
v 0.102046 -1.275175 -0.611527
v 0.000000 -1.275175 -0.619983
vn -0.0000 -0.7071 -0.7071
vn -0.0000 0.7071 -0.7071
vn -0.6124 -0.7071 0.3535
vn -0.6124 0.7071 0.3535
vn 0.6124 -0.7071 0.3535
vn 0.6124 0.7071 0.3535
vn -0.6124 -0.7071 -0.3535
vn -0.6124 0.7071 -0.3535
vn -0.0000 -0.7071 0.7071
vn -0.0000 0.7071 0.7071
vn 0.6124 -0.7071 -0.3535
vn 0.6124 0.7071 -0.3535
vn 0.4056 -0.7071 -0.5792
vn 0.4056 0.7071 -0.5792
vn -0.4255 -0.7071 -0.5647
vn -0.4255 0.7071 -0.5647
vn -0.6686 -0.7071 0.2302
vn -0.6686 0.7071 0.2302
vn 0.0123 -0.7071 0.7070
vn 0.0123 0.7071 0.7070
vn 0.6762 -0.7071 0.2067
vn 0.6762 0.7071 0.2067
vn 0.6725 -0.7071 -0.2185
vn 0.6725 0.7071 -0.2185
vn -0.6725 -0.7071 -0.2185
vn -0.6725 0.7071 -0.2185
vn -0.4156 -0.7071 0.5721
vn -0.4156 0.7071 0.5721
vn 0.4156 -0.7071 0.5721
vn 0.4156 0.7071 0.5721
vn 0.1736 -0.7071 0.6854
vn 0.1736 0.7071 0.6854
vn 0.2840 -0.7071 0.6475
vn 0.2840 0.7071 0.6475
vn 0.3868 -0.7071 0.5920
vn 0.3868 0.7071 0.5920
vn 0.4789 -0.7071 0.5203
vn 0.4789 0.7071 0.5202
vn 0.5580 -0.7071 0.4343
vn 0.5580 0.7071 0.4343
vn 0.6219 -0.7071 0.3365
vn 0.6219 0.7071 0.3365
vn 0.6688 -0.7071 0.2296
vn 0.6688 0.7071 0.2296
vn 0.6974 -0.7071 0.1164
vn 0.6974 0.7071 0.1164
vn 0.7071 -0.7071 -0.0000
vn 0.7071 0.7071 -0.0000
vn 0.6974 -0.7071 -0.1164
vn 0.6974 0.7071 -0.1164
vn 0.6688 -0.7071 -0.2296
vn 0.6688 0.7071 -0.2296
vn 0.6219 -0.7071 -0.3365
vn 0.6219 0.7071 -0.3365
vn 0.5580 -0.7071 -0.4343
vn 0.5580 0.7071 -0.4343
vn 0.4789 -0.7071 -0.5203
vn 0.4789 0.7071 -0.5202
vn 0.3868 -0.7071 -0.5920
vn 0.3868 0.7071 -0.5920
vn 0.2840 -0.7071 -0.6475
vn 0.2840 0.7071 -0.6475
vn 0.1736 -0.7071 -0.6854
vn 0.1736 0.7071 -0.6854
vn 0.0584 -0.7071 -0.7047
vn 0.0584 0.7071 -0.7047
vn -0.0584 -0.7071 -0.7047
vn -0.0584 0.7071 -0.7047
vn -0.1736 -0.7071 -0.6854
vn -0.1736 0.7071 -0.6854
vn -0.2840 -0.7071 -0.6475
vn -0.2840 0.7071 -0.6475
vn -0.3868 -0.7071 -0.5920
vn -0.3868 0.7071 -0.5920
vn -0.4789 -0.7071 -0.5203
vn -0.4789 0.7071 -0.5202
vn -0.5580 -0.7071 -0.4343
vn -0.5580 0.7071 -0.4343
vn -0.6219 -0.7071 -0.3365
vn -0.6219 0.7071 -0.3365
vn -0.6688 -0.7071 -0.2296
vn -0.6688 0.7071 -0.2296
vn -0.6974 -0.7071 -0.1164
vn -0.6974 0.7071 -0.1164
vn -0.7071 -0.7071 -0.0000
vn -0.7071 0.7071 -0.0000
vn -0.6974 -0.7071 0.1164
vn -0.6974 0.7071 0.1164
vn -0.6688 -0.7071 0.2296
vn -0.6688 0.7071 0.2296
vn -0.6219 -0.7071 0.3365
vn -0.6219 0.7071 0.3365
vn -0.5580 -0.7071 0.4343
vn -0.5580 0.7071 0.4343
vn -0.4789 -0.7071 0.5203
vn -0.4789 0.7071 0.5202
vn -0.3868 -0.7071 0.5920
vn -0.3868 0.7071 0.5920
vn -0.2840 -0.7071 0.6475
vn -0.2840 0.7071 0.6475
vn -0.1736 -0.7071 0.6854
vn -0.1736 0.7071 0.6854
vn -0.0584 -0.7071 0.7047
vn -0.0584 0.7071 0.7047
vn 0.0584 -0.7071 0.7047
vn 0.0584 0.7071 0.7047
vn 0.3867 -0.7071 0.5919
vn 0.3867 0.7071 0.5919
vn 0.4789 -0.7071 0.5202
vn 0.6975 -0.7071 0.1164
vn 0.6975 0.7071 0.1164
vn 0.6975 -0.7071 -0.1164
vn 0.6975 0.7071 -0.1164
vn 0.4789 -0.7071 -0.5202
vn 0.3867 -0.7071 -0.5919
vn 0.3867 0.7071 -0.5919
vn -0.3867 -0.7071 -0.5919
vn -0.3867 0.7071 -0.5919
vn -0.4789 -0.7071 -0.5202
vn -0.6975 -0.7071 -0.1164
vn -0.6975 0.7071 -0.1164
vn -0.6975 -0.7071 0.1164
vn -0.6975 0.7071 0.1164
vn -0.4789 -0.7071 0.5202
vn -0.3867 -0.7071 0.5919
vn -0.3867 0.7071 0.5919
vt 0.000000 0.000000
s 0
usemtl Material.010
f 185/1/1 186/1/1 5/1/1 3/1/1
f 186/1/2 185/1/2 4/1/2 6/1/2
f 186/1/3 187/1/3 1/1/3 5/1/3
f 187/1/4 186/1/4 6/1/4 2/1/4
f 187/1/5 185/1/5 3/1/5 1/1/5
f 185/1/6 187/1/6 2/1/6 4/1/6
usemtl Material.011
f 188/1/7 189/1/7 11/1/7 9/1/7
f 189/1/8 188/1/8 10/1/8 12/1/8
f 189/1/9 190/1/9 7/1/9 11/1/9
f 190/1/10 189/1/10 12/1/10 8/1/10
f 190/1/11 188/1/11 9/1/11 7/1/11
f 188/1/12 190/1/12 8/1/12 10/1/12
f 191/1/13 192/1/13 17/1/13 15/1/13
f 192/1/14 191/1/14 16/1/14 18/1/14
f 192/1/15 193/1/15 19/1/15 17/1/15
f 193/1/16 192/1/16 18/1/16 20/1/16
f 193/1/17 194/1/17 21/1/17 19/1/17
f 194/1/18 193/1/18 20/1/18 22/1/18
f 194/1/19 195/1/19 13/1/19 21/1/19
f 195/1/20 194/1/20 22/1/20 14/1/20
f 195/1/21 191/1/21 15/1/21 13/1/21
f 191/1/22 195/1/22 14/1/22 16/1/22
f 196/1/23 197/1/23 27/1/23 25/1/23
f 197/1/24 196/1/24 26/1/24 28/1/24
f 197/1/1 198/1/1 29/1/1 27/1/1
f 198/1/2 197/1/2 28/1/2 30/1/2
f 198/1/25 199/1/25 31/1/25 29/1/25
f 199/1/26 198/1/26 30/1/26 32/1/26
f 199/1/27 200/1/27 23/1/27 31/1/27
f 200/1/28 199/1/28 32/1/28 24/1/28
f 200/1/29 196/1/29 25/1/29 23/1/29
f 196/1/30 200/1/30 24/1/30 26/1/30
usemtl Material.012
f 201/1/31 202/1/31 37/1/31 35/1/31
f 202/1/32 201/1/32 36/1/32 38/1/32
f 202/1/33 203/1/33 39/1/33 37/1/33
f 203/1/34 202/1/34 38/1/34 40/1/34
f 203/1/35 204/1/35 41/1/35 39/1/35
f 204/1/36 203/1/36 40/1/36 42/1/36
f 204/1/37 205/1/37 43/1/37 41/1/37
f 205/1/38 204/1/38 42/1/38 44/1/38
f 205/1/39 206/1/39 45/1/39 43/1/39
f 206/1/40 205/1/40 44/1/40 46/1/40
f 206/1/41 207/1/41 47/1/41 45/1/41
f 207/1/42 206/1/42 46/1/42 48/1/42
f 207/1/43 208/1/43 49/1/43 47/1/43
f 208/1/44 207/1/44 48/1/44 50/1/44
f 208/1/45 209/1/45 51/1/45 49/1/45
f 209/1/46 208/1/46 50/1/46 52/1/46
f 209/1/47 210/1/47 53/1/47 51/1/47
f 210/1/48 209/1/48 52/1/48 54/1/48
f 210/1/49 211/1/49 55/1/49 53/1/49
f 211/1/50 210/1/50 54/1/50 56/1/50
f 211/1/51 212/1/51 57/1/51 55/1/51
f 212/1/52 211/1/52 56/1/52 58/1/52
f 212/1/53 213/1/53 59/1/53 57/1/53
f 213/1/54 212/1/54 58/1/54 60/1/54
f 213/1/55 214/1/55 61/1/55 59/1/55
f 214/1/56 213/1/56 60/1/56 62/1/56
f 214/1/57 215/1/57 63/1/57 61/1/57
f 215/1/58 214/1/58 62/1/58 64/1/58
f 215/1/59 216/1/59 65/1/59 63/1/59
f 216/1/60 215/1/60 64/1/60 66/1/60
f 216/1/61 217/1/61 67/1/61 65/1/61
f 217/1/62 216/1/62 66/1/62 68/1/62
f 217/1/63 218/1/63 69/1/63 67/1/63
f 218/1/64 217/1/64 68/1/64 70/1/64
f 218/1/65 219/1/65 71/1/65 69/1/65
f 219/1/66 218/1/66 70/1/66 72/1/66
f 219/1/67 220/1/67 73/1/67 71/1/67
f 220/1/68 219/1/68 72/1/68 74/1/68
f 220/1/69 221/1/69 75/1/69 73/1/69
f 221/1/70 220/1/70 74/1/70 76/1/70
f 221/1/71 222/1/71 77/1/71 75/1/71
f 222/1/72 221/1/72 76/1/72 78/1/72
f 222/1/73 223/1/73 79/1/73 77/1/73
f 223/1/74 222/1/74 78/1/74 80/1/74
f 223/1/75 224/1/75 81/1/75 79/1/75
f 224/1/76 223/1/76 80/1/76 82/1/76
f 224/1/77 225/1/77 83/1/77 81/1/77
f 225/1/78 224/1/78 82/1/78 84/1/78
f 225/1/79 226/1/79 85/1/79 83/1/79
f 226/1/80 225/1/80 84/1/80 86/1/80
f 226/1/81 227/1/81 87/1/81 85/1/81
f 227/1/82 226/1/82 86/1/82 88/1/82
f 227/1/83 228/1/83 89/1/83 87/1/83
f 228/1/84 227/1/84 88/1/84 90/1/84
f 228/1/85 229/1/85 91/1/85 89/1/85
f 229/1/86 228/1/86 90/1/86 92/1/86
f 229/1/87 230/1/87 93/1/87 91/1/87
f 230/1/88 229/1/88 92/1/88 94/1/88
f 230/1/89 231/1/89 95/1/89 93/1/89
f 231/1/90 230/1/90 94/1/90 96/1/90
f 231/1/91 232/1/91 97/1/91 95/1/91
f 232/1/92 231/1/92 96/1/92 98/1/92
f 232/1/93 233/1/93 99/1/93 97/1/93
f 233/1/94 232/1/94 98/1/94 100/1/94
f 233/1/95 234/1/95 101/1/95 99/1/95
f 234/1/96 233/1/96 100/1/96 102/1/96
f 234/1/97 235/1/97 103/1/97 101/1/97
f 235/1/98 234/1/98 102/1/98 104/1/98
f 235/1/99 236/1/99 105/1/99 103/1/99
f 236/1/100 235/1/100 104/1/100 106/1/100
f 236/1/101 237/1/101 107/1/101 105/1/101
f 237/1/102 236/1/102 106/1/102 108/1/102
f 237/1/103 238/1/103 33/1/103 107/1/103
f 238/1/104 237/1/104 108/1/104 34/1/104
f 238/1/105 201/1/105 35/1/105 33/1/105
f 201/1/106 238/1/106 34/1/106 36/1/106
f 239/1/31 240/1/31 113/1/31 111/1/31
f 240/1/32 239/1/32 112/1/32 114/1/32
f 240/1/33 241/1/33 115/1/33 113/1/33
f 241/1/34 240/1/34 114/1/34 116/1/34
f 241/1/107 242/1/107 117/1/107 115/1/107
f 242/1/108 241/1/108 116/1/108 118/1/108
f 242/1/109 243/1/109 119/1/109 117/1/109
f 243/1/38 242/1/38 118/1/38 120/1/38
f 243/1/39 244/1/39 121/1/39 119/1/39
f 244/1/40 243/1/40 120/1/40 122/1/40
f 244/1/41 245/1/41 123/1/41 121/1/41
f 245/1/42 244/1/42 122/1/42 124/1/42
f 245/1/43 246/1/43 125/1/43 123/1/43
f 246/1/44 245/1/44 124/1/44 126/1/44
f 246/1/110 247/1/110 127/1/110 125/1/110
f 247/1/111 246/1/111 126/1/111 128/1/111
f 247/1/47 248/1/47 129/1/47 127/1/47
f 248/1/48 247/1/48 128/1/48 130/1/48
f 248/1/112 249/1/112 131/1/112 129/1/112
f 249/1/113 248/1/113 130/1/113 132/1/113
f 249/1/51 250/1/51 133/1/51 131/1/51
f 250/1/52 249/1/52 132/1/52 134/1/52
f 250/1/53 251/1/53 135/1/53 133/1/53
f 251/1/54 250/1/54 134/1/54 136/1/54
f 251/1/55 252/1/55 137/1/55 135/1/55
f 252/1/56 251/1/56 136/1/56 138/1/56
f 252/1/114 253/1/114 139/1/114 137/1/114
f 253/1/58 252/1/58 138/1/58 140/1/58
f 253/1/115 254/1/115 141/1/115 139/1/115
f 254/1/116 253/1/116 140/1/116 142/1/116
f 254/1/61 255/1/61 143/1/61 141/1/61
f 255/1/62 254/1/62 142/1/62 144/1/62
f 255/1/63 256/1/63 145/1/63 143/1/63
f 256/1/64 255/1/64 144/1/64 146/1/64
f 256/1/65 257/1/65 147/1/65 145/1/65
f 257/1/66 256/1/66 146/1/66 148/1/66
f 257/1/67 258/1/67 149/1/67 147/1/67
f 258/1/68 257/1/68 148/1/68 150/1/68
f 258/1/69 259/1/69 151/1/69 149/1/69
f 259/1/70 258/1/70 150/1/70 152/1/70
f 259/1/71 260/1/71 153/1/71 151/1/71
f 260/1/72 259/1/72 152/1/72 154/1/72
f 260/1/117 261/1/117 155/1/117 153/1/117
f 261/1/118 260/1/118 154/1/118 156/1/118
f 261/1/119 262/1/119 157/1/119 155/1/119
f 262/1/76 261/1/76 156/1/76 158/1/76
f 262/1/77 263/1/77 159/1/77 157/1/77
f 263/1/78 262/1/78 158/1/78 160/1/78
f 263/1/79 264/1/79 161/1/79 159/1/79
f 264/1/80 263/1/80 160/1/80 162/1/80
f 264/1/81 265/1/81 163/1/81 161/1/81
f 265/1/82 264/1/82 162/1/82 164/1/82
f 265/1/120 266/1/120 165/1/120 163/1/120
f 266/1/121 265/1/121 164/1/121 166/1/121
f 266/1/85 267/1/85 167/1/85 165/1/85
f 267/1/86 266/1/86 166/1/86 168/1/86
f 267/1/122 268/1/122 169/1/122 167/1/122
f 268/1/123 267/1/123 168/1/123 170/1/123
f 268/1/89 269/1/89 171/1/89 169/1/89
f 269/1/90 268/1/90 170/1/90 172/1/90
f 269/1/91 270/1/91 173/1/91 171/1/91
f 270/1/92 269/1/92 172/1/92 174/1/92
f 270/1/93 271/1/93 175/1/93 173/1/93
f 271/1/94 270/1/94 174/1/94 176/1/94
f 271/1/124 272/1/124 177/1/124 175/1/124
f 272/1/96 271/1/96 176/1/96 178/1/96
f 272/1/125 273/1/125 179/1/125 177/1/125
f 273/1/126 272/1/126 178/1/126 180/1/126
f 273/1/99 274/1/99 181/1/99 179/1/99
f 274/1/100 273/1/100 180/1/100 182/1/100
f 274/1/101 275/1/101 183/1/101 181/1/101
f 275/1/102 274/1/102 182/1/102 184/1/102
f 275/1/103 276/1/103 109/1/103 183/1/103
f 276/1/104 275/1/104 184/1/104 110/1/104
f 276/1/105 239/1/105 111/1/105 109/1/105
f 239/1/106 276/1/106 110/1/106 112/1/106
